<svg width="29" height="29" viewBox="0 0 29 29" fill="none" xmlns="http://www.w3.org/2000/svg">
<rect x="0.400391" y="0.5" width="28" height="28" rx="14" fill="#E9E101"/>
<path d="M8.40302 23.7032C8.29372 23.6232 8.25121 23.5165 8.2755 23.3832L9.20455 17.5032L5.30618 13.3232C5.20903 13.2299 5.17867 13.1165 5.2151 12.9832C5.25153 12.8499 5.33654 12.7765 5.47013 12.7632L10.8623 11.9032L11.3906 10.7032L8.14799 11.2232L7.67435 10.7232C7.5772 10.6299 7.54684 10.5165 7.58327 10.3832C7.6197 10.2499 7.70471 10.1765 7.8383 10.1632L11.9371 9.50318L13.2669 6.54318C13.3155 6.42318 13.4035 6.36318 13.531 6.36318C13.6585 6.36318 13.7466 6.42318 13.7952 6.54318L16.1998 11.9032L21.5919 12.7632C21.7255 12.7765 21.8105 12.8499 21.8469 12.9832C21.8834 13.1165 21.853 13.2299 21.7559 13.3232L20.2439 14.9432L21.1547 20.7832C21.1668 20.9165 21.1243 21.0165 21.0272 21.0832C20.9786 21.1232 20.927 21.1465 20.8723 21.1532C20.8177 21.1599 20.7661 21.1499 20.7175 21.1232L19.7338 20.5432L19.0598 16.2232L17.8575 17.5032L18.7683 23.3832C18.7926 23.5165 18.7562 23.6199 18.659 23.6932C18.5619 23.7665 18.4586 23.7765 18.3493 23.7232L13.5219 20.9432L8.7127 23.7232C8.66413 23.7499 8.61251 23.7632 8.55786 23.7632C8.50321 23.7632 8.4516 23.7432 8.40302 23.7032ZM23.0128 11.9232C23.0614 11.8165 23.0583 11.7165 23.0037 11.6232C22.949 11.5299 22.8731 11.4765 22.776 11.4632L17.4021 10.6032L15.0157 5.32318L15.635 3.94318C15.6836 3.82318 15.7717 3.76318 15.8992 3.76318C16.0267 3.76318 16.1147 3.82318 16.1633 3.94318L18.5861 9.30318L23.9601 10.1632C24.0937 10.1765 24.1787 10.2499 24.2151 10.3832C24.2515 10.5165 24.2212 10.6299 24.124 10.7232L23.0128 11.9232Z" fill="#1A3150"/>
</svg>
