<svg width="163" height="29" viewBox="0 0 163 29" fill="none" xmlns="http://www.w3.org/2000/svg">
<path d="M27.5557 9.45093C27.3987 10.4131 28.0267 11.2178 29.0281 11.2178C30.0293 11.2178 30.9324 10.4128 31.0896 9.45093C31.2466 8.48904 30.5596 7.68408 29.5977 7.68408C28.6358 7.68408 27.7131 8.50878 27.5559 9.45093H27.5557ZM28.5963 21.8976L30.3239 12.0817H27.379L25.6514 21.8976H28.5963Z" fill="white"/>
<path d="M39.4533 13.1617C38.8643 12.2585 37.9416 11.8069 36.6851 11.8069C35.2324 11.8069 34.0151 12.2977 33.0139 13.2794C32.0323 14.2413 31.4238 15.3996 31.1686 16.7541C30.8937 18.1873 31.0901 19.4439 31.7771 20.5432C32.4641 21.6231 33.544 22.1726 35.0557 22.1726C36.2925 22.1726 37.2741 21.8387 38.0398 21.191L37.9221 21.8977H40.867L43.2816 8.15527H40.3367L39.4533 13.1614V13.1617ZM36.0373 19.3851C34.6436 19.3851 33.8581 18.423 34.1135 16.99C34.3687 15.5568 35.4878 14.5949 36.8817 14.5949C38.2168 14.5949 38.9825 15.4783 38.8058 16.8918L38.7666 17.0882C38.4722 18.482 37.3728 19.3851 36.0376 19.3851H36.0373Z" fill="white"/>
<path d="M55.6882 11.8071C54.4907 11.8071 53.4698 12.2587 52.6648 13.1421C52.233 12.2587 51.428 11.8071 50.2697 11.8071C49.1311 11.8071 48.228 12.1997 47.5407 12.9655L47.6979 12.082H44.753L43.0254 21.8979H45.9703L46.9714 16.185C47.2268 15.0659 47.8351 14.5161 48.7973 14.5161C49.7199 14.5161 50.093 15.1247 49.9164 16.126L48.915 21.8979H51.8599L52.861 16.2243C53.1164 15.0857 53.7249 14.5164 54.6868 14.5164C55.6095 14.5164 55.9826 15.1249 55.8059 16.1263L54.8046 21.8982H57.7495L58.8096 15.8711C59.0255 14.6736 58.8293 13.6919 58.2598 12.946C57.6905 12.1802 56.8266 11.8071 55.688 11.8071H55.6882Z" fill="white"/>
<path d="M68.3908 13.1224C67.7823 12.239 66.8791 11.8071 65.6424 11.8071C64.1896 11.8071 62.9723 12.2979 61.9712 13.2796C60.9896 14.2415 60.381 15.3998 60.1256 16.7543C59.8507 18.1875 60.0472 19.4441 60.7342 20.5434C61.4214 21.6233 62.501 22.1728 64.0127 22.1728C65.23 22.1728 66.2114 21.8587 66.9576 21.2304L66.8399 21.8979H69.7848L71.5124 12.082H68.5678L68.3911 13.1224H68.3908ZM67.7038 17.0095C67.4487 18.4427 66.3101 19.3851 64.9554 19.3851C63.6006 19.3851 62.8154 18.4624 63.0706 16.99C63.326 15.5175 64.4448 14.5949 65.7995 14.5949C67.1543 14.5949 67.959 15.5175 67.7038 16.99V17.0097V17.0095Z" fill="white"/>
<path d="M79.3456 11.8071C78.148 11.8071 77.1862 12.1997 76.4597 13.0047L76.6169 12.082H73.6719L71.9443 21.8979H74.8892L75.8514 16.4204C76.1065 15.1444 76.9507 14.5161 77.9913 14.5161C79.0122 14.5161 79.6207 15.1052 79.4048 16.3027L78.4232 21.8979H81.3681L82.4282 15.8709C82.6441 14.6143 82.448 13.633 81.8392 12.9065C81.2307 12.18 80.406 11.8071 79.3459 11.8071H79.3456Z" fill="white"/>
<path d="M87.1593 22.1728C89.3778 22.1728 91.0466 21.2304 91.4195 19.2476C91.8513 16.9115 90.1042 16.2243 88.7495 15.9691C87.8071 15.7334 87.0611 15.498 87.1593 14.968C87.2378 14.5556 87.5717 14.3594 88.1605 14.3594C88.769 14.3594 89.2011 14.6538 89.4365 15.2231L92.0868 13.9079C91.4585 12.5926 90.0647 11.8071 88.3371 11.8071C86.5898 11.8071 84.5873 12.6906 84.2144 14.7715C83.7826 16.99 85.5102 17.7557 86.8647 18.0893C87.8071 18.3445 88.5726 18.6194 88.4941 19.0317C88.4351 19.3656 88.0817 19.5423 87.4142 19.5423C86.5308 19.5423 85.9615 19.1694 85.6669 18.4232L83.0166 19.7582C83.7431 21.3681 85.1368 22.1728 87.1591 22.1728H87.1593Z" fill="white"/>
<path d="M98.9187 14.9085L99.429 12.0815H97.3873L97.8781 9.33301L94.7762 10.2164L94.4423 12.0815H92.8914L92.3809 14.9085H93.9515L93.343 18.3834C92.8522 21.1517 94.1872 22.2902 97.7014 21.8976L98.1725 19.2276C96.7 19.3258 96.1307 19.1884 96.2879 18.3834L96.8964 14.9085H98.9184H98.9187Z" fill="white"/>
<path d="M107.851 13.1224C107.242 12.239 106.339 11.8071 105.102 11.8071C103.65 11.8071 102.432 12.2979 101.431 13.2796C100.45 14.2415 99.841 15.3998 99.5856 16.7543C99.3107 18.1875 99.5071 19.4441 100.194 20.5434C100.881 21.6233 101.961 22.1728 103.473 22.1728C104.69 22.1728 105.671 21.8587 106.418 21.2304L106.3 21.8979H109.245L110.972 12.082H108.027L107.851 13.1224ZM107.164 17.0095C106.909 18.4427 105.77 19.3851 104.415 19.3851C103.061 19.3851 102.275 18.4624 102.531 16.99C102.786 15.5175 103.905 14.5949 105.26 14.5949C106.614 14.5949 107.419 15.5175 107.164 16.99V17.0097V17.0095Z" fill="white"/>
<path d="M118.393 14.9085L118.904 12.0815H116.862L117.353 9.33301L114.251 10.2164L113.917 12.0815H112.366L111.855 14.9085H113.426L112.817 18.3834C112.327 21.1517 113.662 22.2902 117.176 21.8976L117.647 19.2276C116.174 19.3258 115.605 19.1884 115.762 18.3834L116.371 14.9085H118.393H118.393Z" fill="white"/>
<path d="M120.651 22.1725C121.77 22.1725 122.674 21.3873 122.85 20.3467C123.027 19.3258 122.34 18.4424 121.319 18.4424C120.239 18.4424 119.316 19.2276 119.14 20.2682C118.963 21.2891 119.63 22.1725 120.651 22.1725Z" fill="#FFF212"/>
<path d="M128.74 22.1726C130.624 22.1726 132.372 21.3284 133.373 19.6792L130.997 18.1675C130.467 18.894 129.8 19.2669 128.956 19.2669C127.68 19.2669 126.875 18.2853 127.11 16.9502C127.346 15.6152 128.445 14.7121 129.761 14.7121C130.624 14.7121 131.213 15.0654 131.508 15.7722L134.198 14.3587C133.55 12.8078 132.058 11.8066 130.016 11.8066C128.543 11.8066 127.248 12.2777 126.148 13.2201C125.049 14.1625 124.382 15.3598 124.166 16.7931C123.93 18.3047 124.244 19.581 125.108 20.6214C125.972 21.662 127.189 22.1723 128.74 22.1723L128.74 22.1726Z" fill="white"/>
<path d="M138.929 22.1726C140.362 22.1726 141.618 21.7015 142.698 20.7393C143.778 19.7775 144.445 18.6191 144.681 17.3036C144.936 15.9096 144.661 14.6336 143.856 13.5148C143.051 12.3762 141.874 11.8066 140.303 11.8066C138.752 11.8066 137.437 12.2777 136.396 13.2006C135.356 14.1233 134.688 15.2424 134.413 16.5969C134.04 18.4227 134.531 20.1701 136.043 21.3281C136.808 21.8974 137.77 22.1723 138.929 22.1723L138.929 22.1726ZM141.756 16.9897C141.52 18.3837 140.401 19.3064 139.125 19.3064C137.849 19.3064 137.122 18.3837 137.358 16.9897C137.613 15.5957 138.673 14.6731 139.95 14.6731C141.226 14.6731 142.011 15.5957 141.756 16.9897Z" fill="white"/>
<path d="M158.993 11.8071C157.795 11.8071 156.774 12.2587 155.97 13.1421C155.538 12.2587 154.733 11.8071 153.574 11.8071C152.436 11.8071 151.533 12.1997 150.846 12.9655L151.003 12.082H148.058L146.33 21.8979H149.275L150.276 16.185C150.531 15.0659 151.14 14.5161 152.102 14.5161C153.025 14.5161 153.398 15.1247 153.221 16.126L152.22 21.8979H155.165L156.166 16.2243C156.421 15.0857 157.029 14.5164 157.992 14.5164C158.914 14.5164 159.287 15.1249 159.111 16.1263L158.109 21.8982H161.054L162.115 15.8711C162.33 14.6736 162.134 13.6919 161.565 12.946C160.995 12.1802 160.131 11.8071 158.993 11.8071Z" fill="white"/>
<path fill-rule="evenodd" clip-rule="evenodd" d="M14.0592 6.70182L10.1834 28.0474L6.18359 27.3209L10.0593 5.97559L14.0592 6.70182Z" fill="white"/>
<path fill-rule="evenodd" clip-rule="evenodd" d="M2.50129 9.74512L6.50114 10.4714L4.20004 23.1453L0.200195 22.4191L2.50129 9.74512Z" fill="white"/>
<path fill-rule="evenodd" clip-rule="evenodd" d="M16.0964 9.42627L20.0965 10.1525L17.8492 22.5286L13.8496 21.8024L16.0964 9.42627Z" fill="white"/>
<path fill-rule="evenodd" clip-rule="evenodd" d="M11.1434 0L15.1432 0.726234L14.4049 4.79221L10.4053 4.06573L11.1434 0Z" fill="#FFF212"/>
</svg>
