<svg width="29" height="29" viewBox="0 0 29 29" fill="none" xmlns="http://www.w3.org/2000/svg">
<rect x="0.400391" y="0.5" width="28" height="28" rx="14" fill="#E9E101"/>
<path d="M21.5262 23.712L17.2242 19.41C17.0442 19.23 16.9482 19.008 16.9362 18.744C16.3002 19.272 15.5892 19.674 14.8032 19.95C14.0172 20.226 13.2102 20.364 12.3822 20.364C11.0862 20.364 9.8802 20.034 8.7642 19.374C7.6842 18.738 6.8262 17.88 6.1902 16.8C5.5302 15.684 5.2002 14.478 5.2002 13.182C5.2002 11.886 5.5302 10.68 6.1902 9.564C6.8262 8.484 7.6842 7.626 8.7642 6.99C9.8802 6.33 11.0862 6 12.3822 6C13.6782 6 14.8902 6.324 16.0182 6.972C17.0982 7.608 17.9562 8.472 18.5922 9.564C19.2522 10.68 19.5822 11.886 19.5822 13.182C19.5822 14.01 19.4412 14.817 19.1592 15.603C18.8772 16.389 18.4722 17.1 17.9442 17.736C18.2082 17.748 18.4302 17.844 18.6102 18.024L22.9122 22.326C23.1042 22.518 23.2002 22.749 23.2002 23.019C23.2002 23.289 23.1042 23.52 22.9122 23.712C22.7202 23.904 22.4892 24 22.2192 24C21.9492 24 21.7182 23.904 21.5262 23.712ZM7.1622 13.182C7.1622 14.13 7.4022 15.006 7.8822 15.81C8.3382 16.602 8.9622 17.226 9.7542 17.682C10.5582 18.162 11.4342 18.402 12.3822 18.402C13.3302 18.402 14.2122 18.162 15.0282 17.682C15.8082 17.226 16.4322 16.602 16.9002 15.81C17.3802 15.006 17.6202 14.13 17.6202 13.182C17.6202 12.234 17.3802 11.358 16.9002 10.554C16.4322 9.762 15.8082 9.138 15.0282 8.682C14.2122 8.202 13.3302 7.962 12.3822 7.962C11.4342 7.962 10.5582 8.202 9.7542 8.682C8.9622 9.138 8.3382 9.762 7.8822 10.554C7.4022 11.358 7.1622 12.234 7.1622 13.182Z" fill="#1A3150"/>
</svg>
