<svg width="41" height="41" viewBox="0 0 41 41" fill="none" xmlns="http://www.w3.org/2000/svg">
<path d="M20.4154 40.4102C31.4611 40.4102 40.4154 31.4559 40.4154 20.4102C40.4154 9.36446 31.4611 0.410156 20.4154 0.410156C9.36971 0.410156 0.415405 9.36446 0.415405 20.4102C0.415405 31.4559 9.36971 40.4102 20.4154 40.4102Z" fill="#5000B9"/>
<path d="M31.8733 16.5009C31.4689 16.3184 31.0302 16.2242 30.5865 16.2246C30.1429 16.225 29.7043 16.3199 29.3002 16.503C28.8961 16.6861 28.5357 16.9533 28.2429 17.2867C27.9501 17.62 27.7317 18.012 27.6023 18.4363C26.6475 20.8363 27.4733 25.0428 27.1507 25.0428C26.8281 25.0428 25.8604 21.1718 24.441 17.1331C23.0217 13.0944 21.8604 8.92667 19.7443 9.26216C17.8604 9.55893 18.4539 14.3331 19.1894 18.7976C19.8604 22.8105 20.6346 26.6815 20.1959 26.6815C19.3959 26.6815 16.7894 15.4815 14.1185 15.9073C11.4475 16.3331 14.8927 28.6815 14.1185 28.7073C13.3443 28.7331 12.1185 21.146 9.96362 21.5202C8.32491 21.7912 9.78297 27.6493 9.84749 29.2622C9.84749 29.6751 9.98943 30.4493 9.38297 30.4493H8.09265V31.5847H10.1572C10.3489 31.5915 10.5382 31.5395 10.6996 31.4357C10.861 31.332 10.9869 31.1814 11.0604 31.0041C11.6152 29.6364 10.1572 23.8299 10.4927 23.7783C11.1425 24.9523 11.637 26.2058 11.9636 27.5073C12.6733 29.5073 13.383 31.5847 14.7249 31.5847C17.6152 31.5847 14.7249 20.2428 15.241 20.2428C15.5378 20.2428 16.3636 22.5525 17.2797 25.0815C18.3894 28.1654 19.7443 31.5331 21.383 31.5331C23.3314 31.5331 22.6733 27.1073 22.0927 22.8751C21.5636 19.2105 20.9572 15.7654 21.2797 15.7654C22.0152 15.7654 24.8023 31.5331 28.1443 31.5331C29.8217 31.5331 29.8346 28.2299 29.8346 24.6815C29.8346 22.1912 29.6281 19.9073 31.2023 19.3654C31.7072 19.2291 32.2455 19.2987 32.6991 19.5589L31.8733 16.5009Z" fill="#E7F423"/>
</svg>
