<svg width="49" height="41" viewBox="0 0 49 41" fill="none" xmlns="http://www.w3.org/2000/svg">
<g clip-path="url(#clip0_139_5102)">
<g clip-path="url(#clip1_139_5102)">
<g clip-path="url(#clip2_139_5102)">
<path d="M24.4154 40.4102C35.4611 40.4102 44.4154 31.4559 44.4154 20.4102C44.4154 9.36446 35.4611 0.410156 24.4154 0.410156C13.3697 0.410156 4.41541 9.36446 4.41541 20.4102C4.41541 31.4559 13.3697 40.4102 24.4154 40.4102Z" fill="#3B5998"/>
<path d="M29.4124 21.2002H25.8634V34.2102H20.4834V21.2002H17.9244V16.6282H20.4834V13.6692C20.4834 11.5532 21.4884 8.24023 25.9114 8.24023L29.8974 8.25723V12.6952H27.0054C26.8444 12.6878 26.6838 12.7158 26.5348 12.7773C26.3858 12.8388 26.2522 12.9323 26.1433 13.0512C26.0344 13.17 25.953 13.3114 25.9049 13.4652C25.8567 13.619 25.8429 13.7815 25.8644 13.9412V16.6322H29.8854L29.4124 21.2002Z" fill="white"/>
</g>
</g>
</g>
<defs>
<clipPath id="clip0_139_5102">
<rect width="40" height="40" fill="white" transform="translate(4.41541 0.410156)"/>
</clipPath>
<clipPath id="clip1_139_5102">
<rect width="40" height="40" fill="white" transform="translate(4.41541 0.410156)"/>
</clipPath>
<clipPath id="clip2_139_5102">
<rect width="40" height="40" fill="white" transform="translate(4.41541 0.410156)"/>
</clipPath>
</defs>
</svg>
