<svg width="41" height="41" viewBox="0 0 41 41" fill="none" xmlns="http://www.w3.org/2000/svg">
<path d="M20.4154 40.4102C31.4611 40.4102 40.4154 31.4559 40.4154 20.4102C40.4154 9.36446 31.4611 0.410156 20.4154 0.410156C9.36971 0.410156 0.415405 9.36446 0.415405 20.4102C0.415405 31.4559 9.36971 40.4102 20.4154 40.4102Z" fill="url(#paint0_linear_139_5121)"/>
<path d="M20.4654 5.84259C14.4784 5.84259 8.7894 5.31359 6.6144 10.8856C5.7144 13.1856 5.84541 16.1766 5.84541 20.4596C5.84541 24.2126 5.7214 27.7436 6.6144 30.0336C8.7804 35.6146 14.5144 35.0766 20.4564 35.0766C26.1954 35.0766 32.1074 35.6766 34.2984 30.0336C35.1984 27.7106 35.0674 24.7676 35.0674 20.4596C35.0674 14.7466 35.3814 11.0676 32.6114 8.29759C29.8164 5.49759 26.0214 5.84259 20.4644 5.84259H20.4654ZM19.1584 8.47959C31.6534 8.46259 33.2404 7.07459 32.3644 26.3626C32.0504 33.1836 26.8574 32.4396 20.4734 32.4396C8.8304 32.4396 8.4914 32.1086 8.4914 20.4596C8.4914 8.66959 9.4094 8.48859 19.1584 8.47959ZM28.2584 10.9016C27.9117 10.9016 27.5728 11.0044 27.2845 11.197C26.9962 11.3896 26.7715 11.6634 26.6388 11.9837C26.5062 12.3041 26.4714 12.6565 26.5391 12.9966C26.6067 13.3366 26.7737 13.649 27.0188 13.8941C27.264 14.1393 27.5764 14.3063 27.9164 14.3739C28.2565 14.4415 28.6089 14.4068 28.9293 14.2742C29.2496 14.1415 29.5234 13.9168 29.716 13.6285C29.9086 13.3402 30.0114 13.0013 30.0114 12.6546C30.0109 12.1908 29.8267 11.7461 29.4991 11.4177C29.1715 11.0894 28.7272 10.9042 28.2634 10.9026L28.2584 10.9016ZM20.4584 12.9516C18.9734 12.9502 17.5213 13.3893 16.2858 14.2133C15.0504 15.0374 14.0871 16.2093 13.5179 17.5809C12.9486 18.9525 12.7989 20.4622 13.0878 21.9188C13.3767 23.3755 14.0911 24.7138 15.1407 25.7644C16.1903 26.8149 17.5279 27.5306 18.9843 27.8208C20.4407 28.1111 21.9505 27.9628 23.3226 27.3948C24.6947 26.8268 25.8676 25.8647 26.6928 24.63C27.5179 23.3953 27.9584 21.9436 27.9584 20.4586C27.9584 18.4688 27.1685 16.5604 25.7621 15.1528C24.3558 13.7452 22.4482 12.9534 20.4584 12.9516ZM20.4584 15.5886C26.9004 15.5886 26.9084 25.3276 20.4584 25.3276C14.0084 25.3276 14.0154 15.5946 20.4654 15.5946L20.4584 15.5886Z" fill="white"/>
<defs>
<linearGradient id="paint0_linear_139_5121" x1="6.77541" y1="5.77016" x2="34.0554" y2="35.0502" gradientUnits="userSpaceOnUse">
<stop stop-color="#FFDD55"/>
<stop offset="0.5" stop-color="#FF543E"/>
<stop offset="1" stop-color="#C837AB"/>
</linearGradient>
</defs>
</svg>
