<svg width="41" height="41" viewBox="0 0 41 41" fill="none" xmlns="http://www.w3.org/2000/svg">
<path d="M20.4154 0.410156C24.371 0.410156 28.2378 1.58314 31.5268 3.78076C34.8158 5.97839 37.3792 9.10197 38.893 12.7565C40.4067 16.411 40.8028 20.4323 40.0311 24.312C39.2594 28.1916 37.3546 31.7552 34.5575 34.5523C31.7605 37.3493 28.1968 39.2542 24.3172 40.0259C20.4376 40.7976 16.4163 40.4015 12.7617 38.8877C9.10721 37.374 5.98364 34.8105 3.78601 31.5216C1.58838 28.2326 0.415405 24.3658 0.415405 20.4102C0.415405 15.1058 2.52254 10.0187 6.27327 6.26802C10.024 2.51729 15.1111 0.410156 20.4154 0.410156Z" fill="#1DD860"/>
<path d="M28.5352 29.8357C28.2249 29.8279 27.9242 29.7269 27.6722 29.5457C22.6402 26.5127 16.7852 26.3857 11.0022 27.5707C10.6896 27.6712 10.3682 27.7415 10.0422 27.7807C9.87406 27.7833 9.70712 27.752 9.55127 27.6889C9.39542 27.6257 9.25384 27.5319 9.13494 27.413C9.01603 27.2941 8.92221 27.1525 8.85904 26.9966C8.79587 26.8408 8.76464 26.6738 8.76721 26.5057C8.7444 26.1824 8.84535 25.8626 9.04961 25.611C9.25386 25.3594 9.54614 25.1948 9.86721 25.1507C16.4722 23.6927 23.2222 23.8207 28.9792 27.2637C29.2279 27.3815 29.4352 27.5718 29.5738 27.8095C29.7125 28.0472 29.7761 28.3212 29.7562 28.5957C29.7589 28.7577 29.7292 28.9186 29.6691 29.069C29.6089 29.2194 29.5193 29.3563 29.4057 29.4717C29.292 29.5871 29.1565 29.6788 29.0071 29.7412C28.8576 29.8037 28.6972 29.8359 28.5352 29.8357Z" fill="white"/>
<path d="M30.707 24.5482C30.3518 24.5258 30.009 24.4092 29.714 24.2102C23.8415 20.9794 16.9522 20.1284 10.47 21.8332C10.1622 21.9505 9.83868 22.0213 9.51002 22.0432C9.09556 22.0429 8.69816 21.8781 8.4051 21.5851C8.11204 21.292 7.94728 20.8946 7.94702 20.4802C7.91895 20.0981 8.03004 19.7187 8.25979 19.4122C8.48953 19.1056 8.82242 18.8925 9.19702 18.8122C11.7575 18.0589 14.4152 17.6882 17.084 17.7122C22.0834 17.6498 27.0096 18.9163 31.359 21.3822C31.6482 21.5304 31.8882 21.7593 32.0501 22.0412C32.2119 22.323 32.2887 22.6456 32.271 22.9702C32.2722 23.1762 32.2326 23.3804 32.1546 23.5711C32.0766 23.7617 31.9617 23.9351 31.8164 24.0812C31.6712 24.2273 31.4985 24.3432 31.3082 24.4223C31.118 24.5014 30.914 24.5422 30.708 24.5422L30.707 24.5482Z" fill="white"/>
<path d="M7.9952 12.0728C11.0802 11.2172 14.2711 10.8048 17.4722 10.8478C23.3592 10.8478 29.5292 12.0728 34.0372 14.7028C34.371 14.87 34.6478 15.1322 34.8329 15.4564C35.0179 15.7806 35.1029 16.1523 35.0772 16.5248C35.0785 16.7711 35.0311 17.0152 34.9377 17.2432C34.8443 17.4711 34.7067 17.6783 34.5329 17.8528C34.3591 18.0274 34.1525 18.1658 33.925 18.2602C33.6975 18.3546 33.4535 18.403 33.2072 18.4028C32.8362 18.4043 32.4732 18.2946 32.1652 18.0878C26.4252 14.6608 16.1572 13.8398 9.5132 15.6948C9.17704 15.8115 8.82643 15.8815 8.4712 15.9028C8.22207 15.9051 7.975 15.8574 7.74466 15.7624C7.51431 15.6675 7.30537 15.5273 7.13023 15.3501C6.95508 15.1729 6.8173 14.9623 6.72506 14.7309C6.63281 14.4995 6.58797 14.2519 6.5932 14.0028C6.57331 13.5706 6.7011 13.1446 6.95555 12.7947C7.20999 12.4448 7.57595 12.192 7.9932 12.0778L7.9952 12.0728Z" fill="white"/>
</svg>
