<svg width="41" height="41" viewBox="0 0 41 41" fill="none" xmlns="http://www.w3.org/2000/svg">
<path d="M20.4154 40.4102C31.4611 40.4102 40.4154 31.4559 40.4154 20.4102C40.4154 9.36446 31.4611 0.410156 20.4154 0.410156C9.36971 0.410156 0.415405 9.36446 0.415405 20.4102C0.415405 31.4559 9.36971 40.4102 20.4154 40.4102Z" fill="#039BE5"/>
<path d="M9.56702 19.9772L28.8504 12.5422C29.7454 12.2188 30.527 12.7605 30.237 14.1138L30.2387 14.1122L26.9554 29.5805C26.712 30.6772 26.0604 30.9438 25.1487 30.4272L20.1487 26.7422L17.737 29.0655C17.4704 29.3322 17.2454 29.5572 16.7287 29.5572L17.0837 24.4688L26.3504 16.0972C26.7537 15.7422 26.2604 15.5422 25.7287 15.8955L14.277 23.1055L9.34035 21.5655C8.26869 21.2255 8.24535 20.4938 9.56702 19.9772Z" fill="white"/>
</svg>
