<svg width="41" height="41" viewBox="0 0 41 41" fill="none" xmlns="http://www.w3.org/2000/svg">
<path d="M22.9154 9.16016H17.9154C11.357 9.16016 6.04041 14.4768 6.04041 21.0352C6.04041 27.5935 11.357 32.9102 17.9154 32.9102H22.9154C29.4738 32.9102 34.7904 27.5935 34.7904 21.0352C34.7904 14.4768 29.4738 9.16016 22.9154 9.16016Z" fill="white"/>
<path fill-rule="evenodd" clip-rule="evenodd" d="M30.4154 21.1652C30.4067 22.2471 30.3399 23.3278 30.2154 24.4027C30.1208 25.1204 29.8474 25.803 29.4204 26.3877C28.8899 26.9232 28.1692 27.2274 27.4154 27.2339C24.6167 27.4364 20.4154 27.4427 20.4154 27.4427C20.4154 27.4427 15.2154 27.3952 13.6154 27.2427C12.8017 27.2313 12.0191 26.9279 11.4104 26.3877C10.9834 25.803 10.7101 25.1204 10.6154 24.4027C10.4909 23.3278 10.4242 22.2471 10.4154 21.1652V19.6477C10.4241 18.5661 10.4909 17.4858 10.6154 16.4114C10.71 15.6932 10.9833 15.0103 11.4104 14.4252C11.9409 13.8896 12.6616 13.5854 13.4154 13.5789C16.2142 13.3764 20.4154 13.3764 20.4154 13.3764H20.4229C20.4229 13.3764 24.6217 13.3764 27.4229 13.5789C28.1763 13.5857 28.8965 13.8899 29.4267 14.4252C29.8513 15.0105 30.1225 15.693 30.2154 16.4102C30.34 17.485 30.4068 18.5657 30.4154 19.6477V21.1652ZM20.4154 0.410156C16.4598 0.410156 12.593 1.58314 9.30401 3.78076C6.01503 5.97839 3.45158 9.10196 1.93782 12.7565C0.424071 16.411 0.0280043 20.4323 0.799709 24.312C1.57141 28.1916 3.47623 31.7552 6.27328 34.5523C9.07033 37.3493 12.634 39.2542 16.5136 40.0259C20.3932 40.7976 24.4146 40.4015 28.0691 38.8877C31.7236 37.374 34.8472 34.8105 37.0448 31.5216C39.2424 28.2326 40.4154 24.3658 40.4154 20.4102C40.4154 15.1058 38.3083 10.0187 34.5576 6.26802C30.8068 2.51729 25.7197 0.410156 20.4154 0.410156Z" fill="#EA412C"/>
<path fill-rule="evenodd" clip-rule="evenodd" d="M18.3529 23.0038L23.7567 20.2038L18.3517 17.3838L18.3529 23.0038Z" fill="#EA412C"/>
</svg>
