<svg width="18" height="18" viewBox="0 0 18 18" fill="none" xmlns="http://www.w3.org/2000/svg">
<path d="M16.2617 8.07933V5.16735C16.2617 4.3627 15.5638 3.7081 14.7058 3.7081C14.2961 3.7081 14.35 3.81632 14.35 3.66679C14.35 2.82979 13.5926 2.15066 12.6822 2.21173C10.8938 0.343551 8.13388 -0.424957 5.54707 0.230549C1.13595 1.3485 -1.04669 6.07424 1.18272 9.87248C2.45599 12.0416 4.95883 13.4099 7.66764 13.3102C7.99144 14.1424 8.56366 14.4443 9.26598 15.1618C9.35179 15.2424 9.32629 15.1288 9.32629 17.4256C9.32629 17.7357 9.59406 17.9874 9.92484 17.9881C15.6519 18.0015 15.0134 18.0001 15.0627 18.0001C15.3935 18.0001 15.6628 17.7487 15.6628 17.4375C15.6805 15.2958 15.6232 15.3743 15.7124 15.2767L16.6933 14.2032C17.3431 13.4921 17.7009 12.5847 17.7009 11.6482V9.66835C17.7009 8.86915 17.0769 8.20411 16.2617 8.07933ZM7.49449 10.925V12.1896C5.664 12.2181 3.90218 11.4397 2.75841 10.0716C4.93374 9.81852 7.20804 9.19282 9.32633 8.26402V9.16529C8.31145 9.1878 7.49449 9.96921 7.49449 10.925ZM11.58 2.75568C11.1829 3.2201 11.2443 3.7112 11.2381 3.7466C10.2519 3.52946 9.32633 4.23989 9.32633 5.16731V7.01391C7.00057 8.10454 4.44901 8.80548 2.06157 9.01024C1.94876 8.78501 1.85298 8.55528 1.77216 8.31388C4.11872 7.62779 8.08486 4.84083 9.24078 1.40276C10.117 1.67306 10.9223 2.13733 11.58 2.75568ZM8.06101 1.1609C7.12246 3.77118 4.20926 6.22153 1.52962 7.19997C1.16183 3.71967 4.31974 0.762577 8.06101 1.1609ZM16.5009 11.6481C16.5009 12.3164 16.2455 12.9639 15.7819 13.4713L14.8011 14.5447C14.5829 14.7834 14.4627 15.0881 14.4627 15.4025V16.8735L10.5264 16.8644V15.2985C10.5264 14.9464 10.3803 14.6154 10.1148 14.3665L9.18243 13.4918C8.89283 13.2202 8.73291 12.8769 8.70051 12.5149C8.68769 12.3654 8.69879 12.3455 8.69459 10.9249C8.69459 10.589 8.97417 10.3139 9.32633 10.292V11.2C9.32633 11.5107 9.59496 11.7625 9.92638 11.7625C10.2578 11.7625 10.5264 11.5107 10.5264 11.2C10.5264 4.59102 10.5034 5.11011 10.5784 4.9944C10.7174 4.77979 11.0469 4.77944 11.1862 4.9944C11.2844 5.14604 11.219 5.05238 11.2381 8.78832C11.2381 9.09902 11.5068 9.35086 11.8382 9.35086C12.1696 9.35086 12.4382 9.09902 12.4382 8.78832C12.4382 3.29309 12.4325 3.64535 12.4503 3.58178C12.5595 3.19752 13.1499 3.28514 13.1499 3.66676V8.88377C13.1499 9.19448 13.4185 9.44632 13.75 9.44632C14.0814 9.44632 14.35 9.19448 14.35 8.88377V5.16735C14.35 4.98312 14.5097 4.8332 14.7058 4.8332C14.902 4.8332 15.0617 4.98312 15.0617 5.16735V8.62089C15.0617 8.93159 15.3303 9.18344 15.6617 9.18344H15.9843C16.2692 9.18344 16.5009 9.401 16.5009 9.66835V11.6481H16.5009Z" fill="#292744"/>
</svg>
