<svg width="19" height="17" viewBox="0 0 19 17" fill="none" xmlns="http://www.w3.org/2000/svg">
<path d="M15.8776 2.4896C14.1651 0.884164 11.8883 0 9.46652 0C7.04476 0 4.76794 0.884198 3.05547 2.48963C1.34301 4.09507 0.399902 6.22959 0.399902 8.49995C0.399902 10.7703 1.34301 12.9049 3.05547 14.5103C4.7679 16.1158 7.04469 17 9.46652 17C11.8883 17 14.1651 16.1158 15.8776 14.5104C17.5901 12.9049 18.5332 10.7704 18.5332 8.49998C18.5332 6.22953 17.5901 4.09503 15.8776 2.4896ZM17.1097 5.14462C16.3957 7.01312 15.2363 8.63057 13.7507 9.82774C12.4339 10.8888 10.8852 11.5838 9.3597 11.803C9.15046 10.7217 9.25933 9.66747 9.67565 8.7763C11.0072 8.63997 12.3262 8.01761 13.409 7.01023C14.5068 5.98894 15.2787 4.65663 15.662 3.13185C16.2481 3.72591 16.7383 4.40402 17.1097 5.14462ZM9.46652 0.586798C11.646 0.586798 13.6351 1.36524 15.1343 2.6411C15.0409 3.09642 14.9117 3.53453 14.7484 3.95209C13.0966 2.12852 10.4914 0.988356 7.5945 0.783293C8.19683 0.654897 8.82332 0.586798 9.46652 0.586798ZM5.82307 1.36275C9.35602 1.13896 12.6469 2.36074 14.4753 4.56721C14.1061 5.30837 13.6206 5.97147 13.0308 6.53413C11.986 5.32232 10.5164 4.38191 8.75815 3.80404C7.00945 3.22933 5.07344 3.05661 3.11402 3.29534C3.86446 2.49133 4.78515 1.83035 5.82307 1.36275ZM2.54856 3.97168C4.63049 3.61774 6.70321 3.75049 8.55103 4.35777C10.1896 4.89629 11.6059 5.80625 12.5712 6.93519C11.6769 7.64574 10.6487 8.08441 9.61728 8.19199C8.82555 7.1791 7.59117 6.41935 6.11922 6.04399C4.62503 5.66295 3.00614 5.70289 1.404 6.15555C1.66509 5.36807 2.05446 4.63312 2.54856 3.97168ZM1.02586 8.49992C1.02586 7.9269 1.0918 7.36802 1.21579 6.82921C1.68457 6.6766 2.1555 6.56202 2.62449 6.48562C1.76755 8.7339 2.01391 11.4128 3.26642 13.8633C1.87649 12.4522 1.02586 10.5675 1.02586 8.49992ZM4.69147 15.0214C2.72128 12.266 2.20594 8.98578 3.32928 6.39972C4.19854 6.3289 5.05382 6.39156 5.86851 6.58908C5.27156 8.04334 5.13762 9.70668 5.48293 11.423C5.82675 13.1322 6.63669 14.7923 7.83926 16.265C6.68978 16.0536 5.62332 15.6229 4.69147 15.0214ZM9.46652 16.4132C9.22359 16.4132 8.98319 16.4029 8.74536 16.384C7.37591 14.8699 6.46113 13.1195 6.09797 11.3143C5.77618 9.71472 5.90856 8.10981 6.46868 6.76164C7.57222 7.13248 8.4916 7.74797 9.10668 8.53153C8.5669 9.68078 8.48225 11.0628 8.87145 12.4456C9.26648 13.8493 10.1129 15.1436 11.3321 16.218C10.7317 16.3455 10.1074 16.4132 9.46652 16.4132ZM12.0485 16.034C11.6731 15.7297 11.3319 15.4047 11.0269 15.0622C13.5372 14.6329 15.8931 13.088 17.5309 10.8386C16.7181 13.297 14.6586 15.246 12.0485 16.034ZM10.5951 14.5329C10.0951 13.8625 9.72531 13.1368 9.50041 12.3766C11.1423 12.1343 12.7458 11.4113 14.1587 10.2727C15.5656 9.13904 16.6941 7.65141 17.4533 5.9387C17.7474 6.74241 17.9073 7.60397 17.9073 8.49995C17.9073 8.70455 17.899 8.90742 17.8826 9.1082C16.3231 12.0897 13.5484 14.1516 10.5951 14.5329Z" fill="#292744"/>
</svg>
