<svg width="21" height="21" viewBox="0 0 21 21" fill="none" xmlns="http://www.w3.org/2000/svg">
<path d="M14.0956 3.90986C13.9356 3.90986 13.5956 3.86986 13.2356 4.30986C12.8556 4.72986 12.4956 4.88986 11.8756 4.54986C11.2956 4.22986 10.6356 4.80986 9.97563 4.50986C9.31563 4.18986 9.59562 3.72986 8.81563 3.44986C8.07563 3.06986 6.27563 3.48986 5.73563 3.64986C5.15563 3.80986 5.15562 3.86986 4.91563 4.14986C4.67562 4.42986 3.17563 6.16986 3.17563 7.10986C3.17563 8.04986 3.75563 10.7699 5.53562 10.4899C7.33563 10.2299 8.41563 10.3699 8.25563 10.8899C8.03563 11.4299 8.15563 11.5499 8.49563 12.1699C8.81563 12.7899 9.59562 16.8699 9.73563 17.5299C9.85563 18.1899 9.65563 19.0499 10.4756 18.9299C11.2956 18.8099 12.1956 18.5899 12.5756 17.8099C12.9356 17.0299 12.9756 16.1699 13.4356 15.7099C13.8756 15.2499 14.4556 15.2499 14.4956 14.6099C14.5356 13.9499 14.3756 12.4699 14.6756 12.0899C14.9556 11.7699 16.3956 10.1499 16.5556 9.48986C16.7156 8.82986 16.9356 8.70986 16.3156 8.70986C15.7356 8.70986 14.7556 8.62986 14.4556 8.08986C14.1756 7.56986 13.5156 6.56986 13.5156 6.32986C13.5156 6.08986 13.9356 6.12986 14.1356 6.60986C14.3356 7.10986 15.0356 8.62986 15.8556 8.30986C16.6756 7.96986 17.8356 7.60986 17.8356 7.10986C17.8756 6.60986 17.4556 6.04986 17.0956 6.04986C16.6756 6.08986 16.2756 5.78986 16.2756 5.46986C16.2756 5.46986 15.5756 4.76986 15.2756 4.54986C14.6756 4.10986 14.0956 3.90986 14.0956 3.90986ZM10.0156 20.6099C4.49563 20.6099 0.015625 16.1299 0.015625 10.6099C0.015625 5.08986 4.49563 0.609863 10.0156 0.609863C15.5356 0.609863 20.0156 5.08986 20.0156 10.6099C20.0156 16.1299 15.5356 20.6099 10.0156 20.6099ZM10.0156 1.58986C5.03562 1.58986 0.995625 5.62986 0.995625 10.6099C0.995625 15.5899 5.03562 19.6299 10.0156 19.6299C14.9956 19.6299 19.0356 15.5899 19.0356 10.6099C19.0356 5.62986 14.9956 1.58986 10.0156 1.58986Z" fill="#6F8CAA"/>
</svg>
