<svg width="22" height="15" viewBox="0 0 22 15" fill="none" xmlns="http://www.w3.org/2000/svg">
<g clip-path="url(#clip0_139_4162)">
<path d="M15.437 2.86412C15.309 2.86412 15.0469 2.83705 14.6505 3.13482C14.243 3.41906 13.9156 3.52734 13.5034 3.29724C13.1182 3.08068 12.4473 3.4732 11.9932 3.27017C11.544 3.05361 11.8813 2.74231 11.3263 2.55282C10.8279 2.29566 9.28445 2.57989 8.81304 2.68817C8.30963 2.79645 8.29485 2.83705 8.03388 3.02654C7.77291 3.21603 6.14433 4.39357 5.91279 5.02971C5.68125 5.66585 5.47527 7.50661 6.96824 7.31712C8.47228 7.14116 9.3018 7.23591 9.04572 7.58782C8.73671 7.95326 8.80315 8.03447 8.92243 8.45405C9.02572 8.87364 8.64475 11.6348 8.59418 12.0814C8.52761 12.5281 8.15578 13.1101 8.84134 13.0289C9.5269 12.9476 10.3011 12.7988 10.7972 12.2709C11.2773 11.743 11.5212 11.161 12.0025 10.8497C12.4678 10.5384 12.9318 10.5384 13.1214 10.1053C13.316 9.65866 13.5525 8.65708 13.8861 8.39991C14.189 8.18335 15.74 7.08702 16.0306 6.64037C16.3211 6.19372 16.5267 6.11251 16.0307 6.11251C15.5667 6.11251 14.8024 6.05837 14.6954 5.69293C14.5995 5.34102 14.3178 4.66427 14.3769 4.50185C14.436 4.33943 14.7622 4.3665 14.8039 4.69134C14.8408 5.02971 15.0264 6.05837 15.7612 5.84181C16.501 5.61172 17.5176 5.36809 17.6408 5.02971C17.7959 4.69134 17.5979 4.31236 17.3099 4.31236C16.964 4.33943 16.7179 4.13641 16.7967 3.91985C16.7967 3.91985 16.4092 3.44613 16.2234 3.29724C15.8517 2.99947 15.437 2.86412 15.437 2.86412ZM8.05953 14.1658C3.64353 14.1658 1.16302 11.134 2.52268 7.39833C3.88235 3.66268 8.56984 0.630859 12.9858 0.630859C17.4018 0.630859 19.8823 3.66268 18.5227 7.39833C17.163 11.134 12.4755 14.1658 8.05953 14.1658ZM12.7445 1.29407C8.76045 1.29407 4.53334 4.02813 3.30668 7.39833C2.08003 10.7685 4.31692 13.5026 8.30092 13.5026C12.2849 13.5026 16.512 10.7685 17.7387 7.39833C18.9653 4.02813 16.7284 1.29407 12.7445 1.29407Z" fill="#F5EF44"/>
</g>
<defs>
<clipPath id="clip0_139_4162">
<rect width="16" height="16" fill="white" transform="matrix(1 0 -0.307894 0.845933 5.01562 0.549805)"/>
</clipPath>
</defs>
</svg>
