<svg width="17" height="15" viewBox="0 0 17 15" fill="none" xmlns="http://www.w3.org/2000/svg">
<path d="M6.08931 14.0847C10.5076 14.0847 15.1921 11.0548 16.5525 7.31727C17.9128 3.5797 15.4339 0.549805 11.0156 0.549805C6.59735 0.549805 1.91283 3.5797 0.55247 7.31727C-0.807893 11.0548 1.67104 14.0847 6.08931 14.0847Z" fill="#D80027"/>
<path d="M13.7094 5.57315H10.8117C11.0482 5.4147 11.2364 5.20017 11.3225 4.96376C11.4999 4.47626 11.1765 4.08105 10.6003 4.08105C10.2372 4.08105 9.8605 4.23798 9.58698 4.47592C9.48668 4.23798 9.22417 4.08105 8.86114 4.08105C8.28486 4.08105 7.67383 4.47626 7.49639 4.96376C7.41035 5.20017 7.44235 5.41472 7.56356 5.57315H4.66591C4.42932 6.22317 4.90682 6.75008 5.67516 6.75008H5.62879C5.39219 7.40013 5.82331 7.92707 6.59175 7.92707C6.51512 8.1376 6.50888 8.33496 6.56118 8.50584L5.05178 9.48213L5.66462 10.2311L7.30732 9.16863C7.35096 9.18388 7.39741 9.19612 7.44694 9.20445L6.16037 10.654L6.94627 11.7312L8.51632 10.654L8.28496 9.2044C8.34058 9.19607 8.3959 9.18386 8.45065 9.16858L9.31995 10.231L10.478 9.48205L9.67924 8.50576C9.85596 8.33491 9.9934 8.13752 10.07 7.92699C10.8384 7.92699 11.6531 7.40007 11.8897 6.75H11.8434C12.6117 6.75005 13.4728 6.22317 13.7094 5.57315Z" fill="#010A0F"/>
</svg>
