<svg width="21" height="21" viewBox="0 0 21 21" fill="none" xmlns="http://www.w3.org/2000/svg">
<path d="M4.63563 13.1699C4.83563 13.2899 6.27563 14.4299 6.59563 14.4699C6.93563 14.5099 7.33563 14.8499 7.55563 14.9699C7.75563 15.1299 8.07563 16.1699 8.15563 16.2499C8.23563 16.3299 8.33562 16.3299 8.41563 16.1699C8.49563 15.9499 8.85563 15.3499 9.07563 15.1299C9.27563 14.9699 9.27563 14.7299 9.39563 14.8899C9.51562 15.0499 10.0156 15.4299 10.0556 15.6299C10.0956 15.8699 10.0156 16.3299 10.1356 16.2099C10.2556 16.0499 10.3556 15.7499 10.4356 15.8699C10.5156 15.9899 10.5156 16.2499 10.7556 16.0899C10.9956 15.9099 11.3756 15.8299 11.1756 15.5099C10.9556 15.1299 11.0956 14.9299 11.2156 14.9299C11.3356 14.9299 12.2356 14.7699 12.2756 14.2699C12.3156 13.7699 11.9556 13.5299 12.1156 13.2899C12.2756 13.0299 12.4956 12.7899 12.5756 12.9499C12.6156 13.1099 12.4356 13.6099 12.6556 13.5299C12.8556 13.4499 13.0956 13.4499 13.0956 13.2899C13.0956 13.1299 13.0556 12.7499 13.1356 12.6699C13.2356 12.5899 13.9356 11.8899 14.0556 11.6299C14.1356 11.3899 14.2956 11.1499 14.1756 10.9299C14.0556 10.7299 13.7956 10.8099 14.0156 10.5699C14.1756 10.3299 14.4956 10.0699 14.7156 10.0699C15.4556 9.98986 15.2356 10.8899 15.2356 11.1099C15.2356 11.3099 15.2356 11.8099 15.3756 11.5499C15.4956 11.3099 15.6156 10.9699 15.8156 10.7699C16.0156 10.5699 16.1556 10.4099 16.1556 10.2299C16.1556 10.0499 16.1556 9.98986 16.3956 9.86986C16.5956 9.78986 17.5156 9.40986 17.5956 9.16986C17.6756 8.92986 17.4556 8.70986 17.7156 8.70986C17.9156 8.70986 18.1156 8.96986 18.2556 8.82986C18.3756 8.70986 18.5756 8.46986 18.5756 8.34986C18.5756 8.22986 18.2156 7.92986 18.0756 7.80986C17.9156 7.72986 17.0956 7.02986 16.6756 7.10986C16.3156 7.18986 15.6556 6.90986 15.5356 6.86986C15.4156 6.78986 14.5356 6.52986 14.0556 6.48986C13.7956 6.48986 12.8156 6.24986 12.4356 6.08986C12.0356 5.90986 11.6956 5.04986 10.9156 5.16986C10.8356 5.16986 9.89563 5.34986 9.65563 5.54986C9.39563 5.74986 9.31563 5.98986 9.15563 6.04986C8.99563 6.10986 8.65563 6.08986 8.65563 6.24986C8.65563 6.44986 8.77563 7.02986 8.61563 6.90986C8.45563 6.78986 8.29563 6.52986 8.25563 6.74986C8.15563 6.94986 8.03563 7.06986 7.99563 6.98986C7.95563 6.90986 7.55562 6.98986 7.51562 7.10986C7.45563 7.22986 7.01563 7.52986 6.75563 7.56986C6.55563 7.60986 6.47563 7.68986 6.35563 7.76986C6.23563 7.80986 5.41563 8.18986 5.27562 8.04986C5.11562 7.92986 5.07562 8.00986 4.99563 8.00986C4.99563 8.00986 4.71563 7.96986 4.53562 7.72986C4.37563 7.48986 4.33563 7.56986 4.13563 7.34986C3.93563 7.14986 3.87562 6.94986 3.67562 7.02986C3.47562 7.10986 2.61563 8.00986 2.27562 8.42986C1.95563 8.82986 1.33562 9.24986 1.65562 9.52986C1.97563 9.80986 2.11562 9.78986 2.15563 9.94986C2.19563 10.1099 2.23563 10.2699 2.27562 10.3699C2.31563 10.4499 2.61563 10.6499 2.77562 10.3699C2.93563 10.0699 2.93563 9.86986 3.09562 9.90986C3.27562 9.94986 3.31563 10.0699 3.23563 10.2699C3.15563 10.4699 3.09563 10.8499 2.77562 10.8499C2.49563 10.8499 2.15563 10.6499 2.07563 10.6899C1.99563 10.7299 1.91563 10.8099 1.83563 10.8899C1.73563 10.8899 3.79563 12.7099 4.63563 13.1699ZM11.6956 17.7699C11.7956 17.6899 11.7356 17.5699 11.8756 17.6099C11.9956 17.6499 12.1156 17.6899 12.2756 17.6099C12.4356 17.5299 12.5756 17.5699 12.5356 17.3899C12.4956 17.2099 12.5356 17.0299 12.4956 16.9099C12.4356 16.7899 12.2356 16.7499 12.0756 16.8699C11.9156 16.9899 11.6956 17.2299 11.6956 17.1499C11.6956 17.0699 11.7956 16.8699 11.7356 16.7499C11.6956 16.6099 11.7956 16.4899 11.5356 16.6099C11.2956 16.6899 11.1756 16.6899 11.0956 16.8299C11.0156 16.9699 10.9156 17.1899 10.7556 17.0699C10.6356 16.9099 10.1756 16.6099 10.1756 16.6099C10.1356 16.5699 9.69563 16.2099 9.85563 16.4499C10.0156 16.6899 10.2556 17.1499 10.3956 17.3099C10.5156 17.4899 10.6356 17.6899 10.7956 17.5699C10.9556 17.4899 10.9556 17.4499 11.1756 17.5699C11.3356 17.6899 11.6156 17.8499 11.6956 17.7699ZM14.6356 17.3899C14.3756 17.3099 14.4956 17.1899 14.2156 17.1499C13.9356 17.1099 13.7156 17.1499 13.6356 17.1099C13.5556 17.0699 13.1756 16.9499 13.2756 17.1099C13.3756 17.2699 13.6356 17.3499 13.7156 17.3899C13.7956 17.4499 13.5956 17.5699 13.7556 17.6499C13.9356 17.7299 14.0156 17.8899 14.2156 17.8499C14.4156 17.8099 14.4956 17.9299 14.6756 17.9299C14.8356 17.9699 14.9956 17.8899 14.9156 17.8499C14.8356 17.7699 14.7956 17.6899 14.7956 17.6099C14.8356 17.4899 14.8756 17.5299 14.6356 17.3899ZM10.0156 20.6099C4.49563 20.6099 0.015625 16.1299 0.015625 10.6099C0.015625 5.08986 4.49563 0.609863 10.0156 0.609863C15.5356 0.609863 20.0156 5.08986 20.0156 10.6099C20.0156 16.1299 15.5356 20.6099 10.0156 20.6099ZM10.0156 1.58986C5.03562 1.58986 0.995625 5.62986 0.995625 10.6099C0.995625 15.5899 5.03562 19.6299 10.0156 19.6299C14.9956 19.6299 19.0356 15.5899 19.0356 10.6099C19.0356 5.62986 14.9956 1.58986 10.0156 1.58986Z" fill="#6F8CAA"/>
</svg>
