<svg width="21" height="21" viewBox="0 0 21 21" fill="none" xmlns="http://www.w3.org/2000/svg">
<path d="M14.7956 6.12986C14.4156 5.04986 13.5556 3.06986 13.3956 4.06986C13.1756 5.00986 11.8356 5.70986 11.2956 5.66986C10.8356 5.62986 11.0956 5.12986 11.0956 4.68986C11.0956 4.26986 10.8356 3.80986 9.65563 4.14986C8.45563 4.46986 8.25562 5.58986 7.91563 5.46986C7.63562 5.34986 6.81563 5.12986 6.31563 5.70986C5.81563 6.28986 5.31563 7.38986 4.75563 7.64986C4.13563 7.88986 2.07563 8.12986 2.07563 9.00986C2.07563 9.86986 2.57563 11.1499 2.53563 11.8499C2.49563 12.5499 1.57563 14.1099 2.77562 14.6099C3.47563 14.8899 3.97563 14.9299 4.83563 14.4699C5.65563 14.0699 9.15563 12.9099 9.59563 13.2899C10.0556 13.6499 10.7956 14.5099 11.1356 14.7299C11.7956 15.0899 11.9556 15.9899 12.8156 16.2099C13.6756 16.4099 14.3356 16.5299 14.7156 16.5299C15.0756 16.5299 16.3156 16.1299 16.6356 15.3499C16.9356 14.6099 17.5156 12.8299 17.7556 11.9699C17.9956 11.1099 18.2556 10.1499 17.5156 9.40986C16.7156 8.74986 15.1556 7.18986 14.7956 6.12986ZM10.0156 20.6099C4.49563 20.6099 0.015625 16.1299 0.015625 10.6099C0.015625 5.08986 4.49563 0.609863 10.0156 0.609863C15.5356 0.609863 20.0156 5.08986 20.0156 10.6099C20.0156 16.1299 15.5356 20.6099 10.0156 20.6099ZM10.0156 1.58986C5.07562 1.58986 1.03562 5.62986 1.03562 10.5699C1.03562 15.5099 5.07562 19.5499 10.0156 19.5499C14.9556 19.5499 18.9956 15.5099 18.9956 10.5699C18.9956 5.62986 14.9956 1.58986 10.0156 1.58986Z" fill="#6F8CAA"/>
</svg>
