<svg width="17" height="15" viewBox="0 0 17 15" fill="none" xmlns="http://www.w3.org/2000/svg">
<path d="M16.5523 7.31709C16.8536 6.48929 16.9662 5.69631 16.9114 4.9632L9.51611 4.66895L1.90662 4.96317C1.31822 5.6963 0.853563 6.48929 0.552269 7.31709C0.250975 8.14489 0.138384 8.93787 0.193118 9.67098L7.58842 9.96523L15.1979 9.671C15.7864 8.93787 16.251 8.14489 16.5523 7.31709Z" fill="#D80027"/>
<path d="M6.08936 14.085C9.52907 14.085 13.1299 12.2484 15.1982 9.67139H0.193359C0.385732 12.2484 2.64964 14.085 6.08936 14.085Z" fill="#6DA544"/>
<path d="M1.90677 4.96338H16.9116C16.7192 2.38633 14.4553 0.549805 11.0156 0.549805C7.57587 0.549805 3.97509 2.38633 1.90677 4.96338Z" fill="#338AF3"/>
<path d="M8.0302 9.22984C6.78157 9.22984 6.08099 8.37355 6.46543 7.31729C6.84988 6.26104 8.1738 5.40474 9.42242 5.40474C9.81173 5.40474 10.1478 5.48802 10.4142 5.63463C10.0635 5.21956 9.47066 4.96338 8.7135 4.96338C7.17669 4.96338 5.54733 6.01725 5.07416 7.31727C4.601 8.61728 5.46323 9.67116 7.00001 9.67116C7.7572 9.67116 8.53657 9.41497 9.18936 8.99991C8.81616 9.14657 8.41951 9.22984 8.0302 9.22984Z" fill="#F0F0F0"/>
<path d="M10.9473 5.99316L10.9875 6.70563L11.9129 6.38095L11.2806 7.06388L12.0306 7.31724L11.0962 7.57059L11.2314 8.25352L10.5422 7.92884L9.98345 8.64131L9.94333 7.92884L9.01781 8.25352L9.65019 7.57059L8.90016 7.31724L9.83462 7.06388L9.69938 6.38095L10.3885 6.70563L10.9473 5.99316Z" fill="#F0F0F0"/>
</svg>
