<svg width="21" height="20" viewBox="0 0 21 20" fill="none" xmlns="http://www.w3.org/2000/svg">
<path d="M19.5158 15C20.2092 13.8133 20.6358 12.5333 20.7958 11.16C20.8358 10.7733 20.8558 10.3867 20.8558 10C20.8558 8.74667 20.6292 7.53667 20.1758 6.37C19.7225 5.20333 19.0758 4.16 18.2358 3.24C18.2092 3.2 18.1758 3.16667 18.1358 3.14C17.0558 1.98 15.7758 1.13333 14.2958 0.6C14.2691 0.586668 14.2425 0.586668 14.2158 0.6C13.0691 0.186666 11.8891 -0.0100002 10.6758 0.0100002C9.46248 0.0300007 8.28915 0.26 7.15582 0.700001L7.05582 0.74C5.64248 1.32667 4.42248 2.19333 3.39582 3.34L3.31582 3.44C2.39582 4.49333 1.72582 5.69 1.30582 7.03C0.885816 8.37 0.755816 9.73333 0.915816 11.12C0.995816 11.7733 1.13582 12.4133 1.33582 13.04C1.41582 13.4 1.54915 13.7333 1.73582 14.04C1.86915 14.3467 2.02248 14.6467 2.19582 14.94L2.25582 15.04C2.64248 15.6933 3.28248 16.3867 4.17582 17.12C4.86915 17.7067 5.64248 18.2533 6.49582 18.76C7.22915 19.2 7.72248 19.4533 7.97582 19.52C8.36248 19.6533 8.75582 19.7467 9.15582 19.8C9.71582 19.92 10.2825 19.9867 10.8558 20C12.6158 20 14.2591 19.5633 15.7858 18.69C17.3125 17.8167 18.5292 16.6267 19.4358 15.12C19.4625 15.0933 19.4825 15.06 19.4958 15.02L19.5158 15ZM15.0758 15L13.2558 12.2L14.2558 9.2L17.1558 8.54L19.7758 11.22C19.6292 12.3133 19.2958 13.34 18.7758 14.3L15.0758 15ZM8.45582 12.2L6.63582 15L2.99582 14.3C2.47582 13.34 2.14248 12.3133 1.99582 11.22L4.59582 8.6L7.49582 9.26L8.13582 11.26L8.45582 12.2ZM3.41582 5L3.85582 7.86L1.85582 9.86C1.86915 8.99333 2.00915 8.14667 2.27582 7.32C2.54248 6.49333 2.92248 5.72 3.41582 5ZM9.41582 11.8L8.47582 9L10.8558 7.3L13.2158 9L12.3158 11.78L9.41582 11.8ZM19.8558 9.92L17.8558 7.86L18.2158 4.8C18.7491 5.54667 19.1558 6.35667 19.4358 7.23C19.7158 8.10333 19.8558 9 19.8558 9.92ZM17.2758 3.72L16.8558 7.62L13.9758 8.26L11.3758 6.4V3.64L14.1558 1.64C15.3425 2.12 16.3825 2.81333 17.2758 3.72ZM12.9358 1.26L10.8558 2.76L8.49582 1.32C9.97582 0.92 11.4558 0.9 12.9358 1.26ZM7.25582 1.76L10.3358 3.66V6.4L8.53582 7.72L7.77582 8.26L4.85582 7.62L4.27582 3.9C5.12915 2.98 6.12915 2.27333 7.27582 1.78L7.25582 1.76ZM3.79582 15.52L6.55582 16.06L7.95582 18.5C7.12915 18.2067 6.36248 17.8033 5.65582 17.29C4.94915 16.7767 4.32915 16.1733 3.79582 15.48V15.52ZM9.33582 18.84L7.47582 15.6L9.29582 12.82H12.4158L14.2358 15.6L12.3758 18.84C11.3758 19.0133 10.3758 19.0133 9.37582 18.84H9.33582ZM13.7558 18.5L15.1558 16.06L17.9158 15.54C17.3825 16.22 16.7625 16.8133 16.0558 17.32C15.3491 17.8267 14.5825 18.22 13.7558 18.5Z" fill="#00B1FF"/>
</svg>
