<svg width="21" height="20" viewBox="0 0 21 20" fill="none" xmlns="http://www.w3.org/2000/svg">
<g clip-path="url(#clip0_139_3286)">
<path d="M18.6818 15C19.3752 13.8133 19.8018 12.5333 19.9618 11.16C20.0018 10.7733 20.0218 10.3867 20.0218 10C20.0218 8.74667 19.7952 7.53667 19.3418 6.37C18.8885 5.20333 18.2418 4.16 17.4018 3.24C17.3752 3.2 17.3418 3.16667 17.3018 3.14C16.2218 1.98 14.9418 1.13333 13.4618 0.6C13.4352 0.586668 13.4085 0.586668 13.3818 0.6C12.2352 0.186666 11.0552 -0.0100002 9.84183 0.0100002C8.6285 0.0300007 7.45516 0.26 6.32183 0.700001L6.22183 0.74C4.8085 1.32667 3.5885 2.19333 2.56183 3.34L2.48183 3.44C1.56183 4.49333 0.891832 5.69 0.471832 7.03C0.0518319 8.37 -0.0781681 9.73333 0.0818319 11.12C0.161832 11.7733 0.301832 12.4133 0.501832 13.04C0.581832 13.4 0.715165 13.7333 0.901832 14.04C1.03517 14.3467 1.1885 14.6467 1.36183 14.94L1.42183 15.04C1.8085 15.6933 2.4485 16.3867 3.34183 17.12C4.03517 17.7067 4.8085 18.2533 5.66183 18.76C6.39516 19.2 6.8885 19.4533 7.14183 19.52C7.5285 19.6533 7.92183 19.7467 8.32183 19.8C8.88183 19.92 9.4485 19.9867 10.0218 20C11.7818 20 13.4252 19.5633 14.9518 18.69C16.4785 17.8167 17.6952 16.6267 18.6018 15.12C18.6285 15.0933 18.6485 15.06 18.6618 15.02L18.6818 15ZM14.2418 15L12.4218 12.2L13.4218 9.2L16.3218 8.54L18.9418 11.22C18.7952 12.3133 18.4618 13.34 17.9418 14.3L14.2418 15ZM7.62183 12.2L5.80183 15L2.16183 14.3C1.64183 13.34 1.3085 12.3133 1.16183 11.22L3.76183 8.6L6.66183 9.26L7.30183 11.26L7.62183 12.2ZM2.58183 5L3.02183 7.86L1.02183 9.86C1.03517 8.99333 1.17517 8.14667 1.44183 7.32C1.7085 6.49333 2.0885 5.72 2.58183 5ZM8.58183 11.8L7.64183 9L10.0218 7.3L12.3818 9L11.4818 11.78L8.58183 11.8ZM19.0218 9.92L17.0218 7.86L17.3818 4.8C17.9152 5.54667 18.3218 6.35667 18.6018 7.23C18.8818 8.10333 19.0218 9 19.0218 9.92ZM16.4418 3.72L16.0218 7.62L13.1418 8.26L10.5418 6.4V3.64L13.3218 1.64C14.5085 2.12 15.5485 2.81333 16.4418 3.72ZM12.1018 1.26L10.0218 2.76L7.66183 1.32C9.14183 0.92 10.6218 0.9 12.1018 1.26ZM6.42183 1.76L9.50183 3.66V6.4L7.70183 7.72L6.94183 8.26L4.02183 7.62L3.44183 3.9C4.29517 2.98 5.29517 2.27333 6.44183 1.78L6.42183 1.76ZM2.96183 15.52L5.72183 16.06L7.12183 18.5C6.29517 18.2067 5.5285 17.8033 4.82183 17.29C4.11517 16.7767 3.49517 16.1733 2.96183 15.48V15.52ZM8.50183 18.84L6.64183 15.6L8.46183 12.82H11.5818L13.4018 15.6L11.5418 18.84C10.5418 19.0133 9.54183 19.0133 8.54183 18.84H8.50183ZM12.9218 18.5L14.3218 16.06L17.0818 15.54C16.5485 16.22 15.9285 16.8133 15.2218 17.32C14.5152 17.8267 13.7485 18.22 12.9218 18.5Z" fill="#F5EF44"/>
</g>
<defs>
<clipPath id="clip0_139_3286">
<rect width="20" height="20" fill="white" transform="matrix(1 0 0 -1 0.015625 20)"/>
</clipPath>
</defs>
</svg>
