<svg width="25" height="25" viewBox="0 0 25 25" fill="none" xmlns="http://www.w3.org/2000/svg">
<g clip-path="url(#clip0_139_5854)">
<path d="M22.3483 13.0257C22.4135 12.6197 22.4551 12.2104 22.4734 11.7996C22.4854 11.749 22.4879 11.6968 22.4804 11.6454C22.4854 11.5133 22.4988 11.3842 22.4988 11.2508C22.5003 8.54504 21.5222 5.93002 19.7451 3.88947C19.7325 3.87287 19.7186 3.85724 19.7035 3.84293C18.5088 2.47925 17.0032 1.42322 15.3142 0.764265C15.302 0.759306 15.2903 0.754348 15.2774 0.750152C12.6852 -0.248097 9.81466 -0.248097 7.22253 0.750152C7.20918 0.754348 7.19602 0.759497 7.18343 0.7656C5.49457 1.42417 3.98918 2.47964 2.79449 3.84293C2.77942 3.85724 2.76531 3.87287 2.75272 3.88947C0.975937 5.93021 -0.00190445 8.54504 2.78473e-06 11.2508C2.78473e-06 11.3899 0.00534306 11.528 0.0104926 11.6674V11.6887C0.211325 16.6792 3.67316 20.9421 8.51621 22.1627H8.51945C9.41223 22.3864 10.329 22.4999 11.2493 22.5001C11.8442 22.4984 12.4377 22.4481 13.0244 22.3498C14.5898 24.4276 17.2222 25.4031 19.7638 24.8475C22.3054 24.292 24.2904 22.3067 24.8462 19.7651C25.4018 17.2237 24.4262 14.5912 22.3483 13.0257ZM18.3322 11.6674C17.3988 11.6678 16.4757 11.8657 15.6241 12.2483L16.1824 10.2925L18.669 9.23756L21.6374 11.8758C21.6247 12.0933 21.6054 12.3065 21.5793 12.5182C20.5879 11.9603 19.4697 11.6674 18.3322 11.6674ZM12.3473 15.4172H8.64705L7.147 10.1675L11.2493 7.1827L15.3521 10.1675L14.5946 12.8174C13.6324 13.4741 12.8578 14.3701 12.3473 15.4172ZM6.51761 17.0601L2.25245 16.4893C1.42872 15.0825 0.949427 13.5006 0.853683 11.8732L3.82898 9.23718L6.3164 10.2925L7.86489 15.7126L6.51761 17.0601ZM3.30601 8.58757L0.845291 10.7675C0.937792 8.73977 1.62421 6.7837 2.81909 5.14291L3.30601 8.58757ZM19.68 5.14367C20.8763 6.78599 21.5625 8.74396 21.6538 10.7738L19.1931 8.58757L19.68 5.14367ZM18.9635 4.25871L18.3694 8.45921L15.8741 9.51716L11.666 6.45566V3.18589L15.1563 1.59754C16.6084 2.18821 17.9096 3.09758 18.9631 4.25871H18.9635ZM14.0033 1.20674L11.2493 2.45961L8.49542 1.20674C10.2978 0.710672 12.2008 0.710672 14.0033 1.20674ZM7.34249 1.59754L10.8327 3.18627V6.45566L6.62461 9.51716L4.12937 8.45921L3.53564 4.25871C4.5892 3.09758 5.89013 2.18821 7.34249 1.59754ZM2.85686 17.4112L6.38372 17.8829L7.86832 21.1006C5.86229 20.4077 4.11449 19.1209 2.85686 17.4112ZM11.2493 21.6668C10.4671 21.6665 9.68764 21.5776 8.92531 21.4023L7.16626 17.5896L8.50534 16.2505H12.0051C11.4167 18.0198 11.6025 19.9555 12.5168 21.5806C12.0965 21.6354 11.6733 21.6642 11.2493 21.6668ZM18.3322 24.1667C15.9731 24.1667 13.8462 22.7456 12.9433 20.566C12.0404 18.3862 12.5395 15.8774 14.2078 14.2092C15.8761 12.5409 18.3848 12.042 20.5644 12.9447C22.7442 13.8475 24.1653 15.9745 24.1653 18.3338C24.1619 21.5537 21.5524 24.1632 18.3322 24.1667Z" fill="black"/>
<path d="M18.3322 13.334C15.571 13.334 13.3325 15.5725 13.3325 18.3338C13.3325 21.0951 15.571 23.3335 18.3322 23.3335C21.0935 23.3335 23.332 21.0951 23.332 18.3338C23.3289 15.5738 21.0923 13.337 18.3322 13.334ZM18.3322 22.5002C16.0313 22.5002 14.1658 20.6349 14.1658 18.3338C14.1658 16.0327 16.0313 14.1674 18.3322 14.1674C20.6332 14.1674 22.4987 16.0327 22.4987 18.3338C22.4962 20.6338 20.6323 22.4977 18.3322 22.5002Z" fill="black"/>
<path d="M10.9735 8.41389L8.5704 10.1638C8.2948 10.3625 8.16854 10.7094 8.2517 11.0388L8.74167 13.0208C8.78763 13.2066 8.95432 13.3372 9.14581 13.3374C9.17957 13.3372 9.21333 13.3332 9.24613 13.3254C9.35351 13.2989 9.44582 13.2308 9.50304 13.1362C9.56006 13.0416 9.57723 12.9281 9.55072 12.8208L9.06037 10.8342L11.4635 9.08677C11.6496 8.95154 11.6908 8.69102 11.5556 8.50487C11.4204 8.31853 11.1597 8.27733 10.9735 8.41275V8.41389Z" fill="black"/>
<path d="M19.1657 19.5834H18.7489V16.6671C18.7489 16.4985 18.6475 16.3467 18.4917 16.2822C18.336 16.2177 18.1569 16.2534 18.0377 16.3724L17.2045 17.2057C17.0465 17.3691 17.0488 17.6291 17.2096 17.7899C17.3702 17.9505 17.6302 17.9528 17.7936 17.7948L17.9157 17.6728V19.5834H17.4989C17.2689 19.5834 17.0824 19.7702 17.0824 20.0002C17.0824 20.2302 17.2689 20.4169 17.4989 20.4169H19.1657C19.3957 20.4169 19.5822 20.2302 19.5822 20.0002C19.5822 19.7702 19.3957 19.5834 19.1657 19.5834Z" fill="black"/>
</g>
<defs>
<clipPath id="clip0_139_5854">
<rect width="25" height="25" fill="white"/>
</clipPath>
</defs>
</svg>
