<svg width="81" height="80" viewBox="0 0 81 80" fill="none" xmlns="http://www.w3.org/2000/svg">
<path d="M68.0597 77.9451C67.6723 77.9444 67.3008 77.7909 67.0257 77.5181L59.3917 59.2031L53.1137 66.7401C52.9837 66.8963 52.8224 67.0236 52.6401 67.1137C52.4579 67.2037 52.2588 67.2546 52.0557 67.2631C51.8526 67.274 51.6494 67.2416 51.4598 67.168C51.2701 67.0943 51.0983 66.9812 50.9557 66.8361L43.2257 59.1031L35.4967 66.8301C35.3544 66.9756 35.1826 67.0892 34.993 67.1631C34.8033 67.2371 34.6 67.2698 34.3967 67.2591C34.1937 67.2503 33.9947 67.1993 33.8125 67.1092C33.6303 67.0192 33.469 66.8921 33.3387 66.7361L27.0607 59.1991L19.4287 66.8371C19.2242 67.0413 18.9637 67.1803 18.6803 67.2365C18.3968 67.2928 18.103 67.2638 17.836 67.1531C17.569 67.0425 17.3408 66.8552 17.1802 66.6149C17.0196 66.3746 16.9338 66.0921 16.9337 65.8031V15.1301C16.9374 13.1951 17.7077 11.3405 19.0759 9.97229C20.4441 8.60407 22.2988 7.83378 24.2337 7.83008H62.2167C64.1517 7.83378 66.0063 8.60407 67.3745 9.97229C68.7427 11.3405 69.513 13.1951 69.5167 15.1301V76.4851C69.5169 76.7739 69.4315 77.0562 69.2713 77.2965C69.1112 77.5368 68.8834 77.7242 68.6167 77.8351C68.4402 77.9083 68.2508 77.9457 68.0597 77.9451Z" fill="#E1E7ED"/>
<path d="M66.006 79.9988C65.6186 79.9981 65.247 79.8447 64.972 79.5718L57.338 61.2568L51.06 68.7938C50.93 68.95 50.7686 69.0773 50.5864 69.1674C50.4042 69.2575 50.2051 69.3084 50.002 69.3168C49.7989 69.3277 49.5957 69.2953 49.4061 69.2217C49.2164 69.1481 49.0446 69.0349 48.902 68.8898L41.172 61.1568L33.443 68.8838C33.3006 69.0293 33.1289 69.1429 32.9392 69.2168C32.7496 69.2908 32.5463 69.3235 32.343 69.3128C32.14 69.3041 31.941 69.253 31.7588 69.163C31.5766 69.0729 31.4152 68.9458 31.285 68.7898L25.007 61.2528L17.375 68.8908C17.1705 69.095 16.91 69.234 16.6265 69.2903C16.3431 69.3465 16.0493 69.3175 15.7823 69.2068C15.5153 69.0962 15.2871 68.9089 15.1265 68.6686C14.9659 68.4283 14.8801 68.1458 14.88 67.8568V17.1838C14.8837 15.2488 15.654 13.3942 17.0222 12.026C18.3904 10.6578 20.2451 9.88749 22.18 9.88379H60.163C62.0979 9.88749 63.9526 10.6578 65.3208 12.026C66.689 13.3942 67.4593 15.2488 67.463 17.1838V78.5388C67.4632 78.8276 67.3778 79.1099 67.2176 79.3502C67.0574 79.5905 66.8296 79.7779 66.563 79.8888C66.3865 79.9621 66.1971 79.9995 66.006 79.9988Z" fill="white"/>
<path d="M61.099 77.9837C60.7487 77.9831 60.4127 77.8444 60.164 77.5977L53.264 70.6977L47.588 77.5117C47.4705 77.6529 47.3248 77.768 47.1601 77.8494C46.9955 77.9309 46.8156 77.977 46.632 77.9847C46.4484 77.9941 46.2648 77.9645 46.0935 77.8978C45.9221 77.8311 45.7669 77.7288 45.638 77.5977L38.65 70.6077L31.662 77.5977C31.5333 77.7288 31.3783 77.8313 31.2071 77.8981C31.0359 77.965 30.8525 77.9948 30.669 77.9857C30.4855 77.9777 30.3057 77.9315 30.1411 77.85C29.9765 77.7686 29.8307 77.6537 29.713 77.5127L24.037 70.6977L17.135 77.5977C16.9501 77.7819 16.7147 77.9072 16.4587 77.9579C16.2026 78.0086 15.9373 77.9823 15.6961 77.8825C15.455 77.7826 15.2488 77.6135 15.1035 77.3966C14.9583 77.1797 14.8805 76.9247 14.88 76.6637V21.1977C14.8832 19.4482 15.5796 17.7713 16.8166 16.5343C18.0537 15.2972 19.7306 14.6008 21.48 14.5977H55.817C57.5665 14.6008 59.2434 15.2972 60.4804 16.5343C61.7175 17.7713 62.4138 19.4482 62.417 21.1977V76.6637C62.417 76.9249 62.3395 77.1803 62.1942 77.3975C62.0489 77.6147 61.8425 77.7839 61.601 77.8837C61.442 77.9499 61.2713 77.9839 61.099 77.9837Z" fill="#292744"/>
<path d="M35.319 53.8068L25.235 43.7228L29.051 39.9068L35.496 46.3518L48.433 34.5908L52.064 38.5828L35.319 53.8068Z" fill="white"/>
</svg>
