<svg width="81" height="81" viewBox="0 0 81 81" fill="none" xmlns="http://www.w3.org/2000/svg">
<path d="M55.1211 34.126L56.3686 30.1341C57.0444 29.9818 57.7523 30.0742 58.3663 30.3949C58.9803 30.7156 59.4607 31.2437 59.7218 31.8854C60.8797 34.2475 57.85 39.0965 55.2354 39.5085C54.5112 37.6604 55.1211 34.126 55.1211 34.126Z" fill="#E1E7ED"/>
<path d="M25.9202 34.126L24.6727 30.1341C23.9969 29.9818 23.289 30.0742 22.6749 30.3949C22.0609 30.7156 21.5806 31.2437 21.3195 31.8854C20.1616 34.2475 23.1913 39.0965 25.8058 39.5085C26.53 37.6604 25.9202 34.126 25.9202 34.126Z" fill="#E1E7ED"/>
<path d="M29.7648 44.832H51.4208V67.5583H29.7648V44.832Z" fill="#E1E7ED"/>
<path opacity="0.4" d="M29.7648 44.8322V48.4965C29.7648 48.4965 34.007 58.1799 42.5645 58.1799C45.8271 58.2396 48.9916 57.0639 51.4238 54.8886V44.8291H29.7648V44.8322Z" fill="#B6C5D4"/>
<path d="M56.2821 34.136C56.2876 33.9691 56.2903 33.8023 56.2903 33.6354C56.2903 23.2679 59.3159 11.5715 40.9121 11.3994H40.5001H40.088C21.6842 11.5725 24.7088 23.2689 24.7088 33.6395C24.7088 33.8064 24.7115 33.9733 24.717 34.1402C24.7222 34.307 24.6985 41.855 25.8378 43.7845C26.9772 45.714 33.7278 54.528 40.1292 54.528C40.1354 54.5218 40.874 54.5218 40.8812 54.528C47.2816 54.528 54.0322 45.7129 55.1726 43.7845C56.313 41.856 56.2934 34.1402 56.2934 34.1402L56.2821 34.136Z" fill="#E1E7ED"/>
<path d="M80.6 72.2048C80.6 64.4148 73.3415 61.5819 69.8863 60.8731C66.4312 60.1644 56.3428 57.5096 51.43 56.5361C48.5703 61.2079 41.796 63.0941 40.5979 63.396C39.3998 63.0941 32.6255 61.2079 29.7658 56.5361C24.853 57.5096 14.7616 60.1654 11.3095 60.8731C7.85744 61.5808 0.599976 64.4179 0.599976 72.2048C6.08866 74.6834 19.2458 80.5254 40.5959 80.5254C61.9541 80.5285 75.1123 74.6865 80.6 72.2048Z" fill="#283E5B"/>
<path d="M69.8894 60.8731C66.4374 60.1644 56.3459 57.5096 51.4331 56.5361C48.5734 61.2079 41.7991 63.0941 40.601 63.396C39.4029 63.0941 32.6286 61.2079 29.7689 56.5361C24.8561 57.5096 14.7646 60.1654 11.3126 60.8731C7.86053 61.5808 0.599976 64.4179 0.599976 72.2048C1.59614 72.655 2.84881 73.2164 4.35387 73.8325C4.34834 72.4581 4.56542 71.092 4.99669 69.7871C5.43683 68.6829 6.17465 67.7226 7.12809 67.0128C8.60776 65.9145 10.3088 65.1513 12.113 64.7764C13.6943 64.4519 16.4273 63.7812 19.593 63.0045C22.4692 62.2988 25.6287 61.5231 28.1639 60.9534C32.0157 65.0617 37.7444 66.7841 39.6275 67.259C40.2668 67.4202 40.9362 67.4202 41.5755 67.259C45.9124 66.2915 49.8808 64.1007 53.0103 60.9462C55.5507 61.517 58.7246 62.2958 61.6131 63.0066C64.7778 63.7833 67.5118 64.4488 69.0931 64.7784C70.8974 65.1534 72.5984 65.9165 74.0781 67.0149C75.0315 67.7246 75.7694 68.685 76.2094 69.7891C76.4651 71.1752 76.5492 72.5876 76.4598 73.9942C78.14 73.3153 79.5245 72.6952 80.6051 72.2069C80.6051 64.4168 73.3466 61.5839 69.8915 60.8752L69.8894 60.8731Z" fill="white"/>
<path d="M23.6125 30.0624C24.2595 30.0707 24.62 30.0624 24.62 30.0624C25.2759 30.9261 25.6182 31.9874 25.5904 33.0715C25.7759 33.6639 26.431 33.8709 26.6525 33.0715C26.874 32.2721 26.7185 29.3321 27.6487 28.203C28.0474 27.3397 25.7944 21.5636 28.3121 18.775C28.9096 17.9787 26.5196 16.1192 25.0589 17.5131C23.5981 18.9069 22.298 23.0234 23.6125 30.0624Z" fill="#B6C5D4"/>
<path d="M57.3813 30.0624C56.7344 30.0707 56.3738 30.0624 56.3738 30.0624C55.718 30.9261 55.3757 31.9874 55.4034 33.0715C55.218 33.6639 54.5628 33.8709 54.3413 33.0715C54.1199 32.2721 54.2754 29.3321 53.3452 28.203C52.9465 27.3397 55.1995 21.5636 52.6818 18.775C52.0843 17.9787 54.4742 16.1192 55.935 17.5131C57.3958 18.9069 58.6917 23.0234 57.3813 30.0624Z" fill="#B6C5D4"/>
<path d="M56.554 11.7549C55.7206 9.75845 54.5699 9.90061 53.8622 10.3384C53.4192 9.62968 53.5398 7.06767 52.6713 6.17762C50.986 4.45107 48.7639 5.9891 48.3745 4.49537C47.843 2.45978 46.4275 2.1054 44.4795 2.72453C43.506 2.28156 43.6832 -0.461752 42.1781 0.0687793C40.6731 0.599311 41.1799 1.03713 40.5402 1.04228C39.9005 1.04743 40.3991 0.59725 38.9022 0.0687793C37.4054 -0.459692 37.5744 2.28156 36.6009 2.72453C34.6539 2.10643 33.2374 2.45875 32.7058 4.49537C32.3144 5.99013 30.0934 4.4521 28.407 6.18277C27.5386 7.07179 27.6591 9.63483 27.2161 10.3436C26.5074 9.90061 25.3618 9.7636 24.5243 11.76C23.5426 14.3869 24.2956 18.5447 24.2956 18.5447C24.9945 18.8603 25.7524 19.0235 26.5192 19.0235C27.286 19.0235 28.044 18.8603 28.7428 18.5447C32.4545 16.974 36.5621 16.5939 40.499 17.4568L40.5062 17.4486L40.5134 17.4568C44.4506 16.5937 48.5586 16.9738 52.2706 18.5447C52.9694 18.8603 53.7274 19.0235 54.4942 19.0235C55.261 19.0235 56.019 18.8603 56.7178 18.5447C56.7178 18.5302 56.7096 18.5158 56.7065 18.5014L56.7817 18.5447C56.7817 18.5447 57.5347 14.3839 56.553 11.7518L56.554 11.7549Z" fill="#292744"/>
</svg>
