<svg width="81" height="80" viewBox="0 0 81 80" fill="none" xmlns="http://www.w3.org/2000/svg">
<g clip-path="url(#clip0_139_5040)">
<g clip-path="url(#clip1_139_5040)">
<g clip-path="url(#clip2_139_5040)">
<path d="M29.177 78.438C36.3503 80.5476 43.9829 80.5205 51.141 78.36V71H29.177V78.438Z" fill="#E1E7ED"/>
<path d="M39.255 79.2911V78.2061C39.255 77.7365 39.3475 77.2715 39.5272 76.8376C39.7069 76.4038 39.9703 76.0095 40.3024 75.6775C40.6344 75.3454 41.0287 75.082 41.4625 74.9023C41.8964 74.7226 42.3614 74.6301 42.831 74.6301H51.141V70.9971H29.177V78.4361C32.475 79.4085 35.8891 79.9319 39.327 79.9921C39.28 79.7613 39.2559 79.5265 39.255 79.2911Z" fill="#B6C5D4"/>
<path d="M59.6439 32.3707C58.1249 30.1967 55.9709 28.8497 55.9709 25.7467V8.25472C55.9942 7.1797 55.8037 6.11077 55.4105 5.10997C55.0173 4.10918 54.4292 3.19645 53.6804 2.42479C52.9315 1.65313 52.0369 1.03791 51.0484 0.61483C50.0598 0.191753 48.9971 -0.0307476 47.9218 -0.0397542C46.8466 -0.0487609 45.7803 0.155906 44.7848 0.562364C43.7893 0.968822 42.8845 1.56898 42.1228 2.32798C41.3612 3.08699 40.7579 3.98973 40.348 4.9838C39.938 5.97787 39.7297 7.04346 39.7349 8.11872V17.6187C39.733 18.0106 39.5802 18.3867 39.3084 18.669C39.0365 18.9512 38.6665 19.118 38.2749 19.1347C36.3812 19.2351 34.5811 19.9897 33.1819 21.2697C33.0273 21.4116 32.8445 21.5194 32.6456 21.5863C32.4466 21.6531 32.2359 21.6775 32.0269 21.6577C30.7034 21.5373 29.3704 21.7426 28.1444 22.2555C26.9183 22.7685 25.8364 23.5736 24.9929 24.6007C24.8608 24.7633 24.6958 24.8962 24.5089 24.9908C24.322 25.0854 24.1172 25.1395 23.9079 25.1497C22.5971 25.2206 21.3227 25.6067 20.1929 26.2754C19.0632 26.944 18.1115 27.8755 17.4187 28.9905C16.7259 30.1056 16.3125 31.3714 16.2134 32.6805C16.1144 33.9895 16.3328 35.3031 16.8499 36.5097C17.2278 37.3069 17.4281 38.1766 17.4369 39.0587V45.7377C17.6008 49.4395 18.8399 53.0132 21.0029 56.0217C21.9655 57.4293 22.4832 59.0935 22.4889 60.7987V65.0517C22.4889 65.8902 22.6541 66.7205 22.975 67.4951C23.2958 68.2698 23.7661 68.9737 24.3591 69.5666C24.952 70.1595 25.6558 70.6298 26.4305 70.9507C27.2052 71.2716 28.0354 71.4367 28.8739 71.4367H51.4459C53.1393 71.4367 54.7634 70.764 55.9608 69.5666C57.1582 68.3692 57.8309 66.7451 57.8309 65.0517V59.9877C57.8298 59.2628 58.0721 58.5585 58.5189 57.9877C59.8713 56.2654 61.0325 54.4011 61.9819 52.4277C63.5356 49.2081 64.141 45.6128 63.7274 42.0618C63.3137 38.5109 61.8981 35.151 59.6459 32.3747L59.6439 32.3707Z" fill="#292744"/>
<path d="M33.1819 21.2737C33.0273 21.4156 32.8446 21.5234 32.6456 21.5902C32.4467 21.6571 32.2359 21.6814 32.027 21.6617C30.7036 21.5406 29.3706 21.7452 28.1444 22.2574C26.9182 22.7697 25.8359 23.5742 24.992 24.6007C24.8598 24.7632 24.6949 24.8961 24.5079 24.9907C24.321 25.0853 24.1162 25.1395 23.9069 25.1497C22.5961 25.2205 21.3217 25.6067 20.192 26.2753C19.0622 26.944 18.1106 27.8754 17.4178 28.9905C16.7249 30.1056 16.3115 31.3714 16.2125 32.6804C16.1134 33.9895 16.3318 35.3031 16.849 36.5097C17.2269 37.3068 17.4272 38.1765 17.4359 39.0587V45.7377C17.5998 49.4394 18.839 53.0131 21.0019 56.0217C21.9645 57.4292 22.4822 59.0934 22.4879 60.7987V65.0527C22.4879 66.7461 23.1607 68.3701 24.3581 69.5675C25.5555 70.765 27.1795 71.4377 28.873 71.4377H44.083C43.6114 71.1029 43.2284 70.6584 42.9671 70.1425C42.7058 69.6266 42.5739 69.0549 42.583 68.4767V56.0527C42.6155 54.8159 42.9558 53.6069 43.5732 52.5348C44.1906 51.4627 45.0656 50.5615 46.1189 49.9127L47.948 40.0127C47.948 40.0127 45.668 40.5127 38.261 38.4507C30.854 36.3887 35.553 32.4607 35.553 32.4607L44.017 30.4037C44.017 30.4037 41.803 24.0497 39.303 22.6957C38.9767 22.5568 38.6856 22.347 38.4506 22.0816C38.2156 21.8161 38.0428 21.5016 37.9446 21.1609C37.8464 20.8202 37.8254 20.462 37.8831 20.1122C37.9408 19.7624 38.0756 19.4298 38.278 19.1387C36.3832 19.2383 34.5819 19.993 33.1819 21.2737Z" fill="#292744"/>
<path d="M57.282 34.2933C55.288 31.9933 54.76 30.7663 52.925 29.7213V8.12131C52.925 6.77626 52.3907 5.4863 51.4396 4.53521C50.4885 3.58412 49.1986 3.0498 47.8535 3.0498C46.5085 3.0498 45.2185 3.58412 44.2674 4.53521C43.3163 5.4863 42.782 6.77626 42.782 8.12131V24.2643C42.2448 23.5259 41.5182 22.9463 40.6788 22.5869C39.8394 22.2274 38.9184 22.1014 38.0133 22.2222C37.1082 22.343 36.2526 22.706 35.5368 23.273C34.821 23.84 34.2718 24.5899 33.947 25.4433C33.2615 25.0163 32.4838 24.7594 31.6787 24.6942C30.8737 24.629 30.0648 24.7573 29.3195 25.0685C28.5742 25.3796 27.9141 25.8645 27.3944 26.4828C26.8747 27.101 26.5104 27.8346 26.332 28.6223C25.4046 28.2125 24.3756 28.0903 23.378 28.2714C22.3804 28.4526 21.46 28.9289 20.7359 29.6386C20.0119 30.3484 19.5173 31.259 19.3162 32.2528C19.1152 33.2466 19.2168 34.2779 19.608 35.2133L20.487 37.3193C20.477 37.4343 20.487 36.8413 20.482 45.7383C20.6488 48.8312 21.7059 51.8101 23.526 54.3163C24.8295 56.2274 25.5291 58.486 25.534 60.7993V65.0523C25.5351 65.9373 25.8871 66.7857 26.5129 67.4115C27.1386 68.0372 27.987 68.3892 28.872 68.3903H51.444C52.329 68.3892 53.1774 68.0372 53.8032 67.4115C54.4289 66.7857 54.781 65.9373 54.782 65.0523V59.9873C54.78 58.5729 55.2545 57.199 56.129 56.0873C57.3441 54.5383 58.3872 52.8617 59.24 51.0873C60.5415 48.3898 61.0484 45.3776 60.7015 42.4027C60.3546 39.4278 59.1682 36.613 57.281 34.2873L57.282 34.2933ZM45.126 8.1173C45.126 7.39393 45.4134 6.70018 45.9249 6.18867C46.4364 5.67717 47.1301 5.3898 47.8535 5.3898C48.5769 5.3898 49.2706 5.67717 49.7821 6.18867C50.2937 6.70018 50.581 7.39393 50.581 8.1173V28.8793C48.628 28.5413 47.364 29.1033 45.126 29.4673V8.1173ZM37.631 24.7323C37.9615 24.5941 38.316 24.5223 38.6743 24.5212C39.0326 24.5201 39.3875 24.5896 39.7189 24.7257C40.0503 24.8619 40.3516 25.062 40.6055 25.3147C40.8595 25.5674 41.0612 25.8676 41.199 26.1983L42.758 29.9323L37.295 31.0063L36.165 28.3003C35.8876 27.6327 35.8862 26.8822 36.1612 26.2136C36.4362 25.5449 36.9651 25.0126 37.632 24.7333L37.631 24.7323ZM30.223 27.2323C30.8907 26.9545 31.6412 26.9528 32.3101 27.2276C32.979 27.5025 33.5115 28.0314 33.791 28.6983L35.015 31.6303C34.4923 31.9155 34.0462 32.3227 33.7145 32.8172C33.3829 33.3117 33.1754 33.8789 33.1099 34.4707C33.0443 35.0625 33.1225 35.6614 33.3379 36.2165C33.5533 36.7716 33.8995 37.2666 34.347 37.6593C35.5379 38.6525 36.9272 39.3797 38.422 39.7923L38.837 40.7923C39.1155 41.4599 39.1174 42.2107 38.8423 42.8796C38.5672 43.5486 38.0376 44.0808 37.37 44.3593C36.7025 44.6378 35.9516 44.6397 35.2827 44.3646C34.6137 44.0894 34.0815 43.5599 33.803 42.8923L28.756 30.8043C28.6177 30.4733 28.546 30.1183 28.545 29.7596C28.5439 29.4009 28.6135 29.0455 28.7499 28.7137C28.8862 28.3819 29.0865 28.0802 29.3395 27.8259C29.5924 27.5715 29.893 27.3695 30.224 27.2313L30.223 27.2323ZM45.665 40.5143C45.3998 40.851 45.059 41.1206 44.6702 41.3011C44.2815 41.4817 43.8557 41.5683 43.4273 41.5537C42.9989 41.5392 42.5799 41.4241 42.2043 41.2176C41.8286 41.0112 41.5069 40.7192 41.265 40.3653C42.7256 40.533 44.1974 40.5825 45.666 40.5133L45.665 40.5143ZM23.238 30.7463C23.9057 30.4685 24.6562 30.4668 25.3251 30.7416C25.994 31.0165 26.5265 31.5454 26.806 32.2123L31.642 43.7953C31.79 44.1275 31.87 44.486 31.8774 44.8496C31.8848 45.2133 31.8194 45.5747 31.6851 45.9127C31.5507 46.2507 31.3502 46.5584 31.0952 46.8177C30.8402 47.077 30.5359 47.2828 30.2002 47.4228C29.8646 47.5628 29.5043 47.6343 29.1406 47.6331C28.7769 47.6318 28.4171 47.5579 28.0825 47.4155C27.7478 47.2732 27.4449 47.0654 27.1917 46.8043C26.9385 46.5433 26.74 46.2342 26.608 45.8953L21.773 34.3133C21.4952 33.6459 21.4934 32.8956 21.768 32.2269C22.0427 31.5582 22.5713 31.0258 23.238 30.7463ZM57.133 50.0723C56.3545 51.693 55.4023 53.2243 54.293 54.6393C53.0923 56.1645 52.4397 58.0492 52.44 59.9903V65.0463C52.4387 65.3098 52.3335 65.5621 52.1471 65.7484C51.9608 65.9347 51.7085 66.04 51.445 66.0413H28.873C28.6095 66.04 28.3572 65.9347 28.1709 65.7484C27.9846 65.5621 27.8793 65.3098 27.878 65.0463V60.7983C27.8745 58.0155 27.0349 55.298 25.468 52.9983C23.9124 50.8778 22.9957 48.3567 22.826 45.7323V42.9203L24.444 46.7953C24.8453 47.7577 25.5336 48.5729 26.415 49.1299C27.2965 49.6868 28.3283 49.9584 29.3698 49.9076C30.4112 49.8567 31.4117 49.4859 32.2347 48.8458C33.0578 48.2056 33.6634 47.3272 33.969 46.3303C34.629 46.6757 35.3571 46.8715 36.1013 46.9036C36.8455 46.9358 37.5877 46.8036 38.2751 46.5164C38.9625 46.2293 39.5781 45.7942 40.0783 45.2421C40.5785 44.6901 40.9509 44.0346 41.169 43.3223C41.8767 43.6951 42.6628 43.8943 43.4626 43.9035C44.2624 43.9127 45.0529 43.7317 45.769 43.3753C45.2292 45.1135 44.9505 46.9222 44.942 48.7423C44.942 49.0531 45.0655 49.3512 45.2853 49.571C45.5051 49.7908 45.8032 49.9143 46.114 49.9143C46.4248 49.9143 46.723 49.7908 46.9427 49.571C47.1625 49.3512 47.286 49.0531 47.286 48.7423C47.3461 45.7951 48.1456 42.9101 49.611 40.3523C49.7568 40.0984 49.8295 39.8091 49.8211 39.5165C49.8127 39.2238 49.7235 38.9392 49.5633 38.6941C49.4032 38.449 49.1784 38.253 48.9138 38.1277C48.6492 38.0024 48.3551 37.9528 48.064 37.9843C44.205 38.3993 38.802 38.4173 35.879 35.8843C35.6918 35.7151 35.5556 35.497 35.4856 35.2546C35.4156 35.0122 35.4146 34.755 35.4828 34.5121C35.551 34.2692 35.6856 34.0501 35.8714 33.8794C36.0573 33.7088 36.2871 33.5935 36.535 33.5463L48.411 31.2113C49.2803 31.0397 50.1799 31.1081 51.0132 31.4092C51.8466 31.7103 52.5822 32.2327 53.141 32.9203L55.465 35.7753C57.0706 37.7539 58.0801 40.1486 58.3754 42.6795C58.6708 45.2104 58.2399 47.7732 57.133 50.0683V50.0723Z" fill="white"/>
<path d="M36.2156 61.3164L37.6474 52.5891H39.011L37.5792 61.3164H36.2156ZM32.3079 59.1516L32.5338 57.788H39.3519L39.1261 59.1516H32.3079ZM33.1474 61.3164L34.5792 52.5891H35.9428L34.511 61.3164H33.1474ZM32.8065 56.1175L33.0366 54.7539H39.8548L39.6247 56.1175H32.8065ZM44.4816 52.5891V61.3164H42.6364V54.3406H42.5852L40.5867 55.5934V53.957L42.7472 52.5891H44.4816Z" fill="white"/>
</g>
</g>
</g>
<defs>
<clipPath id="clip0_139_5040">
<rect width="80" height="80" fill="white" transform="translate(0.199951)"/>
</clipPath>
<clipPath id="clip1_139_5040">
<rect width="80" height="80" fill="white" transform="translate(0.199951)"/>
</clipPath>
<clipPath id="clip2_139_5040">
<rect width="80" height="80" fill="white" transform="translate(0.199951)"/>
</clipPath>
</defs>
</svg>
