<svg width="98" height="94" viewBox="0 0 98 94" fill="none" xmlns="http://www.w3.org/2000/svg">
<path d="M87.9235 53.0693C93.2646 34.4427 82.4946 15.013 63.868 9.67189C45.2413 4.33079 25.8117 15.1008 20.4706 33.7275C15.1295 52.3541 25.8995 71.7838 44.5261 77.1249C63.1528 82.466 82.5824 71.6959 87.9235 53.0693Z" fill="#E1E7ED"/>
<mask id="mask0_139_5060" style="mask-type:luminance" maskUnits="userSpaceOnUse" x="9" y="13" width="73" height="73">
<path d="M79.9314 59.1197C85.4251 39.9609 74.3473 19.9761 55.1885 14.4824C36.0297 8.98868 16.0449 20.0664 10.5512 39.2253C5.05748 58.3841 16.1352 78.3689 35.2941 83.8626C54.4529 89.3563 74.4377 78.2785 79.9314 59.1197Z" fill="white"/>
</mask>
<g mask="url(#mask0_139_5060)">
<path d="M89.8508 53.6217C95.3445 34.4629 84.2668 14.478 65.108 8.98434C45.9491 3.49063 25.9643 14.5684 20.4706 33.7272C14.9769 52.886 26.0547 72.8708 45.2135 78.3645C64.3723 83.8582 84.3571 72.7805 89.8508 53.6217Z" fill="white"/>
</g>
<path d="M42.739 54.1921L42.1563 37.4657L57.8831 31.7387L68.1883 44.9302L58.8266 58.8051L42.739 54.1921Z" fill="#292744"/>
<path d="M75.3646 19.9328L60.9936 20.9532L49.3094 12.4616L51.3479 10.706C55.4672 10.3424 59.6183 10.7395 63.5939 11.8773C67.5633 13.002 71.2858 14.8632 74.5671 17.364L75.3646 19.9328Z" fill="#292744"/>
<path d="M86.7043 53.4173C86.4908 54.1622 86.252 54.8602 86.0028 55.5949L84.6088 56.5759L79.1535 43.2327L83.5532 29.4929L85.0271 30.3755C88.3248 37.6081 88.9198 45.7834 86.7043 53.4173Z" fill="#292744"/>
<path d="M33.7536 30.2158L22.0882 38.6498L21.4259 37.0791C21.6038 36.324 21.7713 35.6055 21.9849 34.8607C24.1545 27.2211 28.9763 20.6051 35.5845 16.2004L37.3053 16.2329L33.7536 30.2158Z" fill="#292744"/>
<path d="M76.8715 69.0918C70.7325 74.6341 62.7579 77.7055 54.4872 77.7131L51.6835 75.4492L63.0238 66.5414L77.4275 67.0216L76.8715 69.0918Z" fill="#292744"/>
<path d="M40.0052 72.1023L36.4278 72.5365C29.3905 68.1494 24.2421 61.2955 21.989 53.3146L22.6049 51.3012L35.0744 58.5268L40.0052 72.1023Z" fill="#292744"/>
</svg>
