<svg width="14" height="16" viewBox="0 0 14 16" fill="none" xmlns="http://www.w3.org/2000/svg">
<path d="M4.625 9H3.375C3.16875 9 3 8.83125 3 8.625V7.375C3 7.16875 3.16875 7 3.375 7H4.625C4.83125 7 5 7.16875 5 7.375V8.625C5 8.83125 4.83125 9 4.625 9ZM8 8.625V7.375C8 7.16875 7.83125 7 7.625 7H6.375C6.16875 7 6 7.16875 6 7.375V8.625C6 8.83125 6.16875 9 6.375 9H7.625C7.83125 9 8 8.83125 8 8.625ZM11 8.625V7.375C11 7.16875 10.8313 7 10.625 7H9.375C9.16875 7 9 7.16875 9 7.375V8.625C9 8.83125 9.16875 9 9.375 9H10.625C10.8313 9 11 8.83125 11 8.625ZM8 11.625V10.375C8 10.1687 7.83125 10 7.625 10H6.375C6.16875 10 6 10.1687 6 10.375V11.625C6 11.8312 6.16875 12 6.375 12H7.625C7.83125 12 8 11.8312 8 11.625ZM5 11.625V10.375C5 10.1687 4.83125 10 4.625 10H3.375C3.16875 10 3 10.1687 3 10.375V11.625C3 11.8312 3.16875 12 3.375 12H4.625C4.83125 12 5 11.8312 5 11.625ZM11 11.625V10.375C11 10.1687 10.8313 10 10.625 10H9.375C9.16875 10 9 10.1687 9 10.375V11.625C9 11.8312 9.16875 12 9.375 12H10.625C10.8313 12 11 11.8312 11 11.625ZM14 3.5V14.5C14 15.3281 13.3281 16 12.5 16H1.5C0.671875 16 0 15.3281 0 14.5V3.5C0 2.67187 0.671875 2 1.5 2H3V0.375C3 0.16875 3.16875 0 3.375 0H4.625C4.83125 0 5 0.16875 5 0.375V2H9V0.375C9 0.16875 9.16875 0 9.375 0H10.625C10.8313 0 11 0.16875 11 0.375V2H12.5C13.3281 2 14 2.67187 14 3.5ZM12.5 14.3125V5H1.5V14.3125C1.5 14.4156 1.58438 14.5 1.6875 14.5H12.3125C12.4156 14.5 12.5 14.4156 12.5 14.3125Z" fill="#292744"/>
</svg>
