<svg width="21" height="12" viewBox="0 0 21 12" fill="none" xmlns="http://www.w3.org/2000/svg">
<path d="M3.38031 9.3802H2.24031V3.4402C2.14698 3.53353 2.05365 3.6202 1.96031 3.7002L0.860312 4.6002L0.320312 3.8802L2.42031 2.2202H3.42031L3.38031 9.3802ZM20.3203 9.3802H15.4803V8.5002L17.3203 6.6402C17.547 6.41353 17.8203 6.1202 18.1403 5.7602L18.4003 5.4602C18.5603 5.2602 18.6936 5.0402 18.8003 4.8002C18.8803 4.58686 18.9203 4.36686 18.9203 4.1402C18.9336 3.84686 18.8303 3.59353 18.6103 3.3802C18.3903 3.16686 18.127 3.07353 17.8203 3.1002C17.5403 3.1002 17.2736 3.15353 17.0203 3.2602C16.7003 3.39353 16.407 3.57353 16.1403 3.8002L15.5203 3.0402C15.867 2.74686 16.2536 2.51353 16.6803 2.3402C17.067 2.19353 17.467 2.1202 17.8803 2.1202C18.4803 2.09353 19.0136 2.26686 19.4803 2.6402C19.6803 2.81353 19.8336 3.02353 19.9403 3.2702C20.047 3.51686 20.0936 3.77353 20.0803 4.0402C20.0803 4.3602 20.0203 4.66686 19.9003 4.9602C19.767 5.2802 19.587 5.5802 19.3603 5.8602C19.0003 6.3002 18.607 6.71353 18.1803 7.1002L16.9403 8.3202H20.3203V9.3802ZM14.3203 11.2002H12.9203L10.1203 6.6202L7.32031 11.2002H6.00031L9.46031 5.7602L6.24031 0.760196H7.56031L10.1603 4.9202L12.7603 0.800196H14.0403L10.8203 5.7202L14.3203 11.2002Z" fill="#6F8CAA"/>
</svg>
