<svg width="21" height="20" viewBox="0 0 21 20" fill="none" xmlns="http://www.w3.org/2000/svg">
<path d="M2.99957 17.08C3.95957 18.04 5.05957 18.7733 6.29957 19.28C7.5129 19.76 8.76957 20 10.0696 20C11.3696 20 12.6262 19.7533 13.8396 19.26C15.0796 18.7533 16.1796 18.02 17.1396 17.06C18.0996 16.1 18.8329 15 19.3396 13.76C19.8196 12.56 20.0596 11.3067 20.0596 10C20.0596 8.69333 19.8196 7.44 19.3396 6.24C18.8329 5 18.0996 3.9 17.1396 2.94C16.1796 1.98 15.0796 1.24667 13.8396 0.74C12.6262 0.246668 11.3696 0 10.0696 0C8.76957 0 7.5129 0.24 6.29957 0.720001C5.05957 1.22667 3.9629 1.95333 3.00957 2.9C2.05624 3.84667 1.32624 4.93333 0.81957 6.16C0.312904 7.38667 0.0595703 8.66667 0.0595703 10C0.0595703 11.3333 0.312904 12.6133 0.81957 13.84C1.32624 15.0667 2.0529 16.1467 2.99957 17.08ZM0.77957 10.36H3.15957C3.19957 11.16 3.3729 11.9267 3.67957 12.66C3.98624 13.3933 4.40624 14.0533 4.93957 14.64L3.25957 16.32C2.49957 15.5067 1.90624 14.5867 1.47957 13.56C1.0529 12.5333 0.81957 11.4667 0.77957 10.36ZM5.43957 15.14C6.02624 15.6733 6.68624 16.09 7.41957 16.39C8.1529 16.69 8.91957 16.86 9.71957 16.9V19.3C8.59957 19.26 7.5229 19.0267 6.48957 18.6C5.45624 18.1733 4.5329 17.58 3.71957 16.82L5.43957 15.14ZM10.4396 16.9C11.2396 16.86 12.0096 16.6867 12.7496 16.38C13.4896 16.0733 14.1529 15.6533 14.7396 15.12L16.4396 16.8C15.6262 17.56 14.7029 18.1567 13.6696 18.59C12.6362 19.0233 11.5596 19.26 10.4396 19.3V16.9ZM15.2396 14.62C15.7729 14.0333 16.1896 13.3733 16.4896 12.64C16.7896 11.9067 16.9596 11.1467 16.9996 10.36H19.3796C19.3396 11.4667 19.1062 12.53 18.6796 13.55C18.2529 14.57 17.6662 15.4867 16.9196 16.3L15.2396 14.62ZM16.9996 9.62C16.9596 8.82 16.7862 8.05333 16.4796 7.32C16.1729 6.58667 15.7529 5.92667 15.2196 5.34L16.8996 3.66C17.6596 4.48667 18.2529 5.41333 18.6796 6.44C19.1062 7.46667 19.3396 8.54 19.3796 9.66L16.9996 9.62ZM14.6996 4.88C14.1129 4.34667 13.4529 3.92667 12.7196 3.62C11.9862 3.31333 11.2196 3.14 10.4196 3.1V0.720001C11.5396 0.76 12.6162 0.99 13.6496 1.41C14.6829 1.83 15.6062 2.42 16.4196 3.18L14.6996 4.88ZM9.69957 3.1C8.9129 3.14 8.15624 3.31 7.42957 3.61C6.7029 3.91 6.04624 4.32667 5.45957 4.86L3.77957 3.16C4.5929 2.41333 5.50957 1.83 6.52957 1.41C7.54957 0.99 8.6129 0.76 9.71957 0.720001L9.69957 3.1ZM10.0596 3.8C10.8862 3.8 11.6796 3.95667 12.4396 4.27C13.1996 4.58333 13.8729 5.03 14.4596 5.61C15.0462 6.19 15.4996 6.86333 15.8196 7.63C16.1396 8.39667 16.2996 9.19333 16.2996 10.02C16.2996 10.8467 16.1429 11.64 15.8296 12.4C15.5162 13.16 15.0662 13.8333 14.4796 14.42C13.8929 15.0067 13.2196 15.4567 12.4596 15.77C11.6996 16.0833 10.9062 16.24 10.0796 16.24C9.2529 16.24 8.45624 16.08 7.68957 15.76C6.9229 15.44 6.24957 14.9867 5.66957 14.4C5.08957 13.8133 4.6429 13.14 4.32957 12.38C4.01624 11.62 3.85957 10.8267 3.85957 10C3.85957 8.88 4.14624 7.84 4.71957 6.88C5.26624 5.94667 6.00624 5.20667 6.93957 4.66C7.89957 4.08667 8.93957 3.8 10.0596 3.8ZM3.25957 3.66L4.95957 5.36C4.42624 5.94667 4.0029 6.60667 3.68957 7.34C3.37624 8.07333 3.19957 8.84 3.15957 9.64H0.77957C0.81957 8.52 1.05624 7.44667 1.48957 6.42C1.9229 5.39333 2.51957 4.47333 3.27957 3.66H3.25957ZM8.05957 10.74L7.71957 12.74C7.70624 12.8333 7.72624 12.92 7.77957 13C7.8329 13.08 7.9029 13.1267 7.98957 13.14C8.07624 13.1533 8.1529 13.1533 8.21957 13.14L10.0396 12.14L11.8796 13.14C12.0129 13.1933 12.1329 13.1767 12.2396 13.09C12.3462 13.0033 12.3929 12.8933 12.3796 12.76L12.0396 10.76L13.4596 9.3C13.5129 9.26 13.5496 9.20667 13.5696 9.14C13.5896 9.07333 13.5896 9.00667 13.5696 8.94C13.5496 8.87333 13.5096 8.81667 13.4496 8.77C13.3896 8.72333 13.3262 8.7 13.2596 8.7L11.2596 8.4L10.3596 6.56C10.3196 6.46667 10.2529 6.40667 10.1596 6.38C10.0662 6.35333 9.97624 6.35667 9.88957 6.39C9.8029 6.42333 9.74624 6.48 9.71957 6.56L8.77957 8.4L6.77957 8.7C6.68624 8.71333 6.60957 8.76 6.54957 8.84C6.48957 8.92 6.46624 9.00333 6.47957 9.09C6.4929 9.17667 6.52624 9.24667 6.57957 9.3L8.05957 10.74ZM9.05957 9.08C9.17957 9.05333 9.26624 8.98667 9.31957 8.88L9.99957 7.5L10.6796 8.88C10.7329 9 10.8262 9.06667 10.9596 9.08L12.4796 9.3L11.3796 10.36C11.2862 10.4533 11.2529 10.56 11.2796 10.68L11.5396 12.2L10.1796 11.48C10.0729 11.4267 9.95957 11.4267 9.83957 11.48L8.47957 12.2L8.73957 10.68C8.76624 10.56 8.7329 10.4533 8.63957 10.36L7.53957 9.3L9.05957 9.08Z" fill="#6F8CAA"/>
</svg>
