<svg width="22" height="30" viewBox="0 0 22 30" fill="none" xmlns="http://www.w3.org/2000/svg">
<path d="M21.389 29.333C21.2269 29.333 21.0713 29.269 20.956 29.155L17.762 25.961L15.135 29.114C15.0807 29.1793 15.0133 29.2325 14.9372 29.2703C14.861 29.308 14.7779 29.3293 14.693 29.333C14.6081 29.3376 14.5232 29.3241 14.4439 29.2935C14.3646 29.2628 14.2927 29.2156 14.233 29.155L11 25.92L7.766 29.154C7.70649 29.2149 7.6347 29.2625 7.55538 29.2935C7.47607 29.3246 7.39106 29.3384 7.306 29.334C7.22115 29.3302 7.13802 29.3088 7.06192 29.2711C6.98581 29.2334 6.91841 29.1802 6.864 29.115L4.237 25.961L1.044 29.155C0.958356 29.2403 0.84935 29.2984 0.730738 29.3219C0.612126 29.3453 0.489223 29.3331 0.377538 29.2868C0.265853 29.2405 0.170392 29.1621 0.1032 29.0616C0.0360088 28.9611 9.82299e-05 28.8429 0 28.722V3.056C0.00105836 2.24582 0.323369 1.46913 0.896251 0.896251C1.46913 0.323369 2.24582 0.00105836 3.056 0L18.944 0C19.7542 0.00105836 20.5309 0.323369 21.1038 0.896251C21.6766 1.46913 21.9989 2.24582 22 3.056V28.722C22 28.843 21.9641 28.9613 21.8968 29.0619C21.8295 29.1625 21.7339 29.2408 21.622 29.287C21.5482 29.3177 21.469 29.3333 21.389 29.333Z" fill="#292744"/>
</svg>
