<svg width="14" height="14" viewBox="0 0 14 14" fill="none" xmlns="http://www.w3.org/2000/svg">
<path d="M7 0C3.13391 0 0 3.13391 0 7C0 10.8661 3.13391 14 7 14C10.8661 14 14 10.8661 14 7C14 3.13391 10.8661 0 7 0ZM9.3227 10.0935C9.21262 10.2031 9.09718 10.3179 9.00347 10.4119C8.91907 10.4966 8.85952 10.601 8.82931 10.7142C8.78669 10.874 8.75226 11.0354 8.69468 11.1904L8.20383 12.5128C7.81544 12.5975 7.41351 12.6452 7 12.6452V11.8723C7.0477 11.5161 6.78435 10.8489 6.36125 10.4258C6.1919 10.2564 6.09677 10.0267 6.09677 9.78702V8.88351C6.09677 8.55496 5.9198 8.25294 5.63218 8.09403C5.22657 7.86964 4.64964 7.55605 4.25448 7.35706C3.93044 7.19391 3.63069 6.98617 3.36113 6.74314L3.33855 6.72282C3.14578 6.54882 2.97464 6.35228 2.82879 6.13742C2.56403 5.74875 2.13274 5.10944 1.85246 4.69395C2.43024 3.40968 3.47149 2.37831 4.76536 1.81802L5.44306 2.15702C5.74339 2.30718 6.09677 2.08899 6.09677 1.7531V1.43415C6.3223 1.39774 6.55177 1.3746 6.7852 1.36585L7.58399 2.16464C7.7604 2.34105 7.7604 2.62698 7.58399 2.80339L7.45161 2.93548L7.15976 3.22734C7.07169 3.3154 7.07169 3.45851 7.15976 3.54657L7.29214 3.67895C7.3802 3.76702 7.3802 3.91012 7.29214 3.99819L7.06633 4.22399C7.02393 4.26631 6.96647 4.29006 6.90657 4.29004H6.65282C6.59411 4.29004 6.53766 4.3129 6.49532 4.35411L6.21532 4.62649C6.181 4.65991 6.15818 4.70338 6.15017 4.75061C6.14215 4.79784 6.14935 4.8464 6.17073 4.88927L6.61077 5.76964C6.68585 5.9198 6.57661 6.09649 6.40895 6.09649H6.24976C6.19528 6.09649 6.14278 6.07673 6.10185 6.04117L5.83992 5.81367C5.78064 5.76225 5.70901 5.72714 5.63205 5.7118C5.55509 5.69646 5.47547 5.70141 5.40101 5.72617L4.52121 6.01943C4.45404 6.04183 4.39562 6.0848 4.35423 6.14225C4.31284 6.1997 4.29058 6.26871 4.2906 6.33952C4.2906 6.46738 4.36286 6.58395 4.47718 6.64125L4.78992 6.79762C5.05552 6.93056 5.34851 6.99972 5.64544 6.99972C5.94238 6.99972 6.28306 7.77 6.54867 7.90294H8.43274C8.67238 7.90294 8.90185 7.99806 9.07149 8.16742L9.4579 8.55383C9.61933 8.71532 9.71 8.93432 9.70996 9.16266C9.7099 9.33568 9.67566 9.50699 9.6092 9.66674C9.54274 9.82649 9.44538 9.97154 9.3227 10.0935ZM11.7702 7.51512C11.6067 7.47419 11.4642 7.37399 11.3708 7.23371L10.8633 6.47246C10.789 6.36124 10.7494 6.23051 10.7494 6.09677C10.7494 5.96304 10.789 5.83231 10.8633 5.72109L11.4162 4.89181C11.4817 4.79387 11.5715 4.71427 11.677 4.66177L12.0434 4.47859C12.425 5.23843 12.6452 6.0931 12.6452 7C12.6452 7.24472 12.6243 7.48435 12.5938 7.72089L11.7702 7.51512Z" fill="black"/>
</svg>
