<svg width="41" height="41" viewBox="0 0 41 41" fill="none" xmlns="http://www.w3.org/2000/svg">
<g clip-path="url(#clip0_139_2039)">
<g clip-path="url(#clip1_139_2039)">
<g clip-path="url(#clip2_139_2039)">
<mask id="mask0_139_2039" style="mask-type:luminance" maskUnits="userSpaceOnUse" x="0" y="0" width="41" height="41">
<path d="M40.4 0.640137H0.399994V40.6401H40.4V0.640137Z" fill="white"/>
</mask>
<g mask="url(#mask0_139_2039)">
<path d="M0.399994 15.3938L19.66 27.4498C19.8756 27.6049 20.1344 27.6884 20.4 27.6884C20.6656 27.6884 20.9244 27.6049 21.14 27.4498L40.4 15.3938L21.15 0.886831C20.9324 0.727495 20.6697 0.641602 20.4 0.641602C20.1303 0.641602 19.8676 0.727495 19.65 0.886831L0.399994 15.3938Z" fill="#706E82"/>
<path d="M32.7495 0.640137H8.05049C7.37991 0.657567 6.74354 0.939919 6.28063 1.42541C5.81772 1.9109 5.56598 2.55999 5.58049 3.23064V31.7241C5.57284 32.0595 5.69859 32.3843 5.93013 32.6271C6.16167 32.8699 6.48009 33.0109 6.81549 33.0191H33.9845C34.3199 33.0109 34.6383 32.8699 34.8698 32.6271C35.1014 32.3843 35.2271 32.0595 35.2195 31.7241V3.23064C35.2344 2.55987 34.9828 1.91056 34.5198 1.42498C34.0568 0.939406 33.4202 0.657174 32.7495 0.640137Z" fill="#F5EF44"/>
<path d="M21.14 27.4373C20.9277 27.6003 20.6676 27.6887 20.4 27.6887C20.1324 27.6887 19.8722 27.6003 19.66 27.4373L0.399988 14.7373V38.0503C0.389143 38.725 0.646174 39.3765 1.11477 39.8621C1.58337 40.3476 2.22532 40.6277 2.89999 40.6408H37.9C38.5747 40.6277 39.2166 40.3476 39.6852 39.8621C40.1538 39.3765 40.4108 38.725 40.4 38.0503V14.7373L21.14 27.4373Z" fill="#E1E7ED"/>
<path d="M37.9 40.6399H2.89999C2.56467 40.6376 2.23319 40.5683 1.92499 40.4362C1.6168 40.304 1.3381 40.1117 1.10523 39.8704C0.872373 39.6291 0.690042 39.3437 0.568937 39.031C0.447833 38.7183 0.390393 38.3846 0.399987 38.0494C0.399157 37.8479 0.444728 37.649 0.533169 37.4679C0.62161 37.2869 0.750546 37.1286 0.909988 37.0054L19.66 24.0554C19.8723 23.8925 20.1324 23.8042 20.4 23.8042C20.6676 23.8042 20.9277 23.8925 21.14 24.0554L39.89 37.0054C40.0495 37.1287 40.1785 37.287 40.2669 37.4681C40.3554 37.6493 40.4009 37.8483 40.4 38.0499C40.4095 38.3851 40.352 38.7187 40.2309 39.0314C40.1098 39.344 39.9274 39.6293 39.6946 39.8706C39.4617 40.1118 39.183 40.3041 38.8749 40.4362C38.5667 40.5683 38.2353 40.6376 37.9 40.6399Z" fill="white"/>
<path d="M20.7185 5.64307H20.718C16.7142 5.64307 13.4685 8.88878 13.4685 12.8926V12.8931C13.4685 16.8969 16.7142 20.1426 20.718 20.1426H20.7185C24.7223 20.1426 27.968 16.8969 27.968 12.8931V12.8926C27.968 8.88878 24.7223 5.64307 20.7185 5.64307Z" fill="#292744"/>
<path d="M19.604 15.6727L16.7105 12.7787C16.6645 12.7355 16.6277 12.6834 16.6023 12.6257C16.5768 12.5679 16.5632 12.5056 16.5622 12.4425C16.5613 12.3794 16.573 12.3168 16.5967 12.2583C16.6205 12.1998 16.6557 12.1467 16.7003 12.102C16.7449 12.0574 16.7981 12.0222 16.8565 11.9985C16.915 11.9748 16.9777 11.9631 17.0408 11.964C17.1039 11.965 17.1662 11.9786 17.2239 12.004C17.2817 12.0295 17.3337 12.0663 17.377 12.1122L19.9375 14.6727L23.754 10.4727C23.8424 10.3841 23.9623 10.3342 24.0875 10.334C24.2127 10.3338 24.3328 10.3833 24.4215 10.4717C24.5101 10.5601 24.56 10.6801 24.5602 10.8053C24.5604 10.9305 24.5109 11.0506 24.4225 11.1392L20.2725 15.6727C20.1841 15.7611 20.0642 15.8107 19.9392 15.8107C19.8142 15.8107 19.6944 15.7611 19.606 15.6727H19.604Z" fill="white"/>
</g>
</g>
</g>
</g>
<defs>
<clipPath id="clip0_139_2039">
<rect width="40" height="40" fill="white" transform="translate(0.399994 0.640137)"/>
</clipPath>
<clipPath id="clip1_139_2039">
<rect width="40" height="40" fill="white" transform="translate(0.399994 0.640137)"/>
</clipPath>
<clipPath id="clip2_139_2039">
<rect width="40" height="40" fill="white" transform="translate(0.399994 0.640137)"/>
</clipPath>
</defs>
</svg>
