<svg width="24" height="18" viewBox="0 0 24 18" fill="none" xmlns="http://www.w3.org/2000/svg">
<g clip-path="url(#clip0_139_3441)">
<g clip-path="url(#clip1_139_3441)">
<g clip-path="url(#clip2_139_3441)">
<path d="M10.0893 14.0847C14.5076 14.0847 19.1921 11.0548 20.5525 7.31727C21.9128 3.5797 19.4339 0.549805 15.0156 0.549805C10.5973 0.549805 5.91283 3.5797 4.55247 7.31727C3.19211 11.0548 5.67104 14.0847 10.0893 14.0847Z" fill="#F0F0F0"/>
<path d="M20.806 6.43457H13.9173H13.9172L16.0383 0.60709C15.7104 0.569473 15.3693 0.549805 15.0156 0.549805C14.662 0.549805 14.3066 0.569473 13.9513 0.60709L11.8303 6.43451L11.8303 6.43454H4.94148C4.79183 6.72351 4.66138 7.01805 4.55247 7.31727C4.44356 7.61649 4.35961 7.91104 4.29891 8.19998H11.1877H11.1877L9.06667 14.0275C9.39457 14.0651 9.73566 14.0847 10.0893 14.0847C10.443 14.0847 10.7984 14.0651 11.1536 14.0275L13.2746 8.20003L13.2747 8.2H20.1635C20.3131 7.91104 20.4436 7.61649 20.5525 7.31727C20.6614 7.01805 20.7453 6.72351 20.806 6.43457Z" fill="#D80027"/>
</g>
</g>
</g>
<defs>
<clipPath id="clip0_139_3441">
<rect width="16" height="19.7902" fill="white" transform="matrix(1 0 -0.307894 0.845933 7.01562 0.549805)"/>
</clipPath>
<clipPath id="clip1_139_3441">
<rect width="16" height="19.7902" fill="white" transform="matrix(1 0 -0.307894 0.845933 7.01562 0.549805)"/>
</clipPath>
<clipPath id="clip2_139_3441">
<rect width="16" height="16" fill="white" transform="matrix(1 0 -0.307894 0.845933 7.01562 0.549805)"/>
</clipPath>
</defs>
</svg>
