<svg width="21" height="21" viewBox="0 0 21 21" fill="none" xmlns="http://www.w3.org/2000/svg">
<path d="M10.0156 20.6099C4.49563 20.6099 0.015625 16.1299 0.015625 10.6099C0.015625 5.08986 4.49563 0.609863 10.0156 0.609863C15.5356 0.609863 20.0156 5.08986 20.0156 10.6099C20.0156 16.1299 15.5356 20.6099 10.0156 20.6099ZM10.0156 1.58986C5.03562 1.58986 0.995625 5.62986 0.995625 10.6099C0.995625 15.5899 5.03562 19.6299 10.0156 19.6299C14.9956 19.6299 19.0356 15.5899 19.0356 10.6099C19.0356 5.62986 14.9956 1.58986 10.0156 1.58986ZM10.4356 4.60986L9.43563 4.96986L8.81563 5.62986L8.99563 6.40986L9.73563 6.52986L10.0956 7.26986L12.3556 6.90986L13.3156 7.48986L11.3356 8.62986L10.2556 8.50986L9.07563 8.70986L7.91563 10.3699L6.27562 10.6099L6.01562 12.0499L6.71563 12.2099L6.51562 13.1099L4.87563 12.7899L3.39562 13.1099L3.05562 13.9499L3.31562 15.7099L4.21563 16.1299H5.69562L6.67562 16.0499L7.01562 15.2499L8.57563 13.2499L9.59563 13.4499L10.5956 12.5499L10.7956 13.2499L13.3156 14.9299L13.0156 15.3499L11.9156 15.3099C11.9156 15.3099 12.1956 15.7899 12.3156 15.9099C12.4356 16.0499 12.8556 16.0899 13.0156 16.0899C13.2356 16.0899 13.8356 15.7499 13.8356 15.7499V14.7699L14.2156 14.6099L13.9356 14.3099L12.2356 13.3699L11.7956 12.0899H13.1756L13.6356 12.5499L14.8356 13.5699L14.8756 14.8099C14.8756 14.8099 16.1556 14.7699 16.4356 14.4699C16.8556 14.0699 16.8956 12.2099 16.8956 12.2099C16.8956 12.2099 17.3356 9.82986 17.1756 8.82986C16.8556 7.18986 14.8356 3.94986 14.8356 3.94986C14.8356 3.94986 13.5556 3.02986 13.0556 3.06986C12.2756 3.06986 10.4356 4.60986 10.4356 4.60986Z" fill="#6F8CAA"/>
</svg>
