<svg width="32" height="33" viewBox="0 0 32 33" fill="none" xmlns="http://www.w3.org/2000/svg">
<g clip-path="url(#clip0_611_725)">
<path fill-rule="evenodd" clip-rule="evenodd" d="M16 32.1099H8C5.87827 32.1099 3.84344 31.267 2.34315 29.7667C0.842855 28.2664 0 26.2316 0 24.1099V8.10986C0 5.98813 0.842855 3.9533 2.34315 2.45301C3.84344 0.952718 5.87827 0.109863 8 0.109863L24 0.109863C26.1217 0.109863 28.1566 0.952718 29.6569 2.45301C31.1571 3.9533 32 5.98813 32 8.10986V24.1099C32 26.2316 31.1571 28.2664 29.6569 29.7667C28.1566 31.267 26.1217 32.1099 24 32.1099H21C21 31.4468 20.7366 30.8109 20.2678 30.3421C19.7989 29.8733 19.163 29.6099 18.5 29.6099C17.837 29.6099 17.2011 29.8733 16.7322 30.3421C16.2634 30.8109 16 31.4468 16 32.1099Z" fill="#3764B9"/>
<path fill-rule="evenodd" clip-rule="evenodd" d="M14.9911 9.15486H23.9851C25.1409 9.1488 26.2506 8.70055 27.0863 7.90212C27.9221 7.10369 28.4206 6.01565 28.4794 4.86129C28.5383 3.70693 28.1531 2.57383 27.4028 1.69454C26.6526 0.815244 25.5943 0.256458 24.4451 0.132863C24.2921 0.123863 24.1451 0.109863 23.9851 0.109863H8.00006C6.94686 0.112224 5.90445 0.322054 4.93237 0.727367C3.96029 1.13268 3.07759 1.72553 2.33468 2.47206C1.59177 3.21859 1.00321 4.10417 0.602634 5.07821C0.202053 6.05225 -0.00270492 7.09567 5.61575e-05 8.14886V24.2289C-0.0108331 20.2422 1.56229 16.4145 4.3734 13.5876C7.18452 10.7607 11.0034 9.16625 14.9901 9.15486" fill="#507DD2"/>
<path fill-rule="evenodd" clip-rule="evenodd" d="M23.9599 16.0307C22.3698 16.0307 20.8153 16.5023 19.4931 17.3857C18.171 18.2692 17.1405 19.5248 16.5319 20.9939C15.9234 22.4631 15.7642 24.0796 16.0744 25.6392C16.3846 27.1989 17.1504 28.6314 18.2748 29.7559C19.3992 30.8803 20.8318 31.646 22.3914 31.9562C23.951 32.2665 25.5676 32.1072 27.0367 31.4987C28.5058 30.8902 29.7615 29.8597 30.6449 28.5375C31.5284 27.2153 31.9999 25.6609 31.9999 24.0707V7.99072C31.9999 10.1231 31.1529 12.1681 29.6451 13.6759C28.1373 15.1837 26.0923 16.0307 23.9599 16.0307Z" fill="#1E4BA0"/>
<path fill-rule="evenodd" clip-rule="evenodd" d="M26.0241 8.99607C26.0241 9.26129 25.9187 9.51565 25.7312 9.70318C25.5437 9.89072 25.2893 9.99607 25.0241 9.99607H22.0041C21.7389 9.99607 21.4845 10.1014 21.297 10.289C21.1095 10.4765 21.0041 10.7309 21.0041 10.9961V15.0161H24.8041C24.9528 15.0153 25.0999 15.0477 25.2345 15.1109C25.3691 15.1742 25.4879 15.2666 25.5823 15.3816C25.6766 15.4966 25.7442 15.6311 25.7799 15.7755C25.8157 15.9198 25.8188 16.0704 25.7891 16.2161L25.1891 19.2311C25.1445 19.4593 25.0217 19.6648 24.8419 19.8122C24.6622 19.9597 24.4366 20.0399 24.2041 20.0391H21.0041V32.0991H15.9741V20.0511H12.9541C12.6889 20.0511 12.4345 19.9457 12.247 19.7582C12.0595 19.5706 11.9541 19.3163 11.9541 19.0511V16.0311C11.9541 15.7659 12.0595 15.5115 12.247 15.324C12.4345 15.1364 12.6889 15.0311 12.9541 15.0311H15.9741V11.0061C15.9741 9.40682 16.6094 7.87306 17.7402 6.74222C18.8711 5.61138 20.4048 4.97607 22.0041 4.97607H25.0191C25.2843 4.97607 25.5387 5.08143 25.7262 5.26897C25.9137 5.4565 26.0191 5.71086 26.0191 5.97607L26.0241 8.99607Z" fill="white"/>
</g>
<defs>
<clipPath id="clip0_611_725">
<rect width="32" height="32" fill="white" transform="translate(0 0.109863)"/>
</clipPath>
</defs>
</svg>
