<svg width="30" height="30" viewBox="0 0 30 30" fill="none" xmlns="http://www.w3.org/2000/svg">
<path d="M22.2656 4.04297H7.73435C7.19055 4.04353 6.66918 4.25975 6.28459 4.6442C5.90001 5.02866 5.68361 5.54996 5.68286 6.09375V24.1235C5.68302 24.4362 5.76323 24.7437 5.91587 25.0166C6.06851 25.2896 6.28848 25.5189 6.55484 25.6827C6.8212 25.8466 7.12507 25.9395 7.43751 25.9526C7.74995 25.9658 8.06056 25.8987 8.33974 25.7578L14.5443 22.627C14.6857 22.5561 14.8418 22.5191 15 22.5191C15.1582 22.5191 15.3142 22.5561 15.4556 22.627L21.6602 25.7578C21.9394 25.8987 22.2501 25.9658 22.5626 25.9526C22.8751 25.9394 23.179 25.8465 23.4454 25.6825C23.7118 25.5186 23.9317 25.2892 24.0843 25.0162C24.2369 24.7431 24.317 24.4356 24.3171 24.1228V6.09375C24.3163 5.54996 24.0999 5.02866 23.7153 4.6442C23.3308 4.25975 22.8094 4.04353 22.2656 4.04297ZM23.4965 24.1238C23.4965 24.2965 23.4522 24.4663 23.368 24.617C23.2837 24.7678 23.1622 24.8945 23.0151 24.985C22.868 25.0754 22.7002 25.1268 22.5276 25.134C22.3551 25.1412 22.1835 25.1042 22.0293 25.0263L15.8252 21.8946C15.5691 21.7661 15.2865 21.6992 15 21.6992C14.7134 21.6992 14.4308 21.7661 14.1747 21.8946L7.97036 25.0263C7.81619 25.1042 7.64465 25.1412 7.47209 25.134C7.29953 25.1268 7.1317 25.0754 6.9846 24.985C6.83749 24.8945 6.71602 24.7678 6.63174 24.617C6.54747 24.4663 6.50321 24.2965 6.50317 24.1238V6.09375C6.50367 5.76744 6.63356 5.45465 6.86437 5.22398C7.09517 4.99331 7.40804 4.86359 7.73435 4.86328H22.2656C22.5919 4.86359 22.9048 4.99331 23.1356 5.22398C23.3664 5.45465 23.4963 5.76744 23.4968 6.09375L23.4965 24.1238Z" fill="black"/>
<path d="M19.2162 11.4377L16.766 11.0817L15.6701 8.86143C15.6084 8.73638 15.5129 8.63109 15.3945 8.55747C15.2761 8.48384 15.1394 8.44482 15 8.44482C14.8605 8.44482 14.7239 8.48384 14.6055 8.55747C14.4871 8.63109 14.3916 8.73638 14.3299 8.86143L13.234 11.0817L10.7838 11.4377C10.6458 11.4578 10.5162 11.516 10.4096 11.6059C10.303 11.6958 10.2237 11.8138 10.1806 11.9464C10.1375 12.079 10.1324 12.221 10.1658 12.3564C10.1992 12.4918 10.2698 12.6151 10.3697 12.7124L12.1427 14.4407L11.7241 16.8806C11.7001 17.0181 11.7151 17.1596 11.7675 17.289C11.8199 17.4184 11.9076 17.5306 12.0205 17.6126C12.1335 17.6947 12.2672 17.7435 12.4064 17.7534C12.5457 17.7632 12.6849 17.7339 12.8083 17.6685L15 16.5164L17.1916 17.6685C17.315 17.7334 17.4542 17.7625 17.5932 17.7525C17.7323 17.7424 17.8658 17.6937 17.9786 17.6117C18.0914 17.5298 18.1791 17.4179 18.2316 17.2887C18.2841 17.1595 18.2994 17.0182 18.2758 16.8808L17.8573 14.4405L19.6303 12.7122C19.7301 12.6149 19.8006 12.4915 19.834 12.3562C19.8674 12.2209 19.8622 12.0789 19.8191 11.9463C19.7761 11.8137 19.6968 11.6958 19.5902 11.606C19.4837 11.5161 19.3541 11.4578 19.2162 11.4377ZM17.2572 13.8799C17.1705 13.9644 17.1056 14.0688 17.0681 14.184C17.0307 14.2993 17.0218 14.4219 17.0423 14.5413L17.4424 16.8738L15.3473 15.7722C15.2401 15.7159 15.1208 15.6865 14.9998 15.6865C14.8787 15.6865 14.7594 15.7159 14.6522 15.7722L12.5576 16.8738L12.9576 14.5413C12.9781 14.4219 12.9693 14.2993 12.9318 14.184C12.8944 14.0688 12.8295 13.9644 12.7427 13.8799L11.0482 12.228L13.3903 11.8877C13.5102 11.8703 13.6241 11.8241 13.7221 11.7528C13.8201 11.6816 13.8993 11.5876 13.9528 11.4789L15 9.3569L16.0472 11.4785C16.1007 11.5872 16.1799 11.6813 16.2779 11.7527C16.3759 11.824 16.4897 11.8704 16.6097 11.8879L18.9515 12.228L17.2572 13.8799Z" fill="black"/>
</svg>
