<svg width="13" height="13" viewBox="0 0 13 13" fill="none" xmlns="http://www.w3.org/2000/svg">
<g clip-path="url(#clip0_139_5784)">
<path d="M11.8918 5.8175L6.20195 1.65707C6.14491 1.61429 6.0843 1.5929 6.02013 1.5929C5.95596 1.5929 5.89535 1.61429 5.83831 1.65707L0.14847 5.8175C0.0771692 5.86741 0.0343885 5.93514 0.0201282 6.02071C0.00586799 6.10627 0.0254758 6.18292 0.0789518 6.25065C0.132428 6.31839 0.200164 6.35939 0.28216 6.37365C0.364157 6.38791 0.440806 6.37008 0.512107 6.32017L6.02013 2.28809L11.5281 6.32017C11.5995 6.37008 11.6761 6.38791 11.7581 6.37365C11.8401 6.35939 11.9078 6.31839 11.9613 6.25065C12.0148 6.18292 12.0344 6.10627 12.0201 6.02071C12.0059 5.93514 11.9631 5.86741 11.8918 5.8175ZM10.3838 6.39504C10.2982 6.39504 10.2251 6.42534 10.1645 6.48595C10.1039 6.54655 10.0736 6.61964 10.0736 6.7052V11.6678H7.58163V8.95119C7.58163 8.66598 7.51211 8.40395 7.37307 8.16509C7.23403 7.92623 7.04508 7.73728 6.80622 7.59825C6.56737 7.45921 6.30533 7.38969 6.02013 7.38969C5.73492 7.38969 5.47289 7.45921 5.23403 7.59825C4.99517 7.73728 4.80622 7.92623 4.66719 8.16509C4.52815 8.40395 4.45863 8.66598 4.45863 8.95119V11.6678H1.96665V6.7052C1.96665 6.61964 1.93635 6.54655 1.87574 6.48595C1.81514 6.42534 1.74205 6.39504 1.65649 6.39504C1.57093 6.39504 1.49785 6.42534 1.43724 6.48595C1.37663 6.54655 1.34633 6.61964 1.34633 6.7052V11.9779C1.34633 12.0635 1.37663 12.1366 1.43724 12.1972C1.49785 12.2578 1.57093 12.2881 1.65649 12.2881H4.76879C4.84722 12.2881 4.91674 12.2596 4.97735 12.2025C5.03795 12.1455 5.07182 12.0777 5.07895 11.9993V8.96188C5.05756 8.78363 5.08608 8.61251 5.16451 8.44851C5.24294 8.28452 5.35881 8.15618 5.51211 8.06349C5.6654 7.9708 5.83296 7.92445 6.01478 7.92445C6.1966 7.92445 6.36416 7.9708 6.51746 8.06349C6.67075 8.15618 6.78662 8.28452 6.86505 8.44851C6.94348 8.61251 6.972 8.78363 6.95061 8.96188V11.9993C6.95774 12.0777 6.99161 12.1455 7.05221 12.2025C7.11282 12.2596 7.18234 12.2881 7.26077 12.2881H10.3838C10.4693 12.2881 10.5424 12.2578 10.603 12.1972C10.6636 12.1366 10.6939 12.0635 10.6939 11.9779V6.7052C10.6939 6.61964 10.6636 6.54655 10.603 6.48595C10.5424 6.42534 10.4693 6.39504 10.3838 6.39504Z" fill="#292744"/>
</g>
<defs>
<clipPath id="clip0_139_5784">
<rect width="12" height="12" fill="white" transform="matrix(1 0 0 -1 0.015625 12.9404)"/>
</clipPath>
</defs>
</svg>
