<svg width="24" height="18" viewBox="0 0 24 18" fill="none" xmlns="http://www.w3.org/2000/svg">
<g clip-path="url(#clip0_139_3817)">
<g clip-path="url(#clip1_139_3817)">
<g clip-path="url(#clip2_139_3817)">
<path d="M10.0893 14.0847C14.5076 14.0847 19.1921 11.0548 20.5525 7.31727C21.9128 3.5797 19.4339 0.549805 15.0156 0.549805C10.5973 0.549805 5.91283 3.5797 4.55247 7.31727C3.19211 11.0548 5.67104 14.0847 10.0893 14.0847Z" fill="#F5EF44"/>
<path d="M20.5525 7.31724C21.6115 4.40747 20.3434 1.9269 17.645 0.970703L13.0251 13.6638C16.4196 12.7076 19.4934 10.227 20.5525 7.31724Z" fill="#D80027"/>
<path d="M4.55236 7.31724C3.49329 10.227 4.76146 12.7076 7.45981 13.6638L12.0797 0.970703C8.68531 1.9269 5.61143 4.40747 4.55236 7.31724Z" fill="#0052B4"/>
</g>
</g>
</g>
<defs>
<clipPath id="clip0_139_3817">
<rect width="16" height="19.7902" fill="white" transform="matrix(1 0 -0.307894 0.845933 7.01562 0.549805)"/>
</clipPath>
<clipPath id="clip1_139_3817">
<rect width="16" height="19.7902" fill="white" transform="matrix(1 0 -0.307894 0.845933 7.01562 0.549805)"/>
</clipPath>
<clipPath id="clip2_139_3817">
<rect width="16" height="16" fill="white" transform="matrix(1 0 -0.307894 0.845933 7.01562 0.549805)"/>
</clipPath>
</defs>
</svg>
