<svg width="17" height="15" viewBox="0 0 17 15" fill="none" xmlns="http://www.w3.org/2000/svg">
<path d="M0.193292 9.67097C0.385674 12.248 2.64957 14.0846 6.08929 14.0846C9.52901 14.0846 13.1298 12.248 15.1981 9.67097L7.90988 9.08252L0.193292 9.67097Z" fill="#FFDA44"/>
<path d="M11.0156 0.549805C7.57587 0.549805 3.97509 2.38633 1.90677 4.96338L9.195 5.55184L16.9116 4.96336C16.7192 2.38633 14.4553 0.549805 11.0156 0.549805Z" fill="black"/>
<path d="M1.90677 4.96338C1.31837 5.69651 0.853729 6.48947 0.552435 7.31727C0.251141 8.14507 0.13856 8.93802 0.193284 9.67116H15.1981C15.7865 8.93802 16.2511 8.14507 16.5524 7.31727C16.8537 6.48947 16.9663 5.69651 16.9116 4.96338H1.90677Z" fill="#D80027"/>
</svg>
