<svg width="32" height="33" viewBox="0 0 32 33" fill="none" xmlns="http://www.w3.org/2000/svg">
<g clip-path="url(#clip0_611_739)">
<g clip-path="url(#clip1_611_739)">
<path fill-rule="evenodd" clip-rule="evenodd" d="M24 32.1099H8C5.87827 32.1099 3.84344 31.267 2.34315 29.7667C0.842855 28.2664 0 26.2316 0 24.1099V8.10986C0 5.98813 0.842855 3.9533 2.34315 2.45301C3.84344 0.952718 5.87827 0.109863 8 0.109863L24 0.109863C26.1217 0.109863 28.1566 0.952718 29.6569 2.45301C31.1571 3.9533 32 5.98813 32 8.10986V24.1099C32 26.2316 31.1571 28.2664 29.6569 29.7667C28.1566 31.267 26.1217 32.1099 24 32.1099Z" fill="#DEEBF5"/>
<path fill-rule="evenodd" clip-rule="evenodd" d="M14.995 9.13586H23.995C25.1453 9.12557 26.2482 8.67652 27.0786 7.88043C27.9089 7.08434 28.404 6.00128 28.4628 4.85246C28.5215 3.70364 28.1394 2.57574 27.3945 1.69914C26.6497 0.822539 25.5983 0.263377 24.455 0.135863C24.3 0.124863 24.147 0.109863 23.991 0.109863H8.00002C6.94788 0.111175 5.9063 0.319759 4.93479 0.7237C3.96328 1.12764 3.08087 1.71902 2.33796 2.46407C1.59505 3.20911 1.0062 4.09322 0.605054 5.06589C0.203904 6.03855 -0.00168918 7.08072 1.92365e-05 8.13286V24.1789C-0.0063512 20.1957 1.56976 16.3732 4.38165 13.5521C7.19355 10.7311 11.0119 9.14249 14.995 9.13586Z" fill="#F0FAFF"/>
<path fill-rule="evenodd" clip-rule="evenodd" d="M23.9771 16.064C22.3903 16.064 20.8391 16.5346 19.5198 17.4161C18.2004 18.2977 17.1721 19.5507 16.5648 21.0167C15.9576 22.4828 15.7987 24.0959 16.1083 25.6522C16.4178 27.2085 17.182 28.6381 18.304 29.7601C19.426 30.8822 20.8556 31.6463 22.4119 31.9559C23.9682 32.2654 25.5814 32.1065 27.0474 31.4993C28.5134 30.8921 29.7664 29.8637 30.648 28.5444C31.5296 27.225 32.0001 25.6738 32.0001 24.087V8.04102C32.0001 10.1688 31.1548 12.2095 29.6502 13.7141C28.1456 15.2187 26.1049 16.064 23.9771 16.064Z" fill="#CDDCEB"/>
<path d="M26.0082 16.3308C26.0082 15.9398 25.9902 15.5478 25.9532 15.1588C25.9283 14.9113 25.812 14.6819 25.6271 14.5155C25.4422 14.3491 25.2019 14.2576 24.9532 14.2588C23.1602 14.2588 19.0772 14.2588 17.1812 14.2588C16.9159 14.2588 16.6616 14.3642 16.474 14.5517C16.2865 14.7392 16.1812 14.9936 16.1812 15.2588V17.1908C16.1812 17.3221 16.207 17.4522 16.2573 17.5735C16.3075 17.6948 16.3812 17.805 16.474 17.8979C16.5669 17.9908 16.6771 18.0644 16.7985 18.1147C16.9198 18.1649 17.0498 18.1908 17.1812 18.1908H21.7042C21.591 18.8203 21.3514 19.4203 21 19.9547C20.6485 20.489 20.1924 20.9466 19.6592 21.2998C19.6592 21.9774 19.9283 22.6273 20.4075 23.1065C20.8866 23.5856 21.5365 23.8548 22.2142 23.8548H22.9552C23.9624 22.8843 24.7546 21.713 25.2805 20.4169C25.8064 19.1208 26.0543 17.7288 26.0082 16.3308Z" fill="#1E78FF"/>
<path d="M16.2081 26.3179C18.7008 26.3881 21.1264 25.5047 22.9901 23.8479L19.6901 21.2919C18.8961 21.8 17.9968 22.1206 17.0605 22.2293C16.1242 22.338 15.1754 22.232 14.2861 21.9194C13.3968 21.6067 12.5905 21.0955 11.9282 20.4247C11.266 19.7539 10.7653 18.9411 10.4641 18.0479H9.69506C8.99639 18.0479 8.32632 18.3253 7.83219 18.8193C7.33806 19.3132 7.06032 19.9832 7.06006 20.6819C7.91229 22.376 9.21852 23.8001 10.833 24.7951C12.4474 25.7901 14.3066 26.317 16.2031 26.3169L16.2081 26.3179Z" fill="#00B450"/>
<path d="M10.484 18.0749C10.0552 16.8045 10.0552 15.4284 10.484 14.1579C10.484 13.4593 10.2066 12.7892 9.71262 12.2951C9.21867 11.8009 8.54871 11.5232 7.85004 11.5229H7.08604C6.37061 12.9487 5.99805 14.5218 5.99805 16.1169C5.99805 17.7121 6.37061 19.2852 7.08604 20.7109L10.484 18.0749Z" fill="#FFB400"/>
<path d="M16.2079 9.9518C17.3731 9.93347 18.5147 10.2811 19.4719 10.9458C19.6619 11.0842 19.8951 11.1502 20.1294 11.1318C20.3637 11.1135 20.5838 11.0121 20.7499 10.8458C21.2089 10.4108 21.8119 9.8078 22.2869 9.3318C22.3874 9.23104 22.4652 9.11 22.5152 8.97675C22.5652 8.84351 22.5861 8.70114 22.5766 8.55916C22.5672 8.41717 22.5275 8.27884 22.4603 8.15341C22.3931 8.02798 22.2999 7.91833 22.1869 7.8318C20.455 6.55948 18.3569 5.88362 16.2079 5.9058C14.3109 5.9057 12.4511 6.43311 10.8365 7.4291C9.22196 8.42508 7.91612 9.8504 7.06494 11.5458L10.4649 14.1798C10.8606 12.9634 11.6274 11.9016 12.6577 11.1436C13.688 10.3856 14.9299 9.96947 16.2089 9.9538L16.2079 9.9518Z" fill="#E60014"/>
</g>
</g>
<defs>
<clipPath id="clip0_611_739">
<rect width="32" height="32" fill="white" transform="translate(0 0.109863)"/>
</clipPath>
<clipPath id="clip1_611_739">
<rect width="32" height="32" fill="white" transform="translate(0 0.109863)"/>
</clipPath>
</defs>
</svg>
