<svg width="113" height="20" viewBox="0 0 113 20" fill="none" xmlns="http://www.w3.org/2000/svg">
<path d="M19.0815 6.5923C18.972 7.26342 19.4101 7.82473 20.1086 7.82473C20.8069 7.82473 21.4369 7.26325 21.5465 6.5923C21.656 5.92134 21.1768 5.35986 20.5058 5.35986C19.8349 5.35986 19.1913 5.93511 19.0817 6.5923H19.0815ZM19.8073 15.2742L21.0124 8.42735H18.9582L17.7532 15.2742H19.8073Z" fill="white"/>
<path d="M27.3797 9.1806C26.9688 8.55061 26.3253 8.23562 25.4488 8.23562C24.4355 8.23562 23.5864 8.57798 22.8881 9.2627C22.2033 9.93365 21.7789 10.7416 21.6009 11.6864C21.4091 12.6861 21.5461 13.5626 22.0253 14.3294C22.5046 15.0827 23.2578 15.466 24.3122 15.466C25.1749 15.466 25.8597 15.2331 26.3938 14.7813L26.3117 15.2743H28.3658L30.0501 5.68848H27.9959L27.3797 9.18042V9.1806ZM24.997 13.5216C24.0248 13.5216 23.4769 12.8505 23.6551 11.851C23.833 10.8513 24.6136 10.1803 25.586 10.1803C26.5172 10.1803 27.0513 10.7965 26.9281 11.7825L26.9007 11.9195C26.6953 12.8917 25.9285 13.5216 24.9971 13.5216H24.997Z" fill="white"/>
<path d="M38.7053 8.23584C37.8699 8.23584 37.1579 8.55083 36.5964 9.16705C36.2952 8.55083 35.7337 8.23584 34.9257 8.23584C34.1315 8.23584 33.5015 8.50969 33.0221 9.04381L33.1318 8.42759H31.0776L29.8726 15.2745H31.9267L32.625 11.2896C32.8032 10.509 33.2275 10.1255 33.8986 10.1255C34.5422 10.1255 34.8025 10.5499 34.6792 11.2484L33.9807 15.2745H36.0349L36.7332 11.3169C36.9114 10.5227 37.3358 10.1256 38.0068 10.1256C38.6504 10.1256 38.9106 10.5501 38.7874 11.2486L38.0889 15.2746H40.1431L40.8825 11.0706C41.0331 10.2353 40.8963 9.55055 40.499 9.03021C40.1019 8.4961 39.4993 8.23584 38.7051 8.23584H38.7053Z" fill="white"/>
<path d="M47.5651 9.15328C47.1406 8.53706 46.5106 8.23584 45.6479 8.23584C44.6346 8.23584 43.7855 8.5782 43.0872 9.26292C42.4025 9.93388 41.978 10.7418 41.7999 11.6866C41.6081 12.6864 41.7451 13.5628 42.2243 14.3297C42.7037 15.0829 43.4568 15.4662 44.5112 15.4662C45.3603 15.4662 46.0449 15.2471 46.5654 14.8089L46.4833 15.2745H48.5374L49.7425 8.42759H47.6885L47.5653 9.15328H47.5651ZM47.0859 11.8646C46.9079 12.8643 46.1137 13.5217 45.1687 13.5217C44.2238 13.5217 43.676 12.8781 43.854 11.851C44.0322 10.8239 44.8126 10.1804 45.7576 10.1804C46.7026 10.1804 47.2639 10.8239 47.0859 11.851V11.8648V11.8646Z" fill="white"/>
<path d="M55.2063 8.23584C54.371 8.23584 53.7 8.50969 53.1933 9.07117L53.3029 8.42759H51.2488L50.0437 15.2745H52.0979L52.769 11.4538C52.947 10.5637 53.5358 10.1255 54.2617 10.1255C54.9738 10.1255 55.3982 10.5363 55.2476 11.3717L54.5629 15.2745H56.6171L57.3565 11.0704C57.5071 10.194 57.3703 9.50941 56.9457 9.00267C56.5212 8.49592 55.9459 8.23584 55.2065 8.23584H55.2063Z" fill="white"/>
<path d="M60.6563 15.4662C62.2037 15.4662 63.3678 14.8089 63.6279 13.4258C63.9291 11.7963 62.7104 11.3169 61.7655 11.1389C61.1081 10.9746 60.5878 10.8103 60.6563 10.4406C60.711 10.153 60.9439 10.0162 61.3546 10.0162C61.7791 10.0162 62.0805 10.2215 62.2447 10.6186L64.0933 9.70116C63.6551 8.78372 62.6829 8.23584 61.4778 8.23584C60.259 8.23584 58.8622 8.85206 58.6021 10.3036C58.3009 11.851 59.5059 12.3851 60.4508 12.6179C61.1081 12.7958 61.642 12.9876 61.5873 13.2752C61.5462 13.5081 61.2997 13.6313 60.8341 13.6313C60.2179 13.6313 59.8208 13.3713 59.6152 12.8507L57.7666 13.782C58.2733 14.9049 59.2455 15.4662 60.6561 15.4662H60.6563Z" fill="white"/>
<path d="M68.8592 10.3993L69.2151 8.42741H67.7909L68.1333 6.51025L65.9697 7.12647L65.7368 8.42741H64.655L64.2988 10.3993H65.3944L64.97 12.8232C64.6276 14.7541 65.5588 15.5483 68.0101 15.2745L68.3387 13.412C67.3116 13.4806 66.9145 13.3847 67.0241 12.8232L67.4486 10.3993H68.859H68.8592Z" fill="white"/>
<path d="M75.0897 9.15328C74.6653 8.53706 74.0353 8.23584 73.1726 8.23584C72.1593 8.23584 71.3102 8.5782 70.6119 9.26292C69.9271 9.93388 69.5027 10.7418 69.3245 11.6866C69.1328 12.6864 69.2698 13.5628 69.749 14.3297C70.2284 15.0829 70.9814 15.4662 72.0359 15.4662C72.885 15.4662 73.5695 15.2471 74.09 14.8089L74.0079 15.2745H76.0621L77.2672 8.42759H75.213L75.0897 9.15328ZM74.6105 11.8646C74.4326 12.8643 73.6384 13.5217 72.6934 13.5217C71.7484 13.5217 71.2007 12.8781 71.3787 11.851C71.5568 10.8239 72.3373 10.1804 73.2822 10.1804C74.2272 10.1804 74.7885 10.8239 74.6105 11.851V11.8648V11.8646Z" fill="white"/>
<path d="M82.4436 10.3993L82.7996 8.42741H81.3754L81.7178 6.51025L79.5541 7.12647L79.3213 8.42741H78.2394L77.8833 10.3993H78.9787L78.5543 12.8232C78.2119 14.7541 79.1431 15.5483 81.5944 15.2745L81.923 13.412C80.8959 13.4806 80.4988 13.3847 80.6084 12.8232L81.0329 10.3993H82.4433H82.4436Z" fill="white"/>
<path d="M84.0185 15.4656C84.7991 15.4656 85.4291 14.9179 85.5524 14.1921C85.6756 13.48 85.1962 12.8638 84.4842 12.8638C83.7309 12.8638 83.0873 13.4115 82.9641 14.1373C82.8408 14.8494 83.3065 15.4656 84.0185 15.4656Z" fill="#FFF212"/>
<path d="M89.6602 15.4664C90.9749 15.4664 92.1935 14.8775 92.892 13.7272L91.2349 12.6728C90.8652 13.1795 90.3996 13.4396 89.8108 13.4396C88.9207 13.4396 88.3592 12.7549 88.5236 11.8237C88.688 10.8925 89.4548 10.2625 90.3722 10.2625C90.9747 10.2625 91.3856 10.509 91.5911 11.0019L93.4673 10.016C93.0153 8.93416 91.9746 8.23584 90.5504 8.23584C89.5233 8.23584 88.6195 8.56443 87.8526 9.22179C87.0858 9.87914 86.6202 10.7143 86.4696 11.714C86.3052 12.7685 86.5243 13.6587 87.1269 14.3844C87.7294 15.1103 88.5785 15.4662 89.6603 15.4662L89.6602 15.4664Z" fill="white"/>
<path d="M96.7673 15.4664C97.7671 15.4664 98.6434 15.1378 99.3966 14.4667C100.15 13.7957 100.615 12.9878 100.78 12.0701C100.958 11.0978 100.766 10.2077 100.205 9.42731C99.6431 8.63311 98.8215 8.23584 97.7259 8.23584C96.6441 8.23584 95.7265 8.56443 95.0008 9.20819C94.2749 9.85177 93.8095 10.6324 93.6176 11.5772C93.3575 12.8507 93.6997 14.0696 94.7541 14.8774C95.2882 15.2745 95.9592 15.4662 96.7672 15.4662L96.7673 15.4664ZM98.7392 11.8512C98.5748 12.8236 97.7944 13.4671 96.9042 13.4671C96.0141 13.4671 95.5074 12.8236 95.6717 11.8512C95.8499 10.8789 96.5892 10.2353 97.4794 10.2353C98.3695 10.2353 98.9174 10.8789 98.7392 11.8512Z" fill="white"/>
<path d="M110.763 8.23584C109.928 8.23584 109.215 8.55083 108.654 9.16705C108.353 8.55083 107.791 8.23584 106.983 8.23584C106.189 8.23584 105.559 8.50969 105.08 9.04381L105.189 8.42759H103.135L101.93 15.2745H103.984L104.683 11.2896C104.861 10.509 105.285 10.1255 105.956 10.1255C106.6 10.1255 106.86 10.5499 106.737 11.2484L106.039 15.2745H108.093L108.791 11.3169C108.969 10.5227 109.393 10.1256 110.064 10.1256C110.708 10.1256 110.968 10.5501 110.845 11.2486L110.147 15.2746H112.201L112.94 11.0706C113.091 10.2353 112.954 9.55055 112.557 9.03021C112.16 8.4961 111.557 8.23584 110.763 8.23584Z" fill="white"/>
<path fill-rule="evenodd" clip-rule="evenodd" d="M9.66654 4.67454L6.96311 19.5637L4.1731 19.057L6.87653 4.16797L9.66654 4.67454Z" fill="white"/>
<path fill-rule="evenodd" clip-rule="evenodd" d="M1.60509 6.79736L4.3951 7.30393L2.79001 16.1444L0 15.6378L1.60509 6.79736Z" fill="white"/>
<path fill-rule="evenodd" clip-rule="evenodd" d="M11.0882 6.5752L13.8784 7.08177L12.3108 15.7145L9.521 15.2079L11.0882 6.5752Z" fill="white"/>
<path fill-rule="evenodd" clip-rule="evenodd" d="M7.63373 0L10.4237 0.506571L9.90874 3.34271L7.1189 2.83597L7.63373 0Z" fill="#FFF212"/>
</svg>
