<svg xmlns="http://www.w3.org/2000/svg" width="162" height="29" viewBox="0 0 162 29" fill="none">
  <path d="M27.3555 9.45093C27.1985 10.4131 27.8265 11.2178 28.8279 11.2178C29.8291 11.2178 30.7322 10.4128 30.8894 9.45093C31.0464 8.48904 30.3594 7.68408 29.3975 7.68408C28.4356 7.68408 27.5129 8.50878 27.3557 9.45093H27.3555ZM28.3961 21.8976L30.1237 12.0817H27.1788L25.4512 21.8976H28.3961Z" fill="white"/>
  <path d="M39.2526 13.1617C38.6636 12.2585 37.7409 11.8069 36.4844 11.8069C35.0317 11.8069 33.8144 12.2977 32.8132 13.2794C31.8316 14.2413 31.2231 15.3996 30.9679 16.7541C30.693 18.1873 30.8895 19.4439 31.5764 20.5432C32.2634 21.6231 33.3433 22.1726 34.855 22.1726C36.0918 22.1726 37.0734 21.8387 37.8391 21.191L37.7214 21.8977H40.6663L43.081 8.15527H40.136L39.2526 13.1614V13.1617ZM35.8366 19.3851C34.4429 19.3851 33.6574 18.423 33.9128 16.99C34.168 15.5568 35.2871 14.5949 36.6811 14.5949C38.0161 14.5949 38.7818 15.4783 38.6051 16.8918L38.5659 17.0882C38.2715 18.482 37.1721 19.3851 35.8369 19.3851H35.8366Z" fill="white"/>
  <path d="M55.4885 11.8071C54.291 11.8071 53.2701 12.2587 52.4651 13.1421C52.0333 12.2587 51.2283 11.8071 50.07 11.8071C48.9314 11.8071 48.0283 12.1997 47.341 12.9655L47.4982 12.082H44.5533L42.8257 21.8979H45.7706L46.7717 16.185C47.0271 15.0659 47.6354 14.5161 48.5976 14.5161C49.5202 14.5161 49.8933 15.1247 49.7166 16.126L48.7153 21.8979H51.6602L52.6613 16.2243C52.9167 15.0857 53.5252 14.5164 54.4871 14.5164C55.4098 14.5164 55.7829 15.1249 55.6062 16.1263L54.6048 21.8982H57.5498L58.6099 15.8711C58.8258 14.6736 58.6296 13.6919 58.0601 12.946C57.4908 12.1802 56.6269 11.8071 55.4883 11.8071H55.4885Z" fill="white"/>
  <path d="M68.1904 13.1224C67.5819 12.239 66.6787 11.8071 65.4419 11.8071C63.9892 11.8071 62.7719 12.2979 61.7708 13.2796C60.7891 14.2415 60.1806 15.3998 59.9252 16.7543C59.6503 18.1875 59.8467 19.4441 60.5337 20.5434C61.221 21.6233 62.3006 22.1728 63.8123 22.1728C65.0296 22.1728 66.011 21.8587 66.7572 21.2304L66.6395 21.8979H69.5844L71.312 12.082H68.3673L68.1907 13.1224H68.1904ZM67.5034 17.0095C67.2482 18.4427 66.1097 19.3851 64.7549 19.3851C63.4002 19.3851 62.615 18.4624 62.8701 16.99C63.1255 15.5175 64.2444 14.5949 65.5991 14.5949C66.9539 14.5949 67.7586 15.5175 67.5034 16.99V17.0097V17.0095Z" fill="white"/>
  <path d="M79.1452 11.8071C77.9476 11.8071 76.9857 12.1997 76.2592 13.0047L76.4164 12.082H73.4715L71.7439 21.8979H74.6888L75.6509 16.4204C75.9061 15.1444 76.7503 14.5161 77.7909 14.5161C78.8118 14.5161 79.4203 15.1052 79.2044 16.3027L78.2228 21.8979H81.1677L82.2278 15.8709C82.4437 14.6143 82.2475 13.633 81.6387 12.9065C81.0302 12.18 80.2055 11.8071 79.1454 11.8071H79.1452Z" fill="white"/>
  <path d="M86.9589 22.1728C89.1773 22.1728 90.8462 21.2304 91.2191 19.2476C91.6509 16.9115 89.9038 16.2243 88.549 15.9691C87.6066 15.7334 86.8607 15.498 86.9589 14.968C87.0374 14.5556 87.3712 14.3594 87.96 14.3594C88.5685 14.3594 89.0006 14.6538 89.236 15.2231L91.8863 13.9079C91.2581 12.5926 89.8643 11.8071 88.1367 11.8071C86.3893 11.8071 84.3868 12.6906 84.014 14.7715C83.5821 16.99 85.3097 17.7557 86.6642 18.0893C87.6066 18.3445 88.3721 18.6194 88.2936 19.0317C88.2347 19.3656 87.8813 19.5423 87.2138 19.5423C86.3304 19.5423 85.7611 19.1694 85.4664 18.4232L82.8162 19.7582C83.5426 21.3681 84.9364 22.1728 86.9586 22.1728H86.9589Z" fill="white"/>
  <path d="M98.7185 14.9085L99.2288 12.0815H97.1871L97.6779 9.33301L94.576 10.2164L94.2422 12.0815H92.6912L92.1807 14.9085H93.7513L93.1428 18.3834C92.652 21.1517 93.987 22.2902 97.5012 21.8976L97.9723 19.2276C96.4998 19.3258 95.9305 19.1884 96.0877 18.3834L96.6962 14.9085H98.7183H98.7185Z" fill="white"/>
  <path d="M107.651 13.1224C107.043 12.239 106.139 11.8071 104.903 11.8071C103.45 11.8071 102.233 12.2979 101.231 13.2796C100.25 14.2415 99.6413 15.3998 99.3859 16.7543C99.111 18.1875 99.3074 19.4441 99.9944 20.5434C100.682 21.6233 101.761 22.1728 103.273 22.1728C104.49 22.1728 105.472 21.8587 106.218 21.2304L106.1 21.8979H109.045L110.773 12.082H107.828L107.651 13.1224ZM106.964 17.0095C106.709 18.4427 105.57 19.3851 104.216 19.3851C102.861 19.3851 102.076 18.4624 102.331 16.99C102.586 15.5175 103.705 14.5949 105.06 14.5949C106.415 14.5949 107.219 15.5175 106.964 16.99V17.0097V17.0095Z" fill="white"/>
  <path d="M118.194 14.9085L118.704 12.0815H116.662L117.153 9.33301L114.051 10.2164L113.717 12.0815H112.166L111.656 14.9085H113.226L112.618 18.3834C112.127 21.1517 113.462 22.2902 116.976 21.8976L117.447 19.2276C115.975 19.3258 115.405 19.1884 115.563 18.3834L116.171 14.9085H118.193H118.194Z" fill="white"/>
  <path d="M120.451 22.1725C121.57 22.1725 122.473 21.3873 122.65 20.3467C122.827 19.3258 122.14 18.4424 121.119 18.4424C120.039 18.4424 119.116 19.2276 118.939 20.2682C118.763 21.2891 119.43 22.1725 120.451 22.1725Z" fill="#FFF212"/>
  <path d="M128.539 22.1726C130.424 22.1726 132.171 21.3284 133.173 19.6792L130.797 18.1675C130.267 18.894 129.6 19.2669 128.755 19.2669C127.479 19.2669 126.674 18.2853 126.91 16.9502C127.146 15.6152 128.245 14.7121 129.56 14.7121C130.424 14.7121 131.013 15.0654 131.308 15.7722L133.997 14.3587C133.349 12.8078 131.858 11.8066 129.816 11.8066C128.343 11.8066 127.048 12.2777 125.948 13.2201C124.849 14.1625 124.181 15.3598 123.965 16.7931C123.73 18.3047 124.044 19.581 124.908 20.6214C125.771 21.662 126.989 22.1723 128.54 22.1723L128.539 22.1726Z" fill="white"/>
  <path d="M138.729 22.1726C140.162 22.1726 141.418 21.7015 142.498 20.7393C143.578 19.7775 144.246 18.6191 144.481 17.3036C144.736 15.9096 144.461 14.6336 143.656 13.5148C142.852 12.3762 141.674 11.8066 140.103 11.8066C138.552 11.8066 137.237 12.2777 136.196 13.2006C135.156 14.1233 134.488 15.2424 134.213 16.5969C133.84 18.4227 134.331 20.1701 135.843 21.3281C136.608 21.8974 137.57 22.1723 138.729 22.1723L138.729 22.1726ZM141.556 16.9897C141.32 18.3837 140.201 19.3064 138.925 19.3064C137.649 19.3064 136.922 18.3837 137.158 16.9897C137.414 15.5957 138.473 14.6731 139.75 14.6731C141.026 14.6731 141.811 15.5957 141.556 16.9897Z" fill="white"/>
  <path d="M158.793 11.8071C157.595 11.8071 156.575 12.2587 155.77 13.1421C155.338 12.2587 154.533 11.8071 153.374 11.8071C152.236 11.8071 151.333 12.1997 150.646 12.9655L150.803 12.082H147.858L146.13 21.8979H149.075L150.076 16.185C150.331 15.0659 150.94 14.5161 151.902 14.5161C152.825 14.5161 153.198 15.1247 153.021 16.126L152.02 21.8979H154.965L155.966 16.2243C156.221 15.0857 156.829 14.5164 157.792 14.5164C158.714 14.5164 159.087 15.1249 158.911 16.1263L157.91 21.8982H160.854L161.915 15.8711C162.13 14.6736 161.934 13.6919 161.365 12.946C160.795 12.1802 159.932 11.8071 158.793 11.8071Z" fill="white"/>
  <path fill-rule="evenodd" clip-rule="evenodd" d="M13.8587 6.70182L9.983 28.0474L5.98315 27.3209L9.85887 5.97559L13.8587 6.70182Z" fill="white"/>
  <path fill-rule="evenodd" clip-rule="evenodd" d="M2.3011 9.74512L6.30094 10.4714L3.99984 23.1453L0 22.4191L2.3011 9.74512Z" fill="white"/>
  <path fill-rule="evenodd" clip-rule="evenodd" d="M15.8965 9.42627L19.8966 10.1525L17.6493 22.5286L13.6497 21.8024L15.8965 9.42627Z" fill="white"/>
  <path fill-rule="evenodd" clip-rule="evenodd" d="M10.9436 0L14.9435 0.726234L14.2052 4.79221L10.2056 4.06573L10.9436 0Z" fill="#FFF212"/>
</svg>