<svg width="25" height="25" viewBox="0 0 25 25" fill="none" xmlns="http://www.w3.org/2000/svg">
<rect x="0.187622" y="0.710449" width="24" height="24" rx="12" fill="white"/>
<g clip-path="url(#clip0_139_2102)">
<path d="M8.71562 13.4726C9.05162 13.4726 9.33629 13.356 9.56962 13.1226C9.80296 12.8893 9.91962 12.6046 9.91962 12.2686C9.91962 11.9326 9.80296 11.648 9.56962 11.4146C9.33629 11.1813 9.05162 11.0646 8.71562 11.0646C8.37962 11.0646 8.09496 11.1813 7.86162 11.4146C7.62829 11.648 7.51162 11.9326 7.51162 12.2686C7.51162 12.6046 7.62829 12.8893 7.86162 13.1226C8.09496 13.356 8.37962 13.4726 8.71562 13.4726ZM16.6256 8.48862H6.82562C6.52696 8.48862 6.25396 8.56095 6.00662 8.70562C5.75929 8.85028 5.56096 9.04628 5.41162 9.29362C5.26229 9.54095 5.18762 9.81395 5.18762 10.1126V17.3086C5.18762 17.6073 5.26229 17.8803 5.41162 18.1276C5.56096 18.375 5.75929 18.571 6.00662 18.7156C6.25396 18.8603 6.52696 18.9326 6.82562 18.9326H16.6256C16.9243 18.9326 17.1973 18.8603 17.4446 18.7156C17.692 18.571 17.8903 18.375 18.0396 18.1276C18.189 17.8803 18.2636 17.6073 18.2636 17.3086V10.1126C18.2636 9.81395 18.189 9.54095 18.0396 9.29362C17.8903 9.04628 17.692 8.85028 17.4446 8.70562C17.1973 8.56095 16.9243 8.48862 16.6256 8.48862ZM6.82562 9.79062H16.6256C16.719 9.79062 16.796 9.82095 16.8566 9.88162C16.9173 9.94228 16.9476 10.0193 16.9476 10.1126V14.7606L14.8896 12.3526C14.7776 12.222 14.6446 12.1216 14.4906 12.0516C14.3366 11.9816 14.1756 11.9466 14.0076 11.9466C13.8396 11.9466 13.681 11.9816 13.5316 12.0516C13.3823 12.1216 13.2516 12.222 13.1396 12.3526L10.7176 15.2646L9.91962 14.4806C9.69562 14.2566 9.42729 14.1446 9.11462 14.1446C8.80196 14.1446 8.53362 14.2566 8.30962 14.4806L6.50362 16.2866V10.1126C6.50362 10.0193 6.53396 9.94228 6.59462 9.88162C6.65529 9.82095 6.73229 9.79062 6.82562 9.79062Z" fill="#292744"/>
</g>
<defs>
<clipPath id="clip0_139_2102">
<rect width="14" height="14" fill="white" transform="matrix(1 0 0 -1 5.18762 20.7104)"/>
</clipPath>
</defs>
</svg>
