<svg width="17" height="21" viewBox="0 0 17 21" fill="none" xmlns="http://www.w3.org/2000/svg">
<g clip-path="url(#clip0_139_3389)">
<path d="M15.6756 14.3756H4.97159C4.75825 14.3756 4.57425 14.4556 4.41959 14.6156C4.26492 14.7756 4.18759 14.9623 4.18759 15.1756V15.1916C4.18759 15.4049 4.26492 15.5889 4.41959 15.7436C4.57425 15.8983 4.75825 15.9756 4.97159 15.9756H15.6756C15.8996 15.9756 16.0889 15.8983 16.2436 15.7436C16.3983 15.5889 16.4756 15.3996 16.4756 15.1756C16.4756 14.9516 16.3983 14.7623 16.2436 14.6076C16.0889 14.4529 15.8996 14.3756 15.6756 14.3756ZM15.6756 9.36759H4.97159C4.74759 9.36759 4.55825 9.44493 4.40359 9.59959C4.24892 9.75426 4.17159 9.94359 4.17159 10.1676C4.17159 10.3916 4.24892 10.5809 4.40359 10.7356C4.55825 10.8903 4.74759 10.9676 4.97159 10.9676H15.6756C15.8996 10.9676 16.0889 10.8903 16.2436 10.7356C16.3983 10.5809 16.4756 10.3916 16.4756 10.1676C16.4756 9.94359 16.3983 9.75426 16.2436 9.59959C16.0889 9.44493 15.8996 9.36759 15.6756 9.36759ZM4.97159 5.95959H15.6756C15.8996 5.95959 16.0889 5.88226 16.2436 5.72759C16.3983 5.57293 16.4756 5.38359 16.4756 5.15959C16.4756 4.93559 16.3983 4.74626 16.2436 4.59159C16.0889 4.43693 15.8996 4.35959 15.6756 4.35959H4.97159C4.74759 4.35959 4.55825 4.43693 4.40359 4.59159C4.24892 4.74626 4.17159 4.93559 4.17159 5.15959C4.17159 5.38359 4.24892 5.57293 4.40359 5.72759C4.55825 5.88226 4.74759 5.95959 4.97159 5.95959ZM1.54759 4.15159C1.24892 4.15159 0.995586 4.25559 0.787586 4.46359C0.579586 4.67159 0.475586 4.92493 0.475586 5.22359C0.475586 5.52226 0.579586 5.77559 0.787586 5.98359C0.995586 6.19159 1.24892 6.29559 1.54759 6.29559C1.84625 6.29559 2.09959 6.19159 2.30759 5.98359C2.51559 5.77559 2.61959 5.52226 2.61959 5.22359C2.61959 4.92493 2.51559 4.67159 2.30759 4.46359C2.09959 4.25559 1.84625 4.15159 1.54759 4.15159ZM1.54759 9.09559C1.24892 9.09559 0.995586 9.19959 0.787586 9.40759C0.579586 9.61559 0.475586 9.86893 0.475586 10.1676C0.475586 10.4663 0.579586 10.7196 0.787586 10.9276C0.995586 11.1356 1.24892 11.2396 1.54759 11.2396C1.84625 11.2396 2.09959 11.1356 2.30759 10.9276C2.51559 10.7196 2.61959 10.4663 2.61959 10.1676C2.61959 9.86893 2.51559 9.61559 2.30759 9.40759C2.09959 9.19959 1.84625 9.09559 1.54759 9.09559ZM1.54759 14.0396C1.24892 14.0396 0.995586 14.1436 0.787586 14.3516C0.579586 14.5596 0.475586 14.8129 0.475586 15.1116C0.475586 15.4103 0.579586 15.6636 0.787586 15.8716C0.995586 16.0796 1.24892 16.1836 1.54759 16.1836C1.84625 16.1836 2.09959 16.0796 2.30759 15.8716C2.51559 15.6636 2.61959 15.4103 2.61959 15.1116C2.61959 14.8129 2.51559 14.5596 2.30759 14.3516C2.09959 14.1436 1.84625 14.0396 1.54759 14.0396Z" fill="#F5EF44"/>
</g>
<defs>
<clipPath id="clip0_139_3389">
<rect width="16" height="16" fill="white" transform="matrix(1 0 0 -1 0.475586 18.5518)"/>
</clipPath>
</defs>
</svg>
