<svg width="16" height="21" viewBox="0 0 16 21" fill="none" xmlns="http://www.w3.org/2000/svg">
<path d="M7.33447 19.7627C1.63135 11.5596 0.615723 10.7002 0.615723 7.65332C0.615723 3.5127 3.93604 0.15332 8.11572 0.15332C12.2563 0.15332 15.6157 3.5127 15.6157 7.65332C15.6157 10.7002 14.561 11.5596 8.85791 19.7627C8.50635 20.3096 7.68604 20.3096 7.33447 19.7627ZM8.11572 10.7783C9.83447 10.7783 11.2407 9.41113 11.2407 7.65332C11.2407 5.93457 9.83447 4.52832 8.11572 4.52832C6.35791 4.52832 4.99072 5.93457 4.99072 7.65332C4.99072 9.41113 6.35791 10.7783 8.11572 10.7783Z" fill="white"/>
</svg>
