<svg width="21" height="16" viewBox="0 0 21 16" fill="none" xmlns="http://www.w3.org/2000/svg">
<path d="M20.2251 5.61426C20.3813 5.49707 20.6157 5.61426 20.6157 5.80957V13.7783C20.6157 14.833 19.7563 15.6533 18.7407 15.6533H2.49072C1.43604 15.6533 0.615723 14.833 0.615723 13.7783V5.80957C0.615723 5.61426 0.811035 5.49707 0.967285 5.61426C1.86572 6.31738 2.99854 7.17676 6.98291 10.0674C7.80322 10.6533 9.20947 11.9424 10.6157 11.9424C11.9829 11.9424 13.4282 10.6533 14.2095 10.0674C18.1938 7.17676 19.3267 6.31738 20.2251 5.61426ZM10.6157 10.6533C9.67822 10.6924 8.38916 9.52051 7.7251 9.05176C2.52979 5.30176 2.13916 4.9502 0.967285 4.0127C0.73291 3.85645 0.615723 3.58301 0.615723 3.27051V2.52832C0.615723 1.5127 1.43604 0.65332 2.49072 0.65332H18.7407C19.7563 0.65332 20.6157 1.5127 20.6157 2.52832V3.27051C20.6157 3.58301 20.4595 3.85645 20.2251 4.0127C19.0532 4.9502 18.6626 5.30176 13.4673 9.05176C12.8032 9.52051 11.5142 10.6924 10.6157 10.6533Z" fill="white"/>
</svg>
