<svg width="15" height="21" viewBox="0 0 15 21" fill="none" xmlns="http://www.w3.org/2000/svg">
<path d="M7.49072 13.9033C5.38135 13.9033 3.74072 12.2627 3.74072 10.1533V3.90332C3.74072 1.83301 5.38135 0.15332 7.49072 0.15332C9.56104 0.15332 11.2407 1.83301 11.2407 3.90332V10.1533C11.2407 12.2627 9.56104 13.9033 7.49072 13.9033ZM13.7407 7.65332C14.0532 7.65332 14.3657 7.96582 14.3657 8.27832V10.1533C14.3657 13.6299 11.7485 16.5205 8.42822 16.9893V18.2783H10.6157C10.9282 18.2783 11.2407 18.5908 11.2407 18.9033V19.5283C11.2407 19.8799 10.9282 20.1533 10.6157 20.1533H4.36572C4.01416 20.1533 3.74072 19.8799 3.74072 19.5283V18.9033C3.74072 18.5908 4.01416 18.2783 4.36572 18.2783H6.55322V16.9502C3.07666 16.4814 0.615723 13.3564 0.615723 9.87988V8.27832C0.615723 7.96582 0.88916 7.65332 1.24072 7.65332H1.86572C2.17822 7.65332 2.49072 7.96582 2.49072 8.27832V9.95801C2.49072 12.5752 4.36572 14.8799 6.98291 15.1533C9.95166 15.4268 12.4907 13.083 12.4907 10.1533V8.27832C12.4907 7.96582 12.7642 7.65332 13.1157 7.65332H13.7407Z" fill="white"/>
</svg>
