<svg width="24" height="18" viewBox="0 0 24 18" fill="none" xmlns="http://www.w3.org/2000/svg">
<g clip-path="url(#clip0_139_3997)">
<g clip-path="url(#clip1_139_3997)">
<g clip-path="url(#clip2_139_3997)">
<path d="M10.0893 14.0847C14.5076 14.0847 19.1921 11.0548 20.5525 7.31727C21.9128 3.5797 19.4339 0.549805 15.0156 0.549805C10.5973 0.549805 5.91283 3.5797 4.55247 7.31727C3.19211 11.0548 5.67104 14.0847 10.0893 14.0847Z" fill="#F0F0F0"/>
<path d="M15.0156 0.549805C11.5759 0.549805 7.97509 2.38633 5.90677 4.96338H20.9116C20.7192 2.38633 18.4553 0.549805 15.0156 0.549805Z" fill="#A2001D"/>
<path d="M10.0894 14.085C13.5291 14.085 17.1299 12.2484 19.1982 9.67139H4.19336C4.38573 12.2484 6.64964 14.085 10.0894 14.085Z" fill="#0052B4"/>
</g>
</g>
</g>
<defs>
<clipPath id="clip0_139_3997">
<rect width="16" height="19.7902" fill="white" transform="matrix(1 0 -0.307894 0.845933 7.01562 0.549805)"/>
</clipPath>
<clipPath id="clip1_139_3997">
<rect width="16" height="19.7902" fill="white" transform="matrix(1 0 -0.307894 0.845933 7.01562 0.549805)"/>
</clipPath>
<clipPath id="clip2_139_3997">
<rect width="16" height="16" fill="white" transform="matrix(1 0 -0.307894 0.845933 7.01562 0.549805)"/>
</clipPath>
</defs>
</svg>
