<svg width="21" height="18" viewBox="0 0 21 18" fill="none" xmlns="http://www.w3.org/2000/svg">
<path d="M8.30984 14.2003H3.74984C3.62984 14.187 3.51984 14.2236 3.41984 14.3103C3.31984 14.397 3.26984 14.5003 3.26984 14.6203C3.26984 14.7403 3.30984 14.847 3.38984 14.9403C3.46984 15.0336 3.56984 15.087 3.68984 15.1003H8.30984C8.42984 15.1003 8.53651 15.0603 8.62984 14.9803C8.72318 14.9003 8.77318 14.8003 8.77984 14.6803C8.78651 14.5603 8.74984 14.4536 8.66984 14.3603C8.58984 14.267 8.48984 14.2136 8.36984 14.2003H8.30984ZM15.1698 14.2003H10.5898C10.4965 14.1736 10.4065 14.177 10.3198 14.2103C10.2332 14.2436 10.1598 14.297 10.0998 14.3703C10.0398 14.4436 10.0098 14.527 10.0098 14.6203C10.0098 14.7136 10.0332 14.8003 10.0798 14.8803C10.1265 14.9603 10.1898 15.0203 10.2698 15.0603C10.3498 15.1003 10.4365 15.1136 10.5298 15.1003H15.1498C15.2698 15.1003 15.3765 15.0603 15.4698 14.9803C15.5632 14.9003 15.6132 14.8003 15.6198 14.6803C15.6265 14.5603 15.5898 14.4536 15.5098 14.3603C15.4298 14.267 15.3298 14.2136 15.2098 14.2003H15.1698ZM15.1298 2.88031H3.74984C3.62984 2.88031 3.52318 2.92031 3.42984 3.00031C3.33651 3.08031 3.28318 3.18031 3.26984 3.30031C3.25651 3.42031 3.29318 3.53031 3.37984 3.63031C3.46651 3.73031 3.56984 3.78031 3.68984 3.78031H15.1298C15.2498 3.78031 15.3532 3.74031 15.4398 3.66031C15.5265 3.58031 15.5732 3.48031 15.5798 3.36031C15.5865 3.24031 15.5498 3.13365 15.4698 3.04031C15.3898 2.94698 15.2898 2.89365 15.1698 2.88031H15.1298ZM15.1698 5.16031H10.5898C10.4832 5.17365 10.3932 5.22031 10.3198 5.30031C10.2465 5.38031 10.2065 5.47365 10.1998 5.58031C10.1932 5.68698 10.2198 5.78698 10.2798 5.88031C10.3398 5.97365 10.4232 6.03365 10.5298 6.06031H15.1498C15.2832 6.06031 15.3898 6.01365 15.4698 5.92031C15.5498 5.82698 15.5865 5.72031 15.5798 5.60031C15.5732 5.48031 15.5298 5.38031 15.4498 5.30031C15.3698 5.22031 15.2765 5.17365 15.1698 5.16031ZM15.1698 7.42031H10.5898C10.4965 7.39365 10.4065 7.39698 10.3198 7.43031C10.2332 7.46365 10.1598 7.51698 10.0998 7.59031C10.0398 7.66365 10.0098 7.74698 10.0098 7.84031C10.0098 7.93365 10.0332 8.02031 10.0798 8.10031C10.1265 8.18031 10.1898 8.24031 10.2698 8.28031C10.3498 8.32031 10.4365 8.33365 10.5298 8.32031H15.1498C15.2698 8.32031 15.3765 8.28031 15.4698 8.20031C15.5632 8.12031 15.6132 8.02031 15.6198 7.90031C15.6265 7.78031 15.5898 7.67365 15.5098 7.58031C15.4298 7.48698 15.3298 7.43365 15.2098 7.42031H15.1698ZM15.1698 9.68031H10.5898C10.4698 9.68031 10.3632 9.72031 10.2698 9.80031C10.1765 9.88031 10.1232 9.98031 10.1098 10.1003C10.0965 10.2203 10.1332 10.3303 10.2198 10.4303C10.3065 10.5303 10.4098 10.5803 10.5298 10.5803H15.1498C15.2698 10.5803 15.3765 10.5403 15.4698 10.4603C15.5632 10.3803 15.6132 10.2803 15.6198 10.1603C15.6265 10.0403 15.5898 9.93365 15.5098 9.84031C15.4298 9.74698 15.3298 9.69365 15.2098 9.68031H15.1698ZM15.1698 12.0003H10.5898C10.4698 12.0003 10.3632 12.0403 10.2698 12.1203C10.1765 12.2003 10.1265 12.3003 10.1198 12.4203C10.1132 12.5403 10.1498 12.647 10.2298 12.7403C10.3098 12.8336 10.4098 12.887 10.5298 12.9003H15.1498C15.2698 12.887 15.3698 12.8336 15.4498 12.7403C15.5298 12.647 15.5665 12.5436 15.5598 12.4303C15.5532 12.317 15.5132 12.2203 15.4398 12.1403C15.3665 12.0603 15.2765 12.0136 15.1698 12.0003ZM8.30984 12.0003H3.74984C3.62984 12.0003 3.52651 12.0503 3.43984 12.1503C3.35318 12.2503 3.31651 12.357 3.32984 12.4703C3.34318 12.5836 3.38984 12.6803 3.46984 12.7603C3.54984 12.8403 3.64318 12.887 3.74984 12.9003H8.30984C8.42984 12.887 8.52984 12.8336 8.60984 12.7403C8.68984 12.647 8.72984 12.5403 8.72984 12.4203C8.72984 12.3003 8.68984 12.2003 8.60984 12.1203C8.52984 12.0403 8.42984 12.0003 8.30984 12.0003ZM8.30984 5.16031H3.74984C3.62984 5.16031 3.52651 5.20365 3.43984 5.29031C3.35318 5.37698 3.30984 5.48031 3.30984 5.60031V10.1603C3.30984 10.2803 3.35318 10.387 3.43984 10.4803C3.52651 10.5736 3.62984 10.6203 3.74984 10.6203H8.30984C8.44318 10.6203 8.55318 10.577 8.63984 10.4903C8.72651 10.4036 8.76984 10.2936 8.76984 10.1603V5.60031C8.76984 5.48031 8.72318 5.37698 8.62984 5.29031C8.53651 5.20365 8.42984 5.16031 8.30984 5.16031ZM7.84984 9.72031H4.20984V6.06031H7.84984V9.72031ZM19.6898 2.44031H18.3298V1.08031C18.3298 0.840313 18.2398 0.630312 18.0598 0.450314C17.8798 0.270313 17.6698 0.180313 17.4298 0.180313H1.48984C1.23651 0.180313 1.02318 0.266979 0.849844 0.440313C0.67651 0.613646 0.589844 0.826979 0.589844 1.08031V15.5603C0.589844 15.9736 0.689844 16.3536 0.889844 16.7003C1.08984 17.047 1.36318 17.3203 1.70984 17.5203C2.05651 17.7203 2.43651 17.8203 2.84984 17.8203H18.3298C18.7432 17.8203 19.1232 17.7203 19.4698 17.5203C19.8165 17.3203 20.0898 17.047 20.2898 16.7003C20.4898 16.3536 20.5898 15.9736 20.5898 15.5603V3.34031C20.5898 3.08698 20.5032 2.87365 20.3298 2.70031C20.1565 2.52698 19.9432 2.44031 19.6898 2.44031ZM19.6898 15.5603C19.6898 15.9336 19.5565 16.2536 19.2898 16.5203C19.0232 16.787 18.7032 16.9203 18.3298 16.9203H2.84984C2.47651 16.9203 2.15651 16.787 1.88984 16.5203C1.62318 16.2536 1.48984 15.9336 1.48984 15.5603V1.08031H17.4298V14.8803C17.4298 15.2003 17.5432 15.467 17.7698 15.6803C17.9965 15.8936 18.2698 16.0003 18.5898 16.0003C18.7098 16.0003 18.8198 15.9603 18.9198 15.8803C19.0198 15.8003 19.0732 15.7003 19.0798 15.5803C19.0865 15.4603 19.0532 15.3536 18.9798 15.2603C18.9065 15.167 18.8098 15.1136 18.6898 15.1003H18.5898C18.5232 15.1003 18.4698 15.077 18.4298 15.0303C18.3898 14.9836 18.3698 14.927 18.3698 14.8603V3.34031H19.6898V15.5603Z" fill="#6F8CAA"/>
</svg>
