<svg width="21" height="21" viewBox="0 0 21 21" fill="none" xmlns="http://www.w3.org/2000/svg">
<g clip-path="url(#clip0_139_2566)">
<g clip-path="url(#clip1_139_2566)">
<g clip-path="url(#clip2_139_2566)">
<path d="M10.0156 20.6099C4.49563 20.6099 0.015625 16.1299 0.015625 10.6099C0.015625 5.08986 4.49563 0.609863 10.0156 0.609863C15.5356 0.609863 20.0156 5.08986 20.0156 10.6099C20.0156 16.1299 15.5356 20.6099 10.0156 20.6099ZM10.0156 1.58986C5.03562 1.58986 0.995625 5.62986 0.995625 10.6099C0.995625 15.5899 5.03562 19.6299 10.0156 19.6299C14.9956 19.6299 19.0356 15.5899 19.0356 10.6099C19.0356 5.62986 14.9956 1.58986 10.0156 1.58986ZM18.2556 8.30986L17.7156 7.02986C17.6356 6.82986 17.4156 6.68986 17.2156 6.68986C17.1356 6.68986 17.0156 6.74986 16.9356 6.78986C16.8956 6.78986 16.8556 6.82986 16.8156 6.82986C16.7156 6.82986 16.6356 6.78986 16.5956 6.68986L16.5156 6.52986C16.4356 6.36986 16.2356 6.24986 16.0156 6.24986H15.6956C15.5356 6.24986 15.3756 6.32986 15.2356 6.48986L14.2556 8.00986C14.2556 8.04986 14.2156 8.04986 14.1756 8.04986H14.0156C13.9756 8.04986 13.9356 8.00986 13.9356 8.00986C13.9356 8.00986 13.8756 7.96986 13.9356 7.92986C13.9756 7.84986 14.0156 7.72986 13.9756 7.60986C13.9356 7.48986 13.8356 7.38986 13.7156 7.34986L13.2756 7.18986C13.1356 7.14986 13.0556 7.06986 13.0156 6.94986C12.9756 6.82986 12.9756 6.68986 13.0556 6.60986C13.0956 6.52986 13.1756 6.44986 13.2756 6.44986L14.4956 5.98986C14.7556 5.90986 14.9956 5.74986 15.1956 5.58986C15.3156 5.46986 15.3756 5.30986 15.2756 5.12986C15.1756 4.94986 15.0756 4.88986 14.9156 4.88986H14.7156C14.5756 4.88986 14.4956 4.92986 14.4156 4.92986L13.6756 5.16986L11.4556 5.08986C11.2556 5.08986 11.0356 5.04986 10.8356 4.96986L10.4356 4.80986C10.1756 4.72986 9.89563 4.68986 9.65563 4.68986C9.39563 4.68986 9.11563 4.72986 8.85563 4.80986C8.65563 4.88986 8.41563 4.92986 8.21562 4.92986C8.03563 4.92986 7.91563 4.92986 7.75563 4.88986L6.31563 4.60986C6.15562 4.54986 5.93563 4.54986 5.77562 4.54986C5.45563 4.54986 5.15563 4.60986 4.83563 4.72986L4.21563 4.96986C3.97563 5.00986 3.71563 5.12986 3.51562 5.30986L2.57563 6.04986C2.39563 6.16986 2.27562 6.36986 2.27562 6.56986C2.27562 6.78986 2.35562 6.98986 2.49563 7.14986C2.53562 7.18986 2.61562 7.26986 2.69563 7.30986L2.89562 7.34986C3.05562 7.44986 3.27562 7.44986 3.47562 7.38986L4.63563 6.98986C4.87563 6.90986 5.15562 6.90986 5.41563 7.02986C5.73563 7.22986 5.97563 7.56986 5.97563 7.96986C5.97563 8.70986 5.77563 9.44986 5.41563 10.1099C5.15562 10.5299 5.07563 11.0299 5.15563 11.4699C5.31563 12.4099 5.57562 13.3699 5.89563 14.2699C5.93563 14.3499 6.01563 14.4299 6.15563 14.4299C6.27563 14.4299 6.35563 14.3499 6.39563 14.2299L6.47563 13.9899L6.85563 14.6099C6.89563 14.6899 6.93562 14.7699 6.93562 14.8899C6.93562 15.1699 7.05563 15.4299 7.29563 15.5899L8.25563 16.2099C8.41563 16.2899 8.57562 16.3699 8.73563 16.3699C8.77563 16.3699 8.81563 16.3699 8.85563 16.3699C9.03563 16.3699 9.19563 16.4099 9.31563 16.4899L10.4356 17.4499L11.0956 18.0099C11.1756 18.1099 11.2956 18.1499 11.3756 18.1499C11.4956 18.1499 11.5756 18.1099 11.6556 18.0099L12.1156 17.6499C12.1556 17.6099 12.1956 17.5699 12.1556 17.4899C12.1556 17.4499 12.0756 17.3899 12.0356 17.3499L11.5356 17.2699L11.0356 16.9499C10.9556 16.9099 10.9156 16.7899 10.9556 16.6899V16.6499C10.9956 16.4899 10.9956 16.3299 10.9156 16.2099C10.8356 16.0899 10.6756 15.9899 10.5156 15.9899C10.4356 15.9899 10.3956 15.9499 10.3556 15.9099C10.2956 15.8699 10.2956 15.7899 10.3556 15.7099L10.5556 15.2499C10.5956 15.1699 10.5956 15.0499 10.5556 14.9699C10.5156 14.8899 10.3956 14.8499 10.2956 14.8499C10.2556 14.8499 10.2156 14.8499 10.1356 14.8899L9.69563 15.1299C9.51562 15.2099 9.35563 15.2099 9.19563 15.1699C8.89563 15.0499 8.77563 14.7299 8.89563 14.4699L9.11563 13.9899C9.27563 13.6099 9.59562 13.3699 10.0156 13.3299L10.9556 13.2499C11.2156 13.2499 11.4156 13.3699 11.4556 13.5699C11.4956 13.6899 11.6156 13.7699 11.7356 13.7699C11.9156 13.7699 11.9956 13.6899 12.0356 13.5299L12.1556 13.1099C12.2756 12.7099 12.5756 12.3699 12.9356 12.1699C13.2356 12.0099 13.4756 11.7699 13.6356 11.4699L13.6756 11.3899C13.7956 11.1499 14.0156 10.8899 14.2556 10.7699L14.7556 10.4499C15.2356 10.1499 15.7756 9.90986 16.3156 9.70986C16.4356 9.66986 16.5156 9.58986 16.5556 9.44986C16.5956 9.32986 16.5556 9.20986 16.4756 9.12986L16.3556 8.96986V8.92986C16.3556 8.92986 16.3556 8.88986 16.3956 8.88986L17.1756 8.70986C17.2156 8.70986 17.2156 8.70986 17.2156 8.70986V8.74986C17.1756 8.88986 17.1756 9.00986 17.2556 9.08986C17.3356 9.20986 17.4556 9.24986 17.6356 9.24986C17.8356 9.20986 18.0356 9.08986 18.1556 8.92986C18.2956 8.70986 18.3356 8.50986 18.2556 8.30986Z" fill="#6F8CAA"/>
</g>
</g>
</g>
<defs>
<clipPath id="clip0_139_2566">
<rect width="20" height="20" fill="white" transform="translate(0.015625 0.489746)"/>
</clipPath>
<clipPath id="clip1_139_2566">
<rect width="20" height="20" fill="white" transform="translate(0.015625 0.489746)"/>
</clipPath>
<clipPath id="clip2_139_2566">
<rect width="20" height="20" fill="white" transform="translate(0.015625 0.489746)"/>
</clipPath>
</defs>
</svg>
