<svg width="18" height="25" viewBox="0 0 18 25" fill="none" xmlns="http://www.w3.org/2000/svg">
<path d="M17.4949 24.0945C17.3624 24.0944 17.2351 24.0422 17.1409 23.9489L14.5293 21.3373L12.3812 23.9154C12.3368 23.9688 12.2817 24.0123 12.2195 24.0432C12.1572 24.074 12.0892 24.0915 12.0198 24.0945C11.9504 24.0983 11.881 24.0872 11.8161 24.0621C11.7513 24.0371 11.6925 23.9985 11.6437 23.9489L9.00019 21.3038L6.35586 23.9481C6.3072 23.9979 6.2485 24.0368 6.18364 24.0622C6.11879 24.0876 6.04928 24.0989 5.97973 24.0953C5.91035 24.0922 5.84238 24.0747 5.78015 24.0439C5.71793 24.013 5.66281 23.9696 5.61832 23.9162L3.47031 21.3373L0.859504 23.9489C0.789475 24.0187 0.700345 24.0662 0.60336 24.0854C0.506374 24.1046 0.405881 24.0946 0.31456 24.0567C0.223239 24.0188 0.145183 23.9548 0.0902429 23.8726C0.0353026 23.7904 0.00593969 23.6938 0.00585938 23.5949V2.60865C0.00672476 1.9462 0.270267 1.31112 0.738694 0.842698C1.20712 0.374271 1.84219 0.110729 2.50465 0.109863L15.4957 0.109863C16.1582 0.110729 16.7933 0.374271 17.2617 0.842698C17.7301 1.31112 17.9937 1.9462 17.9945 2.60865V23.5949C17.9946 23.6938 17.9652 23.7906 17.9102 23.8728C17.8551 23.9551 17.7769 24.0191 17.6854 24.0569C17.6251 24.082 17.5603 24.0948 17.4949 24.0945Z" fill="#FFEE00"/>
</svg>
