<svg width="40" height="41" viewBox="0 0 40 41" fill="none" xmlns="http://www.w3.org/2000/svg">
<path d="M40 20.081C40 17.6346 39.56 15.2911 38.756 13.1245L20 12.2549L1.24398 13.1244C0.440078 15.2911 0 17.6346 0 20.081C0 22.5274 0.440078 24.8709 1.24398 27.0375L20 27.9071L38.756 27.0375C39.56 24.8709 40 22.5274 40 20.081Z" fill="#D80027"/>
<path d="M20.0002 40.0811C28.5995 40.0811 35.9303 34.6536 38.7562 27.0376H1.24414C4.07 34.6536 11.4009 40.0811 20.0002 40.0811Z" fill="#6DA544"/>
<path d="M1.24414 13.1246H38.7562C35.9303 5.50855 28.5995 0.0810547 20.0002 0.0810547C11.4009 0.0810547 4.07 5.50855 1.24414 13.1246Z" fill="#338AF3"/>
<path d="M20.4346 25.7333C17.313 25.7333 14.7824 23.2026 14.7824 20.0811C14.7824 16.9595 17.313 14.4289 20.4346 14.4289C21.4079 14.4289 22.3237 14.675 23.1233 15.1083C21.8689 13.8816 20.1536 13.1245 18.2607 13.1245C14.4187 13.1245 11.3042 16.239 11.3042 20.081C11.3042 23.9229 14.4187 27.0375 18.2607 27.0375C20.1537 27.0375 21.869 26.2804 23.1233 25.0537C22.3237 25.4872 21.4079 25.7333 20.4346 25.7333Z" fill="#F0F0F0"/>
<path d="M24.7822 16.168L25.5309 18.2735L27.5491 17.314L26.5897 19.3323L28.6952 20.081L26.5897 20.8298L27.5491 22.848L25.5309 21.8885L24.7822 23.9941L24.0336 21.8885L22.0152 22.848L22.9748 20.8298L20.8691 20.081L22.9748 19.3323L22.0152 17.314L24.0336 18.2735L24.7822 16.168Z" fill="#F0F0F0"/>
</svg>
