<svg width="30" height="30" viewBox="0 0 30 30" fill="none" xmlns="http://www.w3.org/2000/svg">
<path d="M22.2538 15.1701C22.1668 15.0811 22.0629 15.0104 21.9483 14.962C21.8337 14.9136 21.7106 14.8885 21.5862 14.8882C21.4618 14.8878 21.3385 14.9123 21.2236 14.96C21.1088 15.0078 21.0046 15.078 20.9171 15.1664C20.8296 15.2549 20.7606 15.3599 20.7141 15.4753C20.6676 15.5907 20.6445 15.7142 20.6462 15.8386C20.6479 15.963 20.6744 16.0858 20.724 16.1999C20.7737 16.3139 20.8456 16.417 20.9355 16.503C21.7308 17.2857 22.3619 18.2193 22.7915 19.2492C23.2212 20.279 23.4408 21.3843 23.4375 22.5002C23.4375 23.6469 20.1508 25.3127 15 25.3127C9.84933 25.3127 6.56254 23.646 6.56254 22.4983C6.55939 21.3901 6.77608 20.2923 7.20008 19.2684C7.62408 18.2445 8.24696 17.3148 9.03267 16.5333C9.12154 16.4467 9.19231 16.3432 9.2409 16.229C9.28948 16.1148 9.31491 15.9921 9.31569 15.868C9.31648 15.7439 9.29261 15.6208 9.24548 15.506C9.19835 15.3912 9.12889 15.2869 9.04112 15.1991C8.95336 15.1114 8.84905 15.0419 8.73423 14.9948C8.61941 14.9476 8.49638 14.9238 8.37227 14.9246C8.24816 14.9253 8.12544 14.9508 8.01123 14.9993C7.89702 15.0479 7.79359 15.1187 7.70695 15.2076C6.74641 16.1631 5.98495 17.2996 5.46667 18.5514C4.94838 19.8032 4.68356 21.1454 4.68754 22.5002C4.68754 25.5448 10.0004 27.1877 15 27.1877C19.9997 27.1877 25.3125 25.5448 25.3125 22.5002C25.3167 21.1362 25.0483 19.7852 24.523 18.5264C23.9977 17.2676 23.2262 16.1265 22.2538 15.1701Z" fill="black"/>
<path d="M15 15.9375C16.2979 15.9375 17.5667 15.5526 18.6459 14.8315C19.7251 14.1104 20.5663 13.0855 21.063 11.8864C21.5597 10.6872 21.6896 9.36772 21.4364 8.09472C21.1832 6.82172 20.5582 5.6524 19.6404 4.73461C18.7226 3.81683 17.5533 3.19182 16.2803 2.9386C15.0073 2.68538 13.6878 2.81534 12.4886 3.31204C11.2895 3.80874 10.2646 4.64988 9.54348 5.72907C8.82238 6.80827 8.4375 8.07706 8.4375 9.375C8.43951 11.1149 9.13156 12.7829 10.3618 14.0132C11.5921 15.2434 13.2601 15.9355 15 15.9375ZM15 4.6875C15.9271 4.6875 16.8334 4.96242 17.6042 5.47749C18.3751 5.99256 18.9759 6.72465 19.3307 7.58117C19.6855 8.4377 19.7783 9.3802 19.5974 10.2895C19.4166 11.1988 18.9701 12.034 18.3146 12.6896C17.659 13.3451 16.8238 13.7916 15.9145 13.9724C15.0052 14.1533 14.0627 14.0605 13.2062 13.7057C12.3496 13.3509 11.6176 12.7501 11.1025 11.9792C10.5874 11.2084 10.3125 10.3021 10.3125 9.375C10.314 8.13225 10.8083 6.94082 11.6871 6.06206C12.5658 5.1833 13.7572 4.68897 15 4.6875Z" fill="black"/>
</svg>
