<svg width="14" height="14" viewBox="0 0 14 14" fill="none" xmlns="http://www.w3.org/2000/svg">
<g clip-path="url(#clip0_618_2532)">
<path d="M2.59711 11.7232L6.97034 7.34996L2.59711 2.97674L2.58955 2.96918L2.58266 2.96099C2.4035 2.74824 2.31795 2.49645 2.32909 2.21797C2.34023 1.93949 2.44567 1.69472 2.64014 1.49469C2.83617 1.29306 3.08158 1.18249 3.36371 1.16589C3.64658 1.14925 3.90279 1.23157 4.11792 1.41273L4.1261 1.41962L4.13367 1.42718L9.28167 6.57518C9.49248 6.786 9.60189 7.04646 9.60189 7.34346C9.60189 7.64045 9.49249 7.90089 9.2817 8.1117C9.28169 8.11172 9.28168 8.11173 9.28167 8.11174L4.13389 13.2725L4.12622 13.2802L4.11792 13.2872C3.90279 13.4684 3.64658 13.5507 3.36371 13.534C3.08158 13.5174 2.83617 13.4069 2.64014 13.2052C2.44567 13.0052 2.34023 12.7604 2.32909 12.482C2.31795 12.2035 2.4035 11.9517 2.58266 11.7389L2.58955 11.7307L2.59711 11.7232Z" fill="#FFDA44" stroke="black" stroke-width="0.5"/>
</g>
<defs>
<clipPath id="clip0_618_2532">
<rect width="13" height="13" fill="white" transform="matrix(1 0 0 -1 0.578125 13.8501)"/>
</clipPath>
</defs>
</svg>
