<svg width="22" height="15" viewBox="0 0 22 15" fill="none" xmlns="http://www.w3.org/2000/svg">
<g clip-path="url(#clip0_139_3507)">
<path d="M2.55236 7.31737C2.25106 8.14517 2.13848 8.93812 2.19321 9.67126L9.48142 10.2597L17.198 9.67126C17.7864 8.93812 18.2511 8.14517 18.5524 7.31737C18.8537 6.48957 18.9662 5.69661 18.9115 4.96348L11.6233 4.375L3.9067 4.96348C3.3183 5.69661 2.85365 6.48957 2.55236 7.31737Z" fill="#FFDA44"/>
<path d="M18.9116 4.96338C18.7192 2.38635 16.4553 0.549805 13.0156 0.549805C9.57587 0.549805 5.97508 2.38635 3.90677 4.96338H18.9116Z" fill="#D80027"/>
<path d="M2.19336 9.67139C2.38574 12.2484 4.64964 14.085 8.08936 14.085C11.5291 14.085 15.1299 12.2484 17.1982 9.67139H2.19336Z" fill="#D80027"/>
</g>
<defs>
<clipPath id="clip0_139_3507">
<rect width="16" height="16" fill="white" transform="matrix(1 0 -0.307894 0.845933 5.01562 0.549805)"/>
</clipPath>
</defs>
</svg>
