<svg width="27" height="26" viewBox="0 0 27 26" fill="none" xmlns="http://www.w3.org/2000/svg">
<rect x="0.515381" y="0.599609" width="25" height="25" rx="12.5" fill="#126D50"/>
<rect x="0.515381" y="0.599609" width="25" height="25" rx="12.5" stroke="#F9DC19"/>
<g clip-path="url(#clip0_139_5719)">
<path d="M19.1474 10.2235H16.3754C16.5527 10.1022 16.716 9.96218 16.8654 9.80351C17.0987 9.54218 17.255 9.24584 17.3344 8.91451C17.4137 8.58318 17.4137 8.25418 17.3344 7.92751C17.255 7.60084 17.0987 7.30684 16.8654 7.04551C16.6974 6.86818 16.5014 6.73051 16.2774 6.63251C16.0534 6.53451 15.82 6.48551 15.5774 6.48551C15.3347 6.48551 15.1014 6.53451 14.8774 6.63251C14.6534 6.73051 14.4574 6.86818 14.2894 7.04551C13.916 7.49351 13.622 7.98818 13.4074 8.52951C13.1927 9.07084 13.0714 9.63551 13.0434 10.2235H12.9874C12.9594 9.63551 12.838 9.07084 12.6234 8.52951C12.4087 7.98818 12.1147 7.49351 11.7414 7.04551C11.5734 6.86818 11.3774 6.73051 11.1534 6.63251C10.9294 6.53451 10.696 6.48551 10.4534 6.48551C10.2107 6.48551 9.97738 6.53451 9.75338 6.63251C9.52938 6.73051 9.33338 6.86818 9.16538 7.04551C8.93205 7.30684 8.77571 7.60084 8.69638 7.92751C8.61705 8.25418 8.61705 8.58318 8.69638 8.91451C8.77571 9.24584 8.93205 9.54218 9.16538 9.80351C9.31471 9.96218 9.47805 10.1022 9.65538 10.2235H6.89738C6.64538 10.2328 6.43538 10.3262 6.26738 10.5035C6.09938 10.6808 6.01538 10.8955 6.01538 11.1475V13.4855C6.01538 13.6068 6.05738 13.7142 6.14138 13.8075C6.22538 13.9008 6.32805 13.9475 6.44938 13.9475H6.89738V19.5615C6.88805 19.8135 6.96738 20.0305 7.13538 20.2125C7.30338 20.3945 7.51338 20.4902 7.76538 20.4995H18.2654C18.5174 20.4902 18.7297 20.3945 18.9024 20.2125C19.075 20.0305 19.1567 19.8135 19.1474 19.5615V13.9615H19.5814C19.712 13.9615 19.8194 13.9148 19.9034 13.8215C19.9874 13.7282 20.0247 13.6162 20.0154 13.4855V11.1475C20.0154 10.9048 19.9314 10.6925 19.7634 10.5105C19.5954 10.3285 19.39 10.2328 19.1474 10.2235ZM9.79538 7.71751C9.97271 7.52151 10.192 7.42351 10.4534 7.42351C10.7147 7.42351 10.9364 7.52151 11.1184 7.71751C11.3004 7.91351 11.4847 8.20284 11.6714 8.58551C11.8487 8.93084 11.9794 9.26684 12.0634 9.59351C12.1474 9.92018 12.1567 10.1208 12.0914 10.1955C12.0354 10.2235 11.9794 10.2328 11.9234 10.2235C11.1114 10.0742 10.402 9.71484 9.79538 9.14551C9.60871 8.94018 9.51538 8.70218 9.51538 8.43151C9.51538 8.16084 9.60871 7.92284 9.79538 7.71751ZM12.5814 19.5615H7.76538V13.9615H12.5814V19.5615ZM12.5814 13.0235H6.89738V11.1475H12.5814V13.0235ZM14.9194 7.71751C15.0967 7.53084 15.316 7.43751 15.5774 7.43751C15.8387 7.43751 16.0604 7.53551 16.2424 7.73151C16.4244 7.92751 16.5154 8.16084 16.5154 8.43151C16.5154 8.70218 16.422 8.94018 16.2354 9.14551C15.6287 9.71484 14.9194 10.0742 14.1074 10.2235C14.0514 10.2235 13.9954 10.2095 13.9394 10.1815C13.874 10.1068 13.8857 9.90851 13.9744 9.58651C14.063 9.26451 14.1914 8.93084 14.3594 8.58551C14.546 8.20284 14.7327 7.91351 14.9194 7.71751ZM18.2654 19.5615H13.4494V13.9615H18.2654V19.5615ZM19.1474 13.0235H13.4494V11.1475H19.1474V13.0235Z" fill="#F9DC19"/>
</g>
<defs>
<clipPath id="clip0_139_5719">
<rect width="14" height="14" fill="white" transform="matrix(1 0 0 -1 6.01538 20.4995)"/>
</clipPath>
</defs>
</svg>
