<svg width="16" height="16" viewBox="0 0 16 16" fill="none" xmlns="http://www.w3.org/2000/svg">
<path d="M12.828 16C12.764 16 12.7 15.984 12.636 15.952L8.012 13.904L3.388 15.952C3.30267 15.984 3.21467 15.9947 3.124 15.984C3.03333 15.9733 2.95067 15.9413 2.876 15.888C2.80133 15.8347 2.748 15.7627 2.716 15.672C2.684 15.5813 2.67867 15.4933 2.7 15.408L3.724 10.304L0.156 6.736C0.092 6.672 0.0466667 6.59467 0.02 6.504C-0.00666667 6.41333 -0.00666667 6.32267 0.02 6.232C0.0466667 6.14133 0.0946667 6.06667 0.164 6.008C0.233333 5.94933 0.316 5.90933 0.412 5.888L5.516 4.864L7.548 0.271999C7.59067 0.186666 7.65467 0.119999 7.74 0.0719995C7.82533 0.0239992 7.916 0 8.012 0C8.108 0 8.19867 0.0239992 8.284 0.0719995C8.36933 0.119999 8.43333 0.186666 8.476 0.271999L10.508 4.864L15.612 5.888C15.708 5.90933 15.7907 5.94933 15.86 6.008C15.9293 6.06667 15.9773 6.14133 16.004 6.232C16.0307 6.32267 16.0307 6.41333 16.004 6.504C15.9773 6.59467 15.932 6.672 15.868 6.736L12.3 10.304L13.324 15.392C13.356 15.552 13.3213 15.6933 13.22 15.816C13.1187 15.9387 12.988 16 12.828 16ZM8.012 12.848C8.08667 12.848 8.156 12.864 8.22 12.896L12.156 14.656L11.276 10.224C11.2547 10.16 11.2867 10.0693 11.372 9.952C11.5 9.78133 11.7827 9.46133 12.22 8.992C12.7 8.49067 13.4573 7.72267 14.492 6.688C13.0307 6.38933 11.9427 6.16 11.228 6C10.588 5.86133 10.1613 5.74933 9.948 5.664C9.79867 5.61067 9.71333 5.55733 9.692 5.504L8.012 1.712L6.332 5.504C6.25733 5.664 6.13467 5.76 5.964 5.792L1.532 6.688L4.62 9.776C4.73733 9.904 4.78 10.0533 4.748 10.224L3.868 14.656L7.804 12.896C7.868 12.864 7.93733 12.848 8.012 12.848Z" fill="#B6C5D4"/>
</svg>
