<svg width="15" height="18" viewBox="0 0 15 18" fill="none" xmlns="http://www.w3.org/2000/svg">
<g clip-path="url(#clip0_139_3322)">
<path d="M5.36475 4.39229H8.62675C8.77608 4.39229 8.90442 4.33863 9.01175 4.23129C9.11908 4.12396 9.17275 3.99563 9.17275 3.84629C9.17275 3.69696 9.11908 3.56863 9.01175 3.46129C8.90442 3.35396 8.77608 3.30029 8.62675 3.30029H5.36475C5.21542 3.30029 5.08708 3.35396 4.97975 3.46129C4.87242 3.56863 4.81875 3.69696 4.81875 3.84629C4.81875 3.99563 4.87242 4.12396 4.97975 4.23129C5.08708 4.33863 5.21542 4.39229 5.36475 4.39229ZM8.54275 8.97029L6.61075 10.8883C6.50808 10.991 6.45675 11.1193 6.45675 11.2733C6.45675 11.4273 6.50808 11.5556 6.61075 11.6583C6.71342 11.761 6.84175 11.8123 6.99575 11.8123C7.14975 11.8123 7.27808 11.761 7.38075 11.6583L9.31275 9.74029C9.38742 9.67496 9.44108 9.59329 9.47375 9.49529C9.50642 9.39729 9.51108 9.29929 9.48775 9.20129C9.46442 9.10329 9.41542 9.01696 9.34075 8.94229C9.26608 8.86763 9.17975 8.81863 9.08175 8.79529C8.98375 8.77196 8.88575 8.77663 8.78775 8.80929C8.68975 8.84196 8.60808 8.89563 8.54275 8.97029ZM6.98875 5.26029C5.89675 5.26029 4.88408 5.53563 3.95075 6.08629C3.04542 6.61829 2.32675 7.33696 1.79475 8.24229C1.24408 9.17563 0.96875 10.1883 0.96875 11.2803C0.96875 12.3723 1.24408 13.385 1.79475 14.3183C2.32675 15.2236 3.04542 15.9423 3.95075 16.4743C4.88408 17.025 5.89675 17.3003 6.98875 17.3003C8.08075 17.3003 9.09342 17.025 10.0267 16.4743C10.9321 15.9423 11.6507 15.2236 12.1827 14.3183C12.7334 13.385 13.0087 12.3723 13.0087 11.2803C13.0087 10.1883 12.7334 9.17563 12.1827 8.24229C11.6507 7.33696 10.9321 6.61829 10.0267 6.08629C9.09342 5.53563 8.08075 5.26029 6.98875 5.26029ZM6.98875 16.2083C6.10208 16.2083 5.27608 15.9843 4.51075 15.5363C3.77342 15.107 3.19008 14.5236 2.76075 13.7863C2.31275 13.021 2.08875 12.195 2.08875 11.3083C2.08875 10.4216 2.31275 9.59563 2.76075 8.83029C3.19008 8.09296 3.77342 7.50963 4.51075 7.08029C5.27608 6.63229 6.10208 6.40829 6.98875 6.40829C7.87542 6.40829 8.70142 6.63229 9.46675 7.08029C10.2041 7.50963 10.7874 8.09296 11.2167 8.83029C11.6647 9.59563 11.8888 10.4216 11.8888 11.3083C11.8888 12.195 11.6647 13.021 11.2167 13.7863C10.7874 14.5236 10.2041 15.107 9.46675 15.5363C8.70142 15.9843 7.87542 16.2083 6.98875 16.2083Z" fill="#292744"/>
</g>
<defs>
<clipPath id="clip0_139_3322">
<rect width="14" height="14" fill="white" transform="matrix(1 0 0 -1 0.96875 17.3003)"/>
</clipPath>
</defs>
</svg>
