<svg width="15" height="18" viewBox="0 0 15 18" fill="none" xmlns="http://www.w3.org/2000/svg">
<g clip-path="url(#clip0_139_3330)">
<path d="M8.62838 9.50794V5.88194C8.60038 5.72327 8.52804 5.59261 8.41138 5.48994C8.29471 5.38727 8.15471 5.33594 7.99138 5.33594C7.82804 5.33594 7.68804 5.38727 7.57138 5.48994C7.45471 5.59261 7.38238 5.72327 7.35438 5.88194V9.75994C7.34504 9.94661 7.40571 10.1053 7.53638 10.2359L9.77637 12.4759C9.89771 12.5973 10.047 12.6579 10.2244 12.6579C10.4017 12.6579 10.551 12.5973 10.6724 12.4759C10.7937 12.3546 10.8544 12.2053 10.8544 12.0279C10.8544 11.8506 10.7937 11.7013 10.6724 11.5799L8.62838 9.50794ZM7.98438 2.68994C7.03238 2.68994 6.12238 2.87194 5.25437 3.23594C4.42371 3.59061 3.68404 4.09227 3.03538 4.74094C2.38671 5.38961 1.88504 6.12927 1.53038 6.95994C1.16638 7.82794 0.984375 8.73794 0.984375 9.68994C0.984375 10.6419 1.16638 11.5519 1.53038 12.4199C1.88504 13.2506 2.38671 13.9903 3.03538 14.6389C3.68404 15.2876 4.42371 15.7893 5.25437 16.1439C6.12238 16.5079 7.03238 16.6899 7.98438 16.6899C8.93638 16.6899 9.84638 16.5079 10.7144 16.1439C11.545 15.7893 12.2847 15.2876 12.9334 14.6389C13.582 13.9903 14.0837 13.2506 14.4384 12.4199C14.8024 11.5519 14.9844 10.6419 14.9844 9.68994C14.9844 8.73794 14.8024 7.82794 14.4384 6.95994C14.0837 6.12927 13.582 5.38961 12.9334 4.74094C12.2847 4.09227 11.545 3.59061 10.7144 3.23594C9.84638 2.87194 8.93638 2.68994 7.98438 2.68994ZM13.6964 9.68994C13.6964 10.4553 13.5517 11.1879 13.2624 11.8879C12.973 12.5879 12.56 13.2063 12.0234 13.7429C11.4867 14.2796 10.866 14.6926 10.1614 14.9819C9.45671 15.2713 8.72404 15.4159 7.96338 15.4159C7.20271 15.4159 6.47238 15.2713 5.77238 14.9819C5.07238 14.6926 4.45404 14.2773 3.91738 13.7359C3.38071 13.1946 2.96771 12.5739 2.67838 11.8739C2.38904 11.1739 2.24437 10.4436 2.24437 9.68294C2.24437 8.92227 2.39138 8.18961 2.68538 7.48494C2.97938 6.78027 3.39471 6.16194 3.93138 5.62994C4.46804 5.09794 5.08638 4.68727 5.78638 4.39794C6.48638 4.10861 7.21904 3.96394 7.98438 3.96394C9.02038 3.96394 9.98171 4.22527 10.8684 4.74794C11.7364 5.25194 12.4224 5.93794 12.9264 6.80594C13.449 7.69261 13.7104 8.65394 13.7104 9.68994H13.6964Z" fill="#292744"/>
</g>
<defs>
<clipPath id="clip0_139_3330">
<rect width="14" height="14" fill="white" transform="matrix(1 0 0 -1 0.984375 16.6899)"/>
</clipPath>
</defs>
</svg>
