<svg width="36" height="40" viewBox="0 0 36 40" fill="none" xmlns="http://www.w3.org/2000/svg">
<path d="M30.8864 14.2928C29.9436 15.4242 30.0964 17.1058 31.2278 18.0486C32.3592 18.9914 34.0408 18.8386 34.9836 17.7072C35.9264 16.5758 35.7736 14.8942 34.6422 13.9514C33.5108 13.0086 31.8292 13.1614 30.8864 14.2928ZM14.6149 1.38411L32.6149 16.3841L33.2551 15.6159L15.2551 0.615889L14.6149 1.38411Z" fill="#7B68EE"/>
<path d="M35.4126 14.864C34.7852 13.5316 33.1964 12.96 31.864 13.5874C30.5316 14.2148 29.96 15.8036 30.5874 17.136C31.2148 18.4684 32.8036 19.04 34.136 18.4126C35.4684 17.7852 36.04 16.1964 35.4126 14.864ZM32.787 15.5476L10.787 25.9067L11.213 26.8114L33.213 16.4524L32.787 15.5476Z" fill="#94E992"/>
<path d="M5.11359 26.328C6.05643 25.1966 5.90357 23.5151 4.77216 22.5722C3.64076 21.6294 1.95925 21.7823 1.01641 22.9137C0.0735747 24.0451 0.226439 25.7266 1.35784 26.6694C2.48925 27.6123 4.17075 27.4594 5.11359 26.328ZM21.3851 39.2367L3.38509 24.2367L2.74491 25.0049L20.7449 40.0049L21.3851 39.2367Z" fill="#7B68EE"/>
<path d="M0.587407 25.7568C1.21481 27.0893 2.80357 27.6608 4.13601 27.0334C5.46844 26.406 6.03999 24.8173 5.41259 23.4848C4.78519 22.1524 3.19643 21.5808 1.86399 22.2082C0.531556 22.8356 -0.0399912 24.4244 0.587407 25.7568ZM3.213 25.0732L25.213 14.7142L24.787 13.8094L2.787 24.1685L3.213 25.0732Z" fill="#94E992"/>
</svg>
