<svg width="21" height="21" viewBox="0 0 21 21" fill="none" xmlns="http://www.w3.org/2000/svg">
<path d="M10.0156 0.609863C4.49563 0.609863 0.015625 5.08986 0.015625 10.6099C0.015625 16.1299 4.49563 20.6099 10.0156 20.6099C15.5356 20.6099 20.0156 16.1299 20.0156 10.6099C20.0156 5.08986 15.5356 0.609863 10.0156 0.609863ZM16.5156 7.22986C17.0156 7.22986 17.3756 7.60986 17.8756 7.60986C17.5156 8.08986 15.8556 8.08986 15.3756 7.48986C15.7756 7.34986 16.0156 7.22986 16.5156 7.22986ZM1.21563 10.7299C1.21563 10.2299 1.21563 9.74986 1.33563 9.08986C1.45563 9.08986 1.65562 9.08986 1.79562 9.08986C1.79562 9.08986 1.91562 9.20986 1.91562 9.32986C1.91562 9.70986 2.27563 9.94986 2.53563 9.94986C3.51563 10.0699 3.87562 10.9299 4.79563 11.1899C5.03562 11.3099 4.91563 11.5499 4.79563 11.8099C4.05562 12.7899 4.67562 13.5699 5.27562 14.1899C5.89563 14.6899 5.89563 15.1699 6.01562 15.9499C6.01562 16.8299 6.15562 18.0499 6.51562 18.9299C3.39562 17.4499 1.21563 14.3499 1.21563 10.7299ZM10.1756 19.5899C9.31563 19.5899 8.29563 19.4499 7.55563 19.2099C7.41563 18.9699 7.25562 18.5099 7.37563 18.2699C7.87563 17.2699 8.37562 16.3699 9.03562 15.5099C9.27563 15.2499 9.51562 15.0099 9.51562 14.6499C9.51562 14.3899 9.65563 14.0299 9.77563 13.7699C10.1356 13.1699 10.0156 12.7899 9.51562 12.6699C8.53563 12.4099 8.03563 11.5499 7.25563 11.1899C6.47563 10.8299 5.77563 10.4899 5.15563 10.8499C4.91563 10.9699 4.53562 11.1099 4.53562 10.7299C4.53562 10.2299 3.93563 9.86986 4.05563 9.36986C3.93563 9.36986 3.79562 9.36986 3.67562 9.48986C3.55562 9.60986 3.43563 9.74986 3.17563 9.62986C2.93563 9.36986 3.05562 9.12986 3.05562 8.88986C3.17563 8.62986 3.31563 8.50986 3.55563 8.38986C4.05563 8.26986 4.53562 8.26986 4.79563 8.88986C5.15562 7.76986 5.89563 7.10986 6.67562 6.60986C6.67562 6.60986 7.67563 5.74986 7.79563 5.74986C7.91563 5.74986 8.03563 5.98986 8.29563 6.12986C8.53563 6.12986 8.65563 6.12986 8.65563 5.86986C8.77563 5.24986 8.41563 4.50986 7.91563 4.38986C7.91563 4.26986 8.03562 4.26986 8.03562 4.26986C8.41562 4.14986 8.89563 3.90986 8.77563 3.52986C8.77563 3.02986 8.29563 2.78986 7.79563 2.78986C7.55563 2.78986 7.29563 2.78986 7.05563 2.90986C6.55563 3.16986 5.93563 3.40986 5.15563 3.40986C6.51563 2.16986 8.45562 1.30986 10.1756 1.62986C10.5556 1.72986 10.8356 1.76986 11.2156 1.76986C10.4756 1.84986 9.51562 2.24986 9.03562 2.50986C9.77563 2.62986 9.89563 2.98986 9.65563 3.60986C9.51562 3.86986 9.65563 4.10986 9.89563 4.22986C10.1356 4.34986 10.3956 4.34986 10.5156 4.10986C10.7556 3.72986 11.2556 3.60986 11.6156 3.48986C12.1156 3.36986 12.4956 3.10986 12.8556 2.62986C12.8556 2.50986 13.0956 2.36986 13.2356 2.24986C13.9756 2.50986 14.7156 2.98986 15.4956 3.48986C15.3756 3.48986 15.2356 3.72986 15.1156 3.72986C14.8756 3.98986 14.4956 4.10986 14.8756 4.60986C14.9956 4.84986 14.8756 4.96986 14.7556 5.08986C14.4956 5.20986 14.3756 5.08986 14.2556 4.96986C14.1356 4.84986 14.1356 4.60986 13.7556 4.60986C13.6356 4.84986 13.2756 4.96986 13.2756 5.34986C13.8756 5.34986 13.7556 5.82986 13.8756 6.20986C13.1356 6.32986 12.8956 6.68986 13.2756 7.30986C13.3956 7.56986 13.1356 7.68986 13.0156 7.80986C12.5356 8.54986 12.0356 9.04986 12.0356 9.94986C12.0356 10.8499 12.6556 11.7299 13.6756 11.5899C14.7956 11.4699 14.7956 11.4699 15.1556 12.4699C15.1556 12.5899 15.2756 12.7099 15.2756 12.8299C15.4156 13.0699 15.5356 13.3299 15.4156 13.5699C15.0356 14.5499 15.5356 15.3499 15.8956 16.0899C16.0156 16.3299 16.3156 16.6499 16.4356 16.7899C14.8356 18.5499 12.6956 19.5899 10.1756 19.5899Z" fill="#6F8CAA"/>
</svg>
