<svg width="12" height="13" viewBox="0 0 12 13" fill="none" xmlns="http://www.w3.org/2000/svg">
<g clip-path="url(#clip0_139_5702)">
<path d="M7.6655 3.40563L4.5745 6.49663L1.4945 3.40563C1.3845 3.28829 1.25067 3.22963 1.093 3.22963C0.935336 3.22963 0.801503 3.28829 0.691503 3.40563C0.57417 3.51563 0.515503 3.64946 0.515503 3.80713C0.515503 3.9648 0.57417 4.09863 0.691503 4.20863L3.7715 7.29963L0.691503 10.3796C0.57417 10.4896 0.515503 10.6253 0.515503 10.7866C0.515503 10.948 0.57417 11.0836 0.691503 11.1936C0.801503 11.311 0.935336 11.3696 1.093 11.3696C1.25067 11.3696 1.3845 11.311 1.4945 11.1936L4.5745 8.10263L7.6655 11.1936C7.7755 11.311 7.90934 11.3696 8.067 11.3696C8.22467 11.3696 8.3585 11.311 8.4685 11.1936C8.5785 11.0836 8.6335 10.948 8.6335 10.7866C8.6335 10.6253 8.5785 10.4896 8.4685 10.3796L5.3775 7.29963L8.4685 4.20863C8.58584 4.09863 8.6445 3.9648 8.6445 3.80713C8.6445 3.64946 8.58584 3.51563 8.4685 3.40563C8.3585 3.28829 8.22467 3.22963 8.067 3.22963C7.90934 3.22963 7.7755 3.28829 7.6655 3.40563Z" fill="#706E82"/>
</g>
<defs>
<clipPath id="clip0_139_5702">
<rect width="11" height="11" fill="white" transform="matrix(1 0 0 -1 0.515503 12.7998)"/>
</clipPath>
</defs>
</svg>
