<svg width="25" height="26" viewBox="0 0 25 26" fill="none" xmlns="http://www.w3.org/2000/svg">
<g clip-path="url(#clip0_139_5832)">
<path d="M25 13C25 6.0957 19.4043 0.5 12.5 0.5C5.5957 0.5 0 6.0957 0 13C0 19.9043 5.5957 25.5 12.5 25.5C12.5732 25.5 12.6465 25.5 12.7197 25.4951V15.7686H10.0342V12.6387H12.7197V10.334C12.7197 7.66309 14.3506 6.20801 16.7334 6.20801C17.876 6.20801 18.8574 6.29102 19.1406 6.33008V9.12305H17.5C16.2061 9.12305 15.9521 9.73828 15.9521 10.6416V12.6338H19.0527L18.6475 15.7637H15.9521V25.0166C21.1768 23.5176 25 18.708 25 13Z" fill="#292744"/>
</g>
<defs>
<clipPath id="clip0_139_5832">
<rect width="25" height="25" fill="white" transform="translate(0 0.5)"/>
</clipPath>
</defs>
</svg>
