<svg width="30" height="30" viewBox="0 0 30 30" fill="none" xmlns="http://www.w3.org/2000/svg">
<g clip-path="url(#clip0_139_5816)">
<path d="M29.5 15C29.5 23.0081 23.0081 29.5 15 29.5C6.99187 29.5 0.5 23.0081 0.5 15C0.5 6.99187 6.99187 0.5 15 0.5C23.0081 0.5 29.5 6.99187 29.5 15Z" fill="#EAE9EC" stroke="#292744"/>
</g>
<path fill-rule="evenodd" clip-rule="evenodd" d="M21.4882 10.9023L16.5085 7.16423C15.5957 6.47896 14.3416 6.50355 13.4556 7.22409L8.43522 11.3068C7.84399 11.7876 7.5 12.5143 7.5 13.2825V20.7999C7.5 22.199 8.61929 23.3332 10 23.3332L11.6667 23.3332H13.3333H16.6667H18.3333L20 23.3332C21.3807 23.3332 22.5 22.199 22.5 20.7999V12.9379C22.5 12.1353 22.1246 11.3801 21.4882 10.9023ZM18.3333 21.6443H20C20.4602 21.6443 20.8333 21.2663 20.8333 20.7999V12.9379C20.8333 12.6703 20.7082 12.4186 20.4961 12.2594L15.5164 8.52126C15.2121 8.29283 14.7941 8.30103 14.4988 8.54121L9.47841 12.624C9.28133 12.7842 9.16667 13.0265 9.16667 13.2825V20.7999C9.16667 21.2663 9.53976 21.6443 10 21.6443H11.6667V19.1111C11.6667 17.2456 13.1591 15.7334 15 15.7334C16.8409 15.7334 18.3333 17.2456 18.3333 19.1111V21.6443ZM13.3333 21.6443H16.6667V19.1111C16.6667 18.1783 15.9205 17.4222 15 17.4222C14.0795 17.4222 13.3333 18.1783 13.3333 19.1111V21.6443Z" fill="#292744"/>
<defs>
<clipPath id="clip0_139_5816">
<rect width="30" height="30" fill="white"/>
</clipPath>
</defs>
</svg>
