<svg width="30" height="30" viewBox="0 0 30 30" fill="none" xmlns="http://www.w3.org/2000/svg">
<g clip-path="url(#clip0_139_6299)">
<path d="M15 30C23.2843 30 30 23.2843 30 15C30 6.71573 23.2843 0 15 0C6.71573 0 0 6.71573 0 15C0 23.2843 6.71573 30 15 30Z" fill="#484564"/>
</g>
<path fill-rule="evenodd" clip-rule="evenodd" d="M21.4882 10.9025L16.5085 7.16435C15.5957 6.47908 14.3416 6.50367 13.4556 7.22421L8.43522 11.307C7.84399 11.7878 7.5 12.5145 7.5 13.2826V20.8C7.5 22.1991 8.61929 23.3333 10 23.3333L11.6667 23.3333H13.3333H16.6667H18.3333L20 23.3333C21.3807 23.3333 22.5 22.1991 22.5 20.8V12.938C22.5 12.1354 22.1246 11.3802 21.4882 10.9025ZM18.3333 21.6445H20C20.4602 21.6445 20.8333 21.2664 20.8333 20.8V12.938C20.8333 12.6705 20.7082 12.4188 20.4961 12.2595L15.5164 8.52138C15.2121 8.29295 14.7941 8.30115 14.4988 8.54133L9.47841 12.6241C9.28133 12.7843 9.16667 13.0266 9.16667 13.2826V20.8C9.16667 21.2664 9.53976 21.6445 10 21.6445H11.6667V19.1112C11.6667 17.2457 13.1591 15.7335 15 15.7335C16.8409 15.7335 18.3333 17.2457 18.3333 19.1112V21.6445ZM13.3333 21.6445H16.6667V19.1112C16.6667 18.1785 15.9205 17.4223 15 17.4223C14.0795 17.4223 13.3333 18.1785 13.3333 19.1112V21.6445Z" fill="#F5EF44"/>
<defs>
<clipPath id="clip0_139_6299">
<rect width="30" height="30" fill="white"/>
</clipPath>
</defs>
</svg>
