<svg width="25" height="26" viewBox="0 0 25 26" fill="none" xmlns="http://www.w3.org/2000/svg">
<g clip-path="url(#clip0_139_5828)">
<path d="M12.5 15.5635C13.9158 15.5635 15.0635 14.4158 15.0635 13C15.0635 11.5842 13.9158 10.4365 12.5 10.4365C11.0842 10.4365 9.93652 11.5842 9.93652 13C9.93652 14.4158 11.0842 15.5635 12.5 15.5635Z" fill="#292744"/>
<path d="M12.5 0.792969C5.75825 0.792969 0.292969 6.25825 0.292969 13C0.292969 19.7417 5.75825 25.207 12.5 25.207C19.2417 25.207 24.707 19.7417 24.707 13C24.707 6.25825 19.2417 0.792969 12.5 0.792969ZM20.0419 16.1025C19.9833 17.2631 19.6572 18.4075 18.8114 19.2443C17.9575 20.089 16.8076 20.4038 15.6359 20.4618H9.36416C8.19229 20.4038 7.04258 20.0892 6.18862 19.2443C5.34282 18.4075 5.01675 17.2631 4.95815 16.1025V9.89746C5.01675 8.73691 5.34287 7.59248 6.18862 6.75566C7.04258 5.91094 8.19243 5.59619 9.36416 5.53823H15.6358C16.8077 5.59619 17.9574 5.91079 18.8114 6.75566C19.6572 7.59248 19.9833 8.73691 20.0418 9.89746L20.0419 16.1025Z" fill="#292744"/>
<path d="M15.5566 6.95183C14.029 6.90994 10.9714 6.90994 9.44372 6.95183C8.64875 6.97366 7.74753 7.17156 7.18112 7.77654C6.59255 8.4054 6.37014 9.16516 6.34758 10.0151C6.30793 11.5069 6.34758 15.9844 6.34758 15.9844C6.37341 16.8343 6.59255 17.5942 7.18112 18.223C7.74753 18.8282 8.64875 19.0259 9.44372 19.0477C10.9714 19.0896 14.029 19.0896 15.5566 19.0477C16.3516 19.0259 17.2528 18.828 17.8192 18.223C18.4078 17.5942 18.6302 16.8344 18.6528 15.9844V10.0151C18.6302 9.16516 18.4078 8.4054 17.8192 7.77654C17.2526 7.17136 16.3514 6.97366 15.5566 6.95183ZM12.5 16.9732C11.7141 16.9732 10.9459 16.7401 10.2925 16.3035C9.63905 15.8669 9.12977 15.2464 8.82904 14.5203C8.5283 13.7943 8.44962 12.9954 8.60293 12.2246C8.75624 11.4538 9.13467 10.7459 9.69036 10.1902C10.246 9.63448 10.954 9.25605 11.7248 9.10274C12.4956 8.94943 13.2945 9.02811 14.0205 9.32885C14.7466 9.62958 15.3671 10.1389 15.8037 10.7923C16.2403 11.4457 16.4734 12.2139 16.4734 12.9998C16.4734 14.0536 16.0547 15.0642 15.3096 15.8094C14.5644 16.5545 13.5538 16.9732 12.5 16.9732ZM16.4903 9.84656C16.3331 9.84652 16.1795 9.79988 16.0488 9.71254C15.9181 9.62519 15.8163 9.50107 15.7562 9.35585C15.6961 9.21064 15.6804 9.05087 15.7111 8.89673C15.7417 8.74259 15.8175 8.60101 15.9286 8.48989C16.0397 8.37877 16.1813 8.3031 16.3355 8.27246C16.4896 8.24181 16.6494 8.25756 16.7946 8.31771C16.9398 8.37786 17.0639 8.47972 17.1512 8.6104C17.2385 8.74108 17.2851 8.89472 17.2851 9.05188C17.2851 9.15626 17.2646 9.25961 17.2246 9.35604C17.1847 9.45246 17.1261 9.54008 17.0523 9.61387C16.9785 9.68767 16.8909 9.7462 16.7944 9.78612C16.698 9.82605 16.5946 9.84658 16.4903 9.84656Z" fill="#292744"/>
</g>
<defs>
<clipPath id="clip0_139_5828">
<rect width="25" height="25" fill="white" transform="translate(0 0.5)"/>
</clipPath>
</defs>
</svg>
