<svg width="30" height="30" viewBox="0 0 30 30" fill="none" xmlns="http://www.w3.org/2000/svg">
<path d="M15 30C23.2843 30 30 23.2843 30 15C30 6.71573 23.2843 0 15 0C6.71573 0 0 6.71573 0 15C0 23.2843 6.71573 30 15 30Z" fill="#F5F7F9"/>
<path d="M22.4292 16.2111H21.1826C21.5128 15.8113 21.8021 15.376 22.0433 14.9119C24.6367 10.157 20.8704 4.03635 15.5 4.15854C10.1305 4.03635 6.36289 10.157 8.95668 14.9115C9.19791 15.3755 9.48721 15.8108 9.81738 16.2106H8.5708C7.51828 16.2106 6.66162 17.0673 6.66162 18.1198V22.9318C6.66162 23.9844 7.51828 24.841 8.5708 24.841H22.4292C23.4817 24.841 24.3384 23.9844 24.3384 22.9318V18.1198C24.3384 17.0673 23.4817 16.2106 22.4292 16.2106V16.2111ZM18.1949 8.72125C18.2649 8.73293 18.3364 8.73967 18.4091 8.73967H18.4294L20.0281 8.71496C20.3561 8.71002 20.6579 8.5811 20.8848 8.36772C21.2684 9.01909 21.5371 9.74547 21.6633 10.5195C21.2927 10.4386 20.8969 10.5244 20.5879 10.7737L19.3431 11.7777C19.2847 11.8249 19.2317 11.8766 19.1836 11.9314L18.0358 11.6187C18.026 11.5114 18.0048 11.404 17.9707 11.298L17.5574 10.0262C17.5224 9.91887 17.4757 9.8178 17.4195 9.72436L18.1953 8.72215L18.1949 8.72125ZM20.326 15.486C20.1121 15.7461 19.8781 15.9883 19.6261 16.2106H17.3656L16.2524 15.4016C16.1913 15.3571 16.1276 15.3194 16.0615 15.2875V13.8819C16.1648 13.8388 16.2646 13.7835 16.358 13.7152L17.4397 12.9291C17.5368 12.8586 17.623 12.7777 17.6976 12.6897L18.8898 13.0144C18.9037 13.0868 18.9235 13.1582 18.9504 13.2287L19.5205 14.7228C19.6625 15.0948 19.9625 15.3697 20.3251 15.4856L20.326 15.486ZM13.8011 7.87403L14.319 6.36061C14.4295 6.03852 14.4048 5.69666 14.2673 5.40377C14.6658 5.32381 15.0782 5.28159 15.5 5.28159C15.9218 5.28159 16.3337 5.32381 16.7327 5.40377C16.5952 5.69711 16.5709 6.03852 16.681 6.36061L17.1989 7.87403C17.2219 7.94096 17.2497 8.00475 17.2825 8.06539L16.5143 9.05772C16.4029 9.03077 16.2875 9.01639 16.1689 9.01639H14.8316C14.713 9.01639 14.5975 9.03077 14.4861 9.05727L13.7179 8.06495C13.7503 8.0043 13.7786 7.94051 13.8015 7.87358L13.8011 7.87403ZM14.9385 15.2875C14.8724 15.3198 14.8087 15.3576 14.7476 15.4016L13.6344 16.2106H11.3739C11.1219 15.9883 10.8874 15.7457 10.674 15.486C11.0366 15.3701 11.3366 15.0957 11.4786 14.7233L12.0487 13.2292C12.0756 13.1586 12.0954 13.0868 12.1093 13.0149L13.3015 12.6901C13.3765 12.7786 13.4623 12.859 13.5594 12.9295L14.6411 13.7157C14.735 13.7839 14.8343 13.8392 14.9376 13.8823V15.2879L14.9385 15.2875ZM9.33672 10.5186C9.46295 9.74457 9.73158 9.01819 10.1152 8.36682C10.3421 8.5802 10.6439 8.70912 10.9719 8.71407L12.5706 8.73877H12.5909C12.6636 8.73877 12.7351 8.73203 12.8051 8.72036L13.5809 9.72256C13.5248 9.81645 13.4776 9.91707 13.443 10.0244L13.0297 11.2962C12.9952 11.4022 12.9745 11.5096 12.9646 11.6169L11.8169 11.9296C11.7688 11.8748 11.7158 11.8231 11.6574 11.7759L10.4126 10.7719C10.1035 10.5226 9.70777 10.4368 9.33717 10.5177L9.33672 10.5186ZM11.8002 22.7778H10.4759C10.166 22.7778 9.91441 22.5262 9.91441 22.2162V18.8354C9.93283 18.0956 11.019 18.0942 11.0375 18.8354V21.6547H11.8002C12.541 21.6736 12.5405 22.7589 11.8002 22.7778ZM13.9466 22.2162C13.9282 22.9556 12.8424 22.9579 12.8236 22.2162V18.8354C12.8236 18.5753 13.0001 18.3534 13.2472 18.291C13.5553 18.2088 13.8824 18.4208 13.9363 18.7276C13.9291 18.7263 13.9219 18.7245 13.9147 18.7231C13.9219 18.7249 13.9295 18.7267 13.9367 18.7285C13.943 18.7631 13.9466 18.7986 13.9466 18.8354V22.2162ZM17.8076 19.0164L16.654 22.3973C16.5768 22.6246 16.3629 22.7778 16.1226 22.7778C15.8823 22.7778 15.6689 22.6246 15.5912 22.3973L14.438 19.0164C14.4151 18.9495 14.4057 18.8812 14.4088 18.8143C14.4268 18.2056 15.301 18.0677 15.5009 18.6539C15.5013 18.6557 15.5827 18.8925 15.5827 18.8943H15.5831L16.1226 20.4769C16.1226 20.4769 16.6954 18.7981 16.6954 18.7977L16.7443 18.6539C17.0004 17.9608 18.0278 18.3076 17.8076 19.0164ZM20.2289 19.9643C20.9697 19.9832 20.9692 21.0685 20.2289 21.0873H19.4221V21.6547H20.5241C21.2639 21.6727 21.2648 22.7593 20.5241 22.7778H18.8606C18.5506 22.7778 18.2991 22.5262 18.2991 22.2162V18.8354C18.2991 18.525 18.5506 18.2739 18.8606 18.2739H20.5241C21.2644 18.2932 21.2648 19.3776 20.5241 19.3969H19.4221V19.9643H20.2289Z" fill="#F33C59"/>
</svg>
