<svg width="17" height="16" viewBox="0 0 17 16" fill="none" xmlns="http://www.w3.org/2000/svg">
<g clip-path="url(#clip0_630_345)">
<path d="M14.5632 7.42171H13.6467C13.7575 7.01854 13.8135 6.60255 13.8132 6.18473C13.8132 3.59284 11.6824 1.48421 9.06323 1.48421C6.44408 1.48421 4.31323 3.59284 4.31323 6.18473C4.31294 6.60255 4.36893 7.01854 4.47973 7.42171H2.56323V0.494629H0.563232V15.3384H2.56323V11.8748H3.76819L4.26819 9.40088H4.85006L5.81638 15.3775L6.31009 15.2993L6.07641 13.854H7.44243L7.56403 15.3581L8.06244 15.3187L7.94403 13.854H9.31323V15.3384H9.81323V13.854H11.1824L11.064 15.3187L11.5624 15.3581L11.684 13.854H13.0501L12.8164 15.2993L13.3101 15.3775L14.2764 9.40088H14.5632C14.8284 9.40088 15.0828 9.29662 15.2703 9.11104C15.4579 8.92545 15.5632 8.67375 15.5632 8.4113C15.5632 8.14884 15.4579 7.89714 15.2703 7.71155C15.0828 7.52597 14.8284 7.42171 14.5632 7.42171ZM2.06323 14.8436H1.06323V0.989421H2.06323V14.8436ZM13.3132 6.18473C13.3132 6.25492 13.3113 6.32487 13.3078 6.39461C12.277 6.22494 11.3174 5.76474 10.5441 5.06916L12.2384 3.39248C12.9314 4.16082 13.314 5.15488 13.3132 6.18473ZM9.41679 6.18473L10.1901 5.41951C11.0447 6.19428 12.1099 6.70453 13.2542 6.88731C13.2235 7.06803 13.1808 7.24655 13.1265 7.42171H10.6668L9.41679 6.18473ZM9.95967 7.42171H8.39981C8.36369 7.38054 8.3271 7.33988 8.29005 7.29974L9.06323 6.53461L9.95967 7.42171ZM9.06323 1.979C10.1039 1.9782 11.1085 2.35684 11.8849 3.04261L10.1905 4.71929C9.48761 3.95402 9.02257 3.00441 8.85113 1.98425C8.92141 1.98081 8.99211 1.97907 9.06323 1.979ZM8.35334 2.038C8.53812 3.17014 9.0537 4.22401 9.83651 5.06963L9.06323 5.83485L6.24159 3.04261C6.8361 2.51799 7.568 2.16981 8.35334 2.038ZM5.88803 3.39249L8.70967 6.18473L7.93657 6.94978C7.08415 6.17196 6.01816 5.66118 4.87292 5.4818C5.00618 4.70481 5.35799 3.9807 5.88803 3.39249ZM4.81854 5.97454C5.85056 6.14097 6.81115 6.60158 7.5827 7.29996L7.45967 7.42171H5C4.87573 7.02091 4.81278 6.60397 4.81323 6.18473C4.81323 6.11425 4.815 6.04419 4.81854 5.97454ZM3.35828 11.38H2.56323V9.40088H3.75828L3.35828 11.38ZM5.35641 9.40088H5.59936C6.0425 9.86761 6.57726 10.2399 7.17088 10.495L7.26243 11.6274H5.71641L5.35641 9.40088ZM6.32547 9.40088H7.08243L7.12495 9.92687C6.83927 9.78192 6.57108 9.60547 6.32547 9.40088ZM5.99641 13.3592L5.79641 12.1222H7.30243L7.40243 13.3592H5.99641ZM9.31323 13.3592H7.90403L7.80403 12.1222H9.31323V13.3592ZM9.31323 11.6274H7.76403L7.68769 10.6831C8.13367 10.817 8.59717 10.8851 9.06323 10.8853C9.14682 10.8853 9.23015 10.8831 9.31323 10.8787V11.6274ZM9.31323 10.3829C9.2302 10.3878 9.14686 10.3905 9.06323 10.3905C8.57984 10.3903 8.10002 10.3085 7.64448 10.1485L7.58403 9.40088H9.31323V10.3829ZM11.2224 13.3592H9.81323V12.1222H11.3224L11.2224 13.3592ZM11.3624 11.6274H9.81323V10.8261C10.3997 10.7328 10.9634 10.5316 11.4752 10.2331L11.3624 11.6274ZM11.5254 9.61187C11.0145 9.97092 10.4299 10.214 9.81323 10.3239V9.40088H11.5424L11.5254 9.61187ZM13.1301 13.3592H11.724L11.824 12.1222H13.3301L13.1301 13.3592ZM13.4101 11.6274H11.864L12.0058 9.87373C12.1912 9.72917 12.3655 9.57111 12.5271 9.40088H13.7701L13.4101 11.6274ZM14.5632 8.90609H2.56323V7.9165H14.5632C14.6958 7.9165 14.823 7.96863 14.9168 8.06142C15.0106 8.15422 15.0632 8.28007 15.0632 8.4113C15.0632 8.54252 15.0106 8.66838 14.9168 8.76117C14.823 8.85396 14.6958 8.90609 14.5632 8.90609Z" fill="#292744"/>
<path d="M13.8843 4.27881L15.1341 3.04201L15.4876 3.39182L14.2378 4.62863L13.8843 4.27881Z" fill="#292744"/>
<path d="M13.1345 2.54736L14.3843 1.31056L14.7378 1.66038L13.488 2.89718L13.1345 2.54736Z" fill="#292744"/>
<path d="M11.6348 1.31006L12.6346 0.320621L12.9881 0.670439L11.9883 1.65988L11.6348 1.31006Z" fill="#292744"/>
<path d="M5.6355 1.55713L6.88532 0.320327L7.23882 0.670144L5.989 1.90695L5.6355 1.55713Z" fill="#292744"/>
<path d="M14.8843 0.815918L15.3842 0.32121L15.7377 0.671028L15.2378 1.16574L14.8843 0.815918Z" fill="#292744"/>
</g>
<defs>
<clipPath id="clip0_630_345">
<rect width="16" height="15.8333" fill="white" transform="translate(0.0632324)"/>
</clipPath>
</defs>
</svg>
