<svg width="18" height="18" viewBox="0 0 18 18" fill="none" xmlns="http://www.w3.org/2000/svg">
<path d="M10.9171 11.7127C9.58508 11.7127 8.31708 11.2527 7.37308 10.3047C5.27308 8.20471 5.55708 4.49671 8.01308 2.04471C10.4651 -0.407293 14.1731 -0.695293 16.2731 1.40471C18.3731 3.50471 18.0891 7.21271 15.6331 9.66471C14.2811 11.0167 12.5491 11.7127 10.9171 11.7127ZM12.7251 0.400707C11.1971 0.400707 9.56508 1.05671 8.29308 2.32871C5.99708 4.62471 5.70908 8.07671 7.65308 10.0247C9.59708 11.9687 13.0491 11.6847 15.3491 9.38471C17.6451 7.08871 17.9331 3.63671 15.9891 1.68871C15.1211 0.824707 13.9571 0.400707 12.7251 0.400707Z" fill="#292744"/>
<path d="M10.9171 10.5405C9.88911 10.5405 8.92111 10.1925 8.20511 9.47651C6.56511 7.83651 6.84911 4.87651 8.84511 2.88451C9.80511 1.92451 11.0171 1.32451 12.2531 1.20051C13.5051 1.07251 14.6371 1.44451 15.4371 2.24451C16.2371 3.04451 16.6091 4.17651 16.4811 5.42851C16.3571 6.66451 15.7571 7.87651 14.7971 8.83651C13.6771 9.95651 12.2451 10.5405 10.9171 10.5405ZM12.7291 1.57251C12.5851 1.57251 12.4411 1.58051 12.2931 1.59651C11.1451 1.71251 10.0211 2.26851 9.12511 3.16451C7.28511 5.00451 7.00111 7.70851 8.48511 9.19251C9.96911 10.6765 12.6731 10.3925 14.5131 8.55251C15.4091 7.65651 15.9651 6.53251 16.0811 5.38451C16.1971 4.25251 15.8651 3.23651 15.1531 2.52451C14.5331 1.90051 13.6851 1.57251 12.7291 1.57251Z" fill="#292744"/>
<path d="M7.36504 6.44868C7.31304 6.44868 7.26104 6.42868 7.22504 6.38868C7.14504 6.30868 7.14504 6.18468 7.22504 6.10468L12.073 1.26068C12.153 1.18068 12.277 1.18068 12.357 1.26068C12.437 1.34068 12.437 1.46468 12.357 1.54468L7.50504 6.39268C7.46904 6.42868 7.41704 6.44868 7.36504 6.44868Z" fill="#292744"/>
<path d="M7.56108 8.28458C7.50908 8.28458 7.45708 8.26458 7.42108 8.22458C7.34108 8.14458 7.34108 8.02058 7.42108 7.94058L13.9091 1.45258C13.9891 1.37258 14.1131 1.37258 14.1931 1.45258C14.2731 1.53258 14.2731 1.65658 14.1931 1.73658L7.70108 8.22858C7.66108 8.26458 7.61308 8.28458 7.56108 8.28458Z" fill="#292744"/>
<path d="M8.34502 9.53266C8.29302 9.53266 8.24102 9.51266 8.20502 9.47266C8.12502 9.39266 8.12502 9.26866 8.20502 9.18866L15.153 2.24066C15.233 2.16066 15.357 2.16066 15.437 2.24066C15.517 2.32066 15.517 2.44466 15.437 2.52466L8.48902 9.47266C8.44902 9.51266 8.39702 9.53266 8.34502 9.53266Z" fill="#292744"/>
<path d="M9.59307 10.3168C9.54107 10.3168 9.48907 10.2968 9.45307 10.2568C9.37307 10.1768 9.37307 10.0528 9.45307 9.9728L15.9411 3.4848C16.0211 3.4048 16.1451 3.4048 16.2251 3.4848C16.3051 3.5648 16.3051 3.6888 16.2251 3.7688L9.73307 10.2608C9.69307 10.2968 9.64107 10.3168 9.59307 10.3168Z" fill="#292744"/>
<path d="M11.429 10.5127C11.377 10.5127 11.325 10.4927 11.289 10.4527C11.209 10.3727 11.209 10.2487 11.289 10.1687L16.137 5.32074C16.217 5.24074 16.341 5.24074 16.421 5.32074C16.501 5.40074 16.501 5.52474 16.421 5.60474L11.569 10.4527C11.529 10.4927 11.481 10.5127 11.429 10.5127Z" fill="#292744"/>
<path d="M15.8851 6.05677C15.8331 6.05677 15.7811 6.03677 15.7451 5.99677L11.6811 1.93677C11.6011 1.85677 11.6011 1.73277 11.6811 1.65277C11.7611 1.57277 11.8851 1.57277 11.9651 1.65277L16.0251 5.71677C16.1051 5.79677 16.1051 5.92077 16.0251 6.00077C15.9851 6.03677 15.9331 6.05677 15.8851 6.05677Z" fill="#292744"/>
<path d="M15.5489 7.7528C15.4969 7.7528 15.4449 7.7328 15.4089 7.6928L9.9809 2.2688C9.9009 2.1888 9.9009 2.0648 9.9809 1.9848C10.0609 1.9048 10.1849 1.9048 10.2649 1.9848L15.6889 7.4128C15.7689 7.4928 15.7689 7.6168 15.6889 7.6968C15.6529 7.7328 15.6009 7.7528 15.5489 7.7528Z" fill="#292744"/>
<path d="M14.6569 8.89289C14.6049 8.89289 14.5529 8.87289 14.5169 8.83289L8.84491 3.16089C8.76491 3.08089 8.76491 2.95689 8.84491 2.87689C8.92491 2.79689 9.04891 2.79689 9.12891 2.87689L14.8009 8.54889C14.8809 8.62889 14.8809 8.75289 14.8009 8.83289C14.7609 8.87289 14.7089 8.89289 14.6569 8.89289Z" fill="#292744"/>
<path d="M13.5171 9.78454C13.4651 9.78454 13.4131 9.76454 13.3771 9.72454L7.95307 4.30054C7.87307 4.22054 7.87307 4.09654 7.95307 4.01654C8.03307 3.93654 8.15707 3.93654 8.23707 4.01654L13.6611 9.44054C13.7411 9.52054 13.7411 9.64454 13.6611 9.72454C13.6211 9.76454 13.5691 9.78454 13.5171 9.78454Z" fill="#292744"/>
<path d="M11.8209 10.1208C11.7689 10.1208 11.7169 10.1008 11.6809 10.0608L7.61688 5.99683C7.53688 5.91683 7.53688 5.79283 7.61688 5.71283C7.69688 5.63283 7.82088 5.63283 7.90088 5.71283L11.9649 9.77683C12.0449 9.85683 12.0449 9.98083 11.9649 10.0608C11.9249 10.1008 11.8729 10.1208 11.8209 10.1208Z" fill="#292744"/>
<path d="M5.42105 13.3048C5.36905 13.3048 5.31705 13.2848 5.28105 13.2448C5.20105 13.1648 5.20105 13.0408 5.28105 12.9608L7.82505 10.4168C7.90505 10.3368 8.02905 10.3368 8.10905 10.4168C8.18905 10.4968 8.18905 10.6208 8.10905 10.7008L5.56505 13.2448C5.52105 13.2848 5.47305 13.3048 5.42105 13.3048ZM4.57305 12.4568C4.52105 12.4568 4.46905 12.4368 4.43305 12.3968C4.35305 12.3168 4.35305 12.1928 4.43305 12.1128L6.97705 9.56879C7.05705 9.48879 7.18105 9.48879 7.26105 9.56879C7.34105 9.64879 7.34105 9.77279 7.26105 9.85279L4.71705 12.3968C4.67305 12.4368 4.62505 12.4568 4.57305 12.4568Z" fill="#292744"/>
<path d="M1.097 17.6767C0.817 17.6767 0.533 17.5687 0.321 17.3567C-0.107 16.9287 -0.107 16.2287 0.321 15.8007L4.005 12.1167C4.201 11.9207 4.517 11.9207 4.713 12.1167L5.561 12.9647C5.757 13.1607 5.757 13.4767 5.561 13.6727L1.877 17.3567C1.661 17.5727 1.381 17.6767 1.097 17.6767ZM4.361 12.3687C4.337 12.3687 4.309 12.3767 4.289 12.3967L0.605 16.0807C0.333 16.3527 0.333 16.7967 0.605 17.0687C0.877 17.3407 1.321 17.3407 1.593 17.0687L5.277 13.3847C5.301 13.3607 5.305 13.3287 5.305 13.3127C5.305 13.2967 5.301 13.2687 5.277 13.2407L4.429 12.3927C4.413 12.3807 4.385 12.3687 4.361 12.3687Z" fill="#292744"/>
<path d="M5.35308 11.6769C5.33708 11.6769 5.32508 11.6769 5.30908 11.6729C5.21708 11.6529 5.15308 11.5689 5.15308 11.4769C5.15308 11.4609 5.15308 11.4489 5.15708 11.4329L6.03708 7.58895C6.06108 7.48095 6.16908 7.41295 6.27708 7.43695C6.36908 7.45695 6.43308 7.54095 6.43308 7.63295C6.43308 7.64895 6.43308 7.66095 6.42908 7.67695L5.54908 11.5209C5.52908 11.6129 5.44508 11.6769 5.35308 11.6769Z" fill="#292744"/>
<path d="M6.20098 12.5245C6.10898 12.5245 6.02898 12.4605 6.00498 12.3685C6.00098 12.3525 6.00098 12.3365 6.00098 12.3245C6.00098 12.2325 6.06498 12.1525 6.15698 12.1285L10.001 11.2485C10.109 11.2245 10.217 11.2925 10.241 11.4005C10.245 11.4165 10.245 11.4325 10.245 11.4445C10.245 11.5365 10.181 11.6165 10.089 11.6405L6.24498 12.5205C6.23298 12.5205 6.21698 12.5245 6.20098 12.5245Z" fill="#292744"/>
<path d="M2.52888 16.6209C2.47688 16.6209 2.42488 16.6009 2.38888 16.5609L1.11688 15.2889C1.08088 15.2529 1.05688 15.2009 1.05688 15.1489C1.05688 15.0969 1.07688 15.0449 1.11688 15.0089L2.78488 13.3369C2.82088 13.3009 2.87288 13.2769 2.92488 13.2769C2.97688 13.2769 3.02888 13.2969 3.06488 13.3369L4.33688 14.6089C4.41688 14.6889 4.41688 14.8129 4.33688 14.8929L2.66488 16.5649C2.63288 16.6009 2.58088 16.6209 2.52888 16.6209ZM1.54088 15.1489L2.52888 16.1369L3.91688 14.7489L2.92888 13.7609L1.54088 15.1489Z" fill="#292744"/>
<path d="M8.74492 17.6768C7.47692 17.6768 6.44092 16.6448 6.44092 15.3728C6.44092 14.1008 7.47292 13.0688 8.74492 13.0688C10.0129 13.0688 11.0489 14.1008 11.0489 15.3728C11.0489 16.6448 10.0169 17.6768 8.74492 17.6768ZM8.74492 13.4728C7.69692 13.4728 6.84092 14.3248 6.84092 15.3768C6.84092 16.4288 7.69292 17.2808 8.74492 17.2808C9.79292 17.2808 10.6489 16.4288 10.6489 15.3768C10.6489 14.3248 9.79292 13.4728 8.74492 13.4728Z" fill="#292744"/>
<path d="M7.35693 17.1526C7.30093 17.1526 7.24493 17.1286 7.20493 17.0846C7.13293 17.0006 7.14092 16.8766 7.22092 16.8006C7.63292 16.4406 7.86493 15.9166 7.86493 15.3726C7.86493 14.8286 7.62892 14.3046 7.22092 13.9446C7.13692 13.8726 7.12893 13.7446 7.20493 13.6606C7.27693 13.5766 7.40493 13.5686 7.48893 13.6446C7.98493 14.0806 8.26893 14.7126 8.26893 15.3726C8.26893 16.0326 7.98493 16.6646 7.48893 17.1006C7.44893 17.1366 7.40493 17.1526 7.35693 17.1526Z" fill="#292744"/>
<path d="M10.1329 17.1525C10.0849 17.1525 10.0369 17.1365 10.0009 17.1045C9.50495 16.6685 9.22095 16.0365 9.22095 15.3765C9.22095 14.7165 9.50495 14.0845 10.0009 13.6485C10.0849 13.5765 10.2089 13.5845 10.2849 13.6645C10.3569 13.7485 10.3489 13.8725 10.2689 13.9485C9.85695 14.3085 9.62495 14.8325 9.62495 15.3765C9.62495 15.9205 9.86095 16.4445 10.2689 16.8045C10.3529 16.8765 10.3609 17.0045 10.2849 17.0885C10.2449 17.1285 10.1889 17.1525 10.1329 17.1525Z" fill="#292744"/>
</svg>
