<svg width="20" height="18" viewBox="0 0 20 18" fill="none" xmlns="http://www.w3.org/2000/svg">
<g clip-path="url(#clip0_630_544)">
<path d="M17.2617 8.07921V5.16723C17.2617 4.36258 16.5638 3.70798 15.7058 3.70798C15.2961 3.70798 15.35 3.8162 15.35 3.66667C15.35 2.82967 14.5926 2.15054 13.6822 2.21161C11.8938 0.343429 9.13388 -0.425079 6.54707 0.230427C2.13595 1.34838 -0.0466878 6.07412 2.18272 9.87236C3.45599 12.0415 5.95883 13.4098 8.66764 13.3101C8.99144 14.1423 9.56366 14.4442 10.266 15.1617C10.3518 15.2423 10.3263 15.1287 10.3263 17.4255C10.3263 17.7356 10.5941 17.9873 10.9248 17.988C16.6519 18.0013 16.0134 18 16.0627 18C16.3935 18 16.6628 17.7485 16.6628 17.4374C16.6805 15.2957 16.6232 15.3741 16.7124 15.2766L17.6933 14.2031C18.3431 13.492 18.7009 12.5846 18.7009 11.648V9.66823C18.7009 8.86903 18.0769 8.20399 17.2617 8.07921ZM8.49449 10.9249V12.1895C6.664 12.218 4.90218 11.4395 3.75841 10.0715C5.93374 9.81839 8.20804 9.1927 10.3263 8.2639V9.16517C9.31145 9.18767 8.49449 9.96909 8.49449 10.9249ZM12.58 2.75556C12.1829 3.21997 12.2443 3.71108 12.2381 3.74648C11.2519 3.52934 10.3263 4.23976 10.3263 5.16719V7.01378C8.00057 8.10442 5.44901 8.80535 3.06157 9.01012C2.94876 8.78489 2.85298 8.55516 2.77216 8.31376C5.11872 7.62766 9.08486 4.8407 10.2408 1.40263C11.117 1.67294 11.9223 2.13721 12.58 2.75556ZM9.06101 1.16077C8.12246 3.77106 5.20926 6.2214 2.52962 7.19985C2.16183 3.71955 5.31974 0.762455 9.06101 1.16077ZM17.5009 11.648C17.5009 12.3163 17.2455 12.9638 16.7819 13.4711L15.8011 14.5446C15.5829 14.7833 15.4627 15.0879 15.4627 15.4024V16.8734L11.5264 16.8643V15.2984C11.5264 14.9463 11.3803 14.6153 11.1148 14.3663L10.1824 13.4917C9.89283 13.2201 9.73291 12.8768 9.70051 12.5148C9.68769 12.3653 9.69879 12.3454 9.69459 10.9248C9.69459 10.5889 9.97417 10.3138 10.3263 10.2919V11.1998C10.3263 11.5105 10.595 11.7624 10.9264 11.7624C11.2578 11.7624 11.5264 11.5105 11.5264 11.1998C11.5264 4.5909 11.5034 5.10999 11.5784 4.99428C11.7174 4.77967 12.0469 4.77932 12.1862 4.99428C12.2844 5.14592 12.219 5.05226 12.2381 8.7882C12.2381 9.0989 12.5068 9.35074 12.8382 9.35074C13.1696 9.35074 13.4382 9.0989 13.4382 8.7882C13.4382 3.29296 13.4325 3.64522 13.4503 3.58166C13.5595 3.1974 14.1499 3.28502 14.1499 3.66664V8.88365C14.1499 9.19435 14.4185 9.4462 14.75 9.4462C15.0814 9.4462 15.35 9.19435 15.35 8.88365V5.16723C15.35 4.98299 15.5097 4.83307 15.7058 4.83307C15.902 4.83307 16.0617 4.98299 16.0617 5.16723V8.62077C16.0617 8.93147 16.3303 9.18331 16.6617 9.18331H16.9843C17.2692 9.18331 17.5009 9.40088 17.5009 9.66823V11.648H17.5009Z" fill="#292744"/>
</g>
<defs>
<clipPath id="clip0_630_544">
<rect width="19.2" height="18" fill="white" transform="translate(0.399902)"/>
</clipPath>
</defs>
</svg>
