<svg width="21" height="20" viewBox="0 0 21 20" fill="none" xmlns="http://www.w3.org/2000/svg">
<g clip-path="url(#clip0_630_551)">
<mask id="mask0_630_551" style="mask-type:luminance" maskUnits="userSpaceOnUse" x="0" y="0" width="21" height="20">
<path d="M0.399902 0H20.3999V20H0.399902V0Z" fill="white"/>
</mask>
<g mask="url(#mask0_630_551)">
<path d="M17.6269 12.2609C17.5813 12.9021 17.466 13.5364 17.2829 14.1525C17.2409 14.2929 17.1961 14.4313 17.1474 14.5697C16.7805 15.6274 16.2137 16.6048 15.4779 17.4486C14.1369 18.972 12.2239 20 9.87311 20C8.67827 20 7.59651 19.736 6.64727 19.273C4.44763 18.2029 2.95947 16.0656 2.43223 13.675C2.21103 12.6754 2.16257 11.6454 2.28895 10.6294C2.50335 8.93076 3.35695 6.54792 4.69715 5.63764V5.6552C4.69907 6.37248 5.71655 6.54012 5.95823 5.86376C8.23095 -0.49536 13.5599 0.00947816 13.5599 0.00947816C11.8515 2.50548 13.8406 4.22548 14.3327 4.70012C14.4047 4.76972 14.4918 4.82168 14.5872 4.852C14.6826 4.88232 14.7837 4.89012 14.8826 4.87484C14.9815 4.85952 15.0756 4.82156 15.1574 4.76384C15.2392 4.70616 15.3065 4.63032 15.3541 4.54224C15.613 4.06588 15.9843 3.66002 16.4359 3.36C16.4963 3.31908 16.5587 3.28 16.6211 3.24304C15.6923 5.9622 17.8978 8.39864 17.6269 12.2609Z" fill="#FF6A38"/>
<path d="M17.2829 14.1524C17.2409 14.2928 17.1961 14.4312 17.1474 14.5696C16.7805 15.6273 16.2137 16.6046 15.4779 17.4484C14.1369 18.9719 12.2239 19.9999 9.87313 19.9999C8.67829 19.9999 7.59653 19.7359 6.64729 19.2728C4.44765 18.2028 2.95949 16.0655 2.43225 13.6749C2.68857 11.8339 3.22749 9.27952 4.30049 8.33324C4.27713 8.38292 3.59005 9.875 4.84449 10.7132C6.11921 11.565 6.10365 8.16472 7.54113 6.70287C8.97961 5.24099 10.7543 4.90771 10.7543 4.90771C10.7543 4.90771 8.85389 8.46684 11.3186 10.1334C13.7823 11.7989 15.2861 8.24855 14.8271 7.07907C14.8269 7.07895 17.4807 10.5611 17.2829 14.1524Z" fill="#FFC53D"/>
<path d="M8.01313 13.9639C7.65477 13.9639 7.30449 13.8577 7.00653 13.6586C6.70857 13.4595 6.47633 13.1766 6.33921 12.8455C6.20209 12.5144 6.16621 12.1501 6.23609 11.7987C6.30601 11.4472 6.47857 11.1244 6.73197 10.871C6.98533 10.6176 7.30817 10.445 7.65965 10.3751C8.01109 10.3052 8.37541 10.3411 8.70645 10.4782C9.03753 10.6154 9.32049 10.8476 9.51957 11.1456C9.71865 11.4435 9.82489 11.7938 9.82489 12.1522C9.82437 12.6325 9.63329 13.093 9.29365 13.4327C8.95397 13.7723 8.49349 13.9634 8.01313 13.9639ZM8.01313 11.4359C7.87145 11.4359 7.73293 11.4779 7.61513 11.5566C7.49733 11.6354 7.40549 11.7472 7.35125 11.8782C7.29705 12.0091 7.28285 12.1531 7.31049 12.2921C7.33813 12.431 7.40637 12.5587 7.50653 12.6589C7.60673 12.7591 7.73437 12.8273 7.87333 12.855C8.01229 12.8826 8.15637 12.8684 8.28725 12.8142C8.41817 12.76 8.53005 12.6682 8.60877 12.5504C8.68749 12.4326 8.72953 12.294 8.72953 12.1524C8.72933 11.9624 8.65377 11.7803 8.51949 11.646C8.38517 11.5117 8.20309 11.4362 8.01313 11.4359Z" fill="#A32600"/>
<path d="M11.8569 17.8467C11.4985 17.8467 11.1482 17.7405 10.8503 17.5414C10.5523 17.3423 10.3201 17.0594 10.183 16.7283C10.0458 16.3972 10.01 16.0329 10.0798 15.6815C10.1498 15.33 10.3223 15.0072 10.5757 14.7538C10.8291 14.5004 11.1519 14.3279 11.5034 14.2579C11.8548 14.1881 12.2191 14.2239 12.5502 14.3611C12.8813 14.4982 13.1642 14.7304 13.3633 15.0284C13.5624 15.3263 13.6686 15.6766 13.6686 16.035C13.6681 16.5153 13.477 16.9758 13.1374 17.3155C12.7977 17.6551 12.3372 17.8462 11.8569 17.8467ZM11.8569 15.3187C11.7152 15.3187 11.5767 15.3607 11.4588 15.4395C11.341 15.5182 11.2492 15.6301 11.195 15.7609C11.1408 15.8919 11.1266 16.0359 11.1542 16.1749C11.1818 16.3139 11.2501 16.4415 11.3502 16.5417C11.4504 16.6419 11.5781 16.7101 11.7171 16.7378C11.856 16.7654 12.0001 16.7512 12.131 16.697C12.2619 16.6428 12.3738 16.551 12.4525 16.4331C12.5312 16.3153 12.5732 16.1768 12.5732 16.0351C12.5731 15.8452 12.4976 15.6631 12.3632 15.5287C12.229 15.3944 12.0468 15.3188 11.8569 15.3186V15.3187Z" fill="#A32600"/>
<path d="M12.0759 11.1587L7.01965 16.2151L7.79421 16.9897L12.8504 11.9332L12.0759 11.1587Z" fill="#A32600"/>
</g>
</g>
<defs>
<clipPath id="clip0_630_551">
<rect width="20" height="20" fill="white" transform="translate(0.399902)"/>
</clipPath>
</defs>
</svg>
