<svg width="21" height="25" viewBox="0 0 21 25" fill="none" xmlns="http://www.w3.org/2000/svg">
<path d="M9.32832 15.625C9.43692 15.6494 9.54886 15.6194 9.63983 15.5413C9.73081 15.4632 9.79348 15.3435 9.81426 15.208C9.84176 15.031 9.85588 14.8512 9.85645 14.6709C9.85645 13.4385 9.23809 12.3687 8.33926 11.8481C8.53615 11.6326 8.69396 11.367 8.80215 11.069C8.91034 10.7711 8.9664 10.4478 8.9666 10.1206C8.9666 8.84326 8.12559 7.8042 7.0916 7.8042C6.05762 7.8042 5.2166 8.84326 5.2166 10.1206C5.21685 10.4508 5.27395 10.777 5.38402 11.0771C5.49409 11.3772 5.65454 11.6442 5.85449 11.8599C4.96504 12.3838 4.35449 13.4473 4.35449 14.6719C4.35534 14.8513 4.36933 15.0303 4.39629 15.2065C4.41405 15.3261 4.46469 15.4342 4.53945 15.512C4.6142 15.5898 4.70837 15.6326 4.80566 15.6328C4.83109 15.633 4.85648 15.6301 4.88145 15.624C4.93529 15.6116 4.98665 15.5861 5.03259 15.5489C5.07854 15.5117 5.11817 15.4635 5.14922 15.4071C5.18027 15.3508 5.20213 15.2873 5.21356 15.2204C5.22499 15.1535 5.22576 15.0844 5.21582 15.0171C5.1981 14.9033 5.18869 14.7878 5.1877 14.6719C5.1877 13.5039 6.04707 12.5542 7.10605 12.5542C8.16504 12.5542 9.02402 13.5039 9.02402 14.6719C9.02314 14.7876 9.01372 14.903 8.9959 15.0166C8.98572 15.0838 8.98624 15.1529 8.99744 15.2199C9.00865 15.2869 9.0303 15.3505 9.06118 15.407C9.09206 15.4635 9.13154 15.5118 9.17738 15.5492C9.22322 15.5866 9.27451 15.6124 9.32832 15.625ZM7.0916 8.84766C7.66582 8.84766 8.1334 9.41992 8.1334 10.1226C8.1334 10.8252 7.66465 11.3979 7.0916 11.3979C6.51855 11.3979 6.0498 10.8247 6.0498 10.1216C6.0498 9.41846 6.51855 8.84668 7.0916 8.84668V8.84766Z" fill="#292744"/>
<path d="M14.5674 8.66499L11.8146 12.0224L10.8545 10.8208C10.7757 10.727 10.6708 10.6755 10.562 10.6771C10.4533 10.6788 10.3494 10.7335 10.2724 10.8296C10.1955 10.9256 10.1517 11.0555 10.1503 11.1914C10.1489 11.3274 10.1901 11.4586 10.265 11.5571L11.8084 13.4863L15.1502 9.4106C15.2293 9.31418 15.2745 9.18244 15.2759 9.04435C15.2773 8.90627 15.2347 8.77314 15.1576 8.67427C15.0805 8.5754 14.9751 8.51887 14.8646 8.51713C14.7541 8.51539 14.6476 8.56858 14.5685 8.66499H14.5674Z" fill="#292744"/>
<path d="M16.8834 8.85449C16.9939 8.85436 17.0998 8.79941 17.1779 8.70172C17.2559 8.60403 17.2998 8.47159 17.2998 8.3335V6.771C17.2994 6.21866 17.1237 5.68909 16.8113 5.29849C16.4989 4.90788 16.0753 4.68815 15.6334 4.6875H3.9666C3.5247 4.68815 3.10104 4.90786 2.78857 5.29846C2.4761 5.68905 2.30032 6.21862 2.2998 6.771V16.667C2.30032 17.2193 2.47611 17.7488 2.78859 18.1394C3.10108 18.5299 3.52473 18.7495 3.9666 18.75H7.1752C7.22999 18.7499 7.28426 18.7633 7.33488 18.7896C7.38549 18.8158 7.43146 18.8543 7.47012 18.9028L9.21035 21.0781C9.28776 21.1749 9.37965 21.2516 9.48079 21.304C9.58193 21.3564 9.69033 21.3833 9.7998 21.3833C9.90928 21.3833 10.0177 21.3564 10.1188 21.304C10.22 21.2516 10.3119 21.1749 10.3893 21.0781L12.1295 18.9028C12.2077 18.8054 12.3136 18.7505 12.424 18.75H15.6334C16.0752 18.7494 16.4988 18.5297 16.8112 18.1392C17.1236 17.7487 17.2993 17.2192 17.2998 16.667V10.9375C17.2965 10.8021 17.2511 10.6737 17.1734 10.5795C17.0956 10.4852 16.9915 10.4325 16.8832 10.4325C16.7749 10.4325 16.6708 10.4852 16.593 10.5795C16.5153 10.6737 16.4699 10.8021 16.4666 10.9375V16.667C16.4663 16.9431 16.3784 17.2078 16.2222 17.403C16.066 17.5983 15.8543 17.7081 15.6334 17.7085H12.424C12.26 17.7077 12.0974 17.7476 11.9458 17.8258C11.7941 17.904 11.6563 18.0189 11.5404 18.1641L9.7998 20.3418L8.05918 18.1641C7.94334 18.0185 7.80557 17.9032 7.65384 17.8246C7.50211 17.7461 7.33942 17.706 7.1752 17.7065H3.9666C3.74569 17.7063 3.53388 17.5965 3.37767 17.4012C3.22146 17.2059 3.13361 16.9412 3.1334 16.665V6.771C3.13361 6.49485 3.22146 6.23009 3.37767 6.03483C3.53388 5.83956 3.74569 5.72975 3.9666 5.72949H15.6334C15.8543 5.72988 16.066 5.83973 16.2222 6.03497C16.3784 6.23021 16.4663 6.49489 16.4666 6.771V8.3335C16.4666 8.47167 16.5105 8.60419 16.5887 8.7019C16.6668 8.7996 16.7729 8.85449 16.8834 8.85449Z" fill="#292744"/>
</svg>
