<svg width="24" height="23" viewBox="0 0 24 23" fill="none" xmlns="http://www.w3.org/2000/svg">
<path d="M18.1206 0C17.1739 0 16.2489 0.328693 15.5161 0.925525C14.8857 1.43894 14.4195 2.13073 14.1794 2.9002C13.5031 2.72384 12.7939 2.62973 12.0632 2.62973C7.43539 2.62973 3.67045 6.39467 3.67045 11.0224C3.67045 11.317 3.6868 11.6132 3.7173 11.905C2.42894 12.6041 1.55225 13.9691 1.55225 15.5351C1.55225 17.8108 3.40366 19.6622 5.67931 19.6622C5.81169 19.6622 5.94412 19.6552 6.07574 19.6427C6.43741 21.5518 8.11789 23 10.1306 23C12.321 23 14.1179 21.2847 14.2496 19.1269C15.9585 18.666 17.5011 17.6578 18.6155 16.2674C19.8022 14.7867 20.4559 12.9239 20.4559 11.0224C20.4559 9.91089 20.2381 8.84938 19.8439 7.87759C20.5129 7.57037 21.0857 7.09213 21.5101 6.48236C21.9927 5.78913 22.2478 4.97465 22.2478 4.12711C22.2477 1.85141 20.3963 0 18.1206 0ZM5.67926 18.9941C3.77197 18.9941 2.22023 17.4424 2.22023 15.5351C2.22023 13.6278 3.77197 12.0761 5.67926 12.0761C7.34887 12.0761 8.76841 13.2669 9.07603 14.8826C8.70794 14.9799 8.35993 15.127 8.03946 15.3161V14.9911C8.03946 14.4417 7.59249 13.9946 7.04305 13.9946C6.49365 13.9946 6.04663 14.4416 6.04663 14.9911V16.0504C6.04663 16.4017 6.22704 16.715 6.51018 16.8931C6.18728 17.4813 6.00337 18.156 6.00337 18.8729C6.00337 18.9082 6.00382 18.9435 6.00472 18.9786C5.89673 18.9886 5.78797 18.9941 5.67926 18.9941ZM5.75788 11.0224C5.75788 7.54575 8.58638 4.7172 12.0631 4.7172C15.5398 4.7172 18.3683 7.54571 18.3683 11.0224C18.3683 13.8397 16.5216 16.2889 13.8439 17.0729C13.174 15.6966 11.7613 14.7458 10.1305 14.7458C9.99661 14.7458 9.86423 14.7525 9.73355 14.765C9.46901 13.361 8.50148 12.2255 7.2266 11.7094C7.22157 11.6739 7.21667 11.6383 7.21245 11.6028C7.18913 11.4081 7.17732 11.2107 7.17732 11.0159C7.17732 10.931 7.17956 10.8449 7.18406 10.7602C7.19371 10.576 7.05226 10.4188 6.86803 10.4092C6.68327 10.3987 6.52658 10.541 6.51692 10.7252C6.51185 10.8215 6.50928 10.9193 6.50928 11.0159C6.50928 11.1756 6.51652 11.3368 6.53035 11.4973C6.28378 11.4454 6.02961 11.4157 5.76996 11.4101C5.76214 11.2811 5.75788 11.1514 5.75788 11.0224ZM6.8789 16.3341C6.77936 16.2769 6.71476 16.1708 6.71476 16.0504V14.991C6.71476 14.8099 6.86206 14.6627 7.04309 14.6627C7.22417 14.6627 7.37143 14.8099 7.37143 14.991V15.8064C7.19241 15.9677 7.0275 16.1442 6.8789 16.3341ZM10.1305 22.3319C8.22319 22.3319 6.6715 20.7802 6.6715 18.8729C6.6715 16.9656 8.22323 15.4139 10.1305 15.4139C12.0378 15.4139 13.5896 16.9656 13.5896 18.8729C13.5896 20.7802 12.0378 22.3319 10.1305 22.3319ZM14.2347 18.4377C14.2079 18.1832 14.1577 17.9356 14.0867 17.697C15.4339 17.2878 16.6454 16.466 17.5271 15.3555C18.5145 14.112 19.0364 12.6136 19.0364 11.0225C19.0364 7.17739 15.9082 4.04921 12.0632 4.04921C8.21807 4.04921 5.08984 7.17739 5.08984 11.0225C5.08984 11.1641 5.09452 11.3067 5.10305 11.4485C4.84803 11.4843 4.60037 11.5432 4.36242 11.6235C4.34711 11.4238 4.33853 11.2228 4.33853 11.0225C4.33853 6.76312 7.8038 3.29785 12.0632 3.29785C16.3225 3.29785 19.7878 6.76312 19.7878 11.0225C19.7878 14.4878 17.524 17.4812 14.2347 18.4377ZM19.5683 7.26921C19.066 6.26885 18.3698 5.38213 17.5289 4.65885L18.1917 3.15113C18.2371 3.04786 18.2272 2.92859 18.1656 2.83412C18.104 2.73965 17.9987 2.68269 17.8859 2.68269H16.7029C16.5184 2.68269 16.3688 2.83223 16.3688 3.01673C16.3688 3.20122 16.5184 3.35077 16.7029 3.35077H17.3741L16.9873 4.23065C16.3296 3.75246 15.6001 3.36739 14.8183 3.09489C15.2638 1.67231 16.6076 0.668123 18.1206 0.668123C20.0278 0.668123 21.5796 2.21986 21.5796 4.12715C21.5796 5.49399 20.7967 6.70526 19.5683 7.26921Z" fill="#292744"/>
<path d="M19.4975 2.65967C18.9704 2.65967 18.5416 3.08849 18.5416 3.61552V4.61C18.5416 5.13711 18.9704 5.56589 19.4975 5.56589C20.0246 5.56589 20.4534 5.13706 20.4534 4.61V3.61552C20.4534 3.08845 20.0246 2.65967 19.4975 2.65967ZM19.7854 4.61C19.7854 4.76871 19.6562 4.89786 19.4975 4.89786C19.3388 4.89786 19.2097 4.76871 19.2097 4.61V3.61552C19.2097 3.45681 19.3388 3.3277 19.4975 3.3277C19.6562 3.3277 19.7854 3.45681 19.7854 3.61552V4.61Z" fill="#292744"/>
<path d="M14.122 15.4544C13.9547 15.5321 13.882 15.7307 13.9598 15.898C14.0376 16.0671 14.2399 16.1374 14.4034 16.0603C14.7811 15.8849 15.1398 15.666 15.4693 15.4097C15.6149 15.2965 15.6411 15.0866 15.5278 14.941C15.4145 14.7953 15.2047 14.7691 15.0591 14.8824C14.7693 15.1078 14.454 15.3002 14.122 15.4544Z" fill="#292744"/>
<path d="M16.319 8.62083C16.4102 8.78295 16.6164 8.83726 16.7741 8.74738C16.9347 8.65663 16.9913 8.45287 16.9006 8.29227C16.696 7.92998 16.4495 7.58996 16.1682 7.28171C16.0437 7.14546 15.8325 7.13576 15.6962 7.26024C15.56 7.38458 15.5503 7.59589 15.6747 7.73214C15.9223 8.00324 16.139 8.30229 16.319 8.62083Z" fill="#292744"/>
<path d="M13.5858 6.37899C13.9336 6.49327 14.2694 6.64753 14.584 6.83732C14.7394 6.93175 14.9467 6.88319 15.0425 6.7239C15.1379 6.56591 15.0871 6.36066 14.9291 6.26529C14.5716 6.04957 14.1898 5.87429 13.7944 5.74433C13.6191 5.68674 13.4304 5.78206 13.3727 5.95735C13.3152 6.13259 13.4105 6.3214 13.5858 6.37899Z" fill="#292744"/>
<path d="M17.0089 12.7267C16.8388 12.6554 16.6429 12.7356 16.5717 12.9058C16.4302 13.2435 16.25 13.5662 16.0362 13.8649C15.9288 14.0149 15.9634 14.2236 16.1134 14.331C16.2618 14.4376 16.4714 14.4048 16.5794 14.2538C16.8224 13.9145 17.0271 13.5477 17.1879 13.1638C17.2592 12.9937 17.179 12.798 17.0089 12.7267Z" fill="#292744"/>
<path d="M16.8265 9.93584C16.8641 10.1018 16.8935 10.2721 16.9139 10.4422C16.9372 10.6369 16.949 10.8344 16.949 11.0291C16.949 11.1995 16.9399 11.3717 16.9221 11.5408C16.9001 11.7366 17.0578 11.9112 17.2547 11.9099C17.4234 11.9099 17.5683 11.7825 17.5864 11.611C17.6067 11.4187 17.6171 11.2229 17.6171 11.0291C17.6171 10.808 17.6036 10.5838 17.5772 10.3628C17.5541 10.1698 17.5208 9.97645 17.478 9.78805C17.4372 9.60818 17.2582 9.49538 17.0784 9.53617C16.8985 9.57696 16.7857 9.75588 16.8265 9.93584Z" fill="#292744"/>
<path d="M7.03446 9.58019C7.20355 9.64213 7.39959 9.55373 7.46158 9.3784C7.58507 9.03376 7.74805 8.70201 7.94602 8.39254C8.04538 8.23716 8.00001 8.03061 7.84458 7.93115C7.68915 7.83165 7.4826 7.87711 7.38319 8.03258C7.15822 8.38428 6.97301 8.76126 6.83263 9.15312C6.77046 9.32678 6.86079 9.51801 7.03446 9.58019Z" fill="#292744"/>
<path d="M11.0362 6.23913C11.0579 6.23913 11.0799 6.23706 11.1019 6.23266C11.2272 6.20764 11.3554 6.18725 11.4827 6.17197C11.7203 6.14354 11.9609 6.1324 12.1972 6.13846C12.3799 6.14412 12.5349 5.99767 12.5397 5.81323C12.5445 5.62882 12.3989 5.47546 12.2144 5.47065C11.9463 5.46355 11.6729 5.47636 11.4033 5.50861C11.2588 5.52591 11.1134 5.54908 10.9713 5.57743C10.7904 5.61355 10.673 5.78942 10.709 5.97036C10.7407 6.12925 10.8802 6.23913 11.0362 6.23913Z" fill="#292744"/>
<path d="M8.65032 7.40688C8.72776 7.40688 8.80561 7.3801 8.86882 7.32539C9.1463 7.08519 9.45087 6.87639 9.77413 6.70488C9.93711 6.61841 9.9991 6.41621 9.91262 6.25324C9.82615 6.09026 9.62391 6.02822 9.46102 6.11474C9.09338 6.30979 8.74699 6.54721 8.43155 6.82033C8.29207 6.94108 8.27693 7.15203 8.39768 7.29152C8.46367 7.36779 8.55675 7.40688 8.65032 7.40688Z" fill="#292744"/>
<path d="M10.8504 13.9867C10.8926 14.0044 10.9364 14.0128 10.9795 14.0128C11.11 14.0128 11.2339 13.9358 11.2876 13.8079L13.5271 8.47165C13.5985 8.30153 13.5185 8.10576 13.3484 8.03438C13.1782 7.96304 12.9825 8.04309 12.9111 8.21312L10.6716 13.5494C10.6002 13.7195 10.6802 13.9152 10.8504 13.9867Z" fill="#292744"/>
<path d="M9.22729 9.24367C9.22729 10.0619 9.82103 10.7276 10.5509 10.7276C11.2807 10.7276 11.8745 10.0619 11.8745 9.24367C11.8745 8.42542 11.2807 7.75977 10.5509 7.75977C9.82103 7.75977 9.22729 8.42542 9.22729 9.24367ZM10.5509 8.4278C10.9123 8.4278 11.2064 8.79378 11.2064 9.24367C11.2064 9.69352 10.9123 10.0595 10.5509 10.0595C10.1894 10.0595 9.89537 9.69356 9.89537 9.24367C9.89533 8.79382 10.1894 8.4278 10.5509 8.4278Z" fill="#292744"/>
<path d="M14.8989 12.8921C14.8989 12.0739 14.3052 11.4082 13.5754 11.4082C12.8456 11.4082 12.2518 12.0739 12.2518 12.8921C12.2518 13.7104 12.8456 14.376 13.5754 14.376C14.3052 14.3761 14.8989 13.7104 14.8989 12.8921ZM13.5754 13.708C13.2139 13.708 12.9199 13.342 12.9199 12.8921C12.9199 12.4422 13.2139 12.0762 13.5754 12.0762C13.9368 12.0762 14.2309 12.4422 14.2309 12.8921C14.2309 13.342 13.9368 13.708 13.5754 13.708Z" fill="#292744"/>
<path d="M3.65666 15.4434H3.20843C3.02393 15.4434 2.87439 15.5929 2.87439 15.7774C2.87439 15.9619 3.02393 16.1114 3.20843 16.1114H3.6567C3.8412 16.1114 3.99074 15.9619 3.99074 15.7774C3.9907 15.5929 3.84115 15.4434 3.65666 15.4434Z" fill="#292744"/>
<path d="M4.9816 14.0415H4.492C4.3075 14.0415 4.15796 14.191 4.15796 14.3755C4.15796 14.56 4.3075 14.7096 4.492 14.7096H4.64756V16.6661C4.64756 16.8506 4.79711 17.0001 4.9816 17.0001C5.1661 17.0001 5.31564 16.8506 5.31564 16.6661V14.3755C5.31564 14.191 5.1661 14.0415 4.9816 14.0415Z" fill="#292744"/>
<path d="M10.078 19.6299C10.0766 19.6299 10.0752 19.6299 10.0738 19.63C9.92202 19.6319 9.76322 19.6334 9.61614 19.6342C9.72283 19.489 9.85634 19.3039 10.0212 19.0682C10.2002 18.8022 10.3047 18.5971 10.3208 18.3267C10.3208 17.8391 9.92413 17.4424 9.43654 17.4424C9.01495 17.4424 8.65001 17.7424 8.56883 18.1557C8.53326 18.3367 8.65118 18.5122 8.83221 18.5478C9.01302 18.5834 9.18876 18.4654 9.22433 18.2844C9.24414 18.1836 9.33336 18.1105 9.4365 18.1105C9.56084 18.1092 9.67167 18.2245 9.64723 18.3485C9.62908 18.417 9.58402 18.5278 9.47383 18.6852C9.13436 19.1702 8.9318 19.4355 8.823 19.5779C8.68302 19.7612 8.59857 19.8718 8.65378 20.0513C8.68639 20.1573 8.76959 20.2419 8.87664 20.2776C8.92116 20.2924 9.77175 20.3019 10.0821 20.298C10.2665 20.2957 10.4142 20.1443 10.4119 19.9598C10.4096 19.7767 10.2605 19.6299 10.078 19.6299Z" fill="#292744"/>
<path d="M11.7669 17.4302C11.2399 17.4302 10.811 17.859 10.811 18.3861V19.3805C10.811 19.9076 11.2399 20.3364 11.7669 20.3364C12.294 20.3364 12.7228 19.9076 12.7228 19.3805V18.3861C12.7228 17.859 12.294 17.4302 11.7669 17.4302ZM12.0548 19.3805C12.0548 19.5393 11.9257 19.6684 11.767 19.6684C11.6083 19.6684 11.4792 19.5393 11.4792 19.3805V18.3861C11.4792 18.2274 11.6083 18.0982 11.767 18.0982C11.9257 18.0982 12.0548 18.2274 12.0548 18.3861V19.3805Z" fill="#292744"/>
<path d="M8.10775 18.6821H7.65948C7.47498 18.6821 7.32544 18.8317 7.32544 19.0162C7.32544 19.2007 7.47498 19.3502 7.65948 19.3502H8.10775C8.29225 19.3502 8.44179 19.2007 8.44179 19.0162C8.44179 18.8317 8.2922 18.6821 8.10775 18.6821Z" fill="#292744"/>
</svg>
