<svg width="25" height="26" viewBox="0 0 25 26" fill="none" xmlns="http://www.w3.org/2000/svg">
<g clip-path="url(#clip0_139_5834)">
<path d="M12.5 25.5C19.4052 25.5 25 19.9052 25 13C25 6.09479 19.4052 0.5 12.5 0.5C5.59479 0.5 0 6.09479 0 13C0 19.9052 5.59479 25.5 12.5 25.5ZM5.71979 12.7292L17.7719 8.08229C18.3312 7.88021 18.8198 8.21875 18.6385 9.06458L18.6396 9.06354L16.5875 18.7313C16.4354 19.4167 16.0281 19.5833 15.4583 19.2604L12.3333 16.9573L10.826 18.4094C10.6594 18.576 10.5187 18.7167 10.1958 18.7167L10.4177 15.5365L16.2094 10.3042C16.4615 10.0823 16.1531 9.95729 15.8208 10.1781L8.66354 14.6844L5.57812 13.7219C4.90833 13.5094 4.89375 13.0521 5.71979 12.7292Z" fill="#292744"/>
</g>
<defs>
<clipPath id="clip0_139_5834">
<rect width="25" height="25" fill="white" transform="translate(0 0.5)"/>
</clipPath>
</defs>
</svg>
