<svg width="21" height="21" viewBox="0 0 21 21" fill="none" xmlns="http://www.w3.org/2000/svg">
<path d="M19.3936 13.9681C19.7956 12.8849 20.0156 11.7131 20.0156 10.4899C20.0156 9.2667 19.7956 8.09502 19.3936 7.01166L10.0156 6.14209L0.637617 7.01166C0.235664 8.09502 0.015625 9.2667 0.015625 10.4899C0.015625 11.7131 0.235664 12.8849 0.637617 13.9681L10.0156 14.8377L19.3936 13.9681Z" fill="#F0F0F0"/>
<path d="M10.0157 20.4895C14.3154 20.4895 17.9808 17.7758 19.3937 13.9678H0.637695C2.05066 17.7758 5.71605 20.4895 10.0157 20.4895Z" fill="#D80027"/>
<path d="M10.0157 0.489746C5.71605 0.489746 2.05066 3.2035 0.637695 7.0115H19.3937C17.9808 3.2035 14.3154 0.489746 10.0157 0.489746Z" fill="#D80027"/>
</svg>
