<svg width="21" height="20" viewBox="0 0 21 20" fill="none" xmlns="http://www.w3.org/2000/svg">
<path d="M20.0156 9.48961C20.0156 6.05754 18.2864 3.02969 15.6518 1.22875L10.0156 0.793945L4.37941 1.22871C1.74492 3.02969 0.015625 6.05758 0.015625 9.48961C0.015625 12.9218 1.74492 15.9495 4.37941 17.7505L10.0156 18.1853L15.6518 17.7505C18.2864 15.9495 20.0156 12.9218 20.0156 9.48961Z" fill="#0052B4"/>
<path d="M4.37939 17.7505C5.98424 18.8476 7.92486 19.4896 10.0156 19.4896C12.1064 19.4896 14.0469 18.8476 15.6518 17.7505H4.37939Z" fill="#A2001D"/>
<path d="M10.0155 14.2723C12.6569 14.2723 14.7981 12.131 14.7981 9.48965C14.7981 6.84828 12.6569 4.70703 10.0155 4.70703C7.37416 4.70703 5.23291 6.84828 5.23291 9.48965C5.23291 12.131 7.37416 14.2723 10.0155 14.2723Z" fill="#F0F0F0"/>
<path d="M10.0156 13.4028C12.1767 13.4028 13.9286 11.6508 13.9286 9.48971C13.9286 7.32859 12.1767 5.57666 10.0156 5.57666C7.85447 5.57666 6.10254 7.32859 6.10254 9.48971C6.10254 11.6508 7.85447 13.4028 10.0156 13.4028Z" fill="#6DA544"/>
<path d="M10.0157 12.0983C11.4564 12.0983 12.6244 10.9303 12.6244 9.48957C12.6244 8.04882 11.4564 6.88086 10.0157 6.88086C8.57494 6.88086 7.40698 8.04882 7.40698 9.48957C7.40698 10.9303 8.57494 12.0983 10.0157 12.0983Z" fill="#F0F0F0"/>
<path d="M10.0156 8.8374L8.60254 9.48959V10.5765L10.0156 11.4461L11.4286 10.5765V9.48959L10.0156 8.8374Z" fill="#0052B4"/>
<path d="M11.4286 8.18555H8.60254V9.48988H11.4286V8.18555Z" fill="#FFDA44"/>
</svg>
