<svg width="21" height="21" viewBox="0 0 21 21" fill="none" xmlns="http://www.w3.org/2000/svg">
<g clip-path="url(#clip0_139_2557)">
<g clip-path="url(#clip1_139_2557)">
<g clip-path="url(#clip2_139_2557)">
<path d="M5.19562 3.32986C5.53562 3.48986 6.35563 3.94986 6.51562 4.22986C6.67563 4.50986 6.59562 4.92986 6.43562 5.38986C6.27562 5.82986 6.07562 6.28986 6.31563 6.74986C6.55562 7.14986 7.05563 8.38986 7.45563 8.66986C7.87563 8.96986 8.29563 9.40986 8.15563 10.0299C8.07563 10.6499 7.63562 13.3699 7.67562 13.9899C7.71562 14.6099 7.13563 16.5699 7.59563 17.3899C8.07563 18.2299 8.89563 18.4699 9.23563 18.3499C9.59562 18.2699 9.31563 18.2299 9.15563 17.8499C8.99563 17.4899 9.03563 16.9899 9.19563 16.6499C9.39563 16.2899 9.39563 16.1299 9.27563 15.7099C9.19563 15.3099 9.23563 15.0899 9.47563 14.7699C9.73563 14.4699 10.7156 13.6499 11.0356 13.2899C11.3356 12.9099 13.3556 10.5299 13.5956 10.3299C13.8356 10.1099 14.4556 9.62986 14.6756 8.88986C14.8756 8.12986 15.5756 6.64986 15.0756 6.24986C14.5756 5.86986 12.8156 5.58986 12.7356 5.54986C12.6556 5.50986 11.4956 4.42986 11.2156 4.06986C10.9156 3.68986 10.3956 3.56986 10.0956 3.44986C9.81563 3.28986 7.87563 2.66986 7.41563 2.98986C6.97563 3.32986 6.35563 3.52986 6.11562 2.98986C5.85563 2.40986 5.19562 3.32986 5.19562 3.32986ZM10.0156 20.6099C4.49563 20.6099 0.015625 16.1299 0.015625 10.6099C0.015625 5.08986 4.49563 0.609863 10.0156 0.609863C15.5356 0.609863 20.0156 5.08986 20.0156 10.6099C20.0156 16.1299 15.5356 20.6099 10.0156 20.6099ZM10.0156 1.58986C5.03562 1.58986 0.995625 5.62986 0.995625 10.6099C0.995625 15.5899 5.03562 19.6299 10.0156 19.6299C14.9956 19.6299 19.0356 15.5899 19.0356 10.6099C19.0356 5.62986 14.9956 1.58986 10.0156 1.58986Z" fill="#6F8CAA"/>
</g>
</g>
</g>
<defs>
<clipPath id="clip0_139_2557">
<rect width="20" height="20" fill="white" transform="translate(0.015625 0.489746)"/>
</clipPath>
<clipPath id="clip1_139_2557">
<rect width="20" height="20" fill="white" transform="translate(0.015625 0.489746)"/>
</clipPath>
<clipPath id="clip2_139_2557">
<rect width="20" height="20" fill="white" transform="translate(0.015625 0.489746)"/>
</clipPath>
</defs>
</svg>
