<svg width="21" height="21" viewBox="0 0 21 21" fill="none" xmlns="http://www.w3.org/2000/svg">
<path d="M10.0156 20.4897C15.5385 20.4897 20.0156 16.0126 20.0156 10.4897C20.0156 4.9669 15.5385 0.489746 10.0156 0.489746C4.49278 0.489746 0.015625 4.9669 0.015625 10.4897C0.015625 16.0126 4.49278 20.4897 10.0156 20.4897Z" fill="#FCFCFC"/>
<path d="M4.14603 9.7651L3.05908 7.79311L4.14603 5.85205L5.23299 7.79311L4.14603 9.7651Z" fill="#A2001D"/>
<path d="M1.97221 9.7651L0.885254 7.79311L1.97221 5.85205L3.05916 7.79311L1.97221 9.7651Z" fill="#A2001D"/>
<path d="M4.14603 15.1274L3.05908 13.1554L4.14603 11.2144L5.23299 13.1554L4.14603 15.1274Z" fill="#A2001D"/>
<path d="M1.97221 15.1274L0.885254 13.1554L1.97221 11.2144L3.05916 13.1554L1.97221 15.1274Z" fill="#A2001D"/>
<path d="M4.14615 16.5767L3.37061 17.9617C3.84717 18.3858 4.36451 18.765 4.91623 19.0927L5.23314 18.5178L4.14615 16.5767Z" fill="#A2001D"/>
<path d="M6.10254 13.0986V19.6948C7.30445 20.2064 8.62684 20.4899 10.0156 20.4899C14.3152 20.4899 17.9807 17.7762 19.3936 13.9682L6.10254 13.0986Z" fill="#6DA544"/>
<path d="M19.3936 13.968C19.7956 12.8847 20.0156 11.7129 20.0156 10.4897C20.0156 4.96693 15.5384 0.489746 10.0156 0.489746C8.62695 0.489746 7.30445 0.773066 6.10254 1.28459V13.968H19.3936V13.968Z" fill="#A2001D"/>
</svg>
