<svg width="21" height="21" viewBox="0 0 21 21" fill="none" xmlns="http://www.w3.org/2000/svg">
<path d="M10.0156 20.4897C15.5385 20.4897 20.0156 16.0126 20.0156 10.4897C20.0156 4.9669 15.5385 0.489746 10.0156 0.489746C4.49278 0.489746 0.015625 4.9669 0.015625 10.4897C0.015625 16.0126 4.49278 20.4897 10.0156 20.4897Z" fill="#F0F0F0"/>
<path d="M10.0157 0.489746C8.00879 0.489746 6.14035 1.08135 4.57426 2.09904L7.14609 3.82283L3.92871 5.48947L7.14609 7.15611L3.92871 8.82275L7.14609 10.4892L3.92871 12.1558L7.14609 13.8224L3.92871 15.4892L7.14609 17.1558L4.57395 18.8802C6.14012 19.8981 8.00867 20.4897 10.0157 20.4897C15.5385 20.4897 20.0157 16.0126 20.0157 10.4897C20.0157 4.96693 15.5385 0.489746 10.0157 0.489746Z" fill="#D80027"/>
</svg>
