<svg width="21" height="21" viewBox="0 0 21 21" fill="none" xmlns="http://www.w3.org/2000/svg">
<path d="M20.0156 10.4897C20.0156 9.2665 19.7956 8.09475 19.3936 7.01146L10.0156 6.57666L0.637617 7.01143C0.235664 8.09475 0.015625 9.2665 0.015625 10.4897C0.015625 11.7129 0.235664 12.8847 0.637617 13.9679L10.0156 14.4028L19.3936 13.968C19.7956 12.8847 20.0156 11.7129 20.0156 10.4897Z" fill="#D80027"/>
<path d="M10.0157 20.4895C14.3154 20.4895 17.9808 17.7758 19.3937 13.9678H0.637695C2.05063 17.7758 5.71605 20.4895 10.0157 20.4895Z" fill="#6DA544"/>
<path d="M0.637695 7.0115H19.3937C17.9808 3.2035 14.3154 0.489746 10.0157 0.489746C5.71605 0.489746 2.05063 3.2035 0.637695 7.0115Z" fill="#338AF3"/>
<path d="M10.2329 13.3156C8.67214 13.3156 7.40683 12.0503 7.40683 10.4895C7.40683 8.92873 8.67214 7.66342 10.2329 7.66342C10.7196 7.66342 11.1775 7.78647 11.5773 8.00311C10.9501 7.38979 10.0924 7.01123 9.14597 7.01123C7.22495 7.01123 5.66772 8.5685 5.66772 10.4895C5.66772 12.4104 7.22499 13.9677 9.14597 13.9677C10.0925 13.9677 10.9501 13.5892 11.5773 12.9758C11.1775 13.1926 10.7196 13.3156 10.2329 13.3156Z" fill="#F0F0F0"/>
<path d="M12.4067 8.5332L12.7811 9.58598L13.7902 9.10621L13.3105 10.1154L14.3632 10.4897L13.3105 10.8641L13.7902 11.8732L12.7811 11.3935L12.4067 12.4463L12.0324 11.3935L11.0232 11.8732L11.503 10.8641L10.4502 10.4897L11.503 10.1154L11.0232 9.10621L12.0324 9.58598L12.4067 8.5332Z" fill="#F0F0F0"/>
</svg>
