<svg width="21" height="21" viewBox="0 0 21 21" fill="none" xmlns="http://www.w3.org/2000/svg">
<g clip-path="url(#clip0_139_2826)">
<g clip-path="url(#clip1_139_2826)">
<g clip-path="url(#clip2_139_2826)">
<path d="M10.0156 20.4897C15.5385 20.4897 20.0156 16.0126 20.0156 10.4897C20.0156 4.9669 15.5385 0.489746 10.0156 0.489746C4.49278 0.489746 0.015625 4.9669 0.015625 10.4897C0.015625 16.0126 4.49278 20.4897 10.0156 20.4897Z" fill="#496E2D"/>
<path d="M7.84171 14.8377C10.2429 14.8377 12.1895 12.8911 12.1895 10.4899C12.1895 8.08867 10.2429 6.14209 7.84171 6.14209C5.44048 6.14209 3.4939 8.08867 3.4939 10.4899C3.4939 12.8911 5.44048 14.8377 7.84171 14.8377Z" fill="#D80027"/>
</g>
</g>
</g>
<defs>
<clipPath id="clip0_139_2826">
<rect width="20" height="20" fill="white" transform="translate(0.015625 0.489746)"/>
</clipPath>
<clipPath id="clip1_139_2826">
<rect width="20" height="20" fill="white" transform="translate(0.015625 0.489746)"/>
</clipPath>
<clipPath id="clip2_139_2826">
<rect width="20" height="20" fill="white" transform="translate(0.015625 0.489746)"/>
</clipPath>
</defs>
</svg>
