<svg width="21" height="21" viewBox="0 0 21 21" fill="none" xmlns="http://www.w3.org/2000/svg">
<path d="M13.4938 1.11174C12.4105 0.709785 11.2387 0.489746 10.0155 0.489746C8.79233 0.489746 7.62062 0.709785 6.53729 1.11174L5.66772 10.4897L6.53729 19.8678C7.62062 20.2697 8.79233 20.4897 10.0155 20.4897C11.2387 20.4897 12.4105 20.2697 13.4938 19.8678L14.3633 10.4897L13.4938 1.11174Z" fill="#FFDA44"/>
<path d="M20.0157 10.4898C20.0157 6.19018 17.3019 2.52471 13.4939 1.11182V19.8679C17.3019 18.4549 20.0157 14.7895 20.0157 10.4898Z" fill="#D80027"/>
<path d="M0.015625 10.4898C0.015625 14.7895 2.72937 18.4549 6.53738 19.8678V1.11182C2.72937 2.52471 0.015625 6.19018 0.015625 10.4898Z" fill="black"/>
</svg>
