<svg width="21" height="21" viewBox="0 0 21 21" fill="none" xmlns="http://www.w3.org/2000/svg">
<path d="M2.94455 17.5608C-0.960684 13.6556 -0.960684 7.32396 2.94455 3.41869C6.84978 -0.486587 13.1815 -0.486548 17.0867 3.41869C17.0867 3.42005 19.7417 12.4053 15.8365 16.3106C11.9313 20.2159 2.94729 17.5636 2.94455 17.5608Z" fill="#FFDA44"/>
<path d="M2.94458 17.5606C6.84981 21.4658 13.1815 21.4658 17.0868 17.5606C20.992 13.6554 20.992 7.32373 17.0868 3.41846L2.94458 17.5606Z" fill="#FF9811"/>
<path d="M15.6726 6.14197V4.40283H12.3392L12.0845 4.65748C11.1786 5.5633 11.331 6.62002 11.4423 7.39158C11.5454 8.10732 11.5578 8.3815 11.2917 8.64771C11.0255 8.91385 10.7512 8.9015 10.0356 8.79826C9.26399 8.68705 8.20731 8.53467 7.30149 9.44045C6.39571 10.3462 6.54817 11.4029 6.6595 12.1744C6.76274 12.8901 6.77517 13.1642 6.50907 13.4303C6.24294 13.6963 5.96868 13.684 5.25317 13.5807C4.97419 13.5404 4.68571 13.4989 4.37774 13.4954L4.35864 15.2345C4.55138 15.2367 4.77165 15.2684 5.00485 15.3021C5.28095 15.3419 5.59345 15.387 5.92259 15.387C6.26368 15.387 6.62251 15.3384 6.97688 15.1854V16.5768H9.5856V15.2725H8.28126V14.4029H9.15083V13.0986H8.45583C8.4888 12.6766 8.43083 12.2726 8.38083 11.9262C8.27759 11.2105 8.26517 10.9363 8.53126 10.6703C8.79743 10.4041 9.07157 10.4165 9.78735 10.5197C10.3496 10.6007 11.0632 10.7031 11.7595 10.4025V11.7942H14.3683V10.4899H13.0639V9.62029H13.9335V8.31596H13.2385C13.2715 7.89397 13.2136 7.48994 13.1636 7.14342C13.0915 6.64338 13.0637 6.35885 13.1443 6.14201L15.6726 6.14197Z" fill="#F0F0F0"/>
</svg>
