<svg width="21" height="21" viewBox="0 0 21 21" fill="none" xmlns="http://www.w3.org/2000/svg">
<g clip-path="url(#clip0_139_2836)">
<g clip-path="url(#clip1_139_2836)">
<g clip-path="url(#clip2_139_2836)">
<path d="M14.3635 1.48201C13.0488 0.846309 11.5739 0.489746 10.0157 0.489746C8.45752 0.489746 6.9826 0.846309 5.66791 1.48201L4.79834 10.4897L5.66791 19.4975C6.9826 20.1332 8.45752 20.4897 10.0157 20.4897C11.5739 20.4897 13.0488 20.1332 14.3635 19.4975L15.2331 10.4897L14.3635 1.48201Z" fill="#FFDA44"/>
<path d="M5.66781 1.48242C2.32289 3.09984 0.015625 6.5252 0.015625 10.4898C0.015625 14.4544 2.32289 17.8798 5.66781 19.4972V1.48242Z" fill="#0052B4"/>
<path d="M14.3635 1.48242V19.4972C17.7084 17.8798 20.0157 14.4544 20.0157 10.4898C20.0157 6.52523 17.7084 3.09984 14.3635 1.48242Z" fill="#0052B4"/>
<path d="M13.0592 6.5766L12.4758 6.28496C12.4407 6.35531 11.679 7.90504 11.5546 10.2723H10.6679V6.5766L10.0157 5.70703L9.36353 6.5766V10.2723H8.47685C8.35239 7.90504 7.59075 6.35531 7.55556 6.28496L6.38892 6.86828C6.39696 6.8843 7.18966 8.49777 7.18966 10.9245V11.5766H9.36356V15.2723H10.6679V11.5766H12.8418V10.9244C12.8418 9.6698 13.0589 8.63527 13.241 7.98832C13.4396 7.28285 13.6413 6.87086 13.6433 6.86676L13.0592 6.5766Z" fill="black"/>
</g>
</g>
</g>
<defs>
<clipPath id="clip0_139_2836">
<rect width="20" height="20" fill="white" transform="translate(0.015625 0.489746)"/>
</clipPath>
<clipPath id="clip1_139_2836">
<rect width="20" height="20" fill="white" transform="translate(0.015625 0.489746)"/>
</clipPath>
<clipPath id="clip2_139_2836">
<rect width="20" height="20" fill="white" transform="translate(0.015625 0.489746)"/>
</clipPath>
</defs>
</svg>
