<svg width="21" height="21" viewBox="0 0 21 21" fill="none" xmlns="http://www.w3.org/2000/svg">
<g clip-path="url(#clip0_139_3028)">
<g clip-path="url(#clip1_139_3028)">
<g clip-path="url(#clip2_139_3028)">
<path d="M10.0156 20.4897C15.5385 20.4897 20.0156 16.0126 20.0156 10.4897C20.0156 4.9669 15.5385 0.489746 10.0156 0.489746C4.49278 0.489746 0.015625 4.9669 0.015625 10.4897C0.015625 16.0126 4.49278 20.4897 10.0156 20.4897Z" fill="#F0F0F0"/>
<path d="M16.1046 2.55643C12.5244 -0.198491 7.50691 -0.198491 3.92676 2.55639L10.0157 8.6453L16.1046 2.55643Z" fill="#D80027"/>
<path d="M10.0156 12.3346L3.92676 18.4234C7.50691 21.1783 12.5244 21.1783 16.1046 18.4234L10.0157 12.3345L10.0156 12.3346Z" fill="#D80027"/>
<path d="M8.17093 10.4898L2.08206 4.40088C-0.672861 7.98104 -0.672861 12.9985 2.08206 16.5787L8.17093 10.4898Z" fill="#6DA544"/>
<path d="M11.8604 10.4898L17.9492 16.5787C20.7041 12.9985 20.7041 7.98104 17.9492 4.40088L11.8604 10.4898Z" fill="#6DA544"/>
<path d="M10.0155 14.8377C12.4168 14.8377 14.3633 12.8911 14.3633 10.4899C14.3633 8.08867 12.4168 6.14209 10.0155 6.14209C7.61431 6.14209 5.66772 8.08867 5.66772 10.4899C5.66772 12.8911 7.61431 14.8377 10.0155 14.8377Z" fill="#F0F0F0"/>
<path d="M10.0156 7.44629L10.3921 8.09848H11.1452L10.7686 8.75062L11.1452 9.40281H10.3921L10.0156 10.055L9.63903 9.40281H8.88599L9.26251 8.75062L8.88599 8.09848H9.63903L10.0156 7.44629Z" fill="#D80027"/>
<path d="M8.10178 10.4897L8.4783 11.1419H9.23135L8.85482 11.7941L9.23135 12.4463H8.4783L8.10178 13.0985L7.72521 12.4463H6.97217L7.34869 11.7941L6.97217 11.1419H7.72521L8.10178 10.4897Z" fill="#D80027"/>
<path d="M11.9297 10.4897L12.3062 11.1419H13.0592L12.6827 11.7941L13.0592 12.4463H12.3062L11.9297 13.0985L11.5531 12.4463H10.8L11.1766 11.7941L10.8 11.1419H11.5531L11.9297 10.4897Z" fill="#D80027"/>
</g>
</g>
</g>
<defs>
<clipPath id="clip0_139_3028">
<rect width="20" height="20" fill="white" transform="translate(0.015625 0.489746)"/>
</clipPath>
<clipPath id="clip1_139_3028">
<rect width="20" height="20" fill="white" transform="translate(0.015625 0.489746)"/>
</clipPath>
<clipPath id="clip2_139_3028">
<rect width="20" height="20" fill="white" transform="translate(0.015625 0.489746)"/>
</clipPath>
</defs>
</svg>
