<svg width="21" height="21" viewBox="0 0 21 21" fill="none" xmlns="http://www.w3.org/2000/svg">
<path d="M20.0156 10.4897C20.0156 9.2665 19.7956 8.09475 19.3936 7.01146L10.0156 6.57666L0.637617 7.01143C0.235625 8.09475 0.015625 9.2665 0.015625 10.4897C0.015625 11.7129 0.235625 12.8847 0.637617 13.9679L10.0156 14.4028L19.3936 13.968C19.7956 12.8847 20.0156 11.7129 20.0156 10.4897Z" fill="#FFDA44"/>
<path d="M10.0157 20.4895C14.3154 20.4895 17.9808 17.7758 19.3937 13.9678H0.637695C2.05063 17.7758 5.71605 20.4895 10.0157 20.4895Z" fill="#6DA544"/>
<path d="M0.637695 7.0115H19.3937C17.9808 3.2035 14.3154 0.489746 10.0157 0.489746C5.71605 0.489746 2.05063 3.2035 0.637695 7.0115Z" fill="#D80027"/>
</svg>
