<svg width="21" height="21" viewBox="0 0 21 21" fill="none" xmlns="http://www.w3.org/2000/svg">
<path d="M10.0156 20.4897C15.5385 20.4897 20.0156 16.0126 20.0156 10.4897C20.0156 4.9669 15.5385 0.489746 10.0156 0.489746C4.49278 0.489746 0.015625 4.9669 0.015625 10.4897C0.015625 16.0126 4.49278 20.4897 10.0156 20.4897Z" fill="#6DA544"/>
<path d="M10.0157 4.40283L18.2766 10.4898L10.0157 16.5767L1.75488 10.4898L10.0157 4.40283Z" fill="#FFDA44"/>
<path d="M10.0156 13.9682C11.9366 13.9682 13.4938 12.4109 13.4938 10.49C13.4938 8.56898 11.9366 7.01172 10.0156 7.01172C8.09462 7.01172 6.53735 8.56898 6.53735 10.49C6.53735 12.4109 8.09462 13.9682 10.0156 13.9682Z" fill="#F0F0F0"/>
<path d="M8.27658 10.2725C7.67174 10.2725 7.08803 10.3645 6.53857 10.5352C6.56291 12.4352 8.10994 13.9681 10.0157 13.9681C11.1942 13.9681 12.2349 13.3815 12.8641 12.485C11.7877 11.1375 10.1314 10.2725 8.27658 10.2725Z" fill="#0052B4"/>
<path d="M13.4294 11.1564C13.4713 10.9406 13.4939 10.718 13.4939 10.49C13.4939 8.56895 11.9366 7.01172 10.0157 7.01172C8.5823 7.01172 7.35184 7.87895 6.81934 9.11715C7.29004 9.01961 7.77738 8.96824 8.27656 8.96824C10.2968 8.9682 12.1243 9.80797 13.4294 11.1564Z" fill="#0052B4"/>
</svg>
