<svg width="21" height="21" viewBox="0 0 21 21" fill="none" xmlns="http://www.w3.org/2000/svg">
<path d="M0.487813 7.446C0.181484 8.40572 0.0155859 9.42811 0.015625 10.4895C0.0155859 11.5508 0.181484 12.5732 0.487852 13.5329L10.0156 13.9678L19.5434 13.5329C19.8496 12.5732 20.0156 11.5507 20.0156 10.4895C20.0156 9.42818 19.8497 8.40572 19.5434 7.446L10.0156 7.01123L0.487813 7.446Z" fill="#F0F0F0"/>
<path d="M20.0156 10.4897C20.0156 9.89643 19.9637 9.31533 19.8646 8.75049H0.166719C0.0675781 9.31533 0.015625 9.89635 0.015625 10.4896C0.015625 11.0829 0.0676172 11.6639 0.166719 12.2288H19.8646C19.9636 11.6639 20.0156 11.0829 20.0156 10.4897Z" fill="black"/>
<path d="M10.0156 20.4898C14.4771 20.4898 18.2556 17.5678 19.5433 13.5332H0.487793C1.77549 17.5677 5.55404 20.4897 10.0156 20.4898Z" fill="#338AF3"/>
<path d="M10.0156 0.489746C5.55408 0.489746 1.77557 3.41174 0.487793 7.44619L19.5433 7.44623C18.2556 3.41174 14.4771 0.489668 10.0156 0.489746Z" fill="#338AF3"/>
</svg>
