<svg width="21" height="20" viewBox="0 0 21 20" fill="none" xmlns="http://www.w3.org/2000/svg">
<g clip-path="url(#clip0_139_2627)">
<g clip-path="url(#clip1_139_2627)">
<g clip-path="url(#clip2_139_2627)">
<path d="M10.0156 20C15.5385 20 20.0156 15.5228 20.0156 10C20.0156 4.47715 15.5385 0 10.0156 0C4.49278 0 0.015625 4.47715 0.015625 10C0.015625 15.5228 4.49278 20 10.0156 20Z" fill="#D80027"/>
<path d="M15.6679 7.42209H12.0458C12.2693 7.18795 12.407 6.87096 12.407 6.52162C12.407 5.80127 11.823 5.21729 11.1026 5.21729C10.6488 5.21729 10.2493 5.44916 10.0157 5.80076C9.78204 5.44916 9.38251 5.21729 8.92872 5.21729C8.20837 5.21729 7.62438 5.80127 7.62438 6.52162C7.62438 6.87096 7.762 7.18799 7.9856 7.42209H4.36353C4.36353 8.3826 5.20013 9.16119 6.16056 9.16119H6.10259C6.10259 10.1217 6.88122 10.9004 7.84177 10.9004C7.84177 11.2115 7.92376 11.5031 8.06688 11.7556L6.62431 13.1982L7.7311 14.3049L9.3011 12.735C9.36259 12.7575 9.42622 12.7756 9.49192 12.7879L8.54321 14.9299L10.0157 16.5216L11.4881 14.9298L10.5394 12.7878C10.6052 12.7755 10.6688 12.7575 10.7302 12.7349L12.3002 14.3049L13.407 13.1981L11.9644 11.7555C12.1076 11.503 12.1896 11.2113 12.1896 10.9003C13.1501 10.9003 13.9287 10.1217 13.9287 9.16107H13.8708C14.8312 9.16115 15.6679 8.3826 15.6679 7.42209Z" fill="black"/>
</g>
</g>
</g>
<defs>
<clipPath id="clip0_139_2627">
<rect width="20" height="20" fill="white" transform="translate(0.015625)"/>
</clipPath>
<clipPath id="clip1_139_2627">
<rect width="20" height="20" fill="white" transform="translate(0.015625)"/>
</clipPath>
<clipPath id="clip2_139_2627">
<rect width="20" height="20" fill="white" transform="translate(0.015625)"/>
</clipPath>
</defs>
</svg>
