<svg width="21" height="21" viewBox="0 0 21 21" fill="none" xmlns="http://www.w3.org/2000/svg">
<g clip-path="url(#clip0_139_2937)">
<g clip-path="url(#clip1_139_2937)">
<g clip-path="url(#clip2_139_2937)">
<path d="M10.0156 20.4897C15.5385 20.4897 20.0156 16.0126 20.0156 10.4897C20.0156 4.9669 15.5385 0.489746 10.0156 0.489746C4.49278 0.489746 0.015625 4.9669 0.015625 10.4897C0.015625 16.0126 4.49278 20.4897 10.0156 20.4897Z" fill="#F0F0F0"/>
<path d="M10.0156 0.489746C6.46991 0.489746 3.35546 2.33518 1.57983 5.11783L15.1407 19.0776C18.0604 17.3314 20.0156 14.1391 20.0156 10.4897C20.0156 4.96693 15.5384 0.489746 10.0156 0.489746Z" fill="#FFDA44"/>
<path d="M20.0157 10.4899C20.0157 7.89525 19.0275 5.53166 17.407 3.75439V17.2254C19.0275 15.4481 20.0157 13.0845 20.0157 10.4899Z" fill="#0052B4"/>
<path d="M12.5074 19.3131L13.5548 19.3124L13.878 18.316L14.2023 19.312L14.7277 19.3117C15.0498 19.1392 15.3614 18.9497 15.6613 18.7442L1.76129 4.84424C1.53223 5.17846 1.32332 5.52744 1.13547 5.88916L1.25898 6.26854L2.30645 6.26787L1.45941 6.88408L1.78371 7.88014L0.935898 7.26498L0.430234 7.63279C0.160664 8.53811 0.015625 9.49705 0.015625 10.4899C0.015625 16.0127 4.49281 20.4899 10.0156 20.4899C11.1833 20.4899 12.304 20.2894 13.3457 19.9215L12.5074 19.3131ZM2.24605 10.0551L2.5691 9.05873L1.72137 8.4435L2.76883 8.44283L3.09191 7.44639L3.41621 8.44244L4.46367 8.44178L3.6166 9.05799L3.9409 10.054L3.09309 9.43889L2.24605 10.0551ZM4.40328 12.229L4.72633 11.2326L3.87859 10.6174L4.92605 10.6167L5.24914 9.62029L5.57344 10.6163L6.6209 10.6157L5.77387 11.2319L6.09816 12.2279L5.25035 11.6128L4.40328 12.229ZM6.56047 14.4029L6.88352 13.4065L6.03578 12.7913L7.08324 12.7906L7.40633 11.7942L7.73063 12.7903L8.77809 12.7896L7.93105 13.4058L8.25535 14.4019L7.40754 13.7866L6.56047 14.4029ZM9.56473 15.9606L8.71766 16.5769L9.0407 15.5804L8.19297 14.9652L9.24043 14.9646L9.56355 13.9681L9.88785 14.9642L10.9353 14.9635L10.0883 15.5797L10.4126 16.5758L9.56473 15.9606ZM10.8749 18.7508L11.1979 17.7544L10.3502 17.1391L11.3977 17.1385L11.7207 16.142L12.045 17.1381L13.0925 17.1374L12.2455 17.7536L12.5698 18.7497L11.722 18.1344L10.8749 18.7508Z" fill="#0052B4"/>
</g>
</g>
</g>
<defs>
<clipPath id="clip0_139_2937">
<rect width="20" height="20" fill="white" transform="translate(0.015625 0.489746)"/>
</clipPath>
<clipPath id="clip1_139_2937">
<rect width="20" height="20" fill="white" transform="translate(0.015625 0.489746)"/>
</clipPath>
<clipPath id="clip2_139_2937">
<rect width="20" height="20" fill="white" transform="translate(0.015625 0.489746)"/>
</clipPath>
</defs>
</svg>
