<svg width="21" height="21" viewBox="0 0 21 21" fill="none" xmlns="http://www.w3.org/2000/svg">
<g clip-path="url(#clip0_139_3017)">
<g clip-path="url(#clip1_139_3017)">
<g clip-path="url(#clip2_139_3017)">
<path d="M0.015625 10.4897C0.015625 4.96693 4.49281 0.489746 10.0156 0.489746C15.5384 0.489746 20.0156 4.96693 20.0156 10.4897C19.5809 10.4897 10.0156 11.7941 10.0156 11.7941L0.015625 10.4897Z" fill="#D80027"/>
<path d="M20.0156 10.4897C20.0156 16.0126 15.5384 20.4897 10.0156 20.4897C4.49281 20.4897 0.015625 16.0126 0.015625 10.4897" fill="#6DA544"/>
<path d="M10.0155 7.01172L10.7709 9.33664H13.2157L11.2379 10.7736L11.9933 13.0987L10.0155 11.6618L8.03777 13.0987L8.79328 10.7736L6.81543 9.33664H9.26012L10.0155 7.01172Z" fill="#FFDA44"/>
</g>
</g>
</g>
<defs>
<clipPath id="clip0_139_3017">
<rect width="20" height="20" fill="white" transform="translate(0.015625 0.489746)"/>
</clipPath>
<clipPath id="clip1_139_3017">
<rect width="20" height="20" fill="white" transform="translate(0.015625 0.489746)"/>
</clipPath>
<clipPath id="clip2_139_3017">
<rect width="20" height="20" fill="white" transform="translate(0.015625 0.489746)"/>
</clipPath>
</defs>
</svg>
