<svg width="21" height="21" viewBox="0 0 21 21" fill="none" xmlns="http://www.w3.org/2000/svg">
<path d="M0.015625 10.4896C0.015625 12.222 0.456367 13.8515 1.23152 15.2722L10.0156 16.1418L18.7997 15.2722C19.5749 13.8515 20.0156 12.222 20.0156 10.4896C20.0156 8.75717 19.5749 7.12771 18.7997 5.70697L10.0156 4.8374L1.23152 5.70697C0.456367 7.12771 0.015625 8.75717 0.015625 10.4896Z" fill="#D80027"/>
<path d="M1.23145 5.70713H18.7996C17.1036 2.59869 13.806 0.489746 10.0155 0.489746C6.22512 0.489746 2.9275 2.59869 1.23145 5.70713Z" fill="#0052B4"/>
<path d="M10.0155 20.4898C13.806 20.4898 17.1036 18.3809 18.7996 15.2725H1.23145C2.9275 18.3809 6.22512 20.4898 10.0155 20.4898Z" fill="#0052B4"/>
<path d="M13.4938 12.4461V11.1418H12.6242V9.40266L11.7547 8.53309L10.8851 9.40266V7.66352L10.0155 6.79395L9.14597 7.66352V9.40266L8.2764 8.53309L7.40683 9.40266V11.1418H6.53729V12.4461H5.66772V13.7505H14.3633V12.4461H13.4938Z" fill="#F0F0F0"/>
</svg>
