<svg width="21" height="21" viewBox="0 0 21 21" fill="none" xmlns="http://www.w3.org/2000/svg">
<g clip-path="url(#clip0_139_3067)">
<g clip-path="url(#clip1_139_3067)">
<g clip-path="url(#clip2_139_3067)">
<path d="M14.3635 1.48201C13.0488 0.846309 11.5739 0.489746 10.0157 0.489746C8.45752 0.489746 6.9826 0.846309 5.66791 1.48201L4.79834 10.4897L5.66791 19.4975C6.9826 20.1332 8.45752 20.4897 10.0157 20.4897C11.5739 20.4897 13.0488 20.1332 14.3635 19.4975L15.2331 10.4897L14.3635 1.48201Z" fill="#D80027"/>
<path d="M10.0156 7.01172L10.8789 9.66871H13.6729L11.4126 11.3111L12.2759 13.9682L10.0156 12.326L7.75523 13.9682L8.61871 11.3111L6.3584 9.66871H9.15227L10.0156 7.01172Z" fill="#FFDA44"/>
<path d="M5.66781 1.48242C2.32289 3.09984 0.015625 6.5252 0.015625 10.4898C0.015625 14.4544 2.32289 17.8798 5.66781 19.4972V1.48242Z" fill="#496E2D"/>
<path d="M14.3635 1.48242V19.4972C17.7084 17.8798 20.0157 14.4544 20.0157 10.4898C20.0157 6.52523 17.7084 3.09984 14.3635 1.48242Z" fill="#FFDA44"/>
</g>
</g>
</g>
<defs>
<clipPath id="clip0_139_3067">
<rect width="20" height="20" fill="white" transform="translate(0.015625 0.489746)"/>
</clipPath>
<clipPath id="clip1_139_3067">
<rect width="20" height="20" fill="white" transform="translate(0.015625 0.489746)"/>
</clipPath>
<clipPath id="clip2_139_3067">
<rect width="20" height="20" fill="white" transform="translate(0.015625 0.489746)"/>
</clipPath>
</defs>
</svg>
