<svg width="21" height="21" viewBox="0 0 21 21" fill="none" xmlns="http://www.w3.org/2000/svg">
<g clip-path="url(#clip0_139_2983)">
<g clip-path="url(#clip1_139_2983)">
<g clip-path="url(#clip2_139_2983)">
<path d="M10.0156 20.4883C15.5377 20.4883 20.0142 16.0118 20.0142 10.4897C20.0142 4.96771 15.5377 0.491211 10.0156 0.491211C4.49359 0.491211 0.0170898 4.96771 0.0170898 10.4897C0.0170898 16.0118 4.49359 20.4883 10.0156 20.4883Z" fill="#F0F0F0"/>
<path d="M1.35647 5.49023C0.905168 6.27181 0.57227 7.08894 0.350586 7.92126L17.072 17.5754C17.6819 16.9672 18.2232 16.2703 18.6744 15.4888L1.35647 5.49023Z" fill="black"/>
<path d="M15.0148 1.83075C11.0141 -0.479027 6.0812 0.290795 2.95898 3.40383L19.6804 13.0579C20.8153 8.79758 19.0155 4.14056 15.0148 1.83075Z" fill="#FFDA44"/>
<path d="M5.01637 19.1486C9.017 21.4584 13.95 20.6886 17.0722 17.5756L0.350758 7.92139C-0.784071 12.1818 1.01565 16.8388 5.01637 19.1486Z" fill="#FFDA44"/>
<path d="M12.8413 9.40276C12.8413 10.9633 11.5762 12.2284 10.0156 12.2284C8.45503 12.2284 7.18993 10.9633 7.18993 9.40276C7.18993 8.91619 7.31294 8.45833 7.52958 8.05859C6.9164 8.68568 6.53784 9.5432 6.53784 10.4895C6.53784 12.4102 8.09487 13.9673 10.0156 13.9673C11.9364 13.9673 13.4934 12.4103 13.4934 10.4895C13.4934 9.5432 13.1149 8.68568 12.5016 8.05859C12.7183 8.45841 12.8413 8.91619 12.8413 9.40276Z" fill="#D80027"/>
<path d="M10.6679 6.14258H9.36377V12.6634H10.6679V6.14258Z" fill="#D80027"/>
<path d="M12.1892 7.44678H7.84204C7.84204 7.7469 8.10349 7.99019 8.40358 7.99019H8.38545C8.38545 8.29031 8.62878 8.5336 8.92886 8.5336C8.92886 8.83372 9.17219 9.07701 9.47227 9.07701H10.5591C10.8592 9.07701 11.1025 8.83372 11.1025 8.5336C11.4026 8.5336 11.6459 8.29031 11.6459 7.99019H11.6278C11.9278 7.99015 12.1892 7.74694 12.1892 7.44678Z" fill="#D80027"/>
<path d="M13.0587 13.0981H6.97266V14.4023H13.0587V13.0981Z" fill="#D80027"/>
<path d="M13.9281 13.5327H11.3198V14.8369H13.9281V13.5327Z" fill="#D80027"/>
<path d="M8.71157 13.5327H6.10327V14.8369H8.71157V13.5327Z" fill="#D80027"/>
</g>
</g>
</g>
<defs>
<clipPath id="clip0_139_2983">
<rect width="20" height="20" fill="white" transform="translate(0.015625 0.489746)"/>
</clipPath>
<clipPath id="clip1_139_2983">
<rect width="20" height="20" fill="white" transform="translate(0.015625 0.489746)"/>
</clipPath>
<clipPath id="clip2_139_2983">
<rect width="20" height="20" fill="white" transform="translate(0.015625 0.489746)"/>
</clipPath>
</defs>
</svg>
