<svg width="21" height="21" viewBox="0 0 21 21" fill="none" xmlns="http://www.w3.org/2000/svg">
<path d="M10.0156 20.4897C15.5385 20.4897 20.0156 16.0126 20.0156 10.4897C20.0156 4.9669 15.5385 0.489746 10.0156 0.489746C4.49278 0.489746 0.015625 4.9669 0.015625 10.4897C0.015625 16.0126 4.49278 20.4897 10.0156 20.4897Z" fill="#F0F0F0"/>
<path d="M20.0157 10.4897C20.0157 6.52506 17.7085 3.09943 14.3635 1.48193V19.4974C17.7085 17.8799 20.0157 14.4543 20.0157 10.4897Z" fill="#D80027"/>
<path d="M0.015625 10.4897C0.015625 14.4543 2.32285 17.8799 5.66781 19.4974V1.48193C2.32285 3.09943 0.015625 6.52506 0.015625 10.4897Z" fill="#D80027"/>
<path d="M11.7547 11.7941L13.4938 10.9245L12.6243 10.4898V9.62019L10.8852 10.4898L11.7547 8.75062H10.8852L10.0156 7.44629L9.14603 8.75062H8.27645L9.14603 10.4898L7.40688 9.62019V10.4898L6.53735 10.9245L8.27645 11.7941L7.84169 12.6637H9.58083V13.968H10.4504V12.6637H12.1895L11.7547 11.7941Z" fill="#D80027"/>
</svg>
