<svg width="21" height="20" viewBox="0 0 21 20" fill="none" xmlns="http://www.w3.org/2000/svg">
<path d="M10.0155 0C15.5383 0 20.0155 4.47719 20.0155 10C20.0155 15.5228 15.5383 20 10.0155 20C10.0155 19.5652 8.71118 10 8.71118 10L10.0155 0Z" fill="#F0F0F0"/>
<path d="M10.0156 20C4.49281 20 0.015625 15.5228 0.015625 10C0.015625 4.47719 4.49281 0 10.0156 0" fill="#496E2D"/>
<path d="M12.1642 8.08154L11.3437 9.21221L10.0149 8.78127L10.8367 9.91096L10.0163 11.0416L11.3446 10.6092L12.1664 11.7388L12.1655 10.3419L13.4938 9.90939L12.1651 9.47854L12.1642 8.08154Z" fill="#D80027"/>
<path d="M10.8452 12.8259C9.28444 12.8259 8.01913 11.5605 8.01913 9.99977C8.01913 8.43898 9.28444 7.17367 10.8452 7.17367C11.3319 7.17367 11.7898 7.29672 12.1896 7.51336C11.5624 6.90004 10.7047 6.52148 9.75827 6.52148C7.83726 6.52148 6.28003 8.07875 6.28003 9.99973C6.28003 11.9207 7.83729 13.478 9.75827 13.478C10.7048 13.478 11.5624 13.0994 12.1896 12.4861C11.7898 12.7028 11.3319 12.8259 10.8452 12.8259Z" fill="#D80027"/>
</svg>
