<svg width="21" height="21" viewBox="0 0 21 21" fill="none" xmlns="http://www.w3.org/2000/svg">
<g clip-path="url(#clip0_139_3095)">
<g clip-path="url(#clip1_139_3095)">
<g clip-path="url(#clip2_139_3095)">
<path d="M20.0156 10.4897C20.0156 16.0126 15.5384 20.4897 10.0156 20.4897C4.49281 20.4897 0.015625 16.0126 0.015625 10.4897C0.015625 10.4921 10.0156 0.49084 10.0156 0.489746C15.5384 0.489746 20.0156 4.96693 20.0156 10.4897Z" fill="#0052B4"/>
<path d="M9.98877 10.4896H10.0155C10.0155 10.4807 10.0155 10.4719 10.0155 10.4629C10.0066 10.4718 9.99771 10.4807 9.98877 10.4896Z" fill="#F0F0F0"/>
<path d="M10.0156 5.70713C10.0156 3.94756 10.0156 2.79463 10.0156 0.489746H10.0139C4.49184 0.490684 0.015625 4.96744 0.015625 10.4897H5.23301V7.55182L8.17094 10.4897H9.98891C9.99781 10.4808 10.0067 10.4719 10.0157 10.463C10.0157 9.78928 10.0157 9.18814 10.0157 8.64514L7.07766 5.70713H10.0156Z" fill="#F0F0F0"/>
<path d="M14.3634 7.88111C15.3239 7.88111 16.1025 7.10247 16.1025 6.14197C16.1025 5.18147 15.3239 4.40283 14.3634 4.40283C13.4029 4.40283 12.6243 5.18147 12.6243 6.14197C12.6243 7.10247 13.4029 7.88111 14.3634 7.88111Z" fill="#6DA544"/>
<path d="M5.07491 1.79395C3.51089 2.68453 2.21062 3.98477 1.32007 5.54879V10.4896H3.92878V4.40273V4.40266H10.0157C10.0157 3.57988 10.0157 2.79605 10.0157 1.79395H5.07491Z" fill="#D80027"/>
<path d="M10.0158 9.25988L6.46284 5.70703H5.23315V5.70711L10.0157 10.4896H10.0158C10.0158 10.4896 10.0158 9.64168 10.0158 9.25988Z" fill="#D80027"/>
<path d="M17.407 5.70703H11.3201V8.31574H17.407V5.70703Z" fill="#D80027"/>
<path d="M11.3201 12.229V13.9681H12.2351C12.7837 14.5058 13.5347 14.8377 14.3635 14.8377C15.1924 14.8377 15.9434 14.5058 16.492 13.9681H16.5375H17.407V12.229H11.3201Z" fill="#FFDA44"/>
<path d="M11.3201 7.88086V10.4896C11.3201 12.8192 14.3635 13.533 14.3635 13.533C14.3635 13.533 17.407 12.8192 17.407 10.4896V7.88086H11.3201Z" fill="#338AF3"/>
<path d="M14.3633 9.27441C13.6025 9.27441 13.6025 9.97008 12.8417 9.97008C12.0809 9.97008 12.0809 9.27441 11.3201 9.27441V10.4918C12.0809 10.4918 12.0809 11.1875 12.8417 11.1875C13.6025 11.1875 13.6025 10.4918 14.3633 10.4918C15.1242 10.4918 15.1242 11.1875 15.8852 11.1875C16.6461 11.1875 16.6461 10.4918 17.407 10.4918V9.27441C16.6461 9.27441 16.6461 9.97008 15.8852 9.97008C15.1242 9.97008 15.1242 9.27441 14.3633 9.27441Z" fill="#F3F3F3"/>
<path d="M14.3633 6.8374C13.6025 6.8374 13.6025 7.53307 12.8417 7.53307C12.0809 7.53307 12.0809 6.8374 11.3201 6.8374V8.05479C12.0809 8.05479 12.0809 8.75045 12.8417 8.75045C13.6025 8.75045 13.6025 8.05479 14.3633 8.05479C15.1242 8.05479 15.1242 8.75045 15.8852 8.75045C16.6461 8.75045 16.6461 8.05479 17.407 8.05479V6.8374C16.6461 6.8374 16.6461 7.53307 15.8852 7.53307C15.1242 7.53307 15.1242 6.8374 14.3633 6.8374Z" fill="#F3F3F3"/>
</g>
</g>
</g>
<defs>
<clipPath id="clip0_139_3095">
<rect width="20" height="20" fill="white" transform="translate(0.015625 0.489746)"/>
</clipPath>
<clipPath id="clip1_139_3095">
<rect width="20" height="20" fill="white" transform="translate(0.015625 0.489746)"/>
</clipPath>
<clipPath id="clip2_139_3095">
<rect width="20" height="20" fill="white" transform="translate(0.015625 0.489746)"/>
</clipPath>
</defs>
</svg>
