<svg width="21" height="20" viewBox="0 0 21 20" fill="none" xmlns="http://www.w3.org/2000/svg">
<path d="M5.66791 19.0077C6.9826 19.6434 8.45748 20 10.0157 20C11.574 20 13.0488 19.6434 14.3635 19.0077L15.2331 10L14.3635 0.992266C13.0488 0.356562 11.574 0 10.0157 0C8.45748 0 6.9826 0.356562 5.66791 0.992266L4.79834 10L5.66791 19.0077Z" fill="#FFDA44"/>
<path d="M14.3635 19.0074C17.7085 17.39 20.0157 13.9646 20.0157 10.0001C20.0157 6.03549 17.7085 2.6101 14.3635 0.992676V19.0074Z" fill="#D80027"/>
<path d="M5.66781 19.0074V0.992676C2.32285 2.6101 0.015625 6.03545 0.015625 10.0001C0.015625 13.9647 2.32285 17.39 5.66781 19.0074Z" fill="#0052B4"/>
<path d="M10.0156 13.4782C10.0156 11.8825 10.0156 10 10.0156 10H12.6243V11.3043C12.6243 11.5309 12.1896 12.3612 11.1164 13.0435C10.71 13.3019 10.2892 13.385 10.0156 13.4782Z" fill="#D80027"/>
<path d="M10.0157 7.39111H7.40698V9.99982H10.0157V7.39111Z" fill="#D80027"/>
<path d="M11.3199 6.52191C11.3199 6.04164 10.9306 5.65234 10.4504 5.65234C10.2918 5.65234 10.1436 5.69547 10.0156 5.76961C9.88759 5.69547 9.73942 5.65234 9.58083 5.65234C9.1006 5.65234 8.71126 6.04164 8.71126 6.52191H6.53735V10.8697C6.53735 12.4883 7.82274 13.4243 8.83075 13.9096C8.75532 14.0384 8.71126 14.1879 8.71126 14.348C8.71126 14.8283 9.1006 15.2176 9.58083 15.2176C9.73942 15.2176 9.88763 15.1745 10.0156 15.1003C10.1436 15.1745 10.2918 15.2176 10.4504 15.2176C10.9306 15.2176 11.3199 14.8283 11.3199 14.348C11.3199 14.1879 11.2759 14.0384 11.2004 13.9096C12.2084 13.4243 13.4938 12.4883 13.4938 10.8697V6.52191H11.3199ZM12.1895 10.8697C12.1895 11.0963 12.1895 11.7858 11.1164 12.468C10.7099 12.7265 10.2892 12.8941 10.0156 12.9872C9.742 12.8941 9.3213 12.7265 8.91481 12.468C7.84169 11.7858 7.84169 11.0963 7.84169 10.8697V7.82625H12.1895V10.8697Z" fill="#FF9811"/>
</svg>
