<svg width="19" height="20" viewBox="0 0 19 20" fill="none" xmlns="http://www.w3.org/2000/svg">
<g clip-path="url(#clip0_139_2674)">
<g clip-path="url(#clip1_139_2674)">
<g clip-path="url(#clip2_139_2674)">
<path d="M0 10C0 4.47719 4.47719 0 10 0C15.5228 0 20 4.47719 20 10C19.5652 10 10 11.3043 10 11.3043L0 10Z" fill="#D80027"/>
<path d="M20 10C20 15.5228 15.5228 20 10 20C4.47719 20 0 15.5228 0 10" fill="black"/>
<path d="M8.62891 7.95361L9.47664 8.56885L9.15359 9.56525L10.0007 8.949L10.8485 9.56424L10.5242 8.56814L11.3712 7.95197L10.3238 7.9526L9.99945 6.95654L9.67637 7.95295L8.62891 7.95361Z" fill="#FFDA44"/>
<path d="M12.5 5.66968C11.712 5.21471 10.8504 4.99999 10 5.00147V6.30554C10.6286 6.3044 11.2654 6.463 11.8478 6.79932C13.6126 7.81823 14.2194 10.0829 13.2005 11.8477C12.1816 13.6124 9.91695 14.2193 8.15215 13.2004C7.63801 12.9035 7.22297 12.5005 6.91703 12.0354L5.82812 12.7543C6.24207 13.3835 6.80441 13.9283 7.5 14.3299C9.88766 15.7084 12.9516 14.8874 14.3301 12.4998C15.7086 10.1121 14.8877 7.04819 12.5 5.66968Z" fill="#FFDA44"/>
<path d="M7.1168 9.13037C6.77109 9.76236 7.0032 10.555 7.63515 10.9007L11.8714 13.2155C11.5834 13.7421 11.7364 14.3831 12.263 14.6712L13.4073 15.2972C13.9339 15.5853 14.5945 15.3919 14.8826 14.8652L15.5086 13.7209L7.1168 9.13037Z" fill="#FFDA44"/>
</g>
</g>
</g>
<defs>
<clipPath id="clip0_139_2674">
<rect width="19" height="20" fill="white"/>
</clipPath>
<clipPath id="clip1_139_2674">
<rect width="20" height="20" fill="white"/>
</clipPath>
<clipPath id="clip2_139_2674">
<rect width="20" height="20" fill="white"/>
</clipPath>
</defs>
</svg>
