<svg width="21" height="20" viewBox="0 0 21 20" fill="none" xmlns="http://www.w3.org/2000/svg">
<path d="M0.015625 9.99982C0.015625 10.6848 0.0846875 11.3536 0.215898 11.9998L10.0156 12.6085L19.8154 11.9998C19.9466 11.3536 20.0156 10.6848 20.0156 9.99982C20.0156 9.31486 19.9466 8.64604 19.8154 7.99982L10.0156 7.39111L0.215898 7.99982C0.0846875 8.64604 0.015625 9.31486 0.015625 9.99982Z" fill="#0052B4"/>
<path d="M19.8153 12H0.21582C1.14234 16.5645 5.1777 20 10.0155 20C14.8534 20 18.8888 16.5645 19.8153 12Z" fill="#F0F0F0"/>
<path d="M0.21582 8H19.8154C18.8888 3.43555 14.8535 0 10.0155 0C5.17762 0 1.14234 3.43555 0.21582 8Z" fill="black"/>
<path d="M14.3633 7.99982H5.66772L7.44429 7.16412L6.49823 5.44361L8.42733 5.81256L8.67187 3.86377L10.0155 5.29713L11.3593 3.86377L11.6037 5.81256L13.5328 5.44361L12.5869 7.1642L14.3633 7.99982Z" fill="#FFDA44"/>
<path d="M0.015625 9.99986C0.015625 15.5227 4.49281 19.9999 10.0156 19.9999L2.01547 3.99951C0.759844 5.67096 0.015625 7.74842 0.015625 9.99986Z" fill="#A2001D"/>
<path d="M10.0156 19.9999C15.5384 19.9999 20.0156 15.5227 20.0156 9.99986C20.0156 7.74842 19.2714 5.67096 18.0158 3.99951L10.0156 19.9999Z" fill="#A2001D"/>
</svg>
