<svg width="21" height="20" viewBox="0 0 21 20" fill="none" xmlns="http://www.w3.org/2000/svg">
<path d="M10.0156 20C15.5385 20 20.0156 15.5228 20.0156 10C20.0156 4.47715 15.5385 0 10.0156 0C4.49278 0 0.015625 4.47715 0.015625 10C0.015625 15.5228 4.49278 20 10.0156 20Z" fill="#F0F0F0"/>
<path d="M10.0155 0C6.05094 0 2.62531 2.30723 1.00781 5.65219H19.0232C17.4058 2.30723 13.9801 0 10.0155 0Z" fill="#338AF3"/>
<path d="M10.0155 19.9998C13.9801 19.9998 17.4058 17.6926 19.0233 14.3477H1.00781C2.62531 17.6926 6.05094 19.9998 10.0155 19.9998Z" fill="#338AF3"/>
<path d="M13.0046 9.99998L11.7833 10.5745L12.4337 11.7572L11.1075 11.5035L10.9394 12.8432L10.0157 11.8579L9.09197 12.8432L8.92396 11.5035L7.59779 11.7572L8.24811 10.5744L7.02686 9.99998L8.24814 9.42549L7.59779 8.24275L8.92393 8.49643L9.09201 7.15674L10.0157 8.14205L10.9395 7.15674L11.1075 8.49643L12.4337 8.24275L11.7833 9.42553L13.0046 9.99998Z" fill="#FFDA44"/>
</svg>
