<svg width="21" height="20" viewBox="0 0 21 20" fill="none" xmlns="http://www.w3.org/2000/svg">
<g clip-path="url(#clip0_139_2738)">
<g clip-path="url(#clip1_139_2738)">
<g clip-path="url(#clip2_139_2738)">
<path d="M10.0156 20C15.5385 20 20.0156 15.5228 20.0156 10C20.0156 4.47715 15.5385 0 10.0156 0C4.49278 0 0.015625 4.47715 0.015625 10C0.015625 15.5228 4.49278 20 10.0156 20Z" fill="#FFDA44"/>
<path d="M10.0156 20.0002C13.0465 20.0002 15.7622 18.6516 17.5961 16.522H2.43506C4.26893 18.6516 6.98467 20.0002 10.0156 20.0002Z" fill="#338AF3"/>
<path d="M20.0156 10C20.0156 4.47719 15.5384 0 10.0156 0C4.49281 0 0.015625 4.47719 0.015625 10C0.015625 10.9026 0.135938 11.7769 0.360117 12.6087H19.6712C19.8953 11.7769 20.0156 10.9026 20.0156 10Z" fill="#338AF3"/>
<path d="M0.810547 13.9131C1.00332 14.3661 1.22867 14.8017 1.4834 15.2174H18.5479C18.8027 14.8016 19.028 14.366 19.2209 13.9131H0.810547Z" fill="#338AF3"/>
<path d="M4.59828 6.30715L2.64453 5.44488L4.59828 4.58262L5.46051 2.62891L6.32273 4.58262L8.27645 5.44488L6.32273 6.30715L5.46051 8.26086L4.59828 6.30715Z" fill="#F0F0F0"/>
<path d="M5.46058 3.70557L5.99304 4.91217L7.19968 5.44471L5.99304 5.97721L5.46058 7.18381L4.92804 5.97721L3.72144 5.44471L4.92804 4.91217L5.46058 3.70557Z" fill="#D80027"/>
</g>
</g>
</g>
<defs>
<clipPath id="clip0_139_2738">
<rect width="20" height="20" fill="white" transform="translate(0.015625)"/>
</clipPath>
<clipPath id="clip1_139_2738">
<rect width="20" height="20" fill="white" transform="translate(0.015625)"/>
</clipPath>
<clipPath id="clip2_139_2738">
<rect width="20" height="20" fill="white" transform="translate(0.015625)"/>
</clipPath>
</defs>
</svg>
