<svg width="21" height="21" viewBox="0 0 21 21" fill="none" xmlns="http://www.w3.org/2000/svg">
<g clip-path="url(#clip0_139_2753)">
<g clip-path="url(#clip1_139_2753)">
<g clip-path="url(#clip2_139_2753)">
<path d="M20.0156 10.4897C20.0156 16.0126 15.5384 20.4897 10.0156 20.4897C4.49281 20.4897 0.015625 16.0126 0.015625 10.4897C0.015625 10.4921 10.0156 0.490879 10.0156 0.489746C15.5384 0.489746 20.0156 4.96693 20.0156 10.4897Z" fill="#0052B4"/>
<path d="M9.98877 10.4896H10.0155C10.0155 10.4806 10.0155 10.4719 10.0155 10.4629C10.0066 10.4718 9.99771 10.4807 9.98877 10.4896Z" fill="#F0F0F0"/>
<path d="M10.0156 5.70713C10.0156 3.94756 10.0156 2.79455 10.0156 0.489746H10.0139C4.49187 0.490645 0.015625 4.9674 0.015625 10.4897H5.23301V7.55174L8.17098 10.4897H9.98891C9.99785 10.4808 10.0068 10.4719 10.0157 10.4629C10.0157 9.78924 10.0157 9.18811 10.0157 8.64514L7.07766 5.70713H10.0156Z" fill="#F0F0F0"/>
<path d="M5.07491 1.79395C3.51089 2.68453 2.21065 3.98477 1.32007 5.54879V10.4896H3.92878V4.4027L10.0157 4.40266C10.0157 3.57988 10.0157 2.79605 10.0157 1.79395H5.07491Z" fill="#D80027"/>
<path d="M10.0157 9.25986L6.46288 5.70705H5.23315L10.0157 10.4896H10.0157C10.0157 10.4896 10.0157 9.64174 10.0157 9.25986Z" fill="#D80027"/>
<path d="M6.0467 12.2285L6.59553 13.3761L7.83486 13.0896L7.27986 14.2343L8.2765 15.0246L7.03561 15.3043L7.03908 16.5763L6.0467 15.7805L5.05436 16.5763L5.05783 15.3043L3.81689 15.0246L4.81357 14.2343L4.2585 13.0896L5.49791 13.3761L6.0467 12.2285Z" fill="#F0F0F0"/>
<path d="M14.9877 14.4028L15.2621 14.9766L15.8818 14.8334L15.6042 15.4057L16.1026 15.8009L15.4821 15.9407L15.4839 16.5767L14.9877 16.1788L14.4915 16.5767L14.4932 15.9407L13.8728 15.8009L14.3711 15.4057L14.0936 14.8334L14.7133 14.9766L14.9877 14.4028Z" fill="#F0F0F0"/>
<path d="M12.435 8.31592L12.7094 8.88975L13.3291 8.74646L13.0516 9.31877L13.5499 9.71396L12.9294 9.85381L12.9311 10.4898L12.435 10.0919L11.9388 10.4898L11.9405 9.85381L11.3201 9.71396L11.8184 9.31877L11.5409 8.74646L12.1606 8.88975L12.435 8.31592Z" fill="#F0F0F0"/>
<path d="M14.9877 4.8374L15.2621 5.41123L15.8818 5.26799L15.6043 5.84029L16.1026 6.23545L15.4821 6.37533L15.4839 7.01135L14.9877 6.61342L14.4915 7.01135L14.4932 6.37533L13.8728 6.23545L14.3711 5.84029L14.0936 5.26799L14.7133 5.41123L14.9877 4.8374Z" fill="#F0F0F0"/>
<path d="M17.2175 7.44629L17.4918 8.02012L18.1115 7.87684L17.834 8.44914L18.3323 8.84434L17.7119 8.98422L17.7136 9.62019L17.2175 9.2223L16.7213 9.62019L16.723 8.98422L16.1025 8.84434L16.6009 8.44914L16.3234 7.87684L16.943 8.02012L17.2175 7.44629Z" fill="#F0F0F0"/>
<path d="M15.6231 10.4897L15.8389 11.154H16.5374L15.9723 11.5646L16.1882 12.2289L15.6231 11.8183L15.058 12.2289L15.2738 11.5646L14.7087 11.154H15.4072L15.6231 10.4897Z" fill="#F0F0F0"/>
</g>
</g>
</g>
<defs>
<clipPath id="clip0_139_2753">
<rect width="20" height="20" fill="white" transform="translate(0.015625 0.489746)"/>
</clipPath>
<clipPath id="clip1_139_2753">
<rect width="20" height="20" fill="white" transform="translate(0.015625 0.489746)"/>
</clipPath>
<clipPath id="clip2_139_2753">
<rect width="20" height="20" fill="white" transform="translate(0.015625 0.489746)"/>
</clipPath>
</defs>
</svg>
