<svg width="17" height="18" viewBox="0 0 17 18" fill="none" xmlns="http://www.w3.org/2000/svg">
<path d="M15.9614 10.3223C16.3904 9.52898 16.6762 8.63552 16.7803 7.683C16.7807 7.67998 16.7809 7.67696 16.7813 7.67394C16.8096 7.41164 16.8247 7.14495 16.8247 6.87455C16.8247 5.089 16.1887 3.46041 15.1479 2.23695C15.1313 2.21196 15.1118 2.18916 15.0896 2.16952C14.4135 1.39567 13.5733 0.789641 12.6291 0.417205C12.6122 0.408965 12.5946 0.402099 12.5766 0.397155C11.9073 0.14035 11.187 0 10.4367 0C9.59981 0 8.80008 0.174408 8.06696 0.490676C8.04705 0.497131 8.02791 0.505645 8.00941 0.516082C7.10797 0.915984 6.30964 1.53177 5.67006 2.30314C5.64913 2.32306 5.6305 2.34544 5.6148 2.37016C4.63974 3.57755 4.04865 5.15313 4.04865 6.87455C4.04865 7.13259 4.06243 7.38733 4.08833 7.6381C4.08859 7.64125 4.08897 7.64427 4.08935 7.6473C4.13683 8.1024 4.22577 8.54405 4.35198 8.96799L0.920415 12.6609C0.792805 12.7982 0.792805 13.0208 0.920415 13.1582C0.98422 13.2268 1.0678 13.2612 1.15139 13.2612C1.23497 13.2612 1.31856 13.2268 1.38236 13.1582L4.60809 9.6869C4.69793 9.90155 4.79772 10.1106 4.90682 10.3128C4.91678 10.337 4.92941 10.3597 4.94409 10.3807C5.7539 11.8442 7.05399 12.9582 8.59884 13.4586L6.29752 15.9351C6.17004 16.0724 6.17004 16.295 6.29752 16.4324C6.36132 16.501 6.44504 16.5354 6.52862 16.5354C6.6122 16.5354 6.69579 16.501 6.75959 16.4324L9.34638 13.6484C9.70088 13.7143 10.0651 13.7491 10.4367 13.7491C12.7636 13.7491 14.8037 12.4029 15.9206 10.3963C15.9369 10.3735 15.9507 10.3488 15.9614 10.3223ZM13.1349 10.3362L11.9726 8.41139L12.5906 6.36451L14.0595 6.00951L14.4417 5.91723L16.1117 7.76279C16.0103 8.517 15.7816 9.22754 15.4498 9.86832L13.1349 10.3362ZM8.90089 8.41139L7.73913 10.3352L5.41701 9.85568C5.08433 9.20955 4.85642 8.49269 4.75765 7.73189L6.42985 5.91668L8.28287 6.36451L8.69467 7.72859L8.90089 8.41139ZM5.68167 3.42828L5.97632 5.41035L4.70303 6.79256C4.71822 5.5485 5.07667 4.39191 5.68167 3.42828ZM9.49708 8.11078L8.92003 6.19957L10.4307 5.01855L11.9413 6.19971L11.3643 8.11078H9.49708ZM16.1707 6.82016L14.8908 5.40568L15.117 3.31224C15.7717 4.30554 16.1601 5.51513 16.1707 6.82016ZM14.5398 2.56778L14.2507 5.24281L13.5478 5.41254L12.4099 5.68748L10.7694 4.40482V2.50158L12.5424 1.13406C13.3005 1.45733 13.9795 1.9498 14.5398 2.56778ZM11.7631 0.870116L10.4229 1.90379L8.92884 0.920103C9.40954 0.778929 9.91501 0.703124 10.4367 0.703124C10.8931 0.703124 11.3372 0.761077 11.7631 0.870116ZM8.136 1.22223L10.104 2.51806V4.40482L8.94683 5.30955L8.46357 5.68748L6.61271 5.24033L6.23244 2.68231C6.76393 2.06543 7.41079 1.56541 8.136 1.22223ZM5.92222 10.6759L7.68489 11.0401L8.58263 12.7147C7.52206 12.3238 6.60072 11.607 5.92222 10.6759ZM9.46697 12.9573L8.27624 10.7361L9.43698 8.8139H11.4364L12.5971 10.7361L11.4066 12.9571C11.0912 13.0152 10.7672 13.0458 10.4367 13.0458C10.1062 13.046 9.78229 13.0153 9.46697 12.9573ZM12.2909 12.7147L13.1881 11.0408L14.944 10.6858C14.2663 11.6121 13.3477 12.3251 12.2909 12.7147Z" fill="#EAE9EC"/>
<path d="M5.11079 12.661L0.108719 17.3999C-0.0362396 17.5373 -0.0362396 17.7599 0.108719 17.8972C0.181198 17.9657 0.276145 18.0001 0.371093 18.0001C0.466041 18.0001 0.560988 17.9657 0.633468 17.8971L5.63569 13.1583C5.7805 13.0209 5.7805 12.7983 5.63569 12.661C5.49073 12.5238 5.25575 12.5238 5.11079 12.661Z" fill="#EAE9EC"/>
<path d="M6.16553 16.9106C6.06797 16.9106 5.9723 16.9483 5.9033 17.0136C5.8343 17.079 5.79443 17.1696 5.79443 17.2625C5.79443 17.3549 5.83415 17.4453 5.9033 17.5108C5.9723 17.5766 6.06797 17.614 6.16553 17.614C6.26323 17.614 6.3589 17.5766 6.4279 17.5108C6.4969 17.4454 6.53662 17.3549 6.53662 17.2625C6.53662 17.1696 6.49705 17.079 6.4279 17.0136C6.3589 16.9483 6.26323 16.9106 6.16553 16.9106Z" fill="#6EA9FA"/>
</svg>
