<svg width="16" height="16" viewBox="0 0 16 16" fill="none" xmlns="http://www.w3.org/2000/svg">
<path d="M14.5631 7.42183H13.6466C13.7574 7.01866 13.8134 6.60267 13.8131 6.18485C13.8131 3.59297 11.6823 1.48433 9.06311 1.48433C6.44395 1.48433 4.31311 3.59297 4.31311 6.18485C4.31282 6.60267 4.36881 7.01866 4.47961 7.42183H2.56311V0.494751H0.56311V15.3385H2.56311V11.875H3.76807L4.26807 9.401H4.84994L5.81625 15.3776L6.30997 15.2994L6.07629 13.8541H7.44231L7.5639 15.3582L8.06232 15.3188L7.94391 13.8541H9.31311V15.3385H9.81311V13.8541H11.1823L11.0639 15.3188L11.5623 15.3582L11.6839 13.8541H13.0499L12.8163 15.2994L13.31 15.3776L14.2763 9.401H14.5631C14.8283 9.401 15.0827 9.29674 15.2702 9.11116C15.4578 8.92558 15.5631 8.67387 15.5631 8.41142C15.5631 8.14896 15.4578 7.89726 15.2702 7.71168C15.0827 7.52609 14.8283 7.42183 14.5631 7.42183ZM2.06311 14.8437H1.06311V0.989543H2.06311V14.8437ZM13.3131 6.18485C13.3131 6.25504 13.3112 6.325 13.3077 6.39474C12.2769 6.22506 11.3173 5.76486 10.544 5.06929L12.2383 3.39261C12.9313 4.16094 13.3139 5.155 13.3131 6.18485ZM9.41667 6.18485L10.1899 5.41963C11.0446 6.19441 12.1098 6.70466 13.2541 6.88744C13.2234 7.06815 13.1807 7.24667 13.1263 7.42183H10.6667L9.41667 6.18485ZM9.95955 7.42183H8.39969C8.36356 7.38066 8.32698 7.34 8.28993 7.29986L9.06311 6.53473L9.95955 7.42183ZM9.06311 1.97913C10.1038 1.97832 11.1083 2.35697 11.8848 3.04273L10.1904 4.71941C9.48749 3.95414 9.02245 3.00453 8.85101 1.98437C8.92128 1.98094 8.99199 1.97919 9.06311 1.97913ZM8.35322 2.03812C8.53799 3.17026 9.05358 4.22413 9.83639 5.06975L9.06311 5.83498L6.24147 3.04273C6.83598 2.51811 7.56788 2.16993 8.35322 2.03812ZM5.88791 3.39261L8.70955 6.18485L7.93645 6.9499C7.08402 6.17208 6.01804 5.66131 4.8728 5.48193C5.00606 4.70493 5.35787 3.98082 5.88791 3.39261ZM4.81842 5.97467C5.85044 6.1411 6.81103 6.6017 7.58258 7.30008L7.45955 7.42183H4.99988C4.87561 7.02104 4.81266 6.60409 4.81311 6.18485C4.81311 6.11438 4.81488 6.04431 4.81842 5.97467ZM3.35815 11.3802H2.56311V9.401H3.75815L3.35815 11.3802ZM5.35628 9.401H5.59924C6.04238 9.86773 6.57714 10.24 7.17076 10.4951L7.26231 11.6276H5.71629L5.35628 9.401ZM6.32535 9.401H7.08231L7.12483 9.92699C6.83915 9.78205 6.57096 9.60559 6.32535 9.401ZM5.99628 13.3593L5.79628 12.1224H7.30231L7.40231 13.3593H5.99628ZM9.31311 13.3593H7.90391L7.80391 12.1224H9.31311V13.3593ZM9.31311 11.6276H7.76391L7.68757 10.6832C8.13355 10.8171 8.59705 10.8853 9.06311 10.8854C9.1467 10.8854 9.23003 10.8832 9.31311 10.8788V11.6276ZM9.31311 10.383C9.23008 10.3879 9.14674 10.3906 9.06311 10.3906C8.57972 10.3905 8.0999 10.3087 7.64435 10.1487L7.58391 9.401H9.31311V10.383ZM11.2223 13.3593H9.81311V12.1224H11.3223L11.2223 13.3593ZM11.3623 11.6276H9.81311V10.8262C10.3996 10.7329 10.9633 10.5318 11.475 10.2332L11.3623 11.6276ZM11.5253 9.61199C11.0144 9.97104 10.4298 10.2142 9.81311 10.3241V9.401H11.5423L11.5253 9.61199ZM13.1299 13.3593H11.7239L11.8239 12.1224H13.3299L13.1299 13.3593ZM13.4099 11.6276H11.8639L12.0057 9.87385C12.1911 9.72929 12.3653 9.57123 12.527 9.401H13.7699L13.4099 11.6276ZM14.5631 8.90621H2.56311V7.91663H14.5631C14.6957 7.91663 14.8229 7.96876 14.9167 8.06155C15.0104 8.15434 15.0631 8.28019 15.0631 8.41142C15.0631 8.54264 15.0104 8.6685 14.9167 8.76129C14.8229 8.85408 14.6957 8.90621 14.5631 8.90621Z" fill="#EAE9EC"/>
<path d="M13.8842 4.27869L15.134 3.04188L15.4875 3.3917L14.2377 4.6285L13.8842 4.27869Z" fill="#EAE9EC"/>
<path d="M13.1344 2.54712L14.3842 1.31032L14.7377 1.66013L13.4879 2.89694L13.1344 2.54712Z" fill="#EAE9EC"/>
<path d="M11.6346 1.31018L12.6345 0.320743L12.988 0.670561L11.9881 1.66L11.6346 1.31018Z" fill="#EAE9EC"/>
<path d="M5.6355 1.55713L6.88532 0.320327L7.23882 0.670144L5.989 1.90695L5.6355 1.55713Z" fill="#EAE9EC"/>
</svg>
