<svg width="21" height="23" viewBox="0 0 21 23" fill="none" xmlns="http://www.w3.org/2000/svg">
<path d="M16.7207 0C15.7739 0 14.8489 0.328693 14.1161 0.925525C13.4857 1.43894 13.0196 2.13073 12.7795 2.9002C12.1031 2.72384 11.394 2.62973 10.6632 2.62973C6.03543 2.62973 2.27048 6.39467 2.27048 11.0224C2.27048 11.317 2.28684 11.6132 2.31734 11.905C1.02898 12.6041 0.152283 13.9691 0.152283 15.5351C0.152283 17.8108 2.00369 19.6622 4.27935 19.6622C4.41173 19.6622 4.54416 19.6552 4.67578 19.6427C5.03745 21.5518 6.71793 23 8.73061 23C10.921 23 12.718 21.2847 12.8496 19.1269C14.5585 18.666 16.1012 17.6578 17.2155 16.2674C18.4023 14.7867 19.0559 12.9239 19.0559 11.0224C19.0559 9.91089 18.8382 8.84938 18.444 7.87759C19.1129 7.57037 19.6857 7.09213 20.1101 6.48236C20.5927 5.78913 20.8478 4.97465 20.8478 4.12711C20.8477 1.85141 18.9964 0 16.7207 0ZM4.2793 18.9941C2.37201 18.9941 0.820271 17.4424 0.820271 15.5351C0.820271 13.6278 2.37201 12.0761 4.2793 12.0761C5.94891 12.0761 7.36844 13.2669 7.67607 14.8826C7.30798 14.9799 6.95997 15.127 6.63949 15.3161V14.9911C6.63949 14.4417 6.19252 13.9946 5.64308 13.9946C5.09369 13.9946 4.64667 14.4416 4.64667 14.9911V16.0504C4.64667 16.4017 4.82708 16.715 5.11022 16.8931C4.78732 17.4813 4.60341 18.156 4.60341 18.8729C4.60341 18.9082 4.60386 18.9435 4.60476 18.9786C4.49677 18.9886 4.38801 18.9941 4.2793 18.9941ZM4.35791 11.0224C4.35791 7.54575 7.18642 4.7172 10.6631 4.7172C14.1398 4.7172 16.9684 7.54571 16.9684 11.0224C16.9684 13.8397 15.1216 16.2889 12.4439 17.0729C11.7741 15.6966 10.3613 14.7458 8.73056 14.7458C8.59665 14.7458 8.46427 14.7525 8.33359 14.765C8.06904 13.361 7.10152 12.2255 5.82663 11.7094C5.8216 11.6739 5.81671 11.6383 5.81248 11.6028C5.78917 11.4081 5.77735 11.2107 5.77735 11.0159C5.77735 10.931 5.7796 10.8449 5.78409 10.7602C5.79375 10.576 5.65229 10.4188 5.46807 10.4092C5.2833 10.3987 5.12662 10.541 5.11696 10.7252C5.11188 10.8215 5.10932 10.9193 5.10932 11.0159C5.10932 11.1756 5.11655 11.3368 5.13039 11.4973C4.88381 11.4454 4.62965 11.4157 4.37 11.4101C4.36218 11.2811 4.35791 11.1514 4.35791 11.0224ZM5.47894 16.3341C5.37939 16.2769 5.31479 16.1708 5.31479 16.0504V14.991C5.31479 14.8099 5.46209 14.6627 5.64313 14.6627C5.82421 14.6627 5.97146 14.8099 5.97146 14.991V15.8064C5.79245 15.9677 5.62754 16.1442 5.47894 16.3341ZM8.73056 22.3319C6.82323 22.3319 5.27153 20.7802 5.27153 18.8729C5.27153 16.9656 6.82327 15.4139 8.73056 15.4139C10.6379 15.4139 12.1896 16.9656 12.1896 18.8729C12.1896 20.7802 10.6379 22.3319 8.73056 22.3319ZM12.8347 18.4377C12.8079 18.1832 12.7578 17.9356 12.6867 17.697C14.0339 17.2878 15.2454 16.466 16.1272 15.3555C17.1146 14.112 17.6365 12.6136 17.6365 11.0225C17.6365 7.17739 14.5082 4.04921 10.6632 4.04921C6.8181 4.04921 3.68988 7.17739 3.68988 11.0225C3.68988 11.1641 3.69455 11.3067 3.70309 11.4485C3.44807 11.4843 3.20041 11.5432 2.96246 11.6235C2.94714 11.4238 2.93856 11.2228 2.93856 11.0225C2.93856 6.76312 6.40383 3.29785 10.6632 3.29785C14.9225 3.29785 18.3878 6.76312 18.3878 11.0225C18.3878 14.4878 16.124 17.4812 12.8347 18.4377ZM18.1683 7.26921C17.666 6.26885 16.9698 5.38213 16.1289 4.65885L16.7917 3.15113C16.8371 3.04786 16.8273 2.92859 16.7656 2.83412C16.704 2.73965 16.5988 2.68269 16.4859 2.68269H15.3029C15.1184 2.68269 14.9689 2.83223 14.9689 3.01673C14.9689 3.20122 15.1184 3.35077 15.3029 3.35077H15.9742L15.5873 4.23065C14.9296 3.75246 14.2002 3.36739 13.4183 3.09489C13.8639 1.67231 15.2076 0.668123 16.7206 0.668123C18.6279 0.668123 20.1796 2.21986 20.1796 4.12715C20.1797 5.49399 19.3968 6.70526 18.1683 7.26921Z" fill="#EAE9EC"/>
<path d="M18.0976 2.65967C17.5705 2.65967 17.1417 3.08849 17.1417 3.61552V4.61C17.1417 5.13711 17.5705 5.56589 18.0976 5.56589C18.6246 5.56589 19.0534 5.13706 19.0534 4.61V3.61552C19.0534 3.08845 18.6246 2.65967 18.0976 2.65967ZM18.3854 4.61C18.3854 4.76871 18.2563 4.89786 18.0976 4.89786C17.9388 4.89786 17.8097 4.76871 17.8097 4.61V3.61552C17.8097 3.45681 17.9388 3.3277 18.0976 3.3277C18.2563 3.3277 18.3854 3.45681 18.3854 3.61552V4.61Z" fill="#EAE9EC"/>
<path d="M12.722 15.4543C12.5547 15.532 12.4821 15.7306 12.5598 15.8979C12.6376 16.0669 12.8399 16.1372 13.0034 16.0602C13.3812 15.8848 13.7398 15.6659 14.0693 15.4096C14.2149 15.2964 14.2411 15.0865 14.1279 14.9409C14.0146 14.7952 13.8047 14.769 13.6592 14.8823C13.3694 15.1077 13.0541 15.3001 12.722 15.4543Z" fill="#EAE9EC"/>
<path d="M14.9189 8.62083C15.0102 8.78295 15.2164 8.83726 15.374 8.74738C15.5347 8.65663 15.5913 8.45287 15.5006 8.29227C15.296 7.92998 15.0495 7.58996 14.7681 7.28171C14.6437 7.14546 14.4324 7.13576 14.2962 7.26024C14.16 7.38458 14.1503 7.59589 14.2747 7.73214C14.5223 8.00324 14.739 8.30229 14.9189 8.62083Z" fill="#EAE9EC"/>
<path d="M12.1858 6.37923C12.5336 6.49351 12.8695 6.64777 13.184 6.83757C13.3394 6.93199 13.5467 6.88343 13.6426 6.72414C13.7379 6.56615 13.6871 6.3609 13.5291 6.26553C13.1716 6.04982 12.7898 5.87453 12.3944 5.74457C12.2191 5.68698 12.0304 5.78231 11.9728 5.95759C11.9152 6.13283 12.0106 6.32164 12.1858 6.37923Z" fill="#EAE9EC"/>
<path d="M15.6089 12.7269C15.4388 12.6557 15.243 12.7358 15.1718 12.906C15.0303 13.2438 14.8501 13.5665 14.6363 13.8652C14.5288 14.0152 14.5634 14.2239 14.7134 14.3312C14.8618 14.4379 15.0715 14.4051 15.1795 14.2541C15.4224 13.9147 15.6271 13.548 15.7879 13.1641C15.8592 12.994 15.7791 12.7982 15.6089 12.7269Z" fill="#EAE9EC"/>
<path d="M15.4264 9.93572C15.4641 10.1017 15.4935 10.272 15.5138 10.4421C15.5372 10.6368 15.549 10.8343 15.549 11.029C15.549 11.1994 15.5399 11.3716 15.5221 11.5406C15.5001 11.7365 15.6578 11.9111 15.8547 11.9098C16.0234 11.9098 16.1683 11.7824 16.1864 11.6109C16.2067 11.4185 16.2171 11.2228 16.2171 11.029C16.2171 10.8079 16.2036 10.5837 16.1772 10.3627C16.1541 10.1697 16.1207 9.97633 16.078 9.78793C16.0372 9.60806 15.8582 9.49526 15.6784 9.53605C15.4984 9.57684 15.3856 9.75576 15.4264 9.93572Z" fill="#EAE9EC"/>
<path d="M5.6345 9.58019C5.80358 9.64213 5.99962 9.55373 6.06161 9.3784C6.18511 9.03376 6.34808 8.70201 6.54605 8.39254C6.64542 8.23716 6.60005 8.03061 6.44462 7.93115C6.28919 7.83165 6.08264 7.87711 5.98323 8.03258C5.75826 8.38428 5.57305 8.76126 5.43266 9.15312C5.37049 9.32678 5.46083 9.51801 5.6345 9.58019Z" fill="#EAE9EC"/>
<path d="M9.63627 6.23889C9.65793 6.23889 9.67989 6.23682 9.70195 6.23242C9.82724 6.2074 9.9554 6.187 10.0828 6.17173C10.3203 6.14329 10.5609 6.13215 10.7972 6.13822C10.9799 6.14388 11.135 5.99743 11.1398 5.81298C11.1445 5.62858 10.9989 5.47521 10.8145 5.47041C10.5463 5.46331 10.273 5.47611 10.0033 5.50837C9.85882 5.52566 9.71345 5.54884 9.57132 5.57719C9.39042 5.6133 9.27299 5.78917 9.30906 5.97012C9.34069 6.12901 9.48022 6.23889 9.63627 6.23889Z" fill="#EAE9EC"/>
<path d="M7.25029 7.40712C7.32774 7.40712 7.40559 7.38035 7.46879 7.32563C7.74628 7.08543 8.05085 6.87664 8.3741 6.70513C8.53708 6.61865 8.59907 6.41646 8.5126 6.25348C8.42612 6.0905 8.22389 6.02847 8.061 6.11499C7.69336 6.31004 7.34697 6.54745 7.03152 6.82057C6.89204 6.94132 6.8769 7.15228 6.99765 7.29176C7.06364 7.36804 7.15672 7.40712 7.25029 7.40712Z" fill="#EAE9EC"/>
<path d="M9.45034 13.9865C9.49256 14.0042 9.53636 14.0126 9.57949 14.0126C9.70999 14.0126 9.83392 13.9356 9.88761 13.8078L12.1271 8.47153C12.1985 8.30141 12.1185 8.10564 11.9484 8.03426C11.7781 7.96292 11.5825 8.04297 11.5111 8.213L9.27159 13.5493C9.20021 13.7194 9.28022 13.9151 9.45034 13.9865Z" fill="#EAE9EC"/>
<path d="M7.82733 9.24343C7.82733 10.0617 8.42106 10.7273 9.15091 10.7273C9.88076 10.7273 10.4745 10.0617 10.4745 9.24343C10.4745 8.42517 9.88076 7.75952 9.15091 7.75952C8.42106 7.75952 7.82733 8.42517 7.82733 9.24343ZM9.15091 8.42755C9.51235 8.42755 9.80641 8.79353 9.80641 9.24343C9.80641 9.69327 9.51235 10.0593 9.15091 10.0593C8.78947 10.0593 8.49541 9.69332 8.49541 9.24343C8.49537 8.79358 8.78942 8.42755 9.15091 8.42755Z" fill="#EAE9EC"/>
<path d="M13.499 12.8919C13.499 12.0736 12.9053 11.408 12.1755 11.408C11.4457 11.408 10.8519 12.0736 10.8519 12.8919C10.8519 13.7101 11.4457 14.3758 12.1755 14.3758C12.9053 14.3758 13.499 13.7101 13.499 12.8919ZM12.1755 13.7077C11.814 13.7077 11.52 13.3418 11.52 12.8919C11.52 12.442 11.814 12.076 12.1755 12.076C12.5369 12.076 12.831 12.442 12.831 12.8919C12.831 13.3418 12.5369 13.7077 12.1755 13.7077Z" fill="#EAE9EC"/>
<path d="M3.58164 14.0414H3.09203C2.90754 14.0414 2.758 14.1909 2.758 14.3754C2.758 14.5599 2.90754 14.7095 3.09203 14.7095H3.2476V16.666C3.2476 16.8505 3.39714 17 3.58164 17C3.76613 17 3.91568 16.8505 3.91568 16.666V14.3754C3.91568 14.1909 3.76613 14.0414 3.58164 14.0414Z" fill="#EAE9EC"/>
<path d="M8.67807 19.6302C8.67667 19.6302 8.67519 19.6302 8.6738 19.6302C8.52205 19.6321 8.36325 19.6336 8.21618 19.6344C8.32287 19.4893 8.45638 19.3041 8.62128 19.0685C8.80021 18.8024 8.90474 18.5974 8.92087 18.327C8.92087 17.8393 8.52416 17.4426 8.03658 17.4426C7.61499 17.4426 7.25004 17.7426 7.16887 18.1559C7.13329 18.337 7.25121 18.5125 7.43225 18.5481C7.61306 18.5836 7.78879 18.4657 7.82437 18.2847C7.84418 18.1839 7.9334 18.1107 8.03654 18.1107C8.16088 18.1095 8.2717 18.2247 8.24726 18.3487C8.22912 18.4172 8.18406 18.528 8.07387 18.6854C7.73439 19.1705 7.53184 19.4357 7.42304 19.5781C7.28306 19.7614 7.19861 19.872 7.25382 20.0516C7.28643 20.1576 7.36963 20.2422 7.47667 20.2778C7.52119 20.2927 8.37179 20.3021 8.68211 20.2982C8.86656 20.2959 9.01422 20.1445 9.01192 19.96C9.00968 19.777 8.86058 19.6302 8.67807 19.6302Z" fill="#EAE9EC"/>
<path d="M10.367 17.4302C9.8399 17.4302 9.41107 17.859 9.41107 18.3861V19.3805C9.41107 19.9076 9.8399 20.3364 10.367 20.3364C10.894 20.3364 11.3229 19.9076 11.3229 19.3805V18.3861C11.3229 17.859 10.8941 17.4302 10.367 17.4302ZM10.6548 19.3805C10.6548 19.5393 10.5257 19.6684 10.367 19.6684C10.2083 19.6684 10.0792 19.5393 10.0792 19.3805V18.3861C10.0792 18.2274 10.2083 18.0982 10.367 18.0982C10.5257 18.0982 10.6548 18.2274 10.6548 18.3861V19.3805Z" fill="#EAE9EC"/>
<path d="M6.70779 18.6824H6.25951C6.07502 18.6824 5.92548 18.8319 5.92548 19.0164C5.92548 19.2009 6.07502 19.3505 6.25951 19.3505H6.70779C6.89228 19.3505 7.04183 19.2009 7.04183 19.0164C7.04183 18.8319 6.89224 18.6824 6.70779 18.6824Z" fill="#EAE9EC"/>
</svg>
