<svg width="16" height="18" viewBox="0 0 16 18" fill="none" xmlns="http://www.w3.org/2000/svg">
<path d="M7.92848 11.625C8.03708 11.6494 8.14901 11.6194 8.23999 11.5413C8.33097 11.4632 8.39364 11.3435 8.41442 11.208C8.44192 11.031 8.45604 10.8512 8.4566 10.6709C8.4566 9.43848 7.83824 8.36865 6.93942 7.84814C7.13631 7.63258 7.29412 7.36696 7.40231 7.06904C7.51049 6.77113 7.56656 6.44778 7.56676 6.12061C7.56676 4.84326 6.72574 3.8042 5.69176 3.8042C4.65778 3.8042 3.81676 4.84326 3.81676 6.12061C3.81701 6.45075 3.87411 6.77696 3.98418 7.07707C4.09424 7.37718 4.2547 7.64416 4.45465 7.85986C3.5652 8.38379 2.95465 9.44727 2.95465 10.6719C2.9555 10.8513 2.96949 11.0303 2.99645 11.2065C3.01421 11.3261 3.06485 11.4342 3.13961 11.512C3.21436 11.5898 3.30853 11.6326 3.40582 11.6328C3.43125 11.633 3.45664 11.6301 3.4816 11.624C3.53545 11.6116 3.58681 11.5861 3.63275 11.5489C3.6787 11.5117 3.71833 11.4635 3.74938 11.4071C3.78043 11.3508 3.80229 11.2873 3.81372 11.2204C3.82515 11.1535 3.82591 11.0844 3.81598 11.0171C3.79826 10.9033 3.78885 10.7878 3.78785 10.6719C3.78785 9.50391 4.64723 8.5542 5.70621 8.5542C6.7652 8.5542 7.62418 9.50391 7.62418 10.6719C7.6233 10.7876 7.61388 10.903 7.59606 11.0166C7.58588 11.0838 7.5864 11.1529 7.5976 11.2199C7.60881 11.2869 7.63046 11.3505 7.66134 11.407C7.69222 11.4635 7.7317 11.5118 7.77754 11.5492C7.82338 11.5866 7.87467 11.6124 7.92848 11.625ZM5.69176 4.84766C6.26598 4.84766 6.73356 5.41992 6.73356 6.12256C6.73356 6.8252 6.26481 7.39795 5.69176 7.39795C5.11871 7.39795 4.64996 6.82471 4.64996 6.12158C4.64996 5.41846 5.11871 4.84668 5.69176 4.84668V4.84766Z" fill="#EAE9EC"/>
<path d="M13.1675 4.66499L10.4148 8.02241L9.45463 6.82075C9.37587 6.72702 9.27092 6.67547 9.16218 6.67711C9.05344 6.67876 8.94952 6.73346 8.8726 6.82955C8.79568 6.92564 8.75185 7.0555 8.75046 7.19143C8.74907 7.32735 8.79024 7.45857 8.86518 7.55708L10.4085 9.48628L13.7503 5.4106C13.8294 5.31418 13.8747 5.18244 13.876 5.04435C13.8774 4.90627 13.8349 4.77314 13.7578 4.67427C13.6806 4.5754 13.5752 4.51887 13.4648 4.51713C13.3543 4.51539 13.2478 4.56858 13.1687 4.66499H13.1675Z" fill="#EAE9EC"/>
<path d="M15.4836 4.85449C15.594 4.85436 15.6999 4.79941 15.778 4.70172C15.8561 4.60403 15.9 4.47159 15.9 4.3335V2.771C15.8995 2.21866 15.7239 1.68909 15.4115 1.29849C15.099 0.90788 14.6754 0.688146 14.2336 0.6875H2.56676C2.12486 0.688146 1.7012 0.907864 1.38873 1.29846C1.07625 1.68905 0.90048 2.21862 0.899963 2.771V12.667C0.90048 13.2193 1.07627 13.7488 1.38875 14.1394C1.70124 14.5299 2.12489 14.7495 2.56676 14.75H5.77535C5.83015 14.7499 5.88442 14.7633 5.93504 14.7896C5.98565 14.8158 6.03162 14.8543 6.07028 14.9028L7.81051 17.0781C7.88792 17.1749 7.97981 17.2516 8.08095 17.304C8.18209 17.3564 8.29049 17.3833 8.39996 17.3833C8.50944 17.3833 8.61784 17.3564 8.71897 17.304C8.82011 17.2516 8.91201 17.1749 8.98942 17.0781L10.7297 14.9028C10.8079 14.8054 10.9137 14.7505 11.0242 14.75H14.2336C14.6754 14.7494 15.0989 14.5297 15.4113 14.1392C15.7237 13.7487 15.8994 13.2192 15.9 12.667V6.9375C15.8966 6.80215 15.8513 6.67373 15.7735 6.57945C15.6958 6.48518 15.5917 6.43245 15.4834 6.43245C15.375 6.43245 15.271 6.48518 15.1932 6.57945C15.1154 6.67373 15.0701 6.80215 15.0668 6.9375V12.667C15.0665 12.9431 14.9786 13.2078 14.8224 13.403C14.6662 13.5983 14.4544 13.7081 14.2336 13.7085H11.0242C10.8601 13.7077 10.6976 13.7476 10.5459 13.8258C10.3943 13.904 10.2565 14.0189 10.1406 14.1641L8.39996 16.3418L6.65934 14.1641C6.5435 14.0185 6.40573 13.9032 6.254 13.8246C6.10226 13.7461 5.93958 13.706 5.77535 13.7065H2.56676C2.34584 13.7063 2.13404 13.5965 1.97783 13.4012C1.82161 13.2059 1.73376 12.9412 1.73356 12.665V2.771C1.73376 2.49485 1.82161 2.23009 1.97783 2.03483C2.13404 1.83956 2.34584 1.72975 2.56676 1.72949H14.2336C14.4544 1.72988 14.6662 1.83973 14.8224 2.03497C14.9786 2.23021 15.0665 2.49489 15.0668 2.771V4.3335C15.0668 4.47167 15.1107 4.60419 15.1888 4.7019C15.267 4.7996 15.373 4.85449 15.4836 4.85449Z" fill="#EAE9EC"/>
</svg>
