<svg width="19" height="18" viewBox="0 0 19 18" fill="none" xmlns="http://www.w3.org/2000/svg">
<path d="M16.8618 8.07933V5.16735C16.8618 4.3627 16.1639 3.7081 15.3059 3.7081C14.8962 3.7081 14.9501 3.81632 14.9501 3.66679C14.9501 2.82979 14.1927 2.15066 13.2823 2.21173C11.4939 0.343551 8.73397 -0.424957 6.14716 0.230549C1.73605 1.3485 -0.44659 6.07424 1.78282 9.87248C3.05608 12.0416 5.55893 13.4099 8.26774 13.3102C8.59154 14.1424 9.16376 14.4443 9.86608 15.1618C9.95189 15.2424 9.92639 15.1288 9.92639 17.4256C9.92639 17.7357 10.1942 17.9874 10.5249 17.9881C16.252 18.0015 15.6135 18.0001 15.6628 18.0001C15.9936 18.0001 16.2629 17.7487 16.2629 17.4375C16.2806 15.2958 16.2233 15.3743 16.3125 15.2767L17.2934 14.2032C17.9432 13.4921 18.301 12.5847 18.301 11.6482V9.66835C18.301 8.86915 17.677 8.20411 16.8618 8.07933ZM8.09458 10.925V12.1896C6.2641 12.2181 4.50228 11.4397 3.35851 10.0716C5.53384 9.81852 7.80814 9.19282 9.92642 8.26402V9.16529C8.91155 9.1878 8.09458 9.96921 8.09458 10.925ZM12.1801 2.75568C11.783 3.2201 11.8444 3.7112 11.8382 3.7466C10.852 3.52946 9.92642 4.23989 9.92642 5.16731V7.01391C7.60067 8.10454 5.04911 8.80548 2.66166 9.01024C2.54886 8.78501 2.45307 8.55528 2.37225 8.31388C4.71882 7.62779 8.68496 4.84083 9.84088 1.40276C10.7171 1.67306 11.5224 2.13733 12.1801 2.75568ZM8.66111 1.1609C7.72255 3.77118 4.80935 6.22153 2.12972 7.19997C1.76193 3.71967 4.91984 0.762577 8.66111 1.1609ZM17.1009 11.6481C17.1009 12.3164 16.8456 12.9639 16.382 13.4713L15.4012 14.5447C15.183 14.7834 15.0628 15.0881 15.0628 15.4025V16.8735L11.1265 16.8644V15.2985C11.1265 14.9464 10.9804 14.6154 10.7149 14.3665L9.78252 13.4918C9.49292 13.2202 9.33301 12.8769 9.30061 12.5149C9.28778 12.3654 9.29888 12.3455 9.29468 10.9249C9.29468 10.589 9.57427 10.3139 9.92642 10.292V11.2C9.92642 11.5107 10.1951 11.7625 10.5265 11.7625C10.8579 11.7625 11.1265 11.5107 11.1265 11.2C11.1265 4.59102 11.1035 5.11011 11.1785 4.9944C11.3175 4.77979 11.647 4.77944 11.7863 4.9944C11.8845 5.14604 11.8191 5.05238 11.8382 8.78832C11.8382 9.09902 12.1069 9.35086 12.4383 9.35086C12.7697 9.35086 13.0383 9.09902 13.0383 8.78832C13.0383 3.29309 13.0326 3.64535 13.0504 3.58178C13.1596 3.19752 13.75 3.28514 13.75 3.66676V8.88377C13.75 9.19448 14.0186 9.44632 14.3501 9.44632C14.6815 9.44632 14.9501 9.19448 14.9501 8.88377V5.16735C14.9501 4.98312 15.1098 4.8332 15.3059 4.8332C15.5021 4.8332 15.6618 4.98312 15.6618 5.16735V8.62089C15.6618 8.93159 15.9304 9.18344 16.2618 9.18344H16.5844C16.8693 9.18344 17.101 9.401 17.101 9.66835V11.6481H17.1009Z" fill="#EAE9EC"/>
</svg>
