<svg width="18" height="18" viewBox="0 0 18 18" fill="none" xmlns="http://www.w3.org/2000/svg">
<path d="M10.917 11.7127C9.58496 11.7127 8.31696 11.2527 7.37296 10.3047C5.27296 8.20471 5.55696 4.49671 8.01296 2.04471C10.465 -0.407293 14.173 -0.695293 16.273 1.40471C18.373 3.50471 18.089 7.21271 15.633 9.66471C14.281 11.0167 12.549 11.7127 10.917 11.7127ZM12.725 0.400707C11.197 0.400707 9.56496 1.05671 8.29296 2.32871C5.99696 4.62471 5.70896 8.07671 7.65296 10.0247C9.59696 11.9687 13.049 11.6847 15.349 9.38471C17.645 7.08871 17.933 3.63671 15.989 1.68871C15.121 0.824707 13.957 0.400707 12.725 0.400707Z" fill="#EAE9EC"/>
<path d="M10.917 10.5408C9.88899 10.5408 8.92099 10.1928 8.20499 9.47676C6.56499 7.83676 6.84899 4.87675 8.84499 2.88475C9.80499 1.92475 11.017 1.32475 12.253 1.20075C13.505 1.07275 14.637 1.44475 15.437 2.24475C16.237 3.04475 16.609 4.17675 16.481 5.42875C16.357 6.66475 15.757 7.87676 14.797 8.83676C13.677 9.95676 12.245 10.5408 10.917 10.5408ZM12.729 1.57275C12.585 1.57275 12.441 1.58075 12.293 1.59675C11.145 1.71275 10.021 2.26875 9.12499 3.16475C7.28499 5.00476 7.00099 7.70876 8.48499 9.19275C9.96899 10.6768 12.673 10.3928 14.513 8.55275C15.409 7.65675 15.965 6.53275 16.081 5.38476C16.197 4.25275 15.865 3.23675 15.153 2.52475C14.533 1.90075 13.685 1.57275 12.729 1.57275Z" fill="#EAE9EC"/>
<path d="M7.36504 6.44868C7.31304 6.44868 7.26104 6.42868 7.22504 6.38868C7.14504 6.30868 7.14504 6.18468 7.22504 6.10468L12.073 1.26068C12.153 1.18068 12.277 1.18068 12.357 1.26068C12.437 1.34068 12.437 1.46468 12.357 1.54468L7.50504 6.39268C7.46904 6.42868 7.41704 6.44868 7.36504 6.44868Z" fill="#EAE9EC"/>
<path d="M7.56096 8.2847C7.50896 8.2847 7.45696 8.2647 7.42096 8.2247C7.34096 8.1447 7.34096 8.0207 7.42096 7.9407L13.909 1.4527C13.989 1.3727 14.113 1.3727 14.193 1.4527C14.273 1.5327 14.273 1.6567 14.193 1.7367L7.70096 8.2287C7.66096 8.2647 7.61296 8.2847 7.56096 8.2847Z" fill="#EAE9EC"/>
<path d="M8.34502 9.53266C8.29302 9.53266 8.24102 9.51266 8.20502 9.47266C8.12502 9.39266 8.12502 9.26866 8.20502 9.18866L15.153 2.24066C15.233 2.16066 15.357 2.16066 15.437 2.24066C15.517 2.32066 15.517 2.44466 15.437 2.52466L8.48902 9.47266C8.44902 9.51266 8.39702 9.53266 8.34502 9.53266Z" fill="#EAE9EC"/>
<path d="M9.59294 10.3167C9.54094 10.3167 9.48894 10.2967 9.45294 10.2567C9.37294 10.1767 9.37294 10.0527 9.45294 9.97268L15.9409 3.48468C16.0209 3.40468 16.1449 3.40468 16.2249 3.48468C16.3049 3.56468 16.3049 3.68868 16.2249 3.76868L9.73294 10.2607C9.69294 10.2967 9.64094 10.3167 9.59294 10.3167Z" fill="#EAE9EC"/>
<path d="M11.429 10.5127C11.377 10.5127 11.325 10.4927 11.289 10.4527C11.209 10.3727 11.209 10.2487 11.289 10.1687L16.137 5.32074C16.217 5.24074 16.341 5.24074 16.421 5.32074C16.501 5.40074 16.501 5.52474 16.421 5.60474L11.569 10.4527C11.529 10.4927 11.481 10.5127 11.429 10.5127Z" fill="#EAE9EC"/>
<path d="M15.885 6.05665C15.833 6.05665 15.781 6.03665 15.745 5.99665L11.681 1.93665C11.601 1.85665 11.601 1.73265 11.681 1.65265C11.761 1.57265 11.885 1.57265 11.965 1.65265L16.025 5.71665C16.105 5.79665 16.105 5.92065 16.025 6.00065C15.985 6.03665 15.933 6.05665 15.885 6.05665Z" fill="#EAE9EC"/>
<path d="M15.549 7.75268C15.497 7.75268 15.445 7.73268 15.409 7.69268L9.98102 2.26868C9.90102 2.18868 9.90102 2.06468 9.98102 1.98468C10.061 1.90468 10.185 1.90468 10.265 1.98468L15.689 7.41268C15.769 7.49268 15.769 7.61668 15.689 7.69668C15.653 7.73268 15.601 7.75268 15.549 7.75268Z" fill="#EAE9EC"/>
<path d="M14.657 8.89265C14.605 8.89265 14.553 8.87265 14.517 8.83265L8.84503 3.16065C8.76503 3.08065 8.76503 2.95665 8.84503 2.87665C8.92503 2.79665 9.04903 2.79665 9.12903 2.87665L14.801 8.54865C14.881 8.62865 14.881 8.75265 14.801 8.83265C14.761 8.87265 14.709 8.89265 14.657 8.89265Z" fill="#EAE9EC"/>
<path d="M13.5169 9.78467C13.4649 9.78467 13.4129 9.76467 13.3769 9.72467L7.95294 4.30066C7.87294 4.22067 7.87294 4.09667 7.95294 4.01667C8.03294 3.93667 8.15694 3.93667 8.23694 4.01667L13.6609 9.44067C13.7409 9.52067 13.7409 9.64467 13.6609 9.72467C13.6209 9.76467 13.5689 9.78467 13.5169 9.78467Z" fill="#EAE9EC"/>
<path d="M11.821 10.1207C11.769 10.1207 11.717 10.1007 11.681 10.0607L7.61701 5.99671C7.53701 5.91671 7.53701 5.79271 7.61701 5.71271C7.69701 5.63271 7.82101 5.63271 7.90101 5.71271L11.965 9.77671C12.045 9.85671 12.045 9.98071 11.965 10.0607C11.925 10.1007 11.873 10.1207 11.821 10.1207Z" fill="#EAE9EC"/>
<path d="M5.42105 13.3047C5.36905 13.3047 5.31705 13.2847 5.28105 13.2447C5.20105 13.1647 5.20105 13.0407 5.28105 12.9607L7.82505 10.4167C7.90505 10.3367 8.02905 10.3367 8.10905 10.4167C8.18905 10.4967 8.18905 10.6207 8.10905 10.7007L5.56505 13.2447C5.52105 13.2847 5.47305 13.3047 5.42105 13.3047ZM4.57305 12.4567C4.52105 12.4567 4.46905 12.4367 4.43305 12.3967C4.35305 12.3167 4.35305 12.1927 4.43305 12.1127L6.97705 9.56867C7.05705 9.48867 7.18105 9.48867 7.26105 9.56867C7.34105 9.64867 7.34105 9.77267 7.26105 9.85267L4.71705 12.3967C4.67305 12.4367 4.62505 12.4567 4.57305 12.4567Z" fill="#EAE9EC"/>
<path d="M1.097 17.6767C0.817 17.6767 0.533 17.5687 0.321 17.3567C-0.107 16.9287 -0.107 16.2287 0.321 15.8007L4.005 12.1167C4.201 11.9207 4.517 11.9207 4.713 12.1167L5.561 12.9647C5.757 13.1607 5.757 13.4767 5.561 13.6727L1.877 17.3567C1.661 17.5727 1.381 17.6767 1.097 17.6767ZM4.361 12.3687C4.337 12.3687 4.309 12.3767 4.289 12.3967L0.605 16.0807C0.333 16.3527 0.333 16.7967 0.605 17.0687C0.877 17.3407 1.321 17.3407 1.593 17.0687L5.277 13.3847C5.301 13.3607 5.305 13.3287 5.305 13.3127C5.305 13.2967 5.301 13.2687 5.277 13.2407L4.429 12.3927C4.413 12.3807 4.385 12.3687 4.361 12.3687Z" fill="#EAE9EC"/>
<path d="M5.35295 11.6767C5.33695 11.6767 5.32495 11.6767 5.30895 11.6727C5.21695 11.6527 5.15295 11.5687 5.15295 11.4767C5.15295 11.4607 5.15295 11.4487 5.15695 11.4327L6.03695 7.5887C6.06095 7.4807 6.16895 7.4127 6.27695 7.4367C6.36895 7.4567 6.43295 7.5407 6.43295 7.6327C6.43295 7.6487 6.43295 7.6607 6.42895 7.6767L5.54895 11.5207C5.52895 11.6127 5.44495 11.6767 5.35295 11.6767Z" fill="#EAE9EC"/>
<path d="M6.20098 12.5247C6.10898 12.5247 6.02898 12.4607 6.00498 12.3687C6.00098 12.3527 6.00098 12.3367 6.00098 12.3247C6.00098 12.2327 6.06498 12.1527 6.15698 12.1287L10.001 11.2487C10.109 11.2247 10.217 11.2927 10.241 11.4007C10.245 11.4167 10.245 11.4327 10.245 11.4447C10.245 11.5367 10.181 11.6167 10.089 11.6407L6.24498 12.5207C6.23298 12.5207 6.21698 12.5247 6.20098 12.5247Z" fill="#EAE9EC"/>
<path d="M2.52901 16.6207C2.47701 16.6207 2.42501 16.6007 2.38901 16.5607L1.11701 15.2887C1.08101 15.2527 1.05701 15.2007 1.05701 15.1487C1.05701 15.0967 1.07701 15.0447 1.11701 15.0087L2.78501 13.3367C2.82101 13.3007 2.87301 13.2767 2.92501 13.2767C2.97701 13.2767 3.02901 13.2967 3.06501 13.3367L4.33701 14.6087C4.41701 14.6887 4.41701 14.8127 4.33701 14.8927L2.66501 16.5647C2.63301 16.6007 2.58101 16.6207 2.52901 16.6207ZM1.54101 15.1487L2.52901 16.1367L3.91701 14.7487L2.92901 13.7607L1.54101 15.1487Z" fill="#EAE9EC"/>
<path d="M8.74504 17.6767C7.47704 17.6767 6.44104 16.6447 6.44104 15.3727C6.44104 14.1007 7.47304 13.0687 8.74504 13.0687C10.013 13.0687 11.049 14.1007 11.049 15.3727C11.049 16.6447 10.017 17.6767 8.74504 17.6767ZM8.74504 13.4727C7.69704 13.4727 6.84104 14.3247 6.84104 15.3767C6.84104 16.4287 7.69304 17.2807 8.74504 17.2807C9.79304 17.2807 10.649 16.4287 10.649 15.3767C10.649 14.3247 9.79304 13.4727 8.74504 13.4727Z" fill="#EAE9EC"/>
<path d="M7.35705 17.1527C7.30105 17.1527 7.24505 17.1287 7.20505 17.0847C7.13305 17.0007 7.14105 16.8767 7.22105 16.8007C7.63305 16.4407 7.86505 15.9167 7.86505 15.3727C7.86505 14.8287 7.62905 14.3047 7.22105 13.9447C7.13705 13.8727 7.12905 13.7447 7.20505 13.6607C7.27705 13.5767 7.40505 13.5687 7.48905 13.6447C7.98505 14.0807 8.26905 14.7127 8.26905 15.3727C8.26905 16.0327 7.98505 16.6647 7.48905 17.1007C7.44905 17.1367 7.40505 17.1527 7.35705 17.1527Z" fill="#EAE9EC"/>
<path d="M10.1329 17.1527C10.0849 17.1527 10.0369 17.1367 10.0009 17.1047C9.50495 16.6687 9.22095 16.0367 9.22095 15.3767C9.22095 14.7167 9.50495 14.0847 10.0009 13.6487C10.0849 13.5767 10.2089 13.5847 10.2849 13.6647C10.3569 13.7487 10.3489 13.8727 10.2689 13.9487C9.85695 14.3087 9.62495 14.8327 9.62495 15.3767C9.62495 15.9207 9.86095 16.4447 10.2689 16.8047C10.3529 16.8767 10.3609 17.0047 10.2849 17.0887C10.2449 17.1287 10.1889 17.1527 10.1329 17.1527Z" fill="#EAE9EC"/>
</svg>
