<svg width="14" height="14" viewBox="0 0 14 14" fill="none" xmlns="http://www.w3.org/2000/svg">
<g clip-path="url(#clip0_139_4924)">
<path d="M7.91343 7.2309V3.8639C7.88743 3.71657 7.82026 3.59524 7.71193 3.4999C7.6036 3.40457 7.4736 3.3569 7.32193 3.3569C7.17026 3.3569 7.04026 3.40457 6.93193 3.4999C6.8236 3.59524 6.75643 3.71657 6.73043 3.8639V7.4649C6.72176 7.63824 6.7781 7.78557 6.89943 7.9069L8.97943 9.9869C9.0921 10.0996 9.23076 10.1559 9.39543 10.1559C9.5601 10.1559 9.69876 10.0996 9.81143 9.9869C9.9241 9.87424 9.98043 9.73557 9.98043 9.5709C9.98043 9.40624 9.9241 9.26757 9.81143 9.1549L7.91343 7.2309ZM7.31543 0.899902C6.43143 0.899902 5.58643 1.0689 4.78043 1.4069C4.0091 1.73624 3.32226 2.20207 2.71993 2.8044C2.1176 3.40674 1.65176 4.09357 1.32243 4.8649C0.98443 5.6709 0.81543 6.5159 0.81543 7.3999C0.81543 8.2839 0.98443 9.1289 1.32243 9.9349C1.65176 10.7062 2.1176 11.3931 2.71993 11.9954C3.32226 12.5977 4.0091 13.0636 4.78043 13.3929C5.58643 13.7309 6.43143 13.8999 7.31543 13.8999C8.19943 13.8999 9.04443 13.7309 9.85043 13.3929C10.6218 13.0636 11.3086 12.5977 11.9109 11.9954C12.5133 11.3931 12.9791 10.7062 13.3084 9.9349C13.6464 9.1289 13.8154 8.2839 13.8154 7.3999C13.8154 6.5159 13.6464 5.6709 13.3084 4.8649C12.9791 4.09357 12.5133 3.40674 11.9109 2.8044C11.3086 2.20207 10.6218 1.73624 9.85043 1.4069C9.04443 1.0689 8.19943 0.899902 7.31543 0.899902ZM12.6194 7.3999C12.6194 8.11057 12.4851 8.7909 12.2164 9.4409C11.9478 10.0909 11.5643 10.6651 11.0659 11.1634C10.5676 11.6617 9.99126 12.0452 9.33693 12.3139C8.6826 12.5826 8.00226 12.7169 7.29593 12.7169C6.5896 12.7169 5.91143 12.5826 5.26143 12.3139C4.61143 12.0452 4.03726 11.6596 3.53893 11.1569C3.0406 10.6542 2.6571 10.0779 2.38843 9.4279C2.11976 8.7779 1.98543 8.09974 1.98543 7.3934C1.98543 6.68707 2.12193 6.00674 2.39493 5.3524C2.66793 4.69807 3.0536 4.1239 3.55193 3.6299C4.05026 3.1359 4.62443 2.75457 5.27443 2.4859C5.92443 2.21724 6.60476 2.0829 7.31543 2.0829C8.27743 2.0829 9.1701 2.32557 9.99343 2.8109C10.7994 3.2789 11.4364 3.9159 11.9044 4.7219C12.3898 5.54524 12.6324 6.4379 12.6324 7.3999H12.6194Z" fill="#706E82"/>
</g>
<defs>
<clipPath id="clip0_139_4924">
<rect width="13" height="13" fill="white" transform="matrix(1 0 0 -1 0.81543 13.8999)"/>
</clipPath>
</defs>
</svg>
