<svg width="61" height="61" viewBox="0 0 61 61" fill="none" xmlns="http://www.w3.org/2000/svg">
<rect x="0.415039" y="0.454102" width="60" height="60" rx="30" fill="#D9F3FF"/>
<path d="M29.8341 36.046C29.2261 36.046 28.6341 35.9873 28.0581 35.87C27.4927 35.7633 26.9754 35.614 26.5061 35.422C26.0474 35.23 25.6581 35.022 25.3381 34.798L26.3941 32.798C26.7461 33.0433 27.1194 33.2567 27.5141 33.438C27.9194 33.6087 28.3407 33.742 28.7781 33.838C29.2154 33.9233 29.6527 33.966 30.0901 33.966C30.5701 33.966 30.9807 33.9127 31.3221 33.806C31.6741 33.6993 31.9407 33.55 32.1221 33.358C32.3141 33.166 32.4101 32.9313 32.4101 32.654C32.4101 32.398 32.3087 32.19 32.1061 32.03C31.9034 31.87 31.6367 31.7367 31.3061 31.63C30.9861 31.5127 30.6287 31.4007 30.2341 31.294C29.8394 31.1873 29.4394 31.0647 29.0341 30.926C28.6394 30.7767 28.2767 30.5953 27.9461 30.382C27.6261 30.158 27.3647 29.8753 27.1621 29.534C26.9594 29.1927 26.8581 28.766 26.8581 28.254C26.8581 27.486 27.0661 26.8193 27.4821 26.254C27.9087 25.6887 28.5061 25.2513 29.2741 24.942C30.0421 24.622 30.9434 24.462 31.9781 24.462C32.7354 24.462 33.4501 24.5473 34.1221 24.718C34.7941 24.878 35.3701 25.1127 35.8501 25.422L34.8741 27.406C34.4474 27.118 33.9727 26.9047 33.4501 26.766C32.9274 26.6167 32.3887 26.542 31.8341 26.542C31.3327 26.542 30.9007 26.6007 30.5381 26.718C30.1861 26.8353 29.9141 27.0007 29.7221 27.214C29.5407 27.4167 29.4501 27.6513 29.4501 27.918C29.4501 28.1847 29.5461 28.4033 29.7381 28.574C29.9407 28.734 30.2074 28.8727 30.5381 28.99C30.8687 29.0967 31.2314 29.2033 31.6261 29.31C32.0207 29.4167 32.4154 29.5393 32.8101 29.678C33.2047 29.8167 33.5674 29.9927 33.8981 30.206C34.2287 30.4193 34.4954 30.6913 34.6981 31.022C34.9007 31.342 35.0021 31.7473 35.0021 32.238C35.0021 33.006 34.7887 33.678 34.3621 34.254C33.9354 34.8193 33.3327 35.262 32.5541 35.582C31.7861 35.8913 30.8794 36.046 29.8341 36.046Z" fill="#292744"/>
</svg>
